<?xml version="1.0" encoding="UTF-8" standalone="no"?>
<!DOCTYPE svg PUBLIC "-//W3C//DTD SVG 1.1//EN"
 "http://www.w3.org/Graphics/SVG/1.1/DTD/svg11.dtd">
<!-- Generated by graphviz version 6.0.2 (20221011.1828)
 -->
<!-- Pages: 1 -->
<svg width="152pt" height="218pt"
 viewBox="0.00 0.00 152.00 218.00" xmlns="http://www.w3.org/2000/svg" xmlns:xlink="http://www.w3.org/1999/xlink">
<g id="graph0" class="graph" transform="scale(1 1) rotate(0) translate(4 214)">
<polygon fill="white" stroke="none" points="-4,4 -4,-214 148,-214 148,4 -4,4"/>
<!-- x0 -->
<g id="node1" class="node">
<title>x0</title>
<ellipse fill="none" stroke="black" cx="27" cy="-192" rx="27" ry="18"/>
<text text-anchor="middle" x="27" y="-188.3" font-family="Times New Roman,serif" font-size="14.00">x0</text>
</g>
<!-- x1 -->
<g id="node2" class="node">
<title>x1</title>
<ellipse fill="none" stroke="black" cx="27" cy="-105" rx="27" ry="18"/>
<text text-anchor="middle" x="27" y="-101.3" font-family="Times New Roman,serif" font-size="14.00">x1</text>
</g>
<!-- x0&#45;&gt;x1 -->
<g id="edge1" class="edge">
<title>x0&#45;&gt;x1</title>
<path fill="none" stroke="black" d="M27,-173.8C27,-162.16 27,-146.55 27,-133.24"/>
<polygon fill="black" stroke="black" points="30.5,-133.18 27,-123.18 23.5,-133.18 30.5,-133.18"/>
<text text-anchor="middle" x="39.5" y="-144.8" font-family="Times New Roman,serif" font-size="14.00">1.00</text>
</g>
<!-- x2 -->
<g id="node3" class="node">
<title>x2</title>
<ellipse fill="none" stroke="black" cx="72" cy="-18" rx="27" ry="18"/>
<text text-anchor="middle" x="72" y="-14.3" font-family="Times New Roman,serif" font-size="14.00">x2</text>
</g>
<!-- x1&#45;&gt;x2 -->
<g id="edge2" class="edge">
<title>x1&#45;&gt;x2</title>
<path fill="none" stroke="black" d="M35.68,-87.61C42.15,-75.38 51.12,-58.44 58.52,-44.46"/>
<polygon fill="black" stroke="black" points="61.76,-45.81 63.35,-35.34 55.58,-42.54 61.76,-45.81"/>
<text text-anchor="middle" x="67.5" y="-57.8" font-family="Times New Roman,serif" font-size="14.00">&#45;1.50</text>
</g>
<!-- x3 -->
<g id="node4" class="node">
<title>x3</title>
<ellipse fill="none" stroke="black" cx="117" cy="-105" rx="27" ry="18"/>
<text text-anchor="middle" x="117" y="-101.3" font-family="Times New Roman,serif" font-size="14.00">x3</text>
</g>
<!-- x1&#45;&gt;x3 -->
<g id="edge4" class="edge">
<title>x1&#45;&gt;x3</title>
<path fill="none" stroke="black" d="M64.16,-105C69.4,-105 74.64,-105 79.88,-105"/>
<polygon fill="black" stroke="black" points="64.07,-101.5 54.07,-105 64.07,-108.5 64.07,-101.5"/>
<polygon fill="black" stroke="black" points="79.96,-108.5 89.96,-105 79.96,-101.5 79.96,-108.5"/>
</g>
<!-- x2&#45;&gt;x3 -->
<g id="edge3" class="edge">
<title>x2&#45;&gt;x3</title>
<path fill="none" stroke="black" d="M80.65,-35.34C87.12,-47.56 96.08,-64.49 103.49,-78.49"/>
<polygon fill="black" stroke="black" points="100.55,-80.41 108.32,-87.61 106.74,-77.14 100.55,-80.41"/>
<text text-anchor="middle" x="109.5" y="-57.8" font-family="Times New Roman,serif" font-size="14.00">1.00</text>
</g>
</g>
</svg>
