<?xml version="1.0" encoding="UTF-8" standalone="no"?>
<!DOCTYPE svg PUBLIC "-//W3C//DTD SVG 1.1//EN"
 "http://www.w3.org/Graphics/SVG/1.1/DTD/svg11.dtd">
<!-- Generated by graphviz version 2.44.1 (20200629.0846)
 -->
<!-- Pages: 1 -->
<svg width="245pt" height="305pt"
 viewBox="0.00 0.00 245.00 305.00" xmlns="http://www.w3.org/2000/svg" xmlns:xlink="http://www.w3.org/1999/xlink">
<g id="graph0" class="graph" transform="scale(1 1) rotate(0) translate(4 301)">
<polygon fill="white" stroke="transparent" points="-4,4 -4,-301 241,-301 241,4 -4,4"/>
<!-- x0 -->
<g id="node1" class="node">
<title>x0</title>
<ellipse fill="none" stroke="black" cx="150" cy="-105" rx="27" ry="18"/>
<text text-anchor="middle" x="150" y="-101.3" font-family="Times New Roman,serif" font-size="14.00">x0</text>
</g>
<!-- x1 -->
<g id="node2" class="node">
<title>x1</title>
<ellipse fill="none" stroke="black" cx="125" cy="-18" rx="27" ry="18"/>
<text text-anchor="middle" x="125" y="-14.3" font-family="Times New Roman,serif" font-size="14.00">x1</text>
</g>
<!-- x0&#45;&gt;x1 -->
<g id="edge2" class="edge">
<title>x0&#45;&gt;x1</title>
<path fill="none" stroke="black" d="M147.44,-86.65C145.78,-76.93 143.31,-64.65 140,-54 139.07,-51 137.97,-47.91 136.79,-44.87"/>
<polygon fill="black" stroke="black" points="139.96,-43.37 132.89,-35.47 133.49,-46.05 139.96,-43.37"/>
<text text-anchor="middle" x="155.5" y="-57.8" font-family="Times New Roman,serif" font-size="14.00">0.50</text>
</g>
<!-- x4 -->
<g id="node5" class="node">
<title>x4</title>
<ellipse fill="none" stroke="black" cx="27" cy="-18" rx="27" ry="18"/>
<text text-anchor="middle" x="27" y="-14.3" font-family="Times New Roman,serif" font-size="14.00">x4</text>
</g>
<!-- x0&#45;&gt;x4 -->
<g id="edge6" class="edge">
<title>x0&#45;&gt;x4</title>
<path fill="none" stroke="black" d="M134.54,-90C120.46,-77.38 100.6,-59.92 92,-54 81.19,-46.56 68.64,-39.48 57.46,-33.65"/>
<polygon fill="black" stroke="black" points="58.96,-30.49 48.46,-29.08 55.79,-36.73 58.96,-30.49"/>
<text text-anchor="middle" x="121.5" y="-57.8" font-family="Times New Roman,serif" font-size="14.00">0.50</text>
</g>
<!-- x5 -->
<g id="node6" class="node">
<title>x5</title>
<ellipse fill="none" stroke="black" cx="210" cy="-18" rx="27" ry="18"/>
<text text-anchor="middle" x="210" y="-14.3" font-family="Times New Roman,serif" font-size="14.00">x5</text>
</g>
<!-- x0&#45;&gt;x5 -->
<g id="edge8" class="edge">
<title>x0&#45;&gt;x5</title>
<path fill="none" stroke="black" d="M161,-88.41C169.97,-75.71 182.78,-57.56 193.05,-43.01"/>
<polygon fill="black" stroke="black" points="196.16,-44.68 199.06,-34.49 190.44,-40.64 196.16,-44.68"/>
<text text-anchor="middle" x="195.5" y="-57.8" font-family="Times New Roman,serif" font-size="14.00">0.50</text>
</g>
<!-- x2 -->
<g id="node3" class="node">
<title>x2</title>
<ellipse fill="none" stroke="black" cx="66" cy="-105" rx="27" ry="18"/>
<text text-anchor="middle" x="66" y="-101.3" font-family="Times New Roman,serif" font-size="14.00">x2</text>
</g>
<!-- x2&#45;&gt;x1 -->
<g id="edge3" class="edge">
<title>x2&#45;&gt;x1</title>
<path fill="none" stroke="black" d="M62.44,-87.16C61.18,-76.91 61.27,-63.92 67,-54 72.72,-44.1 82.46,-36.67 92.35,-31.26"/>
<polygon fill="black" stroke="black" points="93.91,-34.39 101.35,-26.85 90.83,-28.11 93.91,-34.39"/>
<text text-anchor="middle" x="79.5" y="-57.8" font-family="Times New Roman,serif" font-size="14.00">0.50</text>
</g>
<!-- x2&#45;&gt;x4 -->
<g id="edge7" class="edge">
<title>x2&#45;&gt;x4</title>
<path fill="none" stroke="black" d="M43.73,-94.8C32.97,-89.08 21.1,-80.59 15,-69 11.04,-61.48 11.69,-52.63 14.06,-44.48"/>
<polygon fill="black" stroke="black" points="17.37,-45.62 17.62,-35.03 10.82,-43.15 17.37,-45.62"/>
<text text-anchor="middle" x="29.5" y="-57.8" font-family="Times New Roman,serif" font-size="14.00">&#45;0.50</text>
</g>
<!-- x3 -->
<g id="node4" class="node">
<title>x3</title>
<ellipse fill="none" stroke="black" cx="137" cy="-192" rx="27" ry="18"/>
<text text-anchor="middle" x="137" y="-188.3" font-family="Times New Roman,serif" font-size="14.00">x3</text>
</g>
<!-- x3&#45;&gt;x0 -->
<g id="edge1" class="edge">
<title>x3&#45;&gt;x0</title>
<path fill="none" stroke="black" d="M139.63,-173.8C141.41,-162.16 143.8,-146.55 145.83,-133.24"/>
<polygon fill="black" stroke="black" points="149.32,-133.59 147.37,-123.18 142.4,-132.53 149.32,-133.59"/>
<text text-anchor="middle" x="156.5" y="-144.8" font-family="Times New Roman,serif" font-size="14.00">0.50</text>
</g>
<!-- x6 -->
<g id="node7" class="node">
<title>x6</title>
<ellipse fill="none" stroke="black" cx="83" cy="-279" rx="27" ry="18"/>
<text text-anchor="middle" x="83" y="-275.3" font-family="Times New Roman,serif" font-size="14.00">x6</text>
</g>
<!-- x6&#45;&gt;x2 -->
<g id="edge4" class="edge">
<title>x6&#45;&gt;x2</title>
<path fill="none" stroke="black" d="M81.21,-260.96C79.78,-247.2 77.73,-227.36 76,-210 73.41,-184.02 70.58,-154.39 68.59,-133.41"/>
<polygon fill="black" stroke="black" points="72.05,-132.93 67.63,-123.3 65.09,-133.59 72.05,-132.93"/>
<text text-anchor="middle" x="88.5" y="-188.3" font-family="Times New Roman,serif" font-size="14.00">2.00</text>
</g>
<!-- x6&#45;&gt;x3 -->
<g id="edge5" class="edge">
<title>x6&#45;&gt;x3</title>
<path fill="none" stroke="black" d="M93.16,-262.01C101.08,-249.55 112.22,-232.01 121.28,-217.74"/>
<polygon fill="black" stroke="black" points="124.48,-219.23 126.89,-208.92 118.57,-215.48 124.48,-219.23"/>
<text text-anchor="middle" x="125.5" y="-231.8" font-family="Times New Roman,serif" font-size="14.00">2.00</text>
</g>
</g>
</svg>
