<?xml version="1.0" encoding="UTF-8" standalone="no"?>
<!DOCTYPE svg PUBLIC "-//W3C//DTD SVG 1.1//EN"
 "http://www.w3.org/Graphics/SVG/1.1/DTD/svg11.dtd">
<!-- Generated by graphviz version 2.43.0 (0)
 -->
<!-- Title: %3 Pages: 1 -->
<svg width="267pt" height="305pt"
 viewBox="0.00 0.00 267.00 305.00" xmlns="http://www.w3.org/2000/svg" xmlns:xlink="http://www.w3.org/1999/xlink">
<g id="graph0" class="graph" transform="scale(1 1) rotate(0) translate(4 301)">
<title>%3</title>
<polygon fill="white" stroke="transparent" points="-4,4 -4,-301 263,-301 263,4 -4,4"/>
<!-- x0 -->
<g id="node1" class="node">
<title>x0</title>
<ellipse fill="none" stroke="black" cx="174" cy="-105" rx="27" ry="18"/>
<text text-anchor="middle" x="174" y="-101.3" font-family="Times,serif" font-size="14.00">x0</text>
</g>
<!-- x1 -->
<g id="node2" class="node">
<title>x1</title>
<ellipse fill="none" stroke="black" cx="139" cy="-18" rx="27" ry="18"/>
<text text-anchor="middle" x="139" y="-14.3" font-family="Times,serif" font-size="14.00">x1</text>
</g>
<!-- x0&#45;&gt;x1 -->
<g id="edge2" class="edge">
<title>x0&#45;&gt;x1</title>
<path fill="none" stroke="black" d="M167.94,-87.22C164.33,-77.47 159.58,-64.97 155,-54 153.71,-50.92 152.32,-47.7 150.9,-44.53"/>
<polygon fill="black" stroke="black" points="154.03,-42.95 146.71,-35.28 147.65,-45.84 154.03,-42.95"/>
<text text-anchor="middle" x="176" y="-57.8" font-family="Times,serif" font-size="14.00">0.50</text>
</g>
<!-- x4 -->
<g id="node5" class="node">
<title>x4</title>
<ellipse fill="none" stroke="black" cx="27" cy="-18" rx="27" ry="18"/>
<text text-anchor="middle" x="27" y="-14.3" font-family="Times,serif" font-size="14.00">x4</text>
</g>
<!-- x0&#45;&gt;x4 -->
<g id="edge6" class="edge">
<title>x0&#45;&gt;x4</title>
<path fill="none" stroke="black" d="M154.59,-92.32C143.92,-85.73 130.53,-77.19 119,-69 110.23,-62.77 109.13,-59.69 100,-54 86.95,-45.86 71.72,-38.28 58.55,-32.28"/>
<polygon fill="black" stroke="black" points="59.95,-29.07 49.39,-28.19 57.1,-35.46 59.95,-29.07"/>
<text text-anchor="middle" x="135" y="-57.8" font-family="Times,serif" font-size="14.00">0.50</text>
</g>
<!-- x5 -->
<g id="node6" class="node">
<title>x5</title>
<ellipse fill="none" stroke="black" cx="232" cy="-18" rx="27" ry="18"/>
<text text-anchor="middle" x="232" y="-14.3" font-family="Times,serif" font-size="14.00">x5</text>
</g>
<!-- x0&#45;&gt;x5 -->
<g id="edge8" class="edge">
<title>x0&#45;&gt;x5</title>
<path fill="none" stroke="black" d="M184.64,-88.41C193.25,-75.79 205.53,-57.79 215.43,-43.28"/>
<polygon fill="black" stroke="black" points="218.49,-45.01 221.23,-34.78 212.71,-41.07 218.49,-45.01"/>
<text text-anchor="middle" x="222" y="-57.8" font-family="Times,serif" font-size="14.00">0.50</text>
</g>
<!-- x2 -->
<g id="node3" class="node">
<title>x2</title>
<ellipse fill="none" stroke="black" cx="67" cy="-105" rx="27" ry="18"/>
<text text-anchor="middle" x="67" y="-101.3" font-family="Times,serif" font-size="14.00">x2</text>
</g>
<!-- x2&#45;&gt;x1 -->
<g id="edge3" class="edge">
<title>x2&#45;&gt;x1</title>
<path fill="none" stroke="black" d="M63.15,-86.98C61.78,-76.66 61.85,-63.67 68,-54 76.07,-41.31 90.22,-33.07 103.77,-27.8"/>
<polygon fill="black" stroke="black" points="105.12,-31.04 113.43,-24.47 102.84,-24.42 105.12,-31.04"/>
<text text-anchor="middle" x="84" y="-57.8" font-family="Times,serif" font-size="14.00">0.50</text>
</g>
<!-- x2&#45;&gt;x4 -->
<g id="edge7" class="edge">
<title>x2&#45;&gt;x4</title>
<path fill="none" stroke="black" d="M43.16,-96.44C30.29,-91 15.54,-82.25 8,-69 3.41,-60.94 5.29,-51.56 9.3,-43.11"/>
<polygon fill="black" stroke="black" points="12.34,-44.84 14.27,-34.43 6.27,-41.37 12.34,-44.84"/>
<text text-anchor="middle" x="26.5" y="-57.8" font-family="Times,serif" font-size="14.00">&#45;0.50</text>
</g>
<!-- x3 -->
<g id="node4" class="node">
<title>x3</title>
<ellipse fill="none" stroke="black" cx="168" cy="-192" rx="27" ry="18"/>
<text text-anchor="middle" x="168" y="-188.3" font-family="Times,serif" font-size="14.00">x3</text>
</g>
<!-- x3&#45;&gt;x0 -->
<g id="edge1" class="edge">
<title>x3&#45;&gt;x0</title>
<path fill="none" stroke="black" d="M169.21,-173.8C170.04,-162.16 171.14,-146.55 172.08,-133.24"/>
<polygon fill="black" stroke="black" points="175.57,-133.4 172.79,-123.18 168.59,-132.9 175.57,-133.4"/>
<text text-anchor="middle" x="187" y="-144.8" font-family="Times,serif" font-size="14.00">0.50</text>
</g>
<!-- x6 -->
<g id="node7" class="node">
<title>x6</title>
<ellipse fill="none" stroke="black" cx="99" cy="-279" rx="27" ry="18"/>
<text text-anchor="middle" x="99" y="-275.3" font-family="Times,serif" font-size="14.00">x6</text>
</g>
<!-- x6&#45;&gt;x2 -->
<g id="edge4" class="edge">
<title>x6&#45;&gt;x2</title>
<path fill="none" stroke="black" d="M95.81,-260.88C90.26,-231 78.74,-169.11 72.07,-133.27"/>
<polygon fill="black" stroke="black" points="75.44,-132.24 70.17,-123.05 68.56,-133.52 75.44,-132.24"/>
<text text-anchor="middle" x="103" y="-188.3" font-family="Times,serif" font-size="14.00">2.00</text>
</g>
<!-- x6&#45;&gt;x3 -->
<g id="edge5" class="edge">
<title>x6&#45;&gt;x3</title>
<path fill="none" stroke="black" d="M111.34,-262.8C121.93,-249.75 137.37,-230.74 149.45,-215.85"/>
<polygon fill="black" stroke="black" points="152.19,-218.03 155.77,-208.06 146.75,-213.62 152.19,-218.03"/>
<text text-anchor="middle" x="153" y="-231.8" font-family="Times,serif" font-size="14.00">2.00</text>
</g>
</g>
</svg>
