<?xml version="1.0" encoding="UTF-8" standalone="no"?>
<!DOCTYPE svg PUBLIC "-//W3C//DTD SVG 1.1//EN"
 "http://www.w3.org/Graphics/SVG/1.1/DTD/svg11.dtd">
<!-- Generated by graphviz version 2.44.1 (20200629.0846)
 -->
<!-- Pages: 1 -->
<svg width="240pt" height="218pt"
 viewBox="0.00 0.00 240.00 218.00" xmlns="http://www.w3.org/2000/svg" xmlns:xlink="http://www.w3.org/1999/xlink">
<g id="graph0" class="graph" transform="scale(1 1) rotate(0) translate(4 214)">
<polygon fill="white" stroke="transparent" points="-4,4 -4,-214 236,-214 236,4 -4,4"/>
<!-- x0 -->
<g id="node1" class="node">
<title>x0</title>
<ellipse fill="none" stroke="black" cx="157" cy="-105" rx="27" ry="18"/>
<text text-anchor="middle" x="157" y="-101.3" font-family="Times New Roman,serif" font-size="14.00">x0</text>
</g>
<!-- x1 -->
<g id="node2" class="node">
<title>x1</title>
<ellipse fill="none" stroke="black" cx="27" cy="-18" rx="27" ry="18"/>
<text text-anchor="middle" x="27" y="-14.3" font-family="Times New Roman,serif" font-size="14.00">x1</text>
</g>
<!-- x0&#45;&gt;x1 -->
<g id="edge2" class="edge">
<title>x0&#45;&gt;x1</title>
<path fill="none" stroke="black" d="M138.37,-91.82C116.27,-77.37 79.23,-53.15 53.98,-36.64"/>
<polygon fill="black" stroke="black" points="55.88,-33.7 45.59,-31.16 52.05,-39.56 55.88,-33.7"/>
<text text-anchor="middle" x="112.5" y="-57.8" font-family="Times New Roman,serif" font-size="14.00">0.50</text>
</g>
<!-- x4 -->
<g id="node5" class="node">
<title>x4</title>
<ellipse fill="none" stroke="black" cx="122" cy="-18" rx="27" ry="18"/>
<text text-anchor="middle" x="122" y="-14.3" font-family="Times New Roman,serif" font-size="14.00">x4</text>
</g>
<!-- x0&#45;&gt;x4 -->
<g id="edge4" class="edge">
<title>x0&#45;&gt;x4</title>
<path fill="none" stroke="black" d="M150.09,-87.21C145.12,-75.14 138.32,-58.64 132.66,-44.89"/>
<polygon fill="black" stroke="black" points="135.83,-43.38 128.78,-35.47 129.35,-46.05 135.83,-43.38"/>
<text text-anchor="middle" x="153.5" y="-57.8" font-family="Times New Roman,serif" font-size="14.00">0.45</text>
</g>
<!-- x5 -->
<g id="node6" class="node">
<title>x5</title>
<ellipse fill="none" stroke="black" cx="205" cy="-18" rx="27" ry="18"/>
<text text-anchor="middle" x="205" y="-14.3" font-family="Times New Roman,serif" font-size="14.00">x5</text>
</g>
<!-- x0&#45;&gt;x5 -->
<g id="edge6" class="edge">
<title>x0&#45;&gt;x5</title>
<path fill="none" stroke="black" d="M166.03,-88.01C173.02,-75.63 182.84,-58.23 190.88,-44.01"/>
<polygon fill="black" stroke="black" points="193.98,-45.63 195.85,-35.21 187.88,-42.19 193.98,-45.63"/>
<text text-anchor="middle" x="195.5" y="-57.8" font-family="Times New Roman,serif" font-size="14.00">0.48</text>
</g>
<!-- x2 -->
<g id="node3" class="node">
<title>x2</title>
<ellipse fill="none" stroke="black" cx="67" cy="-192" rx="27" ry="18"/>
<text text-anchor="middle" x="67" y="-188.3" font-family="Times New Roman,serif" font-size="14.00">x2</text>
</g>
<!-- x2&#45;&gt;x1 -->
<g id="edge3" class="edge">
<title>x2&#45;&gt;x1</title>
<path fill="none" stroke="black" d="M55.39,-175.49C46.28,-162.29 34.27,-142.45 29,-123 22.14,-97.65 22.43,-67.54 23.96,-46.26"/>
<polygon fill="black" stroke="black" points="27.44,-46.55 24.81,-36.29 20.47,-45.96 27.44,-46.55"/>
<text text-anchor="middle" x="41.5" y="-101.3" font-family="Times New Roman,serif" font-size="14.00">0.49</text>
</g>
<!-- x3 -->
<g id="node4" class="node">
<title>x3</title>
<ellipse fill="none" stroke="black" cx="157" cy="-192" rx="27" ry="18"/>
<text text-anchor="middle" x="157" y="-188.3" font-family="Times New Roman,serif" font-size="14.00">x3</text>
</g>
<!-- x2&#45;&gt;x3 -->
<g id="edge7" class="edge">
<title>x2&#45;&gt;x3</title>
<path fill="none" stroke="black" d="M104.16,-192C109.4,-192 114.64,-192 119.88,-192"/>
<polygon fill="black" stroke="black" points="104.07,-188.5 94.07,-192 104.07,-195.5 104.07,-188.5"/>
<polygon fill="black" stroke="black" points="119.96,-195.5 129.96,-192 119.96,-188.5 119.96,-195.5"/>
</g>
<!-- x2&#45;&gt;x4 -->
<g id="edge5" class="edge">
<title>x2&#45;&gt;x4</title>
<path fill="none" stroke="black" d="M66.83,-173.61C67.22,-146.63 70.66,-93.67 90,-54 92.33,-49.22 95.52,-44.62 98.99,-40.42"/>
<polygon fill="black" stroke="black" points="101.71,-42.64 105.85,-32.89 96.53,-37.92 101.71,-42.64"/>
<text text-anchor="middle" x="92.5" y="-101.3" font-family="Times New Roman,serif" font-size="14.00">&#45;0.45</text>
</g>
<!-- x3&#45;&gt;x0 -->
<g id="edge1" class="edge">
<title>x3&#45;&gt;x0</title>
<path fill="none" stroke="black" d="M157,-173.8C157,-162.16 157,-146.55 157,-133.24"/>
<polygon fill="black" stroke="black" points="160.5,-133.18 157,-123.18 153.5,-133.18 160.5,-133.18"/>
<text text-anchor="middle" x="169.5" y="-144.8" font-family="Times New Roman,serif" font-size="14.00">0.51</text>
</g>
</g>
</svg>
