<?xml version="1.0" encoding="UTF-8" standalone="no"?>
<!DOCTYPE svg PUBLIC "-//W3C//DTD SVG 1.1//EN"
 "http://www.w3.org/Graphics/SVG/1.1/DTD/svg11.dtd">
<!-- Generated by graphviz version 2.43.0 (0)
 -->
<!-- Title: %3 Pages: 1 -->
<svg width="256pt" height="218pt"
 viewBox="0.00 0.00 256.00 218.00" xmlns="http://www.w3.org/2000/svg" xmlns:xlink="http://www.w3.org/1999/xlink">
<g id="graph0" class="graph" transform="scale(1 1) rotate(0) translate(4 214)">
<title>%3</title>
<polygon fill="white" stroke="transparent" points="-4,4 -4,-214 252,-214 252,4 -4,4"/>
<!-- x0 -->
<g id="node1" class="node">
<title>x0</title>
<ellipse fill="none" stroke="black" cx="166" cy="-105" rx="27" ry="18"/>
<text text-anchor="middle" x="166" y="-101.3" font-family="Times,serif" font-size="14.00">x0</text>
</g>
<!-- x1 -->
<g id="node2" class="node">
<title>x1</title>
<ellipse fill="none" stroke="black" cx="27" cy="-18" rx="27" ry="18"/>
<text text-anchor="middle" x="27" y="-14.3" font-family="Times,serif" font-size="14.00">x1</text>
</g>
<!-- x0&#45;&gt;x1 -->
<g id="edge2" class="edge">
<title>x0&#45;&gt;x1</title>
<path fill="none" stroke="black" d="M146.67,-92.18C122.81,-77.59 82.06,-52.67 54.83,-36.02"/>
<polygon fill="black" stroke="black" points="56.52,-32.95 46.16,-30.72 52.87,-38.92 56.52,-32.95"/>
<text text-anchor="middle" x="121" y="-57.8" font-family="Times,serif" font-size="14.00">0.50</text>
</g>
<!-- x4 -->
<g id="node5" class="node">
<title>x4</title>
<ellipse fill="none" stroke="black" cx="132" cy="-18" rx="27" ry="18"/>
<text text-anchor="middle" x="132" y="-14.3" font-family="Times,serif" font-size="14.00">x4</text>
</g>
<!-- x0&#45;&gt;x4 -->
<g id="edge4" class="edge">
<title>x0&#45;&gt;x4</title>
<path fill="none" stroke="black" d="M159.28,-87.21C154.46,-75.14 147.86,-58.64 142.36,-44.89"/>
<polygon fill="black" stroke="black" points="145.55,-43.45 138.59,-35.47 139.05,-46.05 145.55,-43.45"/>
<text text-anchor="middle" x="167" y="-57.8" font-family="Times,serif" font-size="14.00">0.48</text>
</g>
<!-- x5 -->
<g id="node6" class="node">
<title>x5</title>
<ellipse fill="none" stroke="black" cx="221" cy="-18" rx="27" ry="18"/>
<text text-anchor="middle" x="221" y="-14.3" font-family="Times,serif" font-size="14.00">x5</text>
</g>
<!-- x0&#45;&gt;x5 -->
<g id="edge6" class="edge">
<title>x0&#45;&gt;x5</title>
<path fill="none" stroke="black" d="M176.35,-88.01C184.49,-75.43 195.97,-57.68 205.26,-43.33"/>
<polygon fill="black" stroke="black" points="208.21,-45.21 210.7,-34.92 202.33,-41.41 208.21,-45.21"/>
<text text-anchor="middle" x="212" y="-57.8" font-family="Times,serif" font-size="14.00">0.52</text>
</g>
<!-- x2 -->
<g id="node3" class="node">
<title>x2</title>
<ellipse fill="none" stroke="black" cx="76" cy="-192" rx="27" ry="18"/>
<text text-anchor="middle" x="76" y="-188.3" font-family="Times,serif" font-size="14.00">x2</text>
</g>
<!-- x2&#45;&gt;x1 -->
<g id="edge3" class="edge">
<title>x2&#45;&gt;x1</title>
<path fill="none" stroke="black" d="M60.81,-177.04C48.22,-164.36 31.24,-144.4 24,-123 15.53,-97.97 17.72,-67.59 21.15,-46.14"/>
<polygon fill="black" stroke="black" points="24.63,-46.57 22.95,-36.11 17.74,-45.33 24.63,-46.57"/>
<text text-anchor="middle" x="40" y="-101.3" font-family="Times,serif" font-size="14.00">0.50</text>
</g>
<!-- x3 -->
<g id="node4" class="node">
<title>x3</title>
<ellipse fill="none" stroke="black" cx="166" cy="-192" rx="27" ry="18"/>
<text text-anchor="middle" x="166" y="-188.3" font-family="Times,serif" font-size="14.00">x3</text>
</g>
<!-- x2&#45;&gt;x3 -->
<g id="edge7" class="edge">
<title>x2&#45;&gt;x3</title>
<path fill="none" stroke="black" d="M113.16,-192C118.4,-192 123.64,-192 128.88,-192"/>
<polygon fill="black" stroke="black" points="113.07,-188.5 103.07,-192 113.07,-195.5 113.07,-188.5"/>
<polygon fill="black" stroke="black" points="128.96,-195.5 138.96,-192 128.96,-188.5 128.96,-195.5"/>
</g>
<!-- x2&#45;&gt;x4 -->
<g id="edge5" class="edge">
<title>x2&#45;&gt;x4</title>
<path fill="none" stroke="black" d="M74.22,-173.84C72.2,-146.71 71.49,-93 92,-54 95.23,-47.85 100.02,-42.3 105.17,-37.51"/>
<polygon fill="black" stroke="black" points="107.43,-40.19 112.84,-31.08 102.93,-34.83 107.43,-40.19"/>
<text text-anchor="middle" x="98.5" y="-101.3" font-family="Times,serif" font-size="14.00">&#45;0.47</text>
</g>
<!-- x3&#45;&gt;x0 -->
<g id="edge1" class="edge">
<title>x3&#45;&gt;x0</title>
<path fill="none" stroke="black" d="M166,-173.8C166,-162.16 166,-146.55 166,-133.24"/>
<polygon fill="black" stroke="black" points="169.5,-133.18 166,-123.18 162.5,-133.18 169.5,-133.18"/>
<text text-anchor="middle" x="182" y="-144.8" font-family="Times,serif" font-size="14.00">0.51</text>
</g>
</g>
</svg>
