<?xml version="1.0" encoding="UTF-8" standalone="no"?>
<!DOCTYPE svg PUBLIC "-//W3C//DTD SVG 1.1//EN"
 "http://www.w3.org/Graphics/SVG/1.1/DTD/svg11.dtd">
<!-- Generated by graphviz version 2.43.0 (0)
 -->
<!-- Title: graph Pages: 1 -->
<svg width="448pt" height="369pt"
 viewBox="0.00 0.00 448.20 369.00" xmlns="http://www.w3.org/2000/svg" xmlns:xlink="http://www.w3.org/1999/xlink">
<g id="graph0" class="graph" transform="scale(1 1) rotate(0) translate(4 365)">
<title>graph</title>
<polygon fill="white" stroke="transparent" points="-4,4 -4,-365 444.2,-365 444.2,4 -4,4"/>
<g id="clust1" class="cluster">
<title>cluster0</title>
<polygon fill="none" stroke="#000000" stroke-dasharray="5,2" points="0,-144 0,-217 152.2,-217 152.2,-144 0,-144"/>
<text text-anchor="middle" x="30.5" y="-201.8" font-family="Times,serif" font-size="14.00">target</text>
</g>
<g id="clust2" class="cluster">
<title>clusterNone</title>
<polygon fill="none" stroke="#000000" stroke-dasharray="5,2" points="165.6,-144 165.6,-217 317.8,-217 317.8,-144 165.6,-144"/>
<text text-anchor="middle" x="196.6" y="-201.8" font-family="Times,serif" font-size="14.00">others</text>
</g>
<g id="clust3" class="cluster">
<title>cluster1</title>
<polygon fill="none" stroke="#000000" stroke-dasharray="5,2" points="0,0 0,-73 440.2,-73 440.2,0 0,0"/>
<text text-anchor="middle" x="56" y="-57.8" font-family="Times,serif" font-size="14.00">descendant 1</text>
</g>
<g id="clust4" class="cluster">
<title>cluster&#45;1</title>
<polygon fill="none" stroke="#000000" stroke-dasharray="5,2" points="0,-288 0,-361 152.2,-361 152.2,-288 0,-288"/>
<text text-anchor="middle" x="46" y="-345.8" font-family="Times,serif" font-size="14.00">ancestor 1</text>
</g>
<!-- cluster0&#45;0 -->
<g id="node1" class="node">
<title>cluster0&#45;0</title>
<ellipse fill="none" stroke="#000000" cx="108.5" cy="-173.3" rx="27" ry="18"/>
<text text-anchor="middle" x="108.5" y="-169.6" font-family="Times,serif" font-size="14.00">x0</text>
</g>
<!-- cluster1&#45;1 -->
<g id="node7" class="node">
<title>cluster1&#45;1</title>
<ellipse fill="none" stroke="#000000" cx="108.5" cy="-29.3" rx="27" ry="18"/>
<text text-anchor="middle" x="108.5" y="-25.6" font-family="Times,serif" font-size="14.00">x1</text>
</g>
<!-- cluster0&#45;0&#45;&gt;cluster1&#45;1 -->
<g id="edge2" class="edge">
<title>cluster0&#45;0&#45;&gt;cluster1&#45;1</title>
<path fill="none" stroke="#000000" d="M108.5,-155.06C108.5,-130.5 108.5,-86.55 108.5,-57.65"/>
<polygon fill="#000000" stroke="#000000" points="112,-57.39 108.5,-47.39 105,-57.39 112,-57.39"/>
<text text-anchor="middle" x="92.5" y="-104.72" font-family="Times,serif" font-size="14.00">3.00</text>
</g>
<!-- cluster1&#45;4 -->
<g id="node8" class="node">
<title>cluster1&#45;4</title>
<ellipse fill="none" stroke="#000000" cx="252.5" cy="-29.3" rx="27" ry="18"/>
<text text-anchor="middle" x="252.5" y="-25.6" font-family="Times,serif" font-size="14.00">x4</text>
</g>
<!-- cluster0&#45;0&#45;&gt;cluster1&#45;4 -->
<g id="edge5" class="edge">
<title>cluster0&#45;0&#45;&gt;cluster1&#45;4</title>
<path fill="none" stroke="#000000" d="M123.64,-158.16C148.96,-132.84 200.04,-81.76 229.72,-52.08"/>
<polygon fill="#000000" stroke="#000000" points="232.53,-54.21 237.13,-44.67 227.59,-49.27 232.53,-54.21"/>
<text text-anchor="middle" x="164.12" y="-105.48" font-family="Times,serif" font-size="14.00">7.99</text>
</g>
<!-- cluster1&#45;5 -->
<g id="node9" class="node">
<title>cluster1&#45;5</title>
<ellipse fill="none" stroke="#000000" cx="396.5" cy="-29.3" rx="27" ry="18"/>
<text text-anchor="middle" x="396.5" y="-25.6" font-family="Times,serif" font-size="14.00">x5</text>
</g>
<!-- cluster0&#45;0&#45;&gt;cluster1&#45;5 -->
<g id="edge7" class="edge">
<title>cluster0&#45;0&#45;&gt;cluster1&#45;5</title>
<path fill="none" stroke="#000000" d="M130.15,-162.48C180.71,-137.2 306.7,-74.2 365.44,-44.83"/>
<polygon fill="#000000" stroke="#000000" points="367.22,-47.85 374.6,-40.25 364.09,-41.59 367.22,-47.85"/>
<text text-anchor="middle" x="236.67" y="-105.01" font-family="Times,serif" font-size="14.00">4.00</text>
</g>
<!-- cluster0&#45;dummy_upper -->
<!-- cluster0&#45;dummy_lower -->
<!-- clusterNone&#45;2 -->
<g id="node4" class="node">
<title>clusterNone&#45;2</title>
<ellipse fill="none" stroke="#000000" cx="274.1" cy="-173.3" rx="27" ry="18"/>
<text text-anchor="middle" x="274.1" y="-169.6" font-family="Times,serif" font-size="14.00">x2</text>
</g>
<!-- clusterNone&#45;2&#45;&gt;cluster1&#45;1 -->
<g id="edge3" class="edge">
<title>clusterNone&#45;2&#45;&gt;cluster1&#45;1</title>
<path fill="none" stroke="#000000" d="M257.62,-158.97C228.38,-133.54 167.32,-80.44 133.09,-50.69"/>
<polygon fill="#000000" stroke="#000000" points="135.25,-47.93 125.41,-44 130.66,-53.21 135.25,-47.93"/>
<text text-anchor="middle" x="175.51" y="-90.28" font-family="Times,serif" font-size="14.00">2.00</text>
</g>
<!-- clusterNone&#45;2&#45;&gt;cluster1&#45;4 -->
<g id="edge6" class="edge">
<title>clusterNone&#45;2&#45;&gt;cluster1&#45;4</title>
<path fill="none" stroke="#000000" d="M271.41,-155.35C267.72,-130.78 261.07,-86.4 256.71,-57.4"/>
<polygon fill="#000000" stroke="#000000" points="260.17,-56.84 255.23,-47.47 253.25,-57.88 260.17,-56.84"/>
<text text-anchor="middle" x="281.87" y="-105.57" font-family="Times,serif" font-size="14.00">&#45;0.98</text>
</g>
<!-- clusterNone&#45;dummy_upper -->
<!-- clusterNone&#45;dummy_lower -->
<!-- cluster1&#45;dummy_upper -->
<!-- cluster1&#45;dummy_lower -->
<!-- cluster&#45;1&#45;3 -->
<g id="node12" class="node">
<title>cluster&#45;1&#45;3</title>
<ellipse fill="none" stroke="#000000" cx="108.5" cy="-317.3" rx="27" ry="18"/>
<text text-anchor="middle" x="108.5" y="-313.6" font-family="Times,serif" font-size="14.00">x3</text>
</g>
<!-- cluster&#45;1&#45;3&#45;&gt;cluster0&#45;0 -->
<g id="edge1" class="edge">
<title>cluster&#45;1&#45;3&#45;&gt;cluster0&#45;0</title>
<path fill="none" stroke="#000000" d="M108.5,-299.06C108.5,-274.5 108.5,-230.55 108.5,-201.65"/>
<polygon fill="#000000" stroke="#000000" points="112,-201.39 108.5,-191.39 105,-201.39 112,-201.39"/>
<text text-anchor="middle" x="92.5" y="-248.72" font-family="Times,serif" font-size="14.00">3.00</text>
</g>
<!-- cluster&#45;1&#45;3&#45;&gt;clusterNone&#45;2 -->
<g id="edge4" class="edge">
<title>cluster&#45;1&#45;3&#45;&gt;clusterNone&#45;2</title>
<path fill="none" stroke="#000000" d="M124.98,-302.97C154.22,-277.54 215.28,-224.44 249.51,-194.69"/>
<polygon fill="#000000" stroke="#000000" points="251.94,-197.21 257.19,-188 247.35,-191.93 251.94,-197.21"/>
<text text-anchor="middle" x="175.09" y="-249.28" font-family="Times,serif" font-size="14.00">6.00</text>
</g>
<!-- cluster&#45;1&#45;dummy_upper -->
<!-- cluster&#45;1&#45;dummy_lower -->
</g>
</svg>
