<?xml version="1.0" encoding="UTF-8" standalone="no"?>
<!DOCTYPE svg PUBLIC "-//W3C//DTD SVG 1.1//EN"
 "http://www.w3.org/Graphics/SVG/1.1/DTD/svg11.dtd">
<!-- Generated by graphviz version 2.43.0 (0)
 -->
<!-- Title: %3 Pages: 1 -->
<svg width="269pt" height="234pt"
 viewBox="0.00 0.00 269.00 234.00" xmlns="http://www.w3.org/2000/svg" xmlns:xlink="http://www.w3.org/1999/xlink">
<g id="graph0" class="graph" transform="scale(1 1) rotate(0) translate(4 230)">
<title>%3</title>
<polygon fill="white" stroke="transparent" points="-4,4 -4,-230 265,-230 265,4 -4,4"/>
<!-- x0 -->
<g id="node1" class="node">
<title>x0</title>
<ellipse fill="none" stroke="black" cx="160" cy="-113" rx="27" ry="18"/>
<text text-anchor="middle" x="160" y="-109.3" font-family="Times,serif" font-size="14.00">x0</text>
</g>
<!-- x1 -->
<g id="node2" class="node">
<title>x1</title>
<ellipse fill="none" stroke="black" cx="139" cy="-22" rx="27" ry="18"/>
<ellipse fill="none" stroke="black" cx="139" cy="-22" rx="31" ry="22"/>
<text text-anchor="middle" x="139" y="-18.3" font-family="Times,serif" font-size="14.00">x1</text>
</g>
<!-- x0&#45;&gt;x1 -->
<g id="edge2" class="edge">
<title>x0&#45;&gt;x1</title>
<path fill="none" stroke="black" stroke-width="2" d="M160.53,-94.64C160.44,-84.91 159.67,-72.63 157,-62 156.18,-58.75 155.1,-55.43 153.86,-52.18"/>
<polygon fill="black" stroke="black" stroke-width="2" points="156.97,-50.54 149.83,-42.72 150.53,-53.29 156.97,-50.54"/>
<text text-anchor="middle" x="175" y="-65.8" font-family="Times,serif" font-size="14.00">3.00</text>
</g>
<!-- x4 -->
<g id="node5" class="node">
<title>x4</title>
<ellipse fill="none" stroke="black" cx="27" cy="-22" rx="27" ry="18"/>
<text text-anchor="middle" x="27" y="-18.3" font-family="Times,serif" font-size="14.00">x4</text>
</g>
<!-- x0&#45;&gt;x4 -->
<g id="edge5" class="edge">
<title>x0&#45;&gt;x4</title>
<path fill="none" stroke="black" d="M144.56,-97.98C130.5,-85.33 110.64,-67.85 102,-62 88.18,-52.64 71.83,-43.89 57.93,-37.07"/>
<polygon fill="black" stroke="black" points="59.29,-33.84 48.76,-32.67 56.26,-40.15 59.29,-33.84"/>
<text text-anchor="middle" x="135" y="-65.8" font-family="Times,serif" font-size="14.00">7.98</text>
</g>
<!-- x5 -->
<g id="node6" class="node">
<title>x5</title>
<ellipse fill="none" stroke="black" cx="234" cy="-22" rx="27" ry="18"/>
<text text-anchor="middle" x="234" y="-18.3" font-family="Times,serif" font-size="14.00">x5</text>
</g>
<!-- x0&#45;&gt;x5 -->
<g id="edge7" class="edge">
<title>x0&#45;&gt;x5</title>
<path fill="none" stroke="black" d="M175.19,-97.86C181.55,-91.67 188.87,-84.2 195,-77 202.92,-67.7 210.95,-56.88 217.64,-47.37"/>
<polygon fill="black" stroke="black" points="220.56,-49.31 223.38,-39.1 214.8,-45.32 220.56,-49.31"/>
<text text-anchor="middle" x="222" y="-65.8" font-family="Times,serif" font-size="14.00">4.00</text>
</g>
<!-- x2 -->
<g id="node3" class="node">
<title>x2</title>
<ellipse fill="none" stroke="black" cx="69" cy="-113" rx="27" ry="18"/>
<text text-anchor="middle" x="69" y="-109.3" font-family="Times,serif" font-size="14.00">x2</text>
</g>
<!-- x2&#45;&gt;x1 -->
<g id="edge3" class="edge">
<title>x2&#45;&gt;x1</title>
<path fill="none" stroke="black" stroke-width="2" d="M65.34,-95.1C64.04,-84.83 64.13,-71.84 70,-62 77.08,-50.14 89.22,-41.58 101.36,-35.56"/>
<polygon fill="black" stroke="black" stroke-width="2" points="102.87,-38.72 110.57,-31.44 100.01,-32.33 102.87,-38.72"/>
<text text-anchor="middle" x="86" y="-65.8" font-family="Times,serif" font-size="14.00">2.00</text>
</g>
<!-- x2&#45;&gt;x4 -->
<g id="edge6" class="edge">
<title>x2&#45;&gt;x4</title>
<path fill="none" stroke="black" d="M45.16,-104.44C32.29,-99 17.54,-90.25 10,-77 4.82,-67.9 6.89,-57.03 11.08,-47.43"/>
<polygon fill="black" stroke="black" points="14.28,-48.86 15.78,-38.37 8.07,-45.64 14.28,-48.86"/>
<text text-anchor="middle" x="28.5" y="-65.8" font-family="Times,serif" font-size="14.00">&#45;0.99</text>
</g>
<!-- x3 -->
<g id="node4" class="node">
<title>x3</title>
<ellipse fill="none" stroke="black" cx="104" cy="-204" rx="27" ry="18"/>
<ellipse fill="none" stroke="black" cx="104" cy="-204" rx="31" ry="22"/>
<text text-anchor="middle" x="104" y="-200.3" font-family="Times,serif" font-size="14.00">x3</text>
</g>
<!-- x3&#45;&gt;x0 -->
<g id="edge1" class="edge">
<title>x3&#45;&gt;x0</title>
<path fill="none" stroke="black" stroke-width="2" d="M116.15,-183.69C124.44,-170.52 135.48,-152.96 144.42,-138.77"/>
<polygon fill="black" stroke="black" stroke-width="2" points="147.57,-140.33 149.93,-130 141.64,-136.6 147.57,-140.33"/>
<text text-anchor="middle" x="153" y="-152.8" font-family="Times,serif" font-size="14.00">3.01</text>
</g>
<!-- x3&#45;&gt;x2 -->
<g id="edge4" class="edge">
<title>x3&#45;&gt;x2</title>
<path fill="none" stroke="black" stroke-width="2" d="M91.78,-183.65C88.27,-177.53 84.68,-170.63 82,-164 79.04,-156.68 76.58,-148.49 74.63,-140.88"/>
<polygon fill="black" stroke="black" stroke-width="2" points="78,-139.93 72.27,-131.02 71.19,-141.56 78,-139.93"/>
<text text-anchor="middle" x="98" y="-152.8" font-family="Times,serif" font-size="14.00">6.00</text>
</g>
</g>
</svg>
