<?xml version="1.0" encoding="UTF-8" standalone="no"?>
<!DOCTYPE svg PUBLIC "-//W3C//DTD SVG 1.1//EN"
 "http://www.w3.org/Graphics/SVG/1.1/DTD/svg11.dtd">
<!-- Generated by graphviz version 2.43.0 (0)
 -->
<!-- Title: graph Pages: 1 -->
<svg width="592pt" height="513pt"
 viewBox="0.00 0.00 592.20 513.00" xmlns="http://www.w3.org/2000/svg" xmlns:xlink="http://www.w3.org/1999/xlink">
<g id="graph0" class="graph" transform="scale(1 1) rotate(0) translate(4 509)">
<title>graph</title>
<polygon fill="white" stroke="transparent" points="-4,4 -4,-509 588.2,-509 588.2,4 -4,4"/>
<g id="clust1" class="cluster">
<title>cluster0</title>
<polygon fill="none" stroke="#55aaff" stroke-dasharray="5,2" points="0,-216 0,-289 152.2,-289 152.2,-216 0,-216"/>
<text text-anchor="middle" x="30.5" y="-273.8" font-family="Times,serif" font-size="14.00">target</text>
</g>
<g id="clust2" class="cluster">
<title>clusterNone</title>
<polygon fill="none" stroke="#55aaff" stroke-dasharray="5,2" points="165.6,-216 165.6,-289 317.8,-289 317.8,-216 165.6,-216"/>
<text text-anchor="middle" x="196.6" y="-273.8" font-family="Times,serif" font-size="14.00">others</text>
</g>
<g id="clust3" class="cluster">
<title>cluster1</title>
<polygon fill="none" stroke="#aa55ff" stroke-dasharray="5,2" points="0,0 0,-73 584.2,-73 584.2,0 0,0"/>
<text text-anchor="middle" x="56" y="-57.8" font-family="Times,serif" font-size="14.00">descendant 1</text>
</g>
<g id="clust4" class="cluster">
<title>cluster&#45;1</title>
<polygon fill="none" stroke="#00ffff" stroke-dasharray="5,2" points="0,-432 0,-505 152.2,-505 152.2,-432 0,-432"/>
<text text-anchor="middle" x="46" y="-489.8" font-family="Times,serif" font-size="14.00">ancestor 1</text>
</g>
<!-- cluster0&#45;0 -->
<g id="node1" class="node">
<title>cluster0&#45;0</title>
<ellipse fill="none" stroke="#55aaff" cx="108.5" cy="-245.3" rx="27" ry="18"/>
<text text-anchor="middle" x="108.5" y="-241.6" font-family="Times,serif" font-size="14.00">x0</text>
</g>
<!-- cluster1&#45;1 -->
<g id="node7" class="node">
<title>cluster1&#45;1</title>
<ellipse fill="none" stroke="#aa55ff" cx="108.5" cy="-29.3" rx="27" ry="18"/>
<text text-anchor="middle" x="108.5" y="-25.6" font-family="Times,serif" font-size="14.00">x1</text>
</g>
<!-- cluster0&#45;0&#45;&gt;cluster1&#45;1 -->
<g id="edge2" class="edge">
<title>cluster0&#45;0&#45;&gt;cluster1&#45;1</title>
<path fill="none" stroke="#aa55ff" d="M108.5,-227.26C108.5,-189.69 108.5,-102.85 108.5,-57.71"/>
<polygon fill="#aa55ff" stroke="#aa55ff" points="112,-57.45 108.5,-47.45 105,-57.45 112,-57.45"/>
<text text-anchor="middle" x="92.5" y="-140.85" font-family="Times,serif" font-size="14.00">3.00</text>
</g>
<!-- cluster1&#45;4 -->
<g id="node8" class="node">
<title>cluster1&#45;4</title>
<ellipse fill="none" stroke="#aa55ff" cx="324.5" cy="-29.3" rx="27" ry="18"/>
<text text-anchor="middle" x="324.5" y="-25.6" font-family="Times,serif" font-size="14.00">x4</text>
</g>
<!-- cluster0&#45;0&#45;&gt;cluster1&#45;4 -->
<g id="edge5" class="edge">
<title>cluster0&#45;0&#45;&gt;cluster1&#45;4</title>
<path fill="none" stroke="#aa55ff" d="M123.69,-230.11C161.18,-192.62 258.26,-95.54 302.25,-51.55"/>
<polygon fill="#aa55ff" stroke="#aa55ff" points="304.73,-54.02 309.33,-44.47 299.78,-49.07 304.73,-54.02"/>
<text text-anchor="middle" x="200.59" y="-141.01" font-family="Times,serif" font-size="14.00">7.99</text>
</g>
<!-- cluster1&#45;5 -->
<g id="node9" class="node">
<title>cluster1&#45;5</title>
<ellipse fill="none" stroke="#aa55ff" cx="540.5" cy="-29.3" rx="27" ry="18"/>
<text text-anchor="middle" x="540.5" y="-25.6" font-family="Times,serif" font-size="14.00">x5</text>
</g>
<!-- cluster0&#45;0&#45;&gt;cluster1&#45;5 -->
<g id="edge7" class="edge">
<title>cluster0&#45;0&#45;&gt;cluster1&#45;5</title>
<path fill="none" stroke="#aa55ff" d="M130.22,-234.44C201.24,-198.93 426.74,-86.18 509.59,-44.76"/>
<polygon fill="#aa55ff" stroke="#aa55ff" points="511.36,-47.78 518.74,-40.18 508.23,-41.52 511.36,-47.78"/>
<text text-anchor="middle" x="308.78" y="-125.96" font-family="Times,serif" font-size="14.00">4.00</text>
</g>
<!-- cluster0&#45;dummy_upper -->
<!-- cluster0&#45;dummy_lower -->
<!-- clusterNone&#45;2 -->
<g id="node4" class="node">
<title>clusterNone&#45;2</title>
<ellipse fill="none" stroke="#55aaff" cx="274.1" cy="-245.3" rx="27" ry="18"/>
<text text-anchor="middle" x="274.1" y="-241.6" font-family="Times,serif" font-size="14.00">x2</text>
</g>
<!-- clusterNone&#45;2&#45;&gt;cluster1&#45;1 -->
<g id="edge3" class="edge">
<title>clusterNone&#45;2&#45;&gt;cluster1&#45;1</title>
<path fill="none" stroke="#aa55ff" d="M261.65,-229.06C232.75,-191.37 160.97,-97.74 126.95,-53.37"/>
<polygon fill="#aa55ff" stroke="#aa55ff" points="129.73,-51.24 120.87,-45.43 124.17,-55.49 129.73,-51.24"/>
<text text-anchor="middle" x="175.08" y="-125.81" font-family="Times,serif" font-size="14.00">2.00</text>
</g>
<!-- clusterNone&#45;2&#45;&gt;cluster1&#45;4 -->
<g id="edge6" class="edge">
<title>clusterNone&#45;2&#45;&gt;cluster1&#45;4</title>
<path fill="none" stroke="#aa55ff" d="M278.31,-227.26C287.12,-189.52 307.52,-102.05 318.02,-57.09"/>
<polygon fill="#aa55ff" stroke="#aa55ff" points="321.47,-57.67 320.34,-47.14 314.66,-56.08 321.47,-57.67"/>
<text text-anchor="middle" x="280.79" y="-141.12" font-family="Times,serif" font-size="14.00">&#45;0.98</text>
</g>
<!-- clusterNone&#45;dummy_upper -->
<!-- clusterNone&#45;dummy_lower -->
<!-- cluster1&#45;dummy_upper -->
<!-- cluster1&#45;dummy_lower -->
<!-- cluster&#45;1&#45;3 -->
<g id="node12" class="node">
<title>cluster&#45;1&#45;3</title>
<ellipse fill="none" stroke="#00ffff" cx="108.5" cy="-461.3" rx="27" ry="18"/>
<text text-anchor="middle" x="108.5" y="-457.6" font-family="Times,serif" font-size="14.00">x3</text>
</g>
<!-- cluster&#45;1&#45;3&#45;&gt;cluster0&#45;0 -->
<g id="edge1" class="edge">
<title>cluster&#45;1&#45;3&#45;&gt;cluster0&#45;0</title>
<path fill="none" stroke="#55aaff" d="M108.5,-443.26C108.5,-405.69 108.5,-318.85 108.5,-273.71"/>
<polygon fill="#55aaff" stroke="#55aaff" points="112,-273.45 108.5,-263.45 105,-273.45 112,-273.45"/>
<text text-anchor="middle" x="92.5" y="-356.85" font-family="Times,serif" font-size="14.00">3.00</text>
</g>
<!-- cluster&#45;1&#45;3&#45;&gt;clusterNone&#45;2 -->
<g id="edge4" class="edge">
<title>cluster&#45;1&#45;3&#45;&gt;clusterNone&#45;2</title>
<path fill="none" stroke="#55aaff" d="M120.95,-445.06C149.85,-407.37 221.63,-313.74 255.65,-269.37"/>
<polygon fill="#55aaff" stroke="#55aaff" points="258.43,-271.49 261.73,-261.43 252.87,-267.24 258.43,-271.49"/>
<text text-anchor="middle" x="175.52" y="-356.81" font-family="Times,serif" font-size="14.00">6.00</text>
</g>
<!-- cluster&#45;1&#45;dummy_upper -->
<!-- cluster&#45;1&#45;dummy_lower -->
</g>
</svg>
