<?xml version="1.0" encoding="UTF-8" standalone="no"?>
<!DOCTYPE svg PUBLIC "-//W3C//DTD SVG 1.1//EN"
 "http://www.w3.org/Graphics/SVG/1.1/DTD/svg11.dtd">
<!-- Generated by graphviz version 2.43.0 (0)
 -->
<!-- Title: %3 Pages: 1 -->
<svg width="249pt" height="408pt"
 viewBox="0.00 0.00 248.50 408.00" xmlns="http://www.w3.org/2000/svg" xmlns:xlink="http://www.w3.org/1999/xlink">
<g id="graph0" class="graph" transform="scale(1 1) rotate(0) translate(4 404)">
<title>%3</title>
<polygon fill="white" stroke="transparent" points="-4,4 -4,-404 244.5,-404 244.5,4 -4,4"/>
<!-- x0 -->
<g id="node1" class="node">
<title>x0</title>
<ellipse fill="none" stroke="red" cx="99.5" cy="-382" rx="27" ry="18"/>
<text text-anchor="middle" x="99.5" y="-378.3" font-family="Times,serif" font-size="14.00" fill="red">x0</text>
</g>
<!-- x1 -->
<g id="node2" class="node">
<title>x1</title>
<ellipse fill="none" stroke="red" cx="75.5" cy="-291" rx="27" ry="18"/>
<ellipse fill="none" stroke="red" cx="75.5" cy="-291" rx="31" ry="22"/>
<text text-anchor="middle" x="75.5" y="-287.3" font-family="Times,serif" font-size="14.00" fill="red">x1</text>
</g>
<!-- x0&#45;&gt;x1 -->
<g id="edge3" class="edge">
<title>x0&#45;&gt;x1</title>
<path fill="none" stroke="red" stroke-width="2" stroke-dasharray="5,2" d="M94.88,-363.84C91.75,-352.25 87.53,-336.61 83.83,-322.89"/>
<polygon fill="red" stroke="red" stroke-width="2" points="87.11,-321.61 81.13,-312.87 80.35,-323.43 87.11,-321.61"/>
<text text-anchor="middle" x="105.5" y="-334.8" font-family="Times,serif" font-size="14.00" fill="red">3.00</text>
</g>
<!-- x4 -->
<g id="node5" class="node">
<title>x4</title>
<ellipse fill="none" stroke="black" cx="150.5" cy="-18" rx="27" ry="18"/>
<text text-anchor="middle" x="150.5" y="-14.3" font-family="Times,serif" font-size="14.00">x4</text>
</g>
<!-- x0&#45;&gt;x4 -->
<g id="edge7" class="edge">
<title>x0&#45;&gt;x4</title>
<path fill="none" stroke="black" d="M123.42,-373.46C155.51,-361.67 208.5,-335.61 208.5,-292 208.5,-292 208.5,-292 208.5,-104 208.5,-78.67 190.71,-55.32 174.83,-39.53"/>
<polygon fill="black" stroke="black" points="176.96,-36.72 167.28,-32.41 172.16,-41.82 176.96,-36.72"/>
<text text-anchor="middle" x="224.5" y="-192.3" font-family="Times,serif" font-size="14.00">7.98</text>
</g>
<!-- x5 -->
<g id="node6" class="node">
<title>x5</title>
<ellipse fill="none" stroke="black" cx="153.5" cy="-291" rx="27" ry="18"/>
<text text-anchor="middle" x="153.5" y="-287.3" font-family="Times,serif" font-size="14.00">x5</text>
</g>
<!-- x0&#45;&gt;x5 -->
<g id="edge9" class="edge">
<title>x0&#45;&gt;x5</title>
<path fill="none" stroke="black" d="M111.7,-365.7C116.26,-359.7 121.33,-352.68 125.5,-346 131.15,-336.96 136.7,-326.66 141.35,-317.49"/>
<polygon fill="black" stroke="black" points="144.52,-318.96 145.83,-308.44 138.25,-315.85 144.52,-318.96"/>
<text text-anchor="middle" x="149.5" y="-334.8" font-family="Times,serif" font-size="14.00">4.00</text>
</g>
<!-- x1&#45;&gt;x0 -->
<g id="edge1" class="edge">
<title>x1&#45;&gt;x0</title>
<path fill="none" stroke="black" stroke-dasharray="5,2" d="M51.15,-304.74C34.77,-315.1 17.79,-330.48 27.5,-346 35.63,-358.99 50.11,-367.28 63.96,-372.51"/>
<polygon fill="black" stroke="black" points="63.25,-375.96 73.84,-375.81 65.46,-369.32 63.25,-375.96"/>
<text text-anchor="middle" x="52.5" y="-334.8" font-family="Times,serif" font-size="14.00">100.00</text>
</g>
<!-- x3 -->
<g id="node4" class="node">
<title>x3</title>
<ellipse fill="none" stroke="red" cx="41.5" cy="-196" rx="27" ry="18"/>
<ellipse fill="none" stroke="red" cx="41.5" cy="-196" rx="31" ry="22"/>
<text text-anchor="middle" x="41.5" y="-192.3" font-family="Times,serif" font-size="14.00" fill="red">x3</text>
</g>
<!-- x1&#45;&gt;x3 -->
<g id="edge6" class="edge">
<title>x1&#45;&gt;x3</title>
<path fill="none" stroke="black" stroke-dasharray="5,2" d="M57.77,-272.43C52.55,-266.19 47.46,-258.76 44.5,-251 41.79,-243.88 40.5,-235.85 40,-228.2"/>
<polygon fill="black" stroke="black" points="43.5,-228.04 39.74,-218.13 36.5,-228.22 43.5,-228.04"/>
<text text-anchor="middle" x="69.5" y="-239.8" font-family="Times,serif" font-size="14.00">100.00</text>
</g>
<!-- x2 -->
<g id="node3" class="node">
<title>x2</title>
<ellipse fill="none" stroke="red" cx="108.5" cy="-105" rx="27" ry="18"/>
<text text-anchor="middle" x="108.5" y="-101.3" font-family="Times,serif" font-size="14.00" fill="red">x2</text>
</g>
<!-- x2&#45;&gt;x1 -->
<g id="edge4" class="edge">
<title>x2&#45;&gt;x1</title>
<path fill="none" stroke="red" stroke-width="2" stroke-dasharray="5,2" d="M108.8,-123.33C108.84,-150.9 107.13,-206.21 94.5,-251 93.55,-254.36 92.33,-257.79 90.95,-261.14"/>
<polygon fill="red" stroke="red" stroke-width="2" points="87.74,-259.75 86.79,-270.3 94.11,-262.64 87.74,-259.75"/>
<text text-anchor="middle" x="122.5" y="-192.3" font-family="Times,serif" font-size="14.00" fill="red">2.00</text>
</g>
<!-- x2&#45;&gt;x4 -->
<g id="edge8" class="edge">
<title>x2&#45;&gt;x4</title>
<path fill="none" stroke="black" d="M116.6,-87.61C122.64,-75.38 131.01,-58.44 137.92,-44.46"/>
<polygon fill="black" stroke="black" points="141.14,-45.85 142.43,-35.34 134.86,-42.75 141.14,-45.85"/>
<text text-anchor="middle" x="150" y="-57.8" font-family="Times,serif" font-size="14.00">&#45;0.99</text>
</g>
<!-- x3&#45;&gt;x0 -->
<g id="edge2" class="edge">
<title>x3&#45;&gt;x0</title>
<path fill="none" stroke="red" stroke-width="2" stroke-dasharray="5,2" d="M28.1,-216.12C19.18,-230.06 8.26,-249.79 3.5,-269 -1.2,-287.98 -1.1,-293.99 3.5,-313 7.39,-329.03 8.5,-334.68 20.5,-346 32.95,-357.74 49.98,-365.96 65.04,-371.47"/>
<polygon fill="red" stroke="red" stroke-width="2" points="63.99,-374.81 74.59,-374.71 66.24,-368.19 63.99,-374.81"/>
<text text-anchor="middle" x="19.5" y="-287.3" font-family="Times,serif" font-size="14.00" fill="red">3.01</text>
</g>
<!-- x3&#45;&gt;x2 -->
<g id="edge5" class="edge">
<title>x3&#45;&gt;x2</title>
<path fill="none" stroke="red" stroke-width="2" stroke-dasharray="5,2" d="M46.67,-174.16C50,-163.53 55.12,-150.8 62.5,-141 67.43,-134.46 73.88,-128.54 80.4,-123.5"/>
<polygon fill="red" stroke="red" stroke-width="2" points="82.5,-126.3 88.56,-117.61 78.4,-120.62 82.5,-126.3"/>
<text text-anchor="middle" x="78.5" y="-144.8" font-family="Times,serif" font-size="14.00" fill="red">6.00</text>
</g>
</g>
</svg>
