<?xml version="1.0" encoding="UTF-8" standalone="no"?>
<!DOCTYPE svg PUBLIC "-//W3C//DTD SVG 1.1//EN"
 "http://www.w3.org/Graphics/SVG/1.1/DTD/svg11.dtd">
<!-- Generated by graphviz version 2.38.0 (20140413.2041)
 -->
<!-- Title: %3 Pages: 1 -->
<svg width="318pt" height="305pt"
 viewBox="0.00 0.00 318.00 305.00" xmlns="http://www.w3.org/2000/svg" xmlns:xlink="http://www.w3.org/1999/xlink">
<g id="graph0" class="graph" transform="scale(1 1) rotate(0) translate(4 301)">
<title>%3</title>
<polygon fill="white" stroke="none" points="-4,4 -4,-301 314,-301 314,4 -4,4"/>
<!-- x0 -->
<g id="node1" class="node"><title>x0</title>
<ellipse fill="none" stroke="black" cx="84" cy="-192" rx="27" ry="18"/>
<text text-anchor="middle" x="84" y="-188.3" font-family="Times New Roman,serif" font-size="14.00">x0</text>
</g>
<!-- x1 -->
<g id="node2" class="node"><title>x1</title>
<ellipse fill="none" stroke="black" cx="185" cy="-105" rx="27" ry="18"/>
<text text-anchor="middle" x="185" y="-101.3" font-family="Times New Roman,serif" font-size="14.00">x1</text>
</g>
<!-- x0&#45;&gt;x1 -->
<g id="edge2" class="edge"><title>x0&#45;&gt;x1</title>
<path fill="none" stroke="black" d="M92.0157,-174.568C97.817,-163.968 106.473,-150.447 117,-141 120.252,-138.082 138.136,-128.912 154.747,-120.69"/>
<polygon fill="black" stroke="black" points="156.314,-123.82 163.742,-116.266 153.224,-117.539 156.314,-123.82"/>
<text text-anchor="middle" x="129.5" y="-144.8" font-family="Times New Roman,serif" font-size="14.00">3.00</text>
</g>
<!-- x4 -->
<g id="node5" class="node"><title>x4</title>
<ellipse fill="none" stroke="black" cx="113" cy="-105" rx="27" ry="18"/>
<text text-anchor="middle" x="113" y="-101.3" font-family="Times New Roman,serif" font-size="14.00">x4</text>
</g>
<!-- x0&#45;&gt;x4 -->
<g id="edge5" class="edge"><title>x0&#45;&gt;x4</title>
<path fill="none" stroke="black" d="M69.8956,-176.343C61.9715,-166.259 54.8039,-152.639 61,-141 65.5815,-132.394 73.3253,-125.524 81.4568,-120.231"/>
<polygon fill="black" stroke="black" points="83.4096,-123.144 90.3011,-115.097 79.8954,-117.09 83.4096,-123.144"/>
<text text-anchor="middle" x="73.5" y="-144.8" font-family="Times New Roman,serif" font-size="14.00">7.98</text>
</g>
<!-- x5 -->
<g id="node6" class="node"><title>x5</title>
<ellipse fill="none" stroke="black" cx="27" cy="-105" rx="27" ry="18"/>
<text text-anchor="middle" x="27" y="-101.3" font-family="Times New Roman,serif" font-size="14.00">x5</text>
</g>
<!-- x0&#45;&gt;x5 -->
<g id="edge7" class="edge"><title>x0&#45;&gt;x5</title>
<path fill="none" stroke="black" d="M60.793,-182.383C49.1208,-176.757 35.998,-168.165 29,-156 25.1284,-149.27 23.7163,-141.144 23.5183,-133.419"/>
<polygon fill="black" stroke="black" points="27.0205,-133.419 23.8839,-123.3 20.0251,-133.167 27.0205,-133.419"/>
<text text-anchor="middle" x="41.5" y="-144.8" font-family="Times New Roman,serif" font-size="14.00">4.00</text>
</g>
<!-- Y(pred) -->
<g id="node7" class="node"><title>Y(pred)</title>
<ellipse fill="none" stroke="red" cx="185" cy="-18" rx="39.7935" ry="18"/>
<text text-anchor="middle" x="185" y="-14.3" font-family="Times New Roman,serif" font-size="14.00" fill="red">Y(pred)</text>
</g>
<!-- x1&#45;&gt;Y(pred) -->
<g id="edge8" class="edge"><title>x1&#45;&gt;Y(pred)</title>
<path fill="none" stroke="red" stroke-dasharray="5,2" d="M185,-86.799C185,-75.1626 185,-59.5479 185,-46.2368"/>
<polygon fill="red" stroke="red" points="188.5,-46.1754 185,-36.1754 181.5,-46.1755 188.5,-46.1754"/>
<text text-anchor="middle" x="200" y="-57.8" font-family="Times New Roman,serif" font-size="14.00" fill="red">(619)</text>
</g>
<!-- x2 -->
<g id="node3" class="node"><title>x2</title>
<ellipse fill="none" stroke="black" cx="208" cy="-192" rx="27" ry="18"/>
<text text-anchor="middle" x="208" y="-188.3" font-family="Times New Roman,serif" font-size="14.00">x2</text>
</g>
<!-- x2&#45;&gt;x1 -->
<g id="edge3" class="edge"><title>x2&#45;&gt;x1</title>
<path fill="none" stroke="black" d="M203.456,-174.207C200.243,-162.332 195.869,-146.168 192.186,-132.557"/>
<polygon fill="black" stroke="black" points="195.525,-131.497 189.535,-122.758 188.768,-133.325 195.525,-131.497"/>
<text text-anchor="middle" x="209.5" y="-144.8" font-family="Times New Roman,serif" font-size="14.00">2.00</text>
</g>
<!-- x2&#45;&gt;x4 -->
<g id="edge6" class="edge"><title>x2&#45;&gt;x4</title>
<path fill="none" stroke="black" d="M190.051,-178.283C181.346,-171.883 170.879,-163.834 162,-156 152.273,-147.417 142.139,-137.3 133.628,-128.419"/>
<polygon fill="black" stroke="black" points="136.031,-125.866 126.618,-121.003 130.944,-130.675 136.031,-125.866"/>
<text text-anchor="middle" x="176.5" y="-144.8" font-family="Times New Roman,serif" font-size="14.00">&#45;0.99</text>
</g>
<!-- x2&#45;&gt;Y(pred) -->
<g id="edge9" class="edge"><title>x2&#45;&gt;Y(pred)</title>
<path fill="none" stroke="red" stroke-dasharray="5,2" d="M218.115,-175.248C221.294,-169.434 224.392,-162.641 226,-156 232.542,-128.976 247.197,-116.203 219,-54 216.965,-49.5104 214.098,-45.2535 210.884,-41.3555"/>
<polygon fill="red" stroke="red" points="213.323,-38.839 203.95,-33.8988 208.196,-43.6055 213.323,-38.839"/>
<text text-anchor="middle" x="250" y="-101.3" font-family="Times New Roman,serif" font-size="14.00" fill="red">(205)</text>
</g>
<!-- x3 -->
<g id="node4" class="node"><title>x3</title>
<ellipse fill="none" stroke="black" cx="208" cy="-279" rx="27" ry="18"/>
<text text-anchor="middle" x="208" y="-275.3" font-family="Times New Roman,serif" font-size="14.00">x3</text>
</g>
<!-- x3&#45;&gt;x0 -->
<g id="edge1" class="edge"><title>x3&#45;&gt;x0</title>
<path fill="none" stroke="black" d="M189.703,-265.458C168.823,-251.145 134.488,-227.609 110.639,-211.261"/>
<polygon fill="black" stroke="black" points="112.599,-208.361 102.372,-205.593 108.641,-214.134 112.599,-208.361"/>
<text text-anchor="middle" x="165.5" y="-231.8" font-family="Times New Roman,serif" font-size="14.00">3.01</text>
</g>
<!-- x3&#45;&gt;x2 -->
<g id="edge4" class="edge"><title>x3&#45;&gt;x2</title>
<path fill="none" stroke="black" d="M208,-260.799C208,-249.163 208,-233.548 208,-220.237"/>
<polygon fill="black" stroke="black" points="211.5,-220.175 208,-210.175 204.5,-220.175 211.5,-220.175"/>
<text text-anchor="middle" x="220.5" y="-231.8" font-family="Times New Roman,serif" font-size="14.00">6.00</text>
</g>
<!-- x3&#45;&gt;Y(pred) -->
<g id="edge10" class="edge"><title>x3&#45;&gt;Y(pred)</title>
<path fill="none" stroke="red" stroke-dasharray="5,2" d="M222.252,-263.689C227.534,-257.712 233.165,-250.434 237,-243 269.448,-180.099 296.572,-152.185 269,-87 259.703,-65.0213 238.91,-48.0969 220.339,-36.6298"/>
<polygon fill="red" stroke="red" points="221.86,-33.465 211.46,-31.4406 218.328,-39.5084 221.86,-33.465"/>
<text text-anchor="middle" x="295" y="-144.8" font-family="Times New Roman,serif" font-size="14.00" fill="red">(310)</text>
</g>
<!-- x4&#45;&gt;Y(pred) -->
<g id="edge11" class="edge"><title>x4&#45;&gt;Y(pred)</title>
<path fill="none" stroke="red" stroke-dasharray="5,2" d="M124.174,-88.303C131.508,-78.2561 141.472,-65.076 151,-54 154.434,-50.0082 158.204,-45.8915 161.946,-41.9459"/>
<polygon fill="red" stroke="red" points="164.57,-44.2672 169.009,-34.647 159.54,-39.3994 164.57,-44.2672"/>
<text text-anchor="middle" x="166" y="-57.8" font-family="Times New Roman,serif" font-size="14.00" fill="red">(957)</text>
</g>
<!-- x5&#45;&gt;Y(pred) -->
<g id="edge12" class="edge"><title>x5&#45;&gt;Y(pred)</title>
<path fill="none" stroke="red" stroke-dasharray="5,2" d="M44.8326,-91.1898C60.1121,-80.5173 82.9259,-65.292 104,-54 117.365,-46.8389 132.503,-39.9833 146.046,-34.2675"/>
<polygon fill="red" stroke="red" points="147.678,-37.3798 155.577,-30.3188 144.999,-30.9129 147.678,-37.3798"/>
<text text-anchor="middle" x="119" y="-57.8" font-family="Times New Roman,serif" font-size="14.00" fill="red">(909)</text>
</g>
</g>
</svg>
