<?xml version="1.0" encoding="UTF-8" standalone="no"?>
<!DOCTYPE svg PUBLIC "-//W3C//DTD SVG 1.1//EN"
 "http://www.w3.org/Graphics/SVG/1.1/DTD/svg11.dtd">
<!-- Generated by graphviz version 2.38.0 (20140413.2041)
 -->
<!-- Title: %3 Pages: 1 -->
<svg width="265pt" height="291pt"
 viewBox="0.00 0.00 264.52 291.00" xmlns="http://www.w3.org/2000/svg" xmlns:xlink="http://www.w3.org/1999/xlink">
<g id="graph0" class="graph" transform="scale(1 1) rotate(0) translate(4 287)">
<title>%3</title>
<polygon fill="white" stroke="none" points="-4,4 -4,-287 260.519,-287 260.519,4 -4,4"/>
<!-- x0 -->
<g id="node1" class="node"><title>x0</title>
<ellipse fill="none" stroke="black" cx="80" cy="-178" rx="27" ry="18"/>
<text text-anchor="middle" x="80" y="-174.3" font-family="Times New Roman,serif" font-size="14.00">x0</text>
</g>
<!-- x1 -->
<g id="node2" class="node"><title>x1</title>
<ellipse fill="none" stroke="black" cx="189" cy="-91" rx="27" ry="18"/>
<text text-anchor="middle" x="189" y="-87.3" font-family="Times New Roman,serif" font-size="14.00">x1</text>
</g>
<!-- x0&#45;&gt;x1 -->
<g id="edge2" class="edge"><title>x0&#45;&gt;x1</title>
<path fill="none" stroke="black" d="M89.3782,-161.024C96.2552,-150.353 106.391,-136.571 118,-127 119.826,-125.495 140.238,-115.478 158.709,-106.545"/>
<polygon fill="black" stroke="black" points="160.32,-109.653 167.806,-102.156 157.279,-103.349 160.32,-109.653"/>
<text text-anchor="middle" x="130.5" y="-130.8" font-family="Times New Roman,serif" font-size="14.00">3.00</text>
</g>
<!-- x4 -->
<g id="node5" class="node"><title>x4</title>
<ellipse fill="none" stroke="black" cx="117" cy="-91" rx="27" ry="18"/>
<text text-anchor="middle" x="117" y="-87.3" font-family="Times New Roman,serif" font-size="14.00">x4</text>
</g>
<!-- x0&#45;&gt;x4 -->
<g id="edge5" class="edge"><title>x0&#45;&gt;x4</title>
<path fill="none" stroke="black" d="M65.659,-162.212C57.6293,-152.07 50.4327,-138.434 57,-127 62.9463,-116.647 73.2665,-109.068 83.6885,-103.664"/>
<polygon fill="black" stroke="black" points="85.1622,-106.839 92.7661,-99.4611 82.221,-100.487 85.1622,-106.839"/>
<text text-anchor="middle" x="69.5" y="-130.8" font-family="Times New Roman,serif" font-size="14.00">7.98</text>
</g>
<!-- x5 -->
<g id="node6" class="node"><title>x5</title>
<ellipse fill="none" stroke="black" cx="27" cy="-91" rx="27" ry="18"/>
<text text-anchor="middle" x="27" y="-87.3" font-family="Times New Roman,serif" font-size="14.00">x5</text>
</g>
<!-- x0&#45;&gt;x5 -->
<g id="edge7" class="edge"><title>x0&#45;&gt;x5</title>
<path fill="none" stroke="black" d="M56.8815,-168.627C45.0805,-163.037 31.8079,-154.402 25,-142 21.1631,-135.01 20.3345,-126.606 20.8503,-118.699"/>
<polygon fill="black" stroke="black" points="24.3243,-119.125 22.1628,-108.753 17.3845,-118.209 24.3243,-119.125"/>
<text text-anchor="middle" x="37.5" y="-130.8" font-family="Times New Roman,serif" font-size="14.00">4.00</text>
</g>
<!-- Target -->
<g id="node7" class="node"><title>Target</title>
<ellipse fill="none" stroke="#0000ff" cx="189" cy="-18" rx="34.394" ry="18"/>
<text text-anchor="middle" x="189" y="-14.3" font-family="Times New Roman,serif" font-size="14.00" fill="#0000ff">Target</text>
</g>
<!-- x1&#45;&gt;Target -->
<g id="edge8" class="edge"><title>x1&#45;&gt;Target</title>
<path fill="none" stroke="#0000ff" stroke-dasharray="5,2" d="M189,-72.8129C189,-64.7895 189,-55.0475 189,-46.0691"/>
<polygon fill="#0000ff" stroke="#0000ff" points="192.5,-46.0288 189,-36.0288 185.5,-46.0289 192.5,-46.0288"/>
</g>
<!-- x2 -->
<g id="node3" class="node"><title>x2</title>
<ellipse fill="none" stroke="black" cx="204" cy="-178" rx="27" ry="18"/>
<text text-anchor="middle" x="204" y="-174.3" font-family="Times New Roman,serif" font-size="14.00">x2</text>
</g>
<!-- x2&#45;&gt;x1 -->
<g id="edge3" class="edge"><title>x2&#45;&gt;x1</title>
<path fill="none" stroke="black" d="M200.965,-159.799C198.911,-148.163 196.156,-132.548 193.806,-119.237"/>
<polygon fill="black" stroke="black" points="197.216,-118.415 192.031,-109.175 190.322,-119.632 197.216,-118.415"/>
<text text-anchor="middle" x="209.5" y="-130.8" font-family="Times New Roman,serif" font-size="14.00">2.00</text>
</g>
<!-- x2&#45;&gt;x4 -->
<g id="edge6" class="edge"><title>x2&#45;&gt;x4</title>
<path fill="none" stroke="black" d="M187.172,-163.897C179.299,-157.538 169.932,-149.636 162,-142 153.239,-133.567 144.161,-123.722 136.472,-115.009"/>
<polygon fill="black" stroke="black" points="139.055,-112.646 129.851,-107.398 133.774,-117.24 139.055,-112.646"/>
<text text-anchor="middle" x="176.5" y="-130.8" font-family="Times New Roman,serif" font-size="14.00">&#45;0.99</text>
</g>
<!-- x2&#45;&gt;Target -->
<g id="edge9" class="edge"><title>x2&#45;&gt;Target</title>
<path fill="none" stroke="#0000ff" stroke-dasharray="5,2" d="M216.105,-161.878C220.068,-156.02 223.973,-149.034 226,-142 229.518,-129.793 236.21,-108.824 225,-73 221.634,-62.2434 215.402,-51.6482 209.058,-42.7305"/>
<polygon fill="#0000ff" stroke="#0000ff" points="211.848,-40.6176 203.03,-34.7441 206.261,-44.8345 211.848,-40.6176"/>
</g>
<!-- x3 -->
<g id="node4" class="node"><title>x3</title>
<ellipse fill="none" stroke="black" cx="204" cy="-265" rx="27" ry="18"/>
<text text-anchor="middle" x="204" y="-261.3" font-family="Times New Roman,serif" font-size="14.00">x3</text>
</g>
<!-- x3&#45;&gt;x0 -->
<g id="edge1" class="edge"><title>x3&#45;&gt;x0</title>
<path fill="none" stroke="black" d="M185.703,-251.458C164.823,-237.145 130.488,-213.609 106.639,-197.261"/>
<polygon fill="black" stroke="black" points="108.599,-194.361 98.3717,-191.593 104.641,-200.134 108.599,-194.361"/>
<text text-anchor="middle" x="161.5" y="-217.8" font-family="Times New Roman,serif" font-size="14.00">3.01</text>
</g>
<!-- x3&#45;&gt;x2 -->
<g id="edge4" class="edge"><title>x3&#45;&gt;x2</title>
<path fill="none" stroke="black" d="M204,-246.799C204,-235.163 204,-219.548 204,-206.237"/>
<polygon fill="black" stroke="black" points="207.5,-206.175 204,-196.175 200.5,-206.175 207.5,-206.175"/>
<text text-anchor="middle" x="216.5" y="-217.8" font-family="Times New Roman,serif" font-size="14.00">6.00</text>
</g>
<!-- x3&#45;&gt;Target -->
<g id="edge10" class="edge"><title>x3&#45;&gt;Target</title>
<path fill="none" stroke="#0000ff" stroke-dasharray="5,2" d="M218.45,-249.789C223.76,-243.825 229.358,-236.53 233,-229 263.237,-166.479 261.303,-139.712 242,-73 238.072,-59.4253 228.086,-47.7236 217.827,-38.7179"/>
<polygon fill="#0000ff" stroke="#0000ff" points="219.991,-35.9661 210.025,-32.3704 215.573,-41.3962 219.991,-35.9661"/>
</g>
<!-- x4&#45;&gt;Target -->
<g id="edge11" class="edge"><title>x4&#45;&gt;Target</title>
<path fill="none" stroke="#0000ff" stroke-dasharray="5,2" d="M131.57,-75.6321C141.453,-65.887 154.722,-52.8014 166.017,-41.6639"/>
<polygon fill="#0000ff" stroke="#0000ff" points="168.792,-43.8431 173.455,-34.3294 163.877,-38.8588 168.792,-43.8431"/>
</g>
<!-- x5&#45;&gt;Target -->
<g id="edge12" class="edge"><title>x5&#45;&gt;Target</title>
<path fill="none" stroke="#0000ff" stroke-dasharray="5,2" d="M49.1857,-80.2766C76.2007,-68.4368 122.153,-48.2973 153.965,-34.3548"/>
<polygon fill="#0000ff" stroke="#0000ff" points="155.593,-37.4626 163.347,-30.2428 152.783,-31.0513 155.593,-37.4626"/>
</g>
</g>
</svg>
