<?xml version="1.0" encoding="UTF-8" standalone="no"?>
<!DOCTYPE svg PUBLIC "-//W3C//DTD SVG 1.1//EN"
 "http://www.w3.org/Graphics/SVG/1.1/DTD/svg11.dtd">
<!-- Generated by graphviz version 2.43.0 (0)
 -->
<!-- Title: graph Pages: 1 -->
<svg width="758pt" height="236pt"
 viewBox="0.00 0.00 757.80 236.28" xmlns="http://www.w3.org/2000/svg" xmlns:xlink="http://www.w3.org/1999/xlink">
<g id="graph0" class="graph" transform="scale(1 1) rotate(0) translate(4 232.28)">
<title>graph</title>
<polygon fill="white" stroke="transparent" points="-4,4 -4,-232.28 753.8,-232.28 753.8,4 -4,4"/>
<g id="clust1" class="cluster">
<title>cluster0</title>
<polygon fill="none" stroke="#000000" stroke-dasharray="5,2" points="0,-11.28 0,-84.28 152.2,-84.28 152.2,-11.28 0,-11.28"/>
<text text-anchor="middle" x="30.5" y="-69.08" font-family="Times,serif" font-size="14.00">target</text>
</g>
<g id="clust2" class="cluster">
<title>clusterNone</title>
<polygon fill="none" stroke="#000000" stroke-dasharray="5,2" points="165.6,-11.28 165.6,-84.28 749.8,-84.28 749.8,-11.28 165.6,-11.28"/>
<text text-anchor="middle" x="196.6" y="-69.08" font-family="Times,serif" font-size="14.00">others</text>
</g>
<g id="clust3" class="cluster">
<title>cluster&#45;1</title>
<polygon fill="none" stroke="#000000" stroke-dasharray="5,2" points="0,-155.28 0,-228.28 152.2,-228.28 152.2,-155.28 0,-155.28"/>
<text text-anchor="middle" x="46" y="-213.08" font-family="Times,serif" font-size="14.00">ancestor 1</text>
</g>
<!-- cluster0&#45;0 -->
<g id="node1" class="node">
<title>cluster0&#45;0</title>
<ellipse fill="none" stroke="#000000" cx="108.5" cy="-40.58" rx="27" ry="18"/>
<text text-anchor="middle" x="108.5" y="-36.88" font-family="Times,serif" font-size="14.00">x0</text>
</g>
<!-- clusterNone&#45;1 -->
<g id="node4" class="node">
<title>clusterNone&#45;1</title>
<ellipse fill="none" stroke="#000000" cx="274.1" cy="-40.58" rx="27" ry="18"/>
<text text-anchor="middle" x="274.1" y="-36.88" font-family="Times,serif" font-size="14.00">x1</text>
</g>
<!-- cluster0&#45;0&#45;&gt;clusterNone&#45;1 -->
<g id="edge2" class="edge">
<title>cluster0&#45;0&#45;&gt;clusterNone&#45;1</title>
<path fill="none" stroke="#000000" d="M135.85,-40.58C163.37,-40.58 206.04,-40.58 236.69,-40.58"/>
<polygon fill="#000000" stroke="#000000" points="236.99,-44.08 246.99,-40.58 236.99,-37.08 236.99,-44.08"/>
<text text-anchor="middle" x="175.41" y="-44.38" font-family="Times,serif" font-size="14.00">3.00</text>
</g>
<!-- clusterNone&#45;4 -->
<g id="node6" class="node">
<title>clusterNone&#45;4</title>
<ellipse fill="none" stroke="#000000" cx="562.1" cy="-40.58" rx="27" ry="18"/>
<text text-anchor="middle" x="562.1" y="-36.88" font-family="Times,serif" font-size="14.00">x4</text>
</g>
<!-- cluster0&#45;0&#45;&gt;clusterNone&#45;4 -->
<g id="edge5" class="edge">
<title>cluster0&#45;0&#45;&gt;clusterNone&#45;4</title>
<path fill="none" stroke="#000000" d="M135.07,-44.71C167.69,-49.54 224.76,-57.27 274,-60.18 337.86,-63.95 354.11,-64.5 417.94,-60.18 454.86,-57.68 496.74,-51.62 525.81,-46.9"/>
<polygon fill="#000000" stroke="#000000" points="526.61,-50.31 535.9,-45.23 525.47,-43.41 526.61,-50.31"/>
<text text-anchor="middle" x="319.12" y="-66.88" font-family="Times,serif" font-size="14.00">7.98</text>
</g>
<!-- clusterNone&#45;5 -->
<g id="node7" class="node">
<title>clusterNone&#45;5</title>
<ellipse fill="none" stroke="#000000" cx="706.1" cy="-40.58" rx="27" ry="18"/>
<text text-anchor="middle" x="706.1" y="-36.88" font-family="Times,serif" font-size="14.00">x5</text>
</g>
<!-- cluster0&#45;0&#45;&gt;clusterNone&#45;5 -->
<g id="edge7" class="edge">
<title>cluster0&#45;0&#45;&gt;clusterNone&#45;5</title>
<path fill="none" stroke="#000000" d="M134.82,-36.5C167.43,-31.66 224.75,-23.89 274.2,-20.98 401.93,-13.45 434.44,-12.33 562.1,-20.98 598.98,-23.48 640.81,-29.54 669.85,-34.26"/>
<polygon fill="#000000" stroke="#000000" points="669.49,-37.75 679.93,-35.93 670.64,-30.85 669.49,-37.75"/>
<text text-anchor="middle" x="391.36" y="-3.8" font-family="Times,serif" font-size="14.00">4.00</text>
</g>
<!-- cluster0&#45;dummy_upper -->
<!-- cluster0&#45;dummy_lower -->
<!-- clusterNone&#45;2 -->
<g id="node5" class="node">
<title>clusterNone&#45;2</title>
<ellipse fill="none" stroke="#000000" cx="418.1" cy="-40.58" rx="27" ry="18"/>
<text text-anchor="middle" x="418.1" y="-36.88" font-family="Times,serif" font-size="14.00">x2</text>
</g>
<!-- clusterNone&#45;2&#45;&gt;clusterNone&#45;1 -->
<g id="edge3" class="edge">
<title>clusterNone&#45;2&#45;&gt;clusterNone&#45;1</title>
<path fill="none" stroke="#000000" d="M391.01,-40.58C368.63,-40.58 336.6,-40.58 311.73,-40.58"/>
<polygon fill="#000000" stroke="#000000" points="311.55,-37.08 301.55,-40.58 311.55,-44.08 311.55,-37.08"/>
<text text-anchor="middle" x="330.42" y="-44.38" font-family="Times,serif" font-size="14.00">2.00</text>
</g>
<!-- clusterNone&#45;2&#45;&gt;clusterNone&#45;4 -->
<g id="edge6" class="edge">
<title>clusterNone&#45;2&#45;&gt;clusterNone&#45;4</title>
<path fill="none" stroke="#000000" d="M445.19,-40.58C467.57,-40.58 499.6,-40.58 524.47,-40.58"/>
<polygon fill="#000000" stroke="#000000" points="524.65,-44.08 534.65,-40.58 524.65,-37.08 524.65,-44.08"/>
<text text-anchor="middle" x="471.28" y="-44.38" font-family="Times,serif" font-size="14.00">&#45;0.99</text>
</g>
<!-- clusterNone&#45;dummy_upper -->
<!-- clusterNone&#45;dummy_lower -->
<!-- cluster&#45;1&#45;3 -->
<g id="node10" class="node">
<title>cluster&#45;1&#45;3</title>
<ellipse fill="none" stroke="#000000" cx="108.5" cy="-184.58" rx="27" ry="18"/>
<text text-anchor="middle" x="108.5" y="-180.88" font-family="Times,serif" font-size="14.00">x3</text>
</g>
<!-- cluster&#45;1&#45;3&#45;&gt;cluster0&#45;0 -->
<g id="edge1" class="edge">
<title>cluster&#45;1&#45;3&#45;&gt;cluster0&#45;0</title>
<path fill="none" stroke="#000000" d="M108.5,-166.34C108.5,-141.78 108.5,-97.83 108.5,-68.93"/>
<polygon fill="#000000" stroke="#000000" points="112,-68.67 108.5,-58.67 105,-68.67 112,-68.67"/>
<text text-anchor="middle" x="92.5" y="-116" font-family="Times,serif" font-size="14.00">3.01</text>
</g>
<!-- cluster&#45;1&#45;3&#45;&gt;clusterNone&#45;2 -->
<g id="edge4" class="edge">
<title>cluster&#45;1&#45;3&#45;&gt;clusterNone&#45;2</title>
<path fill="none" stroke="#000000" d="M130.77,-174.22C184.86,-149.07 323.34,-84.65 386.2,-55.41"/>
<polygon fill="#000000" stroke="#000000" points="388.03,-58.43 395.62,-51.04 385.08,-52.08 388.03,-58.43"/>
<text text-anchor="middle" x="247.28" y="-116.39" font-family="Times,serif" font-size="14.00">6.00</text>
</g>
<!-- cluster&#45;1&#45;dummy_upper -->
<!-- cluster&#45;1&#45;dummy_lower -->
</g>
</svg>
