<?xml version="1.0" encoding="UTF-8" standalone="no"?>
<!DOCTYPE svg PUBLIC "-//W3C//DTD SVG 1.1//EN"
 "http://www.w3.org/Graphics/SVG/1.1/DTD/svg11.dtd">
<!-- Generated by graphviz version 2.38.0 (20140413.2041)
 -->
<!-- Title: %3 Pages: 1 -->
<svg width="245pt" height="218pt"
 viewBox="0.00 0.00 245.00 218.00" xmlns="http://www.w3.org/2000/svg" xmlns:xlink="http://www.w3.org/1999/xlink">
<g id="graph0" class="graph" transform="scale(1 1) rotate(0) translate(4 214)">
<title>%3</title>
<polygon fill="white" stroke="none" points="-4,4 -4,-214 241,-214 241,4 -4,4"/>
<!-- x0 -->
<g id="node1" class="node"><title>x0</title>
<ellipse fill="none" stroke="black" cx="150" cy="-105" rx="27" ry="18"/>
<text text-anchor="middle" x="150" y="-101.3" font-family="Times New Roman,serif" font-size="14.00">x0</text>
</g>
<!-- x1 -->
<g id="node2" class="node"><title>x1</title>
<ellipse fill="none" stroke="black" cx="125" cy="-18" rx="27" ry="18"/>
<text text-anchor="middle" x="125" y="-14.3" font-family="Times New Roman,serif" font-size="14.00">x1</text>
</g>
<!-- x0&#45;&gt;x1 -->
<g id="edge2" class="edge"><title>x0&#45;&gt;x1</title>
<path fill="none" stroke="black" d="M147.442,-86.6548C145.783,-76.931 143.308,-64.6521 140,-54 139.069,-51.0031 137.968,-47.9142 136.791,-44.8705"/>
<polygon fill="black" stroke="black" points="139.956,-43.3657 132.892,-35.4693 133.49,-46.0472 139.956,-43.3657"/>
<text text-anchor="middle" x="155.5" y="-57.8" font-family="Times New Roman,serif" font-size="14.00">3.00</text>
</g>
<!-- x4 -->
<g id="node5" class="node"><title>x4</title>
<ellipse fill="none" stroke="black" cx="27" cy="-18" rx="27" ry="18"/>
<text text-anchor="middle" x="27" y="-14.3" font-family="Times New Roman,serif" font-size="14.00">x4</text>
</g>
<!-- x0&#45;&gt;x4 -->
<g id="edge5" class="edge"><title>x0&#45;&gt;x4</title>
<path fill="none" stroke="black" d="M134.544,-90.005C120.464,-77.3813 100.597,-59.916 92,-54 81.194,-46.5643 68.6395,-39.4801 57.4616,-33.6547"/>
<polygon fill="black" stroke="black" points="58.9644,-30.4924 48.4645,-29.0773 55.7902,-36.7313 58.9644,-30.4924"/>
<text text-anchor="middle" x="121.5" y="-57.8" font-family="Times New Roman,serif" font-size="14.00">7.98</text>
</g>
<!-- x5 -->
<g id="node6" class="node"><title>x5</title>
<ellipse fill="none" stroke="black" cx="210" cy="-18" rx="27" ry="18"/>
<text text-anchor="middle" x="210" y="-14.3" font-family="Times New Roman,serif" font-size="14.00">x5</text>
</g>
<!-- x0&#45;&gt;x5 -->
<g id="edge7" class="edge"><title>x0&#45;&gt;x5</title>
<path fill="none" stroke="black" d="M161.005,-88.4097C169.97,-75.709 182.78,-57.5615 193.053,-43.0079"/>
<polygon fill="black" stroke="black" points="196.157,-44.6796 199.065,-34.4915 190.439,-40.6428 196.157,-44.6796"/>
<text text-anchor="middle" x="195.5" y="-57.8" font-family="Times New Roman,serif" font-size="14.00">4.00</text>
</g>
<!-- x2 -->
<g id="node3" class="node"><title>x2</title>
<ellipse fill="none" stroke="black" cx="66" cy="-105" rx="27" ry="18"/>
<text text-anchor="middle" x="66" y="-101.3" font-family="Times New Roman,serif" font-size="14.00">x2</text>
</g>
<!-- x2&#45;&gt;x1 -->
<g id="edge3" class="edge"><title>x2&#45;&gt;x1</title>
<path fill="none" stroke="black" d="M62.441,-87.1561C61.1798,-76.9067 61.2665,-63.9233 67,-54 72.721,-44.0984 82.4634,-36.6692 92.347,-31.2627"/>
<polygon fill="black" stroke="black" points="93.9103,-34.3944 101.352,-26.8534 90.8319,-28.1076 93.9103,-34.3944"/>
<text text-anchor="middle" x="79.5" y="-57.8" font-family="Times New Roman,serif" font-size="14.00">2.00</text>
</g>
<!-- x2&#45;&gt;x4 -->
<g id="edge6" class="edge"><title>x2&#45;&gt;x4</title>
<path fill="none" stroke="black" d="M43.7256,-94.7988C32.9729,-89.0846 21.1041,-80.5923 15,-69 11.0376,-61.4751 11.6861,-52.6266 14.0624,-44.4816"/>
<polygon fill="black" stroke="black" points="17.3723,-45.6237 17.6242,-35.0319 10.8221,-43.1548 17.3723,-45.6237"/>
<text text-anchor="middle" x="29.5" y="-57.8" font-family="Times New Roman,serif" font-size="14.00">&#45;0.99</text>
</g>
<!-- x3 -->
<g id="node4" class="node"><title>x3</title>
<ellipse fill="none" stroke="black" cx="112" cy="-192" rx="27" ry="18"/>
<text text-anchor="middle" x="112" y="-188.3" font-family="Times New Roman,serif" font-size="14.00">x3</text>
</g>
<!-- x3&#45;&gt;x0 -->
<g id="edge1" class="edge"><title>x3&#45;&gt;x0</title>
<path fill="none" stroke="black" d="M119.327,-174.611C124.741,-162.499 132.221,-145.768 138.439,-131.86"/>
<polygon fill="black" stroke="black" points="141.81,-132.896 142.696,-122.339 135.419,-130.039 141.81,-132.896"/>
<text text-anchor="middle" x="145.5" y="-144.8" font-family="Times New Roman,serif" font-size="14.00">3.01</text>
</g>
<!-- x3&#45;&gt;x2 -->
<g id="edge4" class="edge"><title>x3&#45;&gt;x2</title>
<path fill="none" stroke="black" d="M103.131,-174.611C96.47,-162.303 87.2279,-145.226 79.6308,-131.187"/>
<polygon fill="black" stroke="black" points="82.5237,-129.179 74.686,-122.05 76.3674,-132.511 82.5237,-129.179"/>
<text text-anchor="middle" x="103.5" y="-144.8" font-family="Times New Roman,serif" font-size="14.00">6.00</text>
</g>
</g>
</svg>
