<?xml version="1.0" encoding="UTF-8" standalone="no"?>
<!DOCTYPE svg PUBLIC "-//W3C//DTD SVG 1.1//EN"
 "http://www.w3.org/Graphics/SVG/1.1/DTD/svg11.dtd">
<!-- Generated by graphviz version 2.43.0 (0)
 -->
<!-- Title: graph Pages: 1 -->
<svg width="160pt" height="225pt"
 viewBox="0.00 0.00 160.20 225.00" xmlns="http://www.w3.org/2000/svg" xmlns:xlink="http://www.w3.org/1999/xlink">
<g id="graph0" class="graph" transform="scale(1 1) rotate(0) translate(4 221)">
<title>graph</title>
<polygon fill="white" stroke="transparent" points="-4,4 -4,-221 156.2,-221 156.2,4 -4,4"/>
<g id="clust1" class="cluster">
<title>cluster0</title>
<polygon fill="none" stroke="#000000" stroke-dasharray="5,2" points="0,0 0,-73 152.2,-73 152.2,0 0,0"/>
<text text-anchor="middle" x="30.5" y="-57.8" font-family="Times,serif" font-size="14.00">target</text>
</g>
<g id="clust2" class="cluster">
<title>cluster&#45;1</title>
<polygon fill="none" stroke="#000000" stroke-dasharray="5,2" points="0,-144 0,-217 152.2,-217 152.2,-144 0,-144"/>
<text text-anchor="middle" x="46" y="-201.8" font-family="Times,serif" font-size="14.00">ancestor 1</text>
</g>
<!-- cluster0&#45;0 -->
<g id="node1" class="node">
<title>cluster0&#45;0</title>
<ellipse fill="none" stroke="#000000" cx="108.5" cy="-29.3" rx="27" ry="18"/>
<text text-anchor="middle" x="108.5" y="-25.6" font-family="Times,serif" font-size="14.00">x0</text>
</g>
<!-- cluster0&#45;dummy_upper -->
<!-- cluster0&#45;dummy_lower -->
<!-- cluster&#45;1&#45;3 -->
<g id="node4" class="node">
<title>cluster&#45;1&#45;3</title>
<ellipse fill="none" stroke="#000000" cx="108.5" cy="-173.3" rx="27" ry="18"/>
<text text-anchor="middle" x="108.5" y="-169.6" font-family="Times,serif" font-size="14.00">x3</text>
</g>
<!-- cluster&#45;1&#45;3&#45;&gt;cluster0&#45;0 -->
<g id="edge1" class="edge">
<title>cluster&#45;1&#45;3&#45;&gt;cluster0&#45;0</title>
<path fill="none" stroke="#000000" d="M108.5,-155.06C108.5,-130.5 108.5,-86.55 108.5,-57.65"/>
<polygon fill="#000000" stroke="#000000" points="112,-57.39 108.5,-47.39 105,-57.39 112,-57.39"/>
<text text-anchor="middle" x="92.5" y="-104.72" font-family="Times,serif" font-size="14.00">3.01</text>
</g>
<!-- cluster&#45;1&#45;dummy_upper -->
<!-- cluster&#45;1&#45;dummy_lower -->
</g>
</svg>
