<?xml version="1.0" encoding="UTF-8" standalone="no"?>
<!DOCTYPE svg PUBLIC "-//W3C//DTD SVG 1.1//EN"
 "http://www.w3.org/Graphics/SVG/1.1/DTD/svg11.dtd">
<!-- Generated by graphviz version 6.0.2 (20221011.1828)
 -->
<!-- Pages: 1 -->
<svg width="194pt" height="305pt"
 viewBox="0.00 0.00 194.00 305.00" xmlns="http://www.w3.org/2000/svg" xmlns:xlink="http://www.w3.org/1999/xlink">
<g id="graph0" class="graph" transform="scale(1 1) rotate(0) translate(4 301)">
<polygon fill="white" stroke="none" points="-4,4 -4,-301 190,-301 190,4 -4,4"/>
<!-- x0 -->
<g id="node1" class="node">
<title>x0</title>
<ellipse fill="none" stroke="black" cx="27" cy="-192" rx="27" ry="18"/>
<text text-anchor="middle" x="27" y="-188.3" font-family="Times New Roman,serif" font-size="14.00">x0</text>
</g>
<!-- x2 -->
<g id="node3" class="node">
<title>x2</title>
<ellipse fill="none" stroke="black" cx="63" cy="-105" rx="27" ry="18"/>
<text text-anchor="middle" x="63" y="-101.3" font-family="Times New Roman,serif" font-size="14.00">x2</text>
</g>
<!-- x0&#45;&gt;x2 -->
<g id="edge3" class="edge">
<title>x0&#45;&gt;x2</title>
<path fill="none" stroke="black" d="M31.48,-174.01C34.3,-164.18 38.3,-151.68 43,-141 44.45,-137.7 46.13,-134.3 47.89,-130.99"/>
<polygon fill="black" stroke="black" points="51.08,-132.45 52.91,-122.01 44.97,-129.03 51.08,-132.45"/>
<text text-anchor="middle" x="57.5" y="-144.8" font-family="Times New Roman,serif" font-size="14.00">&#45;0.90</text>
</g>
<!-- x1 -->
<g id="node2" class="node">
<title>x1</title>
<ellipse fill="none" stroke="black" cx="99" cy="-192" rx="27" ry="18"/>
<text text-anchor="middle" x="99" y="-188.3" font-family="Times New Roman,serif" font-size="14.00">x1</text>
</g>
<!-- x1&#45;&gt;x2 -->
<g id="edge4" class="edge">
<title>x1&#45;&gt;x2</title>
<path fill="none" stroke="black" d="M91.89,-174.21C86.78,-162.14 79.79,-145.64 73.97,-131.89"/>
<polygon fill="black" stroke="black" points="77.1,-130.31 69.98,-122.47 70.65,-133.04 77.1,-130.31"/>
<text text-anchor="middle" x="97.5" y="-144.8" font-family="Times New Roman,serif" font-size="14.00">&#45;0.83</text>
</g>
<!-- x3 -->
<g id="node4" class="node">
<title>x3</title>
<ellipse fill="none" stroke="black" cx="68" cy="-18" rx="27" ry="18"/>
<text text-anchor="middle" x="68" y="-14.3" font-family="Times New Roman,serif" font-size="14.00">x3</text>
</g>
<!-- x2&#45;&gt;x3 -->
<g id="edge5" class="edge">
<title>x2&#45;&gt;x3</title>
<path fill="none" stroke="black" d="M45.73,-90.67C35.4,-80.96 25.29,-67.25 31,-54 33.46,-48.28 37.38,-43.05 41.75,-38.49"/>
<polygon fill="black" stroke="black" points="44.4,-40.8 49.38,-31.45 39.65,-35.66 44.4,-40.8"/>
<text text-anchor="middle" x="45.5" y="-57.8" font-family="Times New Roman,serif" font-size="14.00">&#45;0.67</text>
</g>
<!-- x4 -->
<g id="node5" class="node">
<title>x4</title>
<ellipse fill="none" stroke="black" cx="159" cy="-18" rx="27" ry="18"/>
<text text-anchor="middle" x="159" y="-14.3" font-family="Times New Roman,serif" font-size="14.00">x4</text>
</g>
<!-- x2&#45;&gt;x4 -->
<g id="edge7" class="edge">
<title>x2&#45;&gt;x4</title>
<path fill="none" stroke="black" d="M64.86,-86.93C66.82,-76.34 70.82,-63.07 79,-54 85.7,-46.57 106.76,-37.5 125.59,-30.45"/>
<polygon fill="black" stroke="black" points="126.95,-33.68 135.14,-26.97 124.55,-27.11 126.95,-33.68"/>
<text text-anchor="middle" x="91.5" y="-57.8" font-family="Times New Roman,serif" font-size="14.00">0.64</text>
</g>
<!-- f0 -->
<g id="node6" class="node">
<title>f0</title>
<ellipse fill="none" stroke="black" cx="63" cy="-279" rx="27" ry="18"/>
<text text-anchor="middle" x="63" y="-275.3" font-family="Times New Roman,serif" font-size="14.00">f0</text>
</g>
<!-- f0&#45;&gt;x0 -->
<g id="edge1" class="edge">
<title>f0&#45;&gt;x0</title>
<path fill="none" stroke="black" d="M54.74,-261.76C51.86,-255.9 48.68,-249.2 46,-243 42.72,-235.41 39.43,-227.06 36.52,-219.39"/>
<polygon fill="black" stroke="black" points="39.73,-217.97 32.97,-209.82 33.17,-220.41 39.73,-217.97"/>
<text text-anchor="middle" x="58.5" y="-231.8" font-family="Times New Roman,serif" font-size="14.00">0.50</text>
</g>
<!-- f0&#45;&gt;x1 -->
<g id="edge2" class="edge">
<title>f0&#45;&gt;x1</title>
<path fill="none" stroke="black" d="M70.11,-261.21C75.22,-249.14 82.21,-232.64 88.03,-218.89"/>
<polygon fill="black" stroke="black" points="91.35,-220.04 92.02,-209.47 84.9,-217.31 91.35,-220.04"/>
<text text-anchor="middle" x="97.5" y="-231.8" font-family="Times New Roman,serif" font-size="14.00">&#45;0.50</text>
</g>
<!-- f1 -->
<g id="node7" class="node">
<title>f1</title>
<ellipse fill="none" stroke="black" cx="149" cy="-105" rx="27" ry="18"/>
<text text-anchor="middle" x="149" y="-101.3" font-family="Times New Roman,serif" font-size="14.00">f1</text>
</g>
<!-- f1&#45;&gt;x3 -->
<g id="edge6" class="edge">
<title>f1&#45;&gt;x3</title>
<path fill="none" stroke="black" d="M137.42,-88.57C129.53,-78.39 118.62,-64.97 108,-54 103.08,-48.92 97.53,-43.75 92.16,-39"/>
<polygon fill="black" stroke="black" points="94.37,-36.28 84.51,-32.38 89.79,-41.57 94.37,-36.28"/>
<text text-anchor="middle" x="133.5" y="-57.8" font-family="Times New Roman,serif" font-size="14.00">0.97</text>
</g>
<!-- f1&#45;&gt;x4 -->
<g id="edge8" class="edge">
<title>f1&#45;&gt;x4</title>
<path fill="none" stroke="black" d="M152.89,-86.99C154.06,-81.3 155.24,-74.9 156,-69 156.94,-61.7 157.59,-53.76 158.04,-46.4"/>
<polygon fill="black" stroke="black" points="161.54,-46.34 158.55,-36.18 154.55,-45.99 161.54,-46.34"/>
<text text-anchor="middle" x="169.5" y="-57.8" font-family="Times New Roman,serif" font-size="14.00">0.88</text>
</g>
</g>
</svg>
