<?xml version="1.0" encoding="UTF-8" standalone="no"?>
<!DOCTYPE svg PUBLIC "-//W3C//DTD SVG 1.1//EN"
 "http://www.w3.org/Graphics/SVG/1.1/DTD/svg11.dtd">
<!-- Generated by graphviz version 12.2.1 (20241206.2353)
 -->
<!-- Pages: 1 -->
<svg width="162pt" height="487pt"
 viewBox="0.00 0.00 162.05 486.50" xmlns="http://www.w3.org/2000/svg" xmlns:xlink="http://www.w3.org/1999/xlink">
<g id="graph0" class="graph" transform="scale(1 1) rotate(0) translate(4 482.5)">
<polygon fill="white" stroke="none" points="-4,4 -4,-482.5 158.05,-482.5 158.05,4 -4,4"/>
<!-- x0 -->
<g id="node1" class="node">
<title>x0</title>
<ellipse fill="none" stroke="black" cx="95.05" cy="-460.5" rx="27" ry="18"/>
<text text-anchor="middle" x="95.05" y="-455.45" font-family="Times New Roman,serif" font-size="14.00">x0</text>
</g>
<!-- x1 -->
<g id="node2" class="node">
<title>x1</title>
<ellipse fill="none" stroke="black" cx="64.05" cy="-372" rx="27" ry="18"/>
<text text-anchor="middle" x="64.05" y="-366.95" font-family="Times New Roman,serif" font-size="14.00">x1</text>
</g>
<!-- x0&#45;&gt;x1 -->
<g id="edge1" class="edge">
<title>x0&#45;&gt;x1</title>
<path fill="none" stroke="black" d="M89.07,-442.82C84.77,-430.81 78.87,-414.34 73.88,-400.41"/>
<polygon fill="black" stroke="black" points="77.3,-399.58 70.63,-391.35 70.71,-401.94 77.3,-399.58"/>
<text text-anchor="middle" x="94.33" y="-411.2" font-family="Times New Roman,serif" font-size="14.00">2.00</text>
</g>
<!-- x4 -->
<g id="node5" class="node">
<title>x4</title>
<ellipse fill="none" stroke="black" cx="127.05" cy="-106.5" rx="27" ry="18"/>
<text text-anchor="middle" x="127.05" y="-101.45" font-family="Times New Roman,serif" font-size="14.00">x4</text>
</g>
<!-- x0&#45;&gt;x4 -->
<g id="edge5" class="edge">
<title>x0&#45;&gt;x4</title>
<path fill="none" stroke="black" d="M105,-443.26C114.39,-426.35 127.05,-398.78 127.05,-373 127.05,-373 127.05,-373 127.05,-194 127.05,-174.67 127.05,-152.9 127.05,-136.04"/>
<polygon fill="black" stroke="black" points="130.55,-136.25 127.05,-126.25 123.55,-136.25 130.55,-136.25"/>
<text text-anchor="middle" x="139.05" y="-278.45" font-family="Times New Roman,serif" font-size="14.00">1.50</text>
</g>
<!-- x2 -->
<g id="node3" class="node">
<title>x2</title>
<ellipse fill="none" stroke="black" cx="64.05" cy="-283.5" rx="27" ry="18"/>
<text text-anchor="middle" x="64.05" y="-278.45" font-family="Times New Roman,serif" font-size="14.00">x2</text>
</g>
<!-- x1&#45;&gt;x2 -->
<g id="edge2" class="edge">
<title>x1&#45;&gt;x2</title>
<path fill="none" stroke="black" d="M64.05,-353.91C64.05,-342.26 64.05,-326.55 64.05,-313.02"/>
<polygon fill="black" stroke="black" points="67.55,-313.36 64.05,-303.36 60.55,-313.36 67.55,-313.36"/>
<text text-anchor="middle" x="76.05" y="-322.7" font-family="Times New Roman,serif" font-size="14.00">0.50</text>
</g>
<!-- x3 -->
<g id="node4" class="node">
<title>x3</title>
<ellipse fill="none" stroke="black" cx="56.05" cy="-195" rx="27" ry="18"/>
<text text-anchor="middle" x="56.05" y="-189.95" font-family="Times New Roman,serif" font-size="14.00">x3</text>
</g>
<!-- x1&#45;&gt;x3 -->
<g id="edge3" class="edge">
<title>x1&#45;&gt;x3</title>
<path fill="none" stroke="black" d="M47.14,-357.65C32.58,-344.99 12.61,-324.51 4.05,-301.5 -1.53,-286.5 -1,-280.68 4.05,-265.5 9.87,-248.01 22,-231.37 33.08,-218.76"/>
<polygon fill="black" stroke="black" points="35.62,-221.16 39.83,-211.44 30.48,-216.42 35.62,-221.16"/>
<text text-anchor="middle" x="16.05" y="-278.45" font-family="Times New Roman,serif" font-size="14.00">0.30</text>
</g>
<!-- x2&#45;&gt;x3 -->
<g id="edge4" class="edge">
<title>x2&#45;&gt;x3</title>
<path fill="none" stroke="black" d="M62.47,-265.41C61.39,-253.76 59.94,-238.05 58.69,-224.52"/>
<polygon fill="black" stroke="black" points="62.2,-224.49 57.8,-214.86 55.23,-225.14 62.2,-224.49"/>
<text text-anchor="middle" x="72.77" y="-234.2" font-family="Times New Roman,serif" font-size="14.00">0.70</text>
</g>
<!-- x3&#45;&gt;x4 -->
<g id="edge6" class="edge">
<title>x3&#45;&gt;x4</title>
<path fill="none" stroke="black" d="M64.89,-177.95C71.03,-167.41 79.77,-153.56 89.05,-142.5 93.09,-137.69 97.76,-132.89 102.41,-128.46"/>
<polygon fill="black" stroke="black" points="104.49,-131.31 109.52,-121.98 99.77,-126.13 104.49,-131.31"/>
<text text-anchor="middle" x="101.05" y="-145.7" font-family="Times New Roman,serif" font-size="14.00">0.80</text>
</g>
<!-- x5 -->
<g id="node6" class="node">
<title>x5</title>
<ellipse fill="none" stroke="black" cx="69.05" cy="-18" rx="27" ry="18"/>
<text text-anchor="middle" x="69.05" y="-12.95" font-family="Times New Roman,serif" font-size="14.00">x5</text>
</g>
<!-- x3&#45;&gt;x5 -->
<g id="edge7" class="edge">
<title>x3&#45;&gt;x5</title>
<path fill="none" stroke="black" d="M56.94,-176.81C58.06,-155.92 60.14,-119.6 62.55,-88.5 63.6,-75.04 64.96,-60.13 66.17,-47.59"/>
<polygon fill="black" stroke="black" points="69.63,-48.21 67.12,-37.92 62.66,-47.53 69.63,-48.21"/>
<text text-anchor="middle" x="76.8" y="-101.45" font-family="Times New Roman,serif" font-size="14.00">&#45;0.60</text>
</g>
<!-- x4&#45;&gt;x5 -->
<g id="edge8" class="edge">
<title>x4&#45;&gt;x5</title>
<path fill="none" stroke="black" d="M116.41,-89.63C107.91,-76.95 95.83,-58.94 86,-44.27"/>
<polygon fill="black" stroke="black" points="88.94,-42.38 80.47,-36.02 83.13,-46.28 88.94,-42.38"/>
<text text-anchor="middle" x="117.5" y="-57.2" font-family="Times New Roman,serif" font-size="14.00">&#45;0.50</text>
</g>
</g>
</svg>
