<?xml version="1.0" encoding="UTF-8" standalone="no"?>
<!DOCTYPE svg PUBLIC "-//W3C//DTD SVG 1.1//EN"
 "http://www.w3.org/Graphics/SVG/1.1/DTD/svg11.dtd">
<!-- Generated by graphviz version 12.2.1 (20241206.2353)
 -->
<!-- Pages: 1 -->
<svg width="267pt" height="398pt"
 viewBox="0.00 0.00 267.00 398.00" xmlns="http://www.w3.org/2000/svg" xmlns:xlink="http://www.w3.org/1999/xlink">
<g id="graph0" class="graph" transform="scale(1 1) rotate(0) translate(4 394)">
<polygon fill="white" stroke="none" points="-4,4 -4,-394 263,-394 263,4 -4,4"/>
<!-- x0 -->
<g id="node1" class="node">
<title>x0</title>
<ellipse fill="none" stroke="black" cx="103" cy="-372" rx="27" ry="18"/>
<text text-anchor="middle" x="103" y="-366.95" font-family="Times New Roman,serif" font-size="14.00">x0</text>
</g>
<!-- x1 -->
<g id="node2" class="node">
<title>x1</title>
<ellipse fill="none" stroke="black" cx="103" cy="-283.5" rx="27" ry="18"/>
<text text-anchor="middle" x="103" y="-278.45" font-family="Times New Roman,serif" font-size="14.00">x1</text>
</g>
<!-- x0&#45;&gt;x1 -->
<g id="edge1" class="edge">
<title>x0&#45;&gt;x1</title>
<path fill="none" stroke="black" d="M103,-353.91C103,-342.26 103,-326.55 103,-313.02"/>
<polygon fill="black" stroke="black" points="106.5,-313.36 103,-303.36 99.5,-313.36 106.5,-313.36"/>
<text text-anchor="middle" x="115" y="-322.7" font-family="Times New Roman,serif" font-size="14.00">0.10</text>
</g>
<!-- x3 -->
<g id="node4" class="node">
<title>x3</title>
<ellipse fill="none" stroke="black" cx="232" cy="-106.5" rx="27" ry="18"/>
<text text-anchor="middle" x="232" y="-101.45" font-family="Times New Roman,serif" font-size="14.00">x3</text>
</g>
<!-- x0&#45;&gt;x3 -->
<g id="edge5" class="edge">
<title>x0&#45;&gt;x3</title>
<path fill="none" stroke="black" d="M117.75,-356.83C149.6,-325.07 224.01,-244.25 250,-159 252.54,-150.65 250.93,-141.65 247.81,-133.53"/>
<polygon fill="black" stroke="black" points="250.99,-132.07 243.54,-124.54 244.67,-135.07 250.99,-132.07"/>
<text text-anchor="middle" x="228.43" y="-234.2" font-family="Times New Roman,serif" font-size="14.00">0.41</text>
</g>
<!-- x4 -->
<g id="node5" class="node">
<title>x4</title>
<ellipse fill="none" stroke="black" cx="98" cy="-18" rx="27" ry="18"/>
<text text-anchor="middle" x="98" y="-12.95" font-family="Times New Roman,serif" font-size="14.00">x4</text>
</g>
<!-- x0&#45;&gt;x4 -->
<g id="edge7" class="edge">
<title>x0&#45;&gt;x4</title>
<path fill="none" stroke="black" d="M79.11,-362.98C48.68,-351.07 0,-325.6 0,-284.5 0,-284.5 0,-284.5 0,-105.5 0,-70.29 36.01,-45.98 64.37,-32.3"/>
<polygon fill="black" stroke="black" points="65.74,-35.52 73.4,-28.2 62.84,-29.15 65.74,-35.52"/>
<text text-anchor="middle" x="12" y="-189.95" font-family="Times New Roman,serif" font-size="14.00">0.10</text>
</g>
<!-- x2 -->
<g id="node3" class="node">
<title>x2</title>
<ellipse fill="none" stroke="black" cx="155" cy="-195" rx="27" ry="18"/>
<text text-anchor="middle" x="155" y="-189.95" font-family="Times New Roman,serif" font-size="14.00">x2</text>
</g>
<!-- x1&#45;&gt;x2 -->
<g id="edge2" class="edge">
<title>x1&#45;&gt;x2</title>
<path fill="none" stroke="black" d="M112.78,-266.23C120.26,-253.79 130.73,-236.38 139.36,-222.01"/>
<polygon fill="black" stroke="black" points="142.33,-223.87 144.48,-213.49 136.33,-220.26 142.33,-223.87"/>
<text text-anchor="middle" x="145.66" y="-234.2" font-family="Times New Roman,serif" font-size="14.00">0.26</text>
</g>
<!-- x1&#45;&gt;x4 -->
<g id="edge8" class="edge">
<title>x1&#45;&gt;x4</title>
<path fill="none" stroke="black" d="M100.99,-265.35C98.3,-241.53 93.69,-197.06 92,-159 90.69,-129.61 92.24,-100.22 95,-54 95.12,-51.94 95.27,-49.82 95.42,-47.68"/>
<polygon fill="black" stroke="black" points="98.89,-48.19 96.21,-37.94 91.91,-47.63 98.89,-48.19"/>
<text text-anchor="middle" x="104" y="-145.7" font-family="Times New Roman,serif" font-size="14.00">0.30</text>
</g>
<!-- x2&#45;&gt;x3 -->
<g id="edge6" class="edge">
<title>x2&#45;&gt;x3</title>
<path fill="none" stroke="black" d="M177.66,-184.79C189.59,-178.94 203.63,-170.33 213,-159 218.53,-152.31 222.53,-143.86 225.39,-135.75"/>
<polygon fill="black" stroke="black" points="228.74,-136.77 228.27,-126.18 222.04,-134.75 228.74,-136.77"/>
<text text-anchor="middle" x="234.22" y="-145.7" font-family="Times New Roman,serif" font-size="14.00">0.02</text>
</g>
<!-- x2&#45;&gt;x4 -->
<g id="edge9" class="edge">
<title>x2&#45;&gt;x4</title>
<path fill="none" stroke="black" d="M153.61,-176.76C151.51,-155.5 146.59,-118.51 136,-88.5 130.58,-73.15 122.05,-57.14 114.44,-44.36"/>
<polygon fill="black" stroke="black" points="117.63,-42.85 109.41,-36.16 111.66,-46.52 117.63,-42.85"/>
<text text-anchor="middle" x="157.49" y="-101.45" font-family="Times New Roman,serif" font-size="14.00">0.30</text>
</g>
<!-- x3&#45;&gt;x2 -->
<g id="edge3" class="edge">
<title>x3&#45;&gt;x2</title>
<path fill="none" stroke="black" d="M213.78,-120.35C205.7,-126.53 196.36,-134.36 189,-142.5 181.97,-150.27 175.35,-159.61 169.86,-168.19"/>
<polygon fill="black" stroke="black" points="167.01,-166.14 164.76,-176.49 172.97,-169.81 167.01,-166.14"/>
<text text-anchor="middle" x="201" y="-145.7" font-family="Times New Roman,serif" font-size="14.00">0.08</text>
</g>
<!-- x3&#45;&gt;x4 -->
<g id="edge10" class="edge">
<title>x3&#45;&gt;x4</title>
<path fill="none" stroke="black" d="M217.6,-91.19C205.96,-80.13 188.81,-64.91 172,-54 159.33,-45.78 144.43,-38.36 131.34,-32.48"/>
<polygon fill="black" stroke="black" points="132.8,-29.3 122.24,-28.53 130.02,-35.72 132.8,-29.3"/>
<text text-anchor="middle" x="204.97" y="-57.2" font-family="Times New Roman,serif" font-size="14.00">0.37</text>
</g>
<!-- x4&#45;&gt;x2 -->
<g id="edge4" class="edge">
<title>x4&#45;&gt;x2</title>
<path fill="none" stroke="black" d="M98.09,-36.33C98.7,-57.67 101.37,-94.75 112,-124.5 117.74,-140.58 127.59,-156.9 136.41,-169.68"/>
<polygon fill="black" stroke="black" points="133.32,-171.38 141.99,-177.47 139.01,-167.3 133.32,-171.38"/>
<text text-anchor="middle" x="124" y="-101.45" font-family="Times New Roman,serif" font-size="14.00">0.07</text>
</g>
</g>
</svg>
