<?xml version="1.0" encoding="UTF-8" standalone="no"?>
<!DOCTYPE svg PUBLIC "-//W3C//DTD SVG 1.1//EN"
 "http://www.w3.org/Graphics/SVG/1.1/DTD/svg11.dtd">
<!-- Generated by graphviz version 12.2.1 (20241206.2353)
 -->
<!-- Pages: 1 -->
<svg width="186pt" height="310pt"
 viewBox="0.00 0.00 185.73 309.50" xmlns="http://www.w3.org/2000/svg" xmlns:xlink="http://www.w3.org/1999/xlink">
<g id="graph0" class="graph" transform="scale(1 1) rotate(0) translate(4 305.5)">
<polygon fill="white" stroke="none" points="-4,4 -4,-305.5 181.73,-305.5 181.73,4 -4,4"/>
<!-- x0 -->
<g id="node1" class="node">
<title>x0</title>
<ellipse fill="none" stroke="black" cx="27" cy="-195" rx="27" ry="18"/>
<text text-anchor="middle" x="27" y="-189.95" font-family="Times New Roman,serif" font-size="14.00">x0</text>
</g>
<!-- x4 -->
<g id="node5" class="node">
<title>x4</title>
<ellipse fill="none" stroke="black" cx="62" cy="-106.5" rx="27" ry="18"/>
<text text-anchor="middle" x="62" y="-101.45" font-family="Times New Roman,serif" font-size="14.00">x4</text>
</g>
<!-- x0&#45;&gt;x4 -->
<g id="edge4" class="edge">
<title>x0&#45;&gt;x4</title>
<path fill="none" stroke="black" d="M24.7,-176.65C24.05,-166.34 24.5,-153.23 29,-142.5 31.02,-137.69 34.01,-133.15 37.39,-129.02"/>
<polygon fill="black" stroke="black" points="39.85,-131.52 44.13,-121.83 34.74,-126.74 39.85,-131.52"/>
<text text-anchor="middle" x="41" y="-145.7" font-family="Times New Roman,serif" font-size="14.00">1.88</text>
</g>
<!-- x1 -->
<g id="node2" class="node">
<title>x1</title>
<ellipse fill="none" stroke="black" cx="130" cy="-283.5" rx="27" ry="18"/>
<text text-anchor="middle" x="130" y="-278.45" font-family="Times New Roman,serif" font-size="14.00">x1</text>
</g>
<!-- x2 -->
<g id="node3" class="node">
<title>x2</title>
<ellipse fill="none" stroke="black" cx="99" cy="-195" rx="27" ry="18"/>
<text text-anchor="middle" x="99" y="-189.95" font-family="Times New Roman,serif" font-size="14.00">x2</text>
</g>
<!-- x1&#45;&gt;x2 -->
<g id="edge1" class="edge">
<title>x1&#45;&gt;x2</title>
<path fill="none" stroke="black" d="M124.02,-265.82C119.72,-253.81 113.82,-237.34 108.82,-223.41"/>
<polygon fill="black" stroke="black" points="112.24,-222.58 105.58,-214.35 105.65,-224.94 112.24,-222.58"/>
<text text-anchor="middle" x="129.28" y="-234.2" font-family="Times New Roman,serif" font-size="14.00">0.48</text>
</g>
<!-- x3 -->
<g id="node4" class="node">
<title>x3</title>
<ellipse fill="none" stroke="black" cx="134" cy="-106.5" rx="27" ry="18"/>
<text text-anchor="middle" x="134" y="-101.45" font-family="Times New Roman,serif" font-size="14.00">x3</text>
</g>
<!-- x1&#45;&gt;x3 -->
<g id="edge2" class="edge">
<title>x1&#45;&gt;x3</title>
<path fill="none" stroke="black" d="M138.48,-266.19C141.06,-260.43 143.59,-253.82 145,-247.5 155.16,-201.93 156.83,-188.34 148,-142.5 147.49,-139.84 146.78,-137.13 145.94,-134.45"/>
<polygon fill="black" stroke="black" points="149.3,-133.43 142.55,-125.26 142.73,-135.86 149.3,-133.43"/>
<text text-anchor="middle" x="165.73" y="-189.95" font-family="Times New Roman,serif" font-size="14.00">0.19</text>
</g>
<!-- x2&#45;&gt;x3 -->
<g id="edge3" class="edge">
<title>x2&#45;&gt;x3</title>
<path fill="none" stroke="black" d="M105.75,-177.32C110.64,-165.24 117.36,-148.63 123.02,-134.64"/>
<polygon fill="black" stroke="black" points="126.2,-136.11 126.7,-125.53 119.71,-133.49 126.2,-136.11"/>
<text text-anchor="middle" x="131.63" y="-145.7" font-family="Times New Roman,serif" font-size="14.00">0.79</text>
</g>
<!-- x2&#45;&gt;x4 -->
<g id="edge5" class="edge">
<title>x2&#45;&gt;x4</title>
<path fill="none" stroke="black" d="M91.87,-177.32C86.7,-165.24 79.59,-148.63 73.61,-134.64"/>
<polygon fill="black" stroke="black" points="76.86,-133.34 69.71,-125.52 70.42,-136.09 76.86,-133.34"/>
<text text-anchor="middle" x="95.81" y="-145.7" font-family="Times New Roman,serif" font-size="14.00">0.57</text>
</g>
<!-- x5 -->
<g id="node6" class="node">
<title>x5</title>
<ellipse fill="none" stroke="black" cx="98" cy="-18" rx="27" ry="18"/>
<text text-anchor="middle" x="98" y="-12.95" font-family="Times New Roman,serif" font-size="14.00">x5</text>
</g>
<!-- x3&#45;&gt;x5 -->
<g id="edge6" class="edge">
<title>x3&#45;&gt;x5</title>
<path fill="none" stroke="black" d="M127.06,-88.82C122.03,-76.74 115.12,-60.13 109.3,-46.14"/>
<polygon fill="black" stroke="black" points="112.58,-44.91 105.5,-37.02 106.11,-47.6 112.58,-44.91"/>
<text text-anchor="middle" x="133.47" y="-57.2" font-family="Times New Roman,serif" font-size="14.00">&#45;0.62</text>
</g>
<!-- x4&#45;&gt;x5 -->
<g id="edge7" class="edge">
<title>x4&#45;&gt;x5</title>
<path fill="none" stroke="black" d="M67.5,-88.61C70.95,-78.46 75.64,-65.35 80.5,-54 81.71,-51.17 83.04,-48.24 84.41,-45.35"/>
<polygon fill="black" stroke="black" points="87.46,-47.07 88.73,-36.55 81.18,-43.98 87.46,-47.07"/>
<text text-anchor="middle" x="94.75" y="-57.2" font-family="Times New Roman,serif" font-size="14.00">&#45;0.49</text>
</g>
</g>
</svg>
