<?xml version="1.0" encoding="UTF-8" standalone="no"?>
<!DOCTYPE svg PUBLIC "-//W3C//DTD SVG 1.1//EN"
 "http://www.w3.org/Graphics/SVG/1.1/DTD/svg11.dtd">
<!-- Generated by graphviz version 12.2.1 (20241206.2353)
 -->
<!-- Pages: 1 -->
<svg width="184pt" height="221pt"
 viewBox="0.00 0.00 184.13 221.00" xmlns="http://www.w3.org/2000/svg" xmlns:xlink="http://www.w3.org/1999/xlink">
<g id="graph0" class="graph" transform="scale(1 1) rotate(0) translate(4 217)">
<polygon fill="white" stroke="none" points="-4,4 -4,-217 180.13,-217 180.13,4 -4,4"/>
<!-- x0 -->
<g id="node1" class="node">
<title>x0</title>
<ellipse fill="none" stroke="black" cx="27" cy="-195" rx="27" ry="18"/>
<text text-anchor="middle" x="27" y="-189.95" font-family="Times New Roman,serif" font-size="14.00">x0</text>
</g>
<!-- x3 -->
<g id="node4" class="node">
<title>x3</title>
<ellipse fill="none" stroke="black" cx="27" cy="-106.5" rx="27" ry="18"/>
<text text-anchor="middle" x="27" y="-101.45" font-family="Times New Roman,serif" font-size="14.00">x3</text>
</g>
<!-- x0&#45;&gt;x3 -->
<g id="edge2" class="edge">
<title>x0&#45;&gt;x3</title>
<path fill="none" stroke="black" d="M27,-176.91C27,-165.26 27,-149.55 27,-136.02"/>
<polygon fill="black" stroke="black" points="30.5,-136.36 27,-126.36 23.5,-136.36 30.5,-136.36"/>
<text text-anchor="middle" x="41.25" y="-145.7" font-family="Times New Roman,serif" font-size="14.00">&#45;1.98</text>
</g>
<!-- x1 -->
<g id="node2" class="node">
<title>x1</title>
<ellipse fill="none" stroke="black" cx="139" cy="-195" rx="27" ry="18"/>
<text text-anchor="middle" x="139" y="-189.95" font-family="Times New Roman,serif" font-size="14.00">x1</text>
</g>
<!-- x2 -->
<g id="node3" class="node">
<title>x2</title>
<ellipse fill="none" stroke="black" cx="99" cy="-106.5" rx="27" ry="18"/>
<text text-anchor="middle" x="99" y="-101.45" font-family="Times New Roman,serif" font-size="14.00">x2</text>
</g>
<!-- x1&#45;&gt;x2 -->
<g id="edge1" class="edge">
<title>x1&#45;&gt;x2</title>
<path fill="none" stroke="black" d="M129.43,-177.85C126.11,-172 122.49,-165.28 119.5,-159 115.85,-151.32 112.28,-142.81 109.16,-134.95"/>
<polygon fill="black" stroke="black" points="112.52,-133.92 105.65,-125.85 105.99,-136.44 112.52,-133.92"/>
<text text-anchor="middle" x="133.75" y="-145.7" font-family="Times New Roman,serif" font-size="14.00">&#45;1.21</text>
</g>
<!-- x4 -->
<g id="node5" class="node">
<title>x4</title>
<ellipse fill="none" stroke="black" cx="99" cy="-18" rx="27" ry="18"/>
<text text-anchor="middle" x="99" y="-12.95" font-family="Times New Roman,serif" font-size="14.00">x4</text>
</g>
<!-- x1&#45;&gt;x4 -->
<g id="edge3" class="edge">
<title>x1&#45;&gt;x4</title>
<path fill="none" stroke="black" d="M144.27,-177.08C145.79,-171.39 147.24,-164.98 148,-159 152.78,-121.24 135.4,-60.74 132,-54 129.65,-49.34 126.48,-44.88 123.04,-40.79"/>
<polygon fill="black" stroke="black" points="125.69,-38.5 116.3,-33.6 120.59,-43.29 125.69,-38.5"/>
<text text-anchor="middle" x="161.88" y="-101.45" font-family="Times New Roman,serif" font-size="14.00">&#45;0.55</text>
</g>
<!-- x2&#45;&gt;x4 -->
<g id="edge4" class="edge">
<title>x2&#45;&gt;x4</title>
<path fill="none" stroke="black" d="M99,-88.41C99,-76.76 99,-61.05 99,-47.52"/>
<polygon fill="black" stroke="black" points="102.5,-47.86 99,-37.86 95.5,-47.86 102.5,-47.86"/>
<text text-anchor="middle" x="113.25" y="-57.2" font-family="Times New Roman,serif" font-size="14.00">&#45;0.50</text>
</g>
<!-- x3&#45;&gt;x4 -->
<g id="edge5" class="edge">
<title>x3&#45;&gt;x4</title>
<path fill="none" stroke="black" d="M38.38,-89.88C46.08,-79.51 56.61,-65.71 66.5,-54 69.84,-50.04 73.48,-45.94 77.09,-41.99"/>
<polygon fill="black" stroke="black" points="79.5,-44.53 83.74,-34.82 74.37,-39.77 79.5,-44.53"/>
<text text-anchor="middle" x="80.75" y="-57.2" font-family="Times New Roman,serif" font-size="14.00">&#45;1.16</text>
</g>
</g>
</svg>
