<?xml version="1.0" encoding="UTF-8" standalone="no"?>
<!DOCTYPE svg PUBLIC "-//W3C//DTD SVG 1.1//EN"
 "http://www.w3.org/Graphics/SVG/1.1/DTD/svg11.dtd">
<!-- Generated by graphviz version 6.0.2 (20221011.1828)
 -->
<!-- Pages: 1 -->
<svg width="218pt" height="305pt"
 viewBox="0.00 0.00 218.00 305.00" xmlns="http://www.w3.org/2000/svg" xmlns:xlink="http://www.w3.org/1999/xlink">
<g id="graph0" class="graph" transform="scale(1 1) rotate(0) translate(4 301)">
<polygon fill="white" stroke="none" points="-4,4 -4,-301 214,-301 214,4 -4,4"/>
<!-- x0 -->
<g id="node1" class="node">
<title>x0</title>
<ellipse fill="none" stroke="black" cx="27" cy="-279" rx="27" ry="18"/>
<text text-anchor="middle" x="27" y="-275.3" font-family="Times New Roman,serif" font-size="14.00">x0</text>
</g>
<!-- x1 -->
<g id="node2" class="node">
<title>x1</title>
<ellipse fill="none" stroke="black" cx="63" cy="-192" rx="27" ry="18"/>
<text text-anchor="middle" x="63" y="-188.3" font-family="Times New Roman,serif" font-size="14.00">x1</text>
</g>
<!-- x0&#45;&gt;x1 -->
<g id="edge1" class="edge">
<title>x0&#45;&gt;x1</title>
<path fill="none" stroke="black" d="M34.11,-261.21C39.22,-249.14 46.21,-232.64 52.03,-218.89"/>
<polygon fill="black" stroke="black" points="55.35,-220.04 56.02,-209.47 48.9,-217.31 55.35,-220.04"/>
<text text-anchor="middle" x="60.5" y="-231.8" font-family="Times New Roman,serif" font-size="14.00">0.40</text>
</g>
<!-- x4 -->
<g id="node5" class="node">
<title>x4</title>
<ellipse fill="none" stroke="black" cx="111" cy="-105" rx="27" ry="18"/>
<text text-anchor="middle" x="111" y="-101.3" font-family="Times New Roman,serif" font-size="14.00">x4</text>
</g>
<!-- x1&#45;&gt;x4 -->
<g id="edge4" class="edge">
<title>x1&#45;&gt;x4</title>
<path fill="none" stroke="black" d="M72.03,-175.01C79.02,-162.63 88.84,-145.23 96.88,-131.01"/>
<polygon fill="black" stroke="black" points="99.98,-132.63 101.85,-122.21 93.88,-129.19 99.98,-132.63"/>
<text text-anchor="middle" x="101.5" y="-144.8" font-family="Times New Roman,serif" font-size="14.00">0.20</text>
</g>
<!-- y -->
<g id="node7" class="node">
<title>y</title>
<ellipse fill="none" stroke="black" cx="111" cy="-18" rx="27" ry="18"/>
<text text-anchor="middle" x="111" y="-14.3" font-family="Times New Roman,serif" font-size="14.00">y</text>
</g>
<!-- x1&#45;&gt;y -->
<g id="edge6" class="edge">
<title>x1&#45;&gt;y</title>
<path fill="none" stroke="black" d="M56.24,-174.56C48.64,-153.56 38.75,-116.4 50,-87 57.3,-67.93 72.68,-50.85 86.17,-38.57"/>
<polygon fill="black" stroke="black" points="88.57,-41.12 93.82,-31.92 83.98,-35.84 88.57,-41.12"/>
<text text-anchor="middle" x="62.5" y="-101.3" font-family="Times New Roman,serif" font-size="14.00">0.50</text>
</g>
<!-- x2 -->
<g id="node3" class="node">
<title>x2</title>
<ellipse fill="none" stroke="black" cx="99" cy="-279" rx="27" ry="18"/>
<text text-anchor="middle" x="99" y="-275.3" font-family="Times New Roman,serif" font-size="14.00">x2</text>
</g>
<!-- x2&#45;&gt;x1 -->
<g id="edge2" class="edge">
<title>x2&#45;&gt;x1</title>
<path fill="none" stroke="black" d="M91.89,-261.21C86.78,-249.14 79.79,-232.64 73.97,-218.89"/>
<polygon fill="black" stroke="black" points="77.1,-217.31 69.98,-209.47 70.65,-220.04 77.1,-217.31"/>
<text text-anchor="middle" x="97.5" y="-231.8" font-family="Times New Roman,serif" font-size="14.00">&#45;0.60</text>
</g>
<!-- x3 -->
<g id="node4" class="node">
<title>x3</title>
<ellipse fill="none" stroke="black" cx="183" cy="-105" rx="27" ry="18"/>
<text text-anchor="middle" x="183" y="-101.3" font-family="Times New Roman,serif" font-size="14.00">x3</text>
</g>
<!-- x3&#45;&gt;y -->
<g id="edge7" class="edge">
<title>x3&#45;&gt;y</title>
<path fill="none" stroke="black" d="M171.42,-88.38C163.84,-78.37 153.61,-65.19 144,-54 140.26,-49.64 136.15,-45.1 132.14,-40.79"/>
<polygon fill="black" stroke="black" points="134.53,-38.23 125.12,-33.36 129.44,-43.04 134.53,-38.23"/>
<text text-anchor="middle" x="170.5" y="-57.8" font-family="Times New Roman,serif" font-size="14.00">&#45;0.10</text>
</g>
<!-- x4&#45;&gt;y -->
<g id="edge8" class="edge">
<title>x4&#45;&gt;y</title>
<path fill="none" stroke="black" d="M111,-86.8C111,-75.16 111,-59.55 111,-46.24"/>
<polygon fill="black" stroke="black" points="114.5,-46.18 111,-36.18 107.5,-46.18 114.5,-46.18"/>
<text text-anchor="middle" x="125.5" y="-57.8" font-family="Times New Roman,serif" font-size="14.00">&#45;0.50</text>
</g>
<!-- x5 -->
<g id="node6" class="node">
<title>x5</title>
<ellipse fill="none" stroke="black" cx="142" cy="-192" rx="27" ry="18"/>
<text text-anchor="middle" x="142" y="-188.3" font-family="Times New Roman,serif" font-size="14.00">x5</text>
</g>
<!-- x5&#45;&gt;x3 -->
<g id="edge3" class="edge">
<title>x5&#45;&gt;x3</title>
<path fill="none" stroke="black" d="M149.97,-174.63C152.83,-168.75 156.06,-162.08 159,-156 162.81,-148.11 166.94,-139.51 170.69,-131.7"/>
<polygon fill="black" stroke="black" points="173.85,-133.21 175.02,-122.68 167.54,-130.18 173.85,-133.21"/>
<text text-anchor="middle" x="177.5" y="-144.8" font-family="Times New Roman,serif" font-size="14.00">0.50</text>
</g>
<!-- x5&#45;&gt;x4 -->
<g id="edge5" class="edge">
<title>x5&#45;&gt;x4</title>
<path fill="none" stroke="black" d="M135.88,-174.21C131.5,-162.22 125.53,-145.85 120.54,-132.16"/>
<polygon fill="black" stroke="black" points="123.83,-130.95 117.11,-122.76 117.25,-133.35 123.83,-130.95"/>
<text text-anchor="middle" x="142.5" y="-144.8" font-family="Times New Roman,serif" font-size="14.00">&#45;0.70</text>
</g>
</g>
</svg>
