<?xml version="1.0" encoding="UTF-8" standalone="no"?>
<!DOCTYPE svg PUBLIC "-//W3C//DTD SVG 1.1//EN"
 "http://www.w3.org/Graphics/SVG/1.1/DTD/svg11.dtd">
<!-- Generated by graphviz version 2.38.0 (20140413.2041)
 -->
<!-- Title: %3 Pages: 1 -->
<svg width="172pt" height="218pt"
 viewBox="0.00 0.00 171.79 218.00" xmlns="http://www.w3.org/2000/svg" xmlns:xlink="http://www.w3.org/1999/xlink">
<g id="graph0" class="graph" transform="scale(1 1) rotate(0) translate(4 214)">
<title>%3</title>
<polygon fill="white" stroke="none" points="-4,4 -4,-214 167.795,-214 167.795,4 -4,4"/>
<!-- x0(2) -->
<g id="node1" class="node"><title>x0(2)</title>
<ellipse fill="none" stroke="black" cx="97.8973" cy="-192" rx="29.795" ry="18"/>
<text text-anchor="middle" x="97.8973" y="-188.3" font-family="Times New Roman,serif" font-size="14.00">x0(2)</text>
</g>
<!-- x2(2) -->
<g id="node3" class="node"><title>x2(2)</title>
<ellipse fill="none" stroke="black" cx="55.8973" cy="-105" rx="29.795" ry="18"/>
<text text-anchor="middle" x="55.8973" y="-101.3" font-family="Times New Roman,serif" font-size="14.00">x2(2)</text>
</g>
<!-- x0(2)&#45;&gt;x2(2) -->
<g id="edge3" class="edge"><title>x0(2)&#45;&gt;x2(2)</title>
<path fill="none" stroke="black" d="M89.7993,-174.611C83.7566,-162.382 75.3868,-145.443 68.4756,-131.456"/>
<polygon fill="black" stroke="black" points="71.5383,-129.753 63.9705,-122.339 65.2626,-132.854 71.5383,-129.753"/>
<text text-anchor="middle" x="92.3973" y="-144.8" font-family="Times New Roman,serif" font-size="14.00">0.20</text>
</g>
<!-- x4(2) -->
<g id="node5" class="node"><title>x4(2)</title>
<ellipse fill="none" stroke="black" cx="133.897" cy="-105" rx="29.795" ry="18"/>
<text text-anchor="middle" x="133.897" y="-101.3" font-family="Times New Roman,serif" font-size="14.00">x4(2)</text>
</g>
<!-- x0(2)&#45;&gt;x4(2) -->
<g id="edge5" class="edge"><title>x0(2)&#45;&gt;x4(2)</title>
<path fill="none" stroke="black" d="M105.01,-174.207C110.088,-162.216 117.019,-145.851 122.819,-132.157"/>
<polygon fill="black" stroke="black" points="126.123,-133.332 126.8,-122.758 119.677,-130.602 126.123,-133.332"/>
<text text-anchor="middle" x="130.397" y="-144.8" font-family="Times New Roman,serif" font-size="14.00">0.30</text>
</g>
<!-- x1(2) -->
<g id="node2" class="node"><title>x1(2)</title>
<ellipse fill="none" stroke="black" cx="120.897" cy="-18" rx="29.795" ry="18"/>
<text text-anchor="middle" x="120.897" y="-14.3" font-family="Times New Roman,serif" font-size="14.00">x1(2)</text>
</g>
<!-- x2(2)&#45;&gt;x1(2) -->
<g id="edge1" class="edge"><title>x2(2)&#45;&gt;x1(2)</title>
<path fill="none" stroke="black" d="M67.4115,-88.1227C74.6384,-78.237 84.2039,-65.2966 92.8973,-54 95.7508,-50.2922 98.8084,-46.3954 101.817,-42.6029"/>
<polygon fill="black" stroke="black" points="104.718,-44.5785 108.226,-34.5811 99.2495,-40.209 104.718,-44.5785"/>
<text text-anchor="middle" x="107.397" y="-57.8" font-family="Times New Roman,serif" font-size="14.00">&#45;0.70</text>
</g>
<!-- x3(2) -->
<g id="node4" class="node"><title>x3(2)</title>
<ellipse fill="none" stroke="black" cx="29.8973" cy="-18" rx="29.795" ry="18"/>
<text text-anchor="middle" x="29.8973" y="-14.3" font-family="Times New Roman,serif" font-size="14.00">x3(2)</text>
</g>
<!-- x2(2)&#45;&gt;x3(2) -->
<g id="edge4" class="edge"><title>x2(2)&#45;&gt;x3(2)</title>
<path fill="none" stroke="black" d="M41.979,-88.7455C37.5759,-82.979 33.2472,-76.0879 30.8973,-69 28.5204,-61.8302 27.6435,-53.7589 27.5216,-46.2269"/>
<polygon fill="black" stroke="black" points="31.024,-46.1726 27.7745,-36.0884 24.0262,-45.9981 31.024,-46.1726"/>
<text text-anchor="middle" x="45.3973" y="-57.8" font-family="Times New Roman,serif" font-size="14.00">&#45;0.40</text>
</g>
<!-- x4(2)&#45;&gt;x1(2) -->
<g id="edge2" class="edge"><title>x4(2)&#45;&gt;x1(2)</title>
<path fill="none" stroke="black" d="M131.267,-86.799C129.487,-75.1626 127.099,-59.5479 125.063,-46.2368"/>
<polygon fill="black" stroke="black" points="128.496,-45.5313 123.524,-36.1754 121.576,-46.5897 128.496,-45.5313"/>
<text text-anchor="middle" x="140.397" y="-57.8" font-family="Times New Roman,serif" font-size="14.00">0.50</text>
</g>
</g>
</svg>
