<?xml version="1.0" encoding="UTF-8" standalone="no"?>
<!DOCTYPE svg PUBLIC "-//W3C//DTD SVG 1.1//EN"
 "http://www.w3.org/Graphics/SVG/1.1/DTD/svg11.dtd">
<!-- Generated by graphviz version 2.43.0 (0)
 -->
<!-- Title: %3 Pages: 1 -->
<svg width="197pt" height="218pt"
 viewBox="0.00 0.00 196.89 218.00" xmlns="http://www.w3.org/2000/svg" xmlns:xlink="http://www.w3.org/1999/xlink">
<g id="graph0" class="graph" transform="scale(1 1) rotate(0) translate(4 214)">
<title>%3</title>
<polygon fill="white" stroke="transparent" points="-4,4 -4,-214 192.89,-214 192.89,4 -4,4"/>
<!-- x0(2) -->
<g id="node1" class="node">
<title>x0(2)</title>
<ellipse fill="none" stroke="black" cx="110.45" cy="-192" rx="34.39" ry="18"/>
<text text-anchor="middle" x="110.45" y="-188.3" font-family="Times,serif" font-size="14.00">x0(2)</text>
</g>
<!-- x2(2) -->
<g id="node3" class="node">
<title>x2(2)</title>
<ellipse fill="none" stroke="black" cx="67.45" cy="-105" rx="34.39" ry="18"/>
<text text-anchor="middle" x="67.45" y="-101.3" font-family="Times,serif" font-size="14.00">x2(2)</text>
</g>
<!-- x0(2)&#45;&gt;x2(2) -->
<g id="edge3" class="edge">
<title>x0(2)&#45;&gt;x2(2)</title>
<path fill="none" stroke="black" d="M101.8,-174.29C98.82,-168.5 95.48,-161.97 92.45,-156 88.45,-148.12 84.14,-139.53 80.24,-131.72"/>
<polygon fill="black" stroke="black" points="83.33,-130.08 75.73,-122.69 77.06,-133.2 83.33,-130.08"/>
<text text-anchor="middle" x="108.45" y="-144.8" font-family="Times,serif" font-size="14.00">0.20</text>
</g>
<!-- x4(2) -->
<g id="node5" class="node">
<title>x4(2)</title>
<ellipse fill="none" stroke="black" cx="154.45" cy="-105" rx="34.39" ry="18"/>
<text text-anchor="middle" x="154.45" y="-101.3" font-family="Times,serif" font-size="14.00">x4(2)</text>
</g>
<!-- x0(2)&#45;&gt;x4(2) -->
<g id="edge5" class="edge">
<title>x0(2)&#45;&gt;x4(2)</title>
<path fill="none" stroke="black" d="M119.14,-174.21C125.45,-162.02 134.09,-145.32 141.25,-131.49"/>
<polygon fill="black" stroke="black" points="144.43,-132.96 145.92,-122.47 138.22,-129.74 144.43,-132.96"/>
<text text-anchor="middle" x="150.45" y="-144.8" font-family="Times,serif" font-size="14.00">0.30</text>
</g>
<!-- x1(2) -->
<g id="node2" class="node">
<title>x1(2)</title>
<ellipse fill="none" stroke="black" cx="137.45" cy="-18" rx="34.39" ry="18"/>
<text text-anchor="middle" x="137.45" y="-14.3" font-family="Times,serif" font-size="14.00">x1(2)</text>
</g>
<!-- x2(2)&#45;&gt;x1(2) -->
<g id="edge1" class="edge">
<title>x2(2)&#45;&gt;x1(2)</title>
<path fill="none" stroke="black" d="M78.22,-87.79C85.09,-77.78 94.38,-64.82 103.45,-54 106.9,-49.88 110.72,-45.66 114.52,-41.64"/>
<polygon fill="black" stroke="black" points="117.26,-43.84 121.71,-34.22 112.23,-38.97 117.26,-43.84"/>
<text text-anchor="middle" x="121.95" y="-57.8" font-family="Times,serif" font-size="14.00">&#45;0.70</text>
</g>
<!-- x3(2) -->
<g id="node4" class="node">
<title>x3(2)</title>
<ellipse fill="none" stroke="black" cx="34.45" cy="-18" rx="34.39" ry="18"/>
<text text-anchor="middle" x="34.45" y="-14.3" font-family="Times,serif" font-size="14.00">x3(2)</text>
</g>
<!-- x2(2)&#45;&gt;x3(2) -->
<g id="edge4" class="edge">
<title>x2(2)&#45;&gt;x3(2)</title>
<path fill="none" stroke="black" d="M49.69,-89.37C44.05,-83.66 38.5,-76.64 35.45,-69 32.64,-61.99 31.63,-53.96 31.51,-46.43"/>
<polygon fill="black" stroke="black" points="35.02,-46.37 31.85,-36.26 28.02,-46.14 35.02,-46.37"/>
<text text-anchor="middle" x="53.95" y="-57.8" font-family="Times,serif" font-size="14.00">&#45;0.40</text>
</g>
<!-- x4(2)&#45;&gt;x1(2) -->
<g id="edge2" class="edge">
<title>x4(2)&#45;&gt;x1(2)</title>
<path fill="none" stroke="black" d="M151.01,-86.8C148.68,-75.16 145.56,-59.55 142.89,-46.24"/>
<polygon fill="black" stroke="black" points="146.28,-45.29 140.88,-36.18 139.41,-46.67 146.28,-45.29"/>
<text text-anchor="middle" x="162.45" y="-57.8" font-family="Times,serif" font-size="14.00">0.50</text>
</g>
</g>
</svg>
