<?xml version="1.0" encoding="UTF-8" standalone="no"?>
<!DOCTYPE svg PUBLIC "-//W3C//DTD SVG 1.1//EN"
 "http://www.w3.org/Graphics/SVG/1.1/DTD/svg11.dtd">
<!-- Generated by graphviz version 2.38.0 (20140413.2041)
 -->
<!-- Title: %3 Pages: 1 -->
<svg width="140pt" height="392pt"
 viewBox="0.00 0.00 139.79 392.00" xmlns="http://www.w3.org/2000/svg" xmlns:xlink="http://www.w3.org/1999/xlink">
<g id="graph0" class="graph" transform="scale(1 1) rotate(0) translate(4 388)">
<title>%3</title>
<polygon fill="white" stroke="none" points="-4,4 -4,-388 135.795,-388 135.795,4 -4,4"/>
<!-- x0(0) -->
<g id="node1" class="node"><title>x0(0)</title>
<ellipse fill="none" stroke="black" cx="101.897" cy="-105" rx="29.795" ry="18"/>
<text text-anchor="middle" x="101.897" y="-101.3" font-family="Times New Roman,serif" font-size="14.00">x0(0)</text>
</g>
<!-- x4(0) -->
<g id="node5" class="node"><title>x4(0)</title>
<ellipse fill="none" stroke="black" cx="51.8973" cy="-18" rx="29.795" ry="18"/>
<text text-anchor="middle" x="51.8973" y="-14.3" font-family="Times New Roman,serif" font-size="14.00">x4(0)</text>
</g>
<!-- x0(0)&#45;&gt;x4(0) -->
<g id="edge6" class="edge"><title>x0(0)&#45;&gt;x4(0)</title>
<path fill="none" stroke="black" d="M92.2568,-87.6111C84.9939,-75.2642 74.9072,-58.1167 66.6346,-44.0534"/>
<polygon fill="black" stroke="black" points="69.5953,-42.1833 61.5083,-35.3385 63.5617,-45.7325 69.5953,-42.1833"/>
<text text-anchor="middle" x="92.3973" y="-57.8" font-family="Times New Roman,serif" font-size="14.00">0.10</text>
</g>
<!-- x1(0) -->
<g id="node2" class="node"><title>x1(0)</title>
<ellipse fill="none" stroke="black" cx="29.8973" cy="-192" rx="29.795" ry="18"/>
<text text-anchor="middle" x="29.8973" y="-188.3" font-family="Times New Roman,serif" font-size="14.00">x1(0)</text>
</g>
<!-- x1(0)&#45;&gt;x0(0) -->
<g id="edge1" class="edge"><title>x1(0)&#45;&gt;x0(0)</title>
<path fill="none" stroke="black" d="M39.3152,-174.491C45.4403,-164.368 53.9339,-151.399 62.8973,-141 67.1851,-136.026 72.1557,-131.073 77.0832,-126.527"/>
<polygon fill="black" stroke="black" points="79.5361,-129.029 84.6865,-119.771 74.8864,-123.797 79.5361,-129.029"/>
<text text-anchor="middle" x="75.3973" y="-144.8" font-family="Times New Roman,serif" font-size="14.00">0.50</text>
</g>
<!-- x1(0)&#45;&gt;x4(0) -->
<g id="edge7" class="edge"><title>x1(0)&#45;&gt;x4(0)</title>
<path fill="none" stroke="black" d="M29.4085,-173.96C29.0777,-153.272 29.3494,-117.379 33.8973,-87 35.9739,-73.1297 39.8098,-58.0191 43.4087,-45.5724"/>
<polygon fill="black" stroke="black" points="46.8104,-46.4135 46.3321,-35.8294 40.1057,-44.4016 46.8104,-46.4135"/>
<text text-anchor="middle" x="48.3973" y="-101.3" font-family="Times New Roman,serif" font-size="14.00">&#45;0.70</text>
</g>
<!-- x2(0) -->
<g id="node3" class="node"><title>x2(0)</title>
<ellipse fill="none" stroke="black" cx="97.8973" cy="-279" rx="29.795" ry="18"/>
<text text-anchor="middle" x="97.8973" y="-275.3" font-family="Times New Roman,serif" font-size="14.00">x2(0)</text>
</g>
<!-- x2(0)&#45;&gt;x0(0) -->
<g id="edge2" class="edge"><title>x2(0)&#45;&gt;x0(0)</title>
<path fill="none" stroke="black" d="M98.2955,-260.879C98.9903,-231.001 100.43,-169.113 101.263,-133.274"/>
<polygon fill="black" stroke="black" points="104.767,-133.13 101.501,-123.052 97.7692,-132.967 104.767,-133.13"/>
<text text-anchor="middle" x="114.397" y="-188.3" font-family="Times New Roman,serif" font-size="14.00">&#45;0.30</text>
</g>
<!-- x2(0)&#45;&gt;x1(0) -->
<g id="edge3" class="edge"><title>x2(0)&#45;&gt;x1(0)</title>
<path fill="none" stroke="black" d="M80.078,-264.077C73.004,-258.045 65.0945,-250.625 58.8973,-243 52.8271,-235.532 47.2349,-226.642 42.6146,-218.443"/>
<polygon fill="black" stroke="black" points="45.6676,-216.731 37.8373,-209.594 39.5078,-220.056 45.6676,-216.731"/>
<text text-anchor="middle" x="73.3973" y="-231.8" font-family="Times New Roman,serif" font-size="14.00">&#45;0.30</text>
</g>
<!-- x3(0) -->
<g id="node4" class="node"><title>x3(0)</title>
<ellipse fill="none" stroke="black" cx="50.8973" cy="-366" rx="29.795" ry="18"/>
<text text-anchor="middle" x="50.8973" y="-362.3" font-family="Times New Roman,serif" font-size="14.00">x3(0)</text>
</g>
<!-- x3(0)&#45;&gt;x1(0) -->
<g id="edge4" class="edge"><title>x3(0)&#45;&gt;x1(0)</title>
<path fill="none" stroke="black" d="M45.6501,-348.146C41.6542,-334.502 36.4238,-314.709 33.8973,-297 30.2029,-271.105 29.4077,-241.239 29.4142,-220.175"/>
<polygon fill="black" stroke="black" points="32.9149,-220.052 29.4795,-210.029 25.9151,-220.007 32.9149,-220.052"/>
<text text-anchor="middle" x="46.3973" y="-275.3" font-family="Times New Roman,serif" font-size="14.00">0.40</text>
</g>
<!-- x3(0)&#45;&gt;x2(0) -->
<g id="edge5" class="edge"><title>x3(0)&#45;&gt;x2(0)</title>
<path fill="none" stroke="black" d="M59.9594,-348.611C66.7216,-336.382 76.0877,-319.443 83.8217,-305.456"/>
<polygon fill="black" stroke="black" points="87.0871,-306.783 88.8631,-296.339 80.9612,-303.396 87.0871,-306.783"/>
<text text-anchor="middle" x="90.3973" y="-318.8" font-family="Times New Roman,serif" font-size="14.00">0.30</text>
</g>
</g>
</svg>
