<?xml version="1.0" encoding="UTF-8" standalone="no"?>
<!DOCTYPE svg PUBLIC "-//W3C//DTD SVG 1.1//EN"
 "http://www.w3.org/Graphics/SVG/1.1/DTD/svg11.dtd">
<!-- Generated by graphviz version 2.43.0 (0)
 -->
<!-- Title: %3 Pages: 1 -->
<svg width="156pt" height="392pt"
 viewBox="0.00 0.00 156.45 392.00" xmlns="http://www.w3.org/2000/svg" xmlns:xlink="http://www.w3.org/1999/xlink">
<g id="graph0" class="graph" transform="scale(1 1) rotate(0) translate(4 388)">
<title>%3</title>
<polygon fill="white" stroke="transparent" points="-4,4 -4,-388 152.45,-388 152.45,4 -4,4"/>
<!-- x0(0) -->
<g id="node1" class="node">
<title>x0(0)</title>
<ellipse fill="none" stroke="black" cx="112.45" cy="-105" rx="34.39" ry="18"/>
<text text-anchor="middle" x="112.45" y="-101.3" font-family="Times,serif" font-size="14.00">x0(0)</text>
</g>
<!-- x4(0) -->
<g id="node5" class="node">
<title>x4(0)</title>
<ellipse fill="none" stroke="black" cx="39.45" cy="-18" rx="34.39" ry="18"/>
<text text-anchor="middle" x="39.45" y="-14.3" font-family="Times,serif" font-size="14.00">x4(0)</text>
</g>
<!-- x0(0)&#45;&gt;x4(0) -->
<g id="edge6" class="edge">
<title>x0(0)&#45;&gt;x4(0)</title>
<path fill="none" stroke="black" d="M99.06,-88.41C88.01,-75.55 72.17,-57.11 59.6,-42.46"/>
<polygon fill="black" stroke="black" points="62.17,-40.09 53,-34.78 56.86,-44.65 62.17,-40.09"/>
<text text-anchor="middle" x="95.45" y="-57.8" font-family="Times,serif" font-size="14.00">0.10</text>
</g>
<!-- x1(0) -->
<g id="node2" class="node">
<title>x1(0)</title>
<ellipse fill="none" stroke="black" cx="34.45" cy="-192" rx="34.39" ry="18"/>
<text text-anchor="middle" x="34.45" y="-188.3" font-family="Times,serif" font-size="14.00">x1(0)</text>
</g>
<!-- x1(0)&#45;&gt;x0(0) -->
<g id="edge1" class="edge">
<title>x1(0)&#45;&gt;x0(0)</title>
<path fill="none" stroke="black" d="M43.21,-174.21C49.01,-163.98 57.23,-151 66.45,-141 71.5,-135.52 77.49,-130.28 83.45,-125.59"/>
<polygon fill="black" stroke="black" points="85.57,-128.38 91.47,-119.58 81.37,-122.78 85.57,-128.38"/>
<text text-anchor="middle" x="82.45" y="-144.8" font-family="Times,serif" font-size="14.00">0.50</text>
</g>
<!-- x1(0)&#45;&gt;x4(0) -->
<g id="edge7" class="edge">
<title>x1(0)&#45;&gt;x4(0)</title>
<path fill="none" stroke="black" d="M33.37,-173.69C32.26,-153.04 30.88,-117.48 32.45,-87 33.14,-73.52 34.6,-58.61 36,-46.18"/>
<polygon fill="black" stroke="black" points="39.51,-46.35 37.21,-36.01 32.56,-45.53 39.51,-46.35"/>
<text text-anchor="middle" x="50.95" y="-101.3" font-family="Times,serif" font-size="14.00">&#45;0.70</text>
</g>
<!-- x2(0) -->
<g id="node3" class="node">
<title>x2(0)</title>
<ellipse fill="none" stroke="black" cx="111.45" cy="-279" rx="34.39" ry="18"/>
<text text-anchor="middle" x="111.45" y="-275.3" font-family="Times,serif" font-size="14.00">x2(0)</text>
</g>
<!-- x2(0)&#45;&gt;x0(0) -->
<g id="edge2" class="edge">
<title>x2(0)&#45;&gt;x0(0)</title>
<path fill="none" stroke="black" d="M111.55,-260.88C111.72,-231 112.08,-169.11 112.29,-133.27"/>
<polygon fill="black" stroke="black" points="115.79,-133.07 112.35,-123.05 108.79,-133.03 115.79,-133.07"/>
<text text-anchor="middle" x="129.95" y="-188.3" font-family="Times,serif" font-size="14.00">&#45;0.30</text>
</g>
<!-- x2(0)&#45;&gt;x1(0) -->
<g id="edge3" class="edge">
<title>x2(0)&#45;&gt;x1(0)</title>
<path fill="none" stroke="black" d="M88.77,-265.33C79.52,-259.39 69.2,-251.7 61.45,-243 55.22,-236.01 49.9,-227.33 45.67,-219.18"/>
<polygon fill="black" stroke="black" points="48.73,-217.46 41.22,-209.98 42.43,-220.51 48.73,-217.46"/>
<text text-anchor="middle" x="79.95" y="-231.8" font-family="Times,serif" font-size="14.00">&#45;0.30</text>
</g>
<!-- x3(0) -->
<g id="node4" class="node">
<title>x3(0)</title>
<ellipse fill="none" stroke="black" cx="43.45" cy="-366" rx="34.39" ry="18"/>
<text text-anchor="middle" x="43.45" y="-362.3" font-family="Times,serif" font-size="14.00">x3(0)</text>
</g>
<!-- x3(0)&#45;&gt;x1(0) -->
<g id="edge4" class="edge">
<title>x3(0)&#45;&gt;x1(0)</title>
<path fill="none" stroke="black" d="M41.3,-347.99C39.66,-334.25 37.51,-314.41 36.45,-297 34.87,-271.06 34.43,-241.42 34.35,-220.43"/>
<polygon fill="black" stroke="black" points="37.85,-220.31 34.34,-210.32 30.85,-220.32 37.85,-220.31"/>
<text text-anchor="middle" x="52.45" y="-275.3" font-family="Times,serif" font-size="14.00">0.40</text>
</g>
<!-- x3(0)&#45;&gt;x2(0) -->
<g id="edge5" class="edge">
<title>x3(0)&#45;&gt;x2(0)</title>
<path fill="none" stroke="black" d="M56.24,-349.01C66.4,-336.31 80.77,-318.34 92.31,-303.93"/>
<polygon fill="black" stroke="black" points="95.2,-305.91 98.71,-295.92 89.73,-301.54 95.2,-305.91"/>
<text text-anchor="middle" x="97.45" y="-318.8" font-family="Times,serif" font-size="14.00">0.30</text>
</g>
</g>
</svg>
