<?xml version="1.0" encoding="UTF-8" standalone="no"?>
<!DOCTYPE svg PUBLIC "-//W3C//DTD SVG 1.1//EN"
 "http://www.w3.org/Graphics/SVG/1.1/DTD/svg11.dtd">
<!-- Generated by graphviz version 2.38.0 (20140413.2041)
 -->
<!-- Title: %3 Pages: 1 -->
<svg width="184pt" height="305pt"
 viewBox="0.00 0.00 184.32 305.00" xmlns="http://www.w3.org/2000/svg" xmlns:xlink="http://www.w3.org/1999/xlink">
<g id="graph0" class="graph" transform="scale(1 1) rotate(0) translate(4 301)">
<title>%3</title>
<polygon fill="white" stroke="none" points="-4,4 -4,-301 180.321,-301 180.321,4 -4,4"/>
<!-- x0(1) -->
<g id="node1" class="node"><title>x0(1)</title>
<ellipse fill="none" stroke="black" cx="68.4238" cy="-18" rx="29.795" ry="18"/>
<text text-anchor="middle" x="68.4238" y="-14.3" font-family="Times New Roman,serif" font-size="14.00">x0(1)</text>
</g>
<!-- x1(1) -->
<g id="node2" class="node"><title>x1(1)</title>
<ellipse fill="none" stroke="black" cx="68.4238" cy="-192" rx="29.795" ry="18"/>
<text text-anchor="middle" x="68.4238" y="-188.3" font-family="Times New Roman,serif" font-size="14.00">x1(1)</text>
</g>
<!-- x1(1)&#45;&gt;x0(1) -->
<g id="edge1" class="edge"><title>x1(1)&#45;&gt;x0(1)</title>
<path fill="none" stroke="black" d="M49.8161,-177.792C34.3672,-165.584 13.508,-145.907 4.42375,-123 -1.47458,-108.127 -1.47458,-101.873 4.42375,-87 12.0176,-67.8515 27.8397,-50.9593 41.8513,-38.801"/>
<polygon fill="black" stroke="black" points="44.3445,-41.2808 49.8161,-32.2081 39.881,-35.8885 44.3445,-41.2808"/>
<text text-anchor="middle" x="16.9238" y="-101.3" font-family="Times New Roman,serif" font-size="14.00">0.20</text>
</g>
<!-- x2(1) -->
<g id="node3" class="node"><title>x2(1)</title>
<ellipse fill="none" stroke="black" cx="68.4238" cy="-105" rx="29.795" ry="18"/>
<text text-anchor="middle" x="68.4238" y="-101.3" font-family="Times New Roman,serif" font-size="14.00">x2(1)</text>
</g>
<!-- x1(1)&#45;&gt;x2(1) -->
<g id="edge5" class="edge"><title>x1(1)&#45;&gt;x2(1)</title>
<path fill="none" stroke="black" d="M68.4238,-173.799C68.4238,-162.163 68.4238,-146.548 68.4238,-133.237"/>
<polygon fill="black" stroke="black" points="71.9239,-133.175 68.4238,-123.175 64.9239,-133.175 71.9239,-133.175"/>
<text text-anchor="middle" x="80.9238" y="-144.8" font-family="Times New Roman,serif" font-size="14.00">0.30</text>
</g>
<!-- x4(1) -->
<g id="node5" class="node"><title>x4(1)</title>
<ellipse fill="none" stroke="black" cx="146.424" cy="-105" rx="29.795" ry="18"/>
<text text-anchor="middle" x="146.424" y="-101.3" font-family="Times New Roman,serif" font-size="14.00">x4(1)</text>
</g>
<!-- x1(1)&#45;&gt;x4(1) -->
<g id="edge6" class="edge"><title>x1(1)&#45;&gt;x4(1)</title>
<path fill="none" stroke="black" d="M82.3686,-175.804C94.4587,-162.629 112.12,-143.383 125.836,-128.435"/>
<polygon fill="black" stroke="black" points="128.417,-130.799 132.6,-121.065 123.26,-126.066 128.417,-130.799"/>
<text text-anchor="middle" x="126.924" y="-144.8" font-family="Times New Roman,serif" font-size="14.00">&#45;0.40</text>
</g>
<!-- x2(1)&#45;&gt;x0(1) -->
<g id="edge2" class="edge"><title>x2(1)&#45;&gt;x0(1)</title>
<path fill="none" stroke="black" d="M68.4238,-86.799C68.4238,-75.1626 68.4238,-59.5479 68.4238,-46.2368"/>
<polygon fill="black" stroke="black" points="71.9239,-46.1754 68.4238,-36.1754 64.9239,-46.1755 71.9239,-46.1754"/>
<text text-anchor="middle" x="82.9238" y="-57.8" font-family="Times New Roman,serif" font-size="14.00">&#45;0.10</text>
</g>
<!-- x3(1) -->
<g id="node4" class="node"><title>x3(1)</title>
<ellipse fill="none" stroke="black" cx="68.4238" cy="-279" rx="29.795" ry="18"/>
<text text-anchor="middle" x="68.4238" y="-275.3" font-family="Times New Roman,serif" font-size="14.00">x3(1)</text>
</g>
<!-- x3(1)&#45;&gt;x1(1) -->
<g id="edge4" class="edge"><title>x3(1)&#45;&gt;x1(1)</title>
<path fill="none" stroke="black" d="M68.4238,-260.799C68.4238,-249.163 68.4238,-233.548 68.4238,-220.237"/>
<polygon fill="black" stroke="black" points="71.9239,-220.175 68.4238,-210.175 64.9239,-220.175 71.9239,-220.175"/>
<text text-anchor="middle" x="80.9238" y="-231.8" font-family="Times New Roman,serif" font-size="14.00">0.40</text>
</g>
<!-- x4(1)&#45;&gt;x0(1) -->
<g id="edge3" class="edge"><title>x4(1)&#45;&gt;x0(1)</title>
<path fill="none" stroke="black" d="M132.729,-88.5986C123.859,-78.6697 112.027,-65.5098 101.424,-54 97.6044,-49.8539 93.5048,-45.4609 89.5385,-41.2395"/>
<polygon fill="black" stroke="black" points="92.0395,-38.7901 82.632,-33.9166 86.947,-43.593 92.0395,-38.7901"/>
<text text-anchor="middle" x="128.924" y="-57.8" font-family="Times New Roman,serif" font-size="14.00">&#45;0.50</text>
</g>
</g>
</svg>
