<?xml version="1.0" encoding="UTF-8" standalone="no"?>
<!DOCTYPE svg PUBLIC "-//W3C//DTD SVG 1.1//EN"
 "http://www.w3.org/Graphics/SVG/1.1/DTD/svg11.dtd">
<!-- Generated by graphviz version 2.43.0 (0)
 -->
<!-- Title: %3 Pages: 1 -->
<svg width="209pt" height="305pt"
 viewBox="0.00 0.00 209.31 305.00" xmlns="http://www.w3.org/2000/svg" xmlns:xlink="http://www.w3.org/1999/xlink">
<g id="graph0" class="graph" transform="scale(1 1) rotate(0) translate(4 301)">
<title>%3</title>
<polygon fill="white" stroke="transparent" points="-4,4 -4,-301 205.31,-301 205.31,4 -4,4"/>
<!-- x0(1) -->
<g id="node1" class="node">
<title>x0(1)</title>
<ellipse fill="none" stroke="black" cx="79.86" cy="-18" rx="34.39" ry="18"/>
<text text-anchor="middle" x="79.86" y="-14.3" font-family="Times,serif" font-size="14.00">x0(1)</text>
</g>
<!-- x1(1) -->
<g id="node2" class="node">
<title>x1(1)</title>
<ellipse fill="none" stroke="black" cx="79.86" cy="-192" rx="34.39" ry="18"/>
<text text-anchor="middle" x="79.86" y="-188.3" font-family="Times,serif" font-size="14.00">x1(1)</text>
</g>
<!-- x1(1)&#45;&gt;x0(1) -->
<g id="edge1" class="edge">
<title>x1(1)&#45;&gt;x0(1)</title>
<path fill="none" stroke="black" d="M57.43,-178.08C39.46,-166.31 15.54,-147.1 4.86,-123 -1.62,-108.37 -1.62,-101.63 4.86,-87 13.96,-66.47 32.65,-49.5 49.1,-37.65"/>
<polygon fill="black" stroke="black" points="51.17,-40.47 57.43,-31.92 47.2,-34.7 51.17,-40.47"/>
<text text-anchor="middle" x="20.86" y="-101.3" font-family="Times,serif" font-size="14.00">0.20</text>
</g>
<!-- x2(1) -->
<g id="node3" class="node">
<title>x2(1)</title>
<ellipse fill="none" stroke="black" cx="79.86" cy="-105" rx="34.39" ry="18"/>
<text text-anchor="middle" x="79.86" y="-101.3" font-family="Times,serif" font-size="14.00">x2(1)</text>
</g>
<!-- x1(1)&#45;&gt;x2(1) -->
<g id="edge5" class="edge">
<title>x1(1)&#45;&gt;x2(1)</title>
<path fill="none" stroke="black" d="M79.86,-173.8C79.86,-162.16 79.86,-146.55 79.86,-133.24"/>
<polygon fill="black" stroke="black" points="83.36,-133.18 79.86,-123.18 76.36,-133.18 83.36,-133.18"/>
<text text-anchor="middle" x="95.86" y="-144.8" font-family="Times,serif" font-size="14.00">0.30</text>
</g>
<!-- x4(1) -->
<g id="node5" class="node">
<title>x4(1)</title>
<ellipse fill="none" stroke="black" cx="166.86" cy="-105" rx="34.39" ry="18"/>
<text text-anchor="middle" x="166.86" y="-101.3" font-family="Times,serif" font-size="14.00">x4(1)</text>
</g>
<!-- x1(1)&#45;&gt;x4(1) -->
<g id="edge6" class="edge">
<title>x1(1)&#45;&gt;x4(1)</title>
<path fill="none" stroke="black" d="M95.65,-175.68C101.94,-169.56 109.25,-162.45 115.86,-156 125.06,-147.02 135.17,-137.12 143.94,-128.51"/>
<polygon fill="black" stroke="black" points="146.57,-130.84 151.25,-121.34 141.67,-125.84 146.57,-130.84"/>
<text text-anchor="middle" x="149.36" y="-144.8" font-family="Times,serif" font-size="14.00">&#45;0.40</text>
</g>
<!-- x2(1)&#45;&gt;x0(1) -->
<g id="edge2" class="edge">
<title>x2(1)&#45;&gt;x0(1)</title>
<path fill="none" stroke="black" d="M79.86,-86.8C79.86,-75.16 79.86,-59.55 79.86,-46.24"/>
<polygon fill="black" stroke="black" points="83.36,-46.18 79.86,-36.18 76.36,-46.18 83.36,-46.18"/>
<text text-anchor="middle" x="98.36" y="-57.8" font-family="Times,serif" font-size="14.00">&#45;0.10</text>
</g>
<!-- x3(1) -->
<g id="node4" class="node">
<title>x3(1)</title>
<ellipse fill="none" stroke="black" cx="79.86" cy="-279" rx="34.39" ry="18"/>
<text text-anchor="middle" x="79.86" y="-275.3" font-family="Times,serif" font-size="14.00">x3(1)</text>
</g>
<!-- x3(1)&#45;&gt;x1(1) -->
<g id="edge4" class="edge">
<title>x3(1)&#45;&gt;x1(1)</title>
<path fill="none" stroke="black" d="M79.86,-260.8C79.86,-249.16 79.86,-233.55 79.86,-220.24"/>
<polygon fill="black" stroke="black" points="83.36,-220.18 79.86,-210.18 76.36,-220.18 83.36,-220.18"/>
<text text-anchor="middle" x="95.86" y="-231.8" font-family="Times,serif" font-size="14.00">0.40</text>
</g>
<!-- x4(1)&#45;&gt;x0(1) -->
<g id="edge3" class="edge">
<title>x4(1)&#45;&gt;x0(1)</title>
<path fill="none" stroke="black" d="M153.23,-88.23C144.31,-78.15 132.24,-64.97 120.86,-54 116.09,-49.4 110.81,-44.66 105.68,-40.22"/>
<polygon fill="black" stroke="black" points="107.71,-37.35 97.83,-33.54 103.18,-42.68 107.71,-37.35"/>
<text text-anchor="middle" x="154.36" y="-57.8" font-family="Times,serif" font-size="14.00">&#45;0.50</text>
</g>
</g>
</svg>
