<?xml version="1.0" encoding="UTF-8" standalone="no"?>
<!DOCTYPE svg PUBLIC "-//W3C//DTD SVG 1.1//EN"
 "http://www.w3.org/Graphics/SVG/1.1/DTD/svg11.dtd">
<!-- Generated by graphviz version 6.0.2 (20221011.1828)
 -->
<!-- Pages: 1 -->
<svg width="422pt" height="131pt"
 viewBox="0.00 0.00 422.00 131.00" xmlns="http://www.w3.org/2000/svg" xmlns:xlink="http://www.w3.org/1999/xlink">
<g id="graph0" class="graph" transform="scale(1 1) rotate(0) translate(4 127)">
<polygon fill="white" stroke="none" points="-4,4 -4,-127 418,-127 418,4 -4,4"/>
<!-- x0 -->
<g id="node1" class="node">
<title>x0</title>
<ellipse fill="none" stroke="black" cx="27" cy="-18" rx="27" ry="18"/>
<text text-anchor="middle" x="27" y="-14.3" font-family="Times New Roman,serif" font-size="14.00">x0</text>
</g>
<!-- x1 -->
<g id="node2" class="node">
<title>x1</title>
<ellipse fill="none" stroke="black" cx="117" cy="-18" rx="27" ry="18"/>
<text text-anchor="middle" x="117" y="-14.3" font-family="Times New Roman,serif" font-size="14.00">x1</text>
</g>
<!-- x0&#45;&gt;x1 -->
<g id="edge5" class="edge">
<title>x0&#45;&gt;x1</title>
<path fill="none" stroke="black" d="M64.16,-18C69.4,-18 74.64,-18 79.88,-18"/>
<polygon fill="black" stroke="black" points="64.07,-14.5 54.07,-18 64.07,-21.5 64.07,-14.5"/>
<polygon fill="black" stroke="black" points="79.96,-21.5 89.96,-18 79.96,-14.5 79.96,-21.5"/>
</g>
<!-- x3 -->
<g id="node4" class="node">
<title>x3</title>
<ellipse fill="none" stroke="black" cx="297" cy="-18" rx="27" ry="18"/>
<text text-anchor="middle" x="297" y="-14.3" font-family="Times New Roman,serif" font-size="14.00">x3</text>
</g>
<!-- x0&#45;&gt;x3 -->
<g id="edge2" class="edge">
<title>x0&#45;&gt;x3</title>
<path fill="none" stroke="black" d="M50.71,-26.68C60.07,-29.9 70.96,-33.4 81,-36 116.39,-45.17 209.06,-74.04 243.5,-61.75 255.56,-57.45 266.87,-49.13 275.95,-40.89"/>
<polygon fill="black" stroke="black" points="278.55,-43.23 283.32,-33.77 273.69,-38.2 278.55,-43.23"/>
<text text-anchor="middle" x="231" y="-57.8" font-family="Times New Roman,serif" font-size="14.00">0.71</text>
</g>
<!-- x4 -->
<g id="node5" class="node">
<title>x4</title>
<ellipse fill="none" stroke="black" cx="387" cy="-18" rx="27" ry="18"/>
<text text-anchor="middle" x="387" y="-14.3" font-family="Times New Roman,serif" font-size="14.00">x4</text>
</g>
<!-- x0&#45;&gt;x4 -->
<g id="edge8" class="edge">
<title>x0&#45;&gt;x4</title>
<path fill="none" stroke="black" d="M50.54,-39.34C61.67,-48.01 75.64,-57.02 90,-61.5 189.29,-92.45 224.71,-92.45 324,-61.5 338.36,-57.02 352.33,-48.01 363.46,-39.34"/>
<polygon fill="black" stroke="black" points="52.59,-36.49 42.63,-32.85 48.15,-41.9 52.59,-36.49"/>
<polygon fill="black" stroke="black" points="365.85,-41.9 371.37,-32.85 361.41,-36.49 365.85,-41.9"/>
</g>
<!-- x2 -->
<g id="node3" class="node">
<title>x2</title>
<ellipse fill="none" stroke="black" cx="207" cy="-18" rx="27" ry="18"/>
<text text-anchor="middle" x="207" y="-14.3" font-family="Times New Roman,serif" font-size="14.00">x2</text>
</g>
<!-- x1&#45;&gt;x2 -->
<g id="edge6" class="edge">
<title>x1&#45;&gt;x2</title>
<path fill="none" stroke="black" d="M154.16,-18C159.4,-18 164.64,-18 169.88,-18"/>
<polygon fill="black" stroke="black" points="154.07,-14.5 144.07,-18 154.07,-21.5 154.07,-14.5"/>
<polygon fill="black" stroke="black" points="169.96,-21.5 179.96,-18 169.96,-14.5 169.96,-21.5"/>
</g>
<!-- x1&#45;&gt;x3 -->
<g id="edge3" class="edge">
<title>x1&#45;&gt;x3</title>
<path fill="none" stroke="black" d="M132.47,-32.94C144.29,-43.25 161.56,-56.1 179.5,-61.75 211.53,-71.85 247.63,-53.88 271.26,-38.01"/>
<polygon fill="black" stroke="black" points="273.51,-40.71 279.68,-32.1 269.48,-34.99 273.51,-40.71"/>
<text text-anchor="middle" x="192" y="-57.8" font-family="Times New Roman,serif" font-size="14.00">0.68</text>
</g>
<!-- x2&#45;&gt;x3 -->
<g id="edge7" class="edge">
<title>x2&#45;&gt;x3</title>
<path fill="none" stroke="black" d="M244.16,-18C249.4,-18 254.64,-18 259.88,-18"/>
<polygon fill="black" stroke="black" points="244.07,-14.5 234.07,-18 244.07,-21.5 244.07,-14.5"/>
<polygon fill="black" stroke="black" points="259.96,-21.5 269.96,-18 259.96,-14.5 259.96,-21.5"/>
</g>
<!-- x2&#45;&gt;x4 -->
<g id="edge9" class="edge">
<title>x2&#45;&gt;x4</title>
<path fill="none" stroke="black" d="M230.54,-39.34C241.67,-48.01 255.64,-57.02 270,-61.5 292.91,-68.64 301.09,-68.64 324,-61.5 338.36,-57.02 352.33,-48.01 363.46,-39.34"/>
<polygon fill="black" stroke="black" points="232.59,-36.49 222.63,-32.85 228.15,-41.9 232.59,-36.49"/>
<polygon fill="black" stroke="black" points="365.85,-41.9 371.37,-32.85 361.41,-36.49 365.85,-41.9"/>
</g>
<!-- x3&#45;&gt;x4 -->
<g id="edge10" class="edge">
<title>x3&#45;&gt;x4</title>
<path fill="none" stroke="black" d="M334.16,-18C339.4,-18 344.64,-18 349.88,-18"/>
<polygon fill="black" stroke="black" points="334.07,-14.5 324.07,-18 334.07,-21.5 334.07,-14.5"/>
<polygon fill="black" stroke="black" points="349.96,-21.5 359.96,-18 349.96,-14.5 349.96,-21.5"/>
</g>
<!-- x5 -->
<g id="node6" class="node">
<title>x5</title>
<ellipse fill="none" stroke="black" cx="327" cy="-105" rx="27" ry="18"/>
<text text-anchor="middle" x="327" y="-101.3" font-family="Times New Roman,serif" font-size="14.00">x5</text>
</g>
<!-- x5&#45;&gt;x2 -->
<g id="edge1" class="edge">
<title>x5&#45;&gt;x2</title>
<path fill="none" stroke="black" d="M309.03,-91.27C288.98,-77.07 256.32,-53.93 233.36,-37.67"/>
<polygon fill="black" stroke="black" points="235.27,-34.74 225.09,-31.81 231.23,-40.45 235.27,-34.74"/>
<text text-anchor="middle" x="287.5" y="-57.8" font-family="Times New Roman,serif" font-size="14.00">0.98</text>
</g>
<!-- x5&#45;&gt;x4 -->
<g id="edge4" class="edge">
<title>x5&#45;&gt;x4</title>
<path fill="none" stroke="black" d="M338,-88.41C346.97,-75.71 359.78,-57.56 370.05,-43.01"/>
<polygon fill="black" stroke="black" points="373.16,-44.68 376.06,-34.49 367.44,-40.64 373.16,-44.68"/>
<text text-anchor="middle" x="374.5" y="-57.8" font-family="Times New Roman,serif" font-size="14.00">&#45;0.82</text>
</g>
</g>
</svg>
