<?xml version="1.0" encoding="UTF-8" standalone="no"?>
<!DOCTYPE svg PUBLIC "-//W3C//DTD SVG 1.1//EN"
 "http://www.w3.org/Graphics/SVG/1.1/DTD/svg11.dtd">
<!-- Generated by graphviz version 6.0.2 (20221011.1828)
 -->
<!-- Pages: 1 -->
<svg width="212pt" height="326pt"
 viewBox="0.00 0.00 212.00 326.00" xmlns="http://www.w3.org/2000/svg" xmlns:xlink="http://www.w3.org/1999/xlink">
<g id="graph0" class="graph" transform="scale(1 1) rotate(0) translate(4 322)">
<polygon fill="white" stroke="none" points="-4,4 -4,-322 208,-322 208,4 -4,4"/>
<!-- x0 -->
<g id="node1" class="node">
<title>x0</title>
<ellipse fill="none" stroke="black" cx="116" cy="-300" rx="27" ry="18"/>
<text text-anchor="middle" x="116" y="-296.3" font-family="Times New Roman,serif" font-size="14.00">x0</text>
</g>
<!-- x1 -->
<g id="node2" class="node">
<title>x1</title>
<ellipse fill="none" stroke="black" cx="27" cy="-213" rx="27" ry="18"/>
<text text-anchor="middle" x="27" y="-209.3" font-family="Times New Roman,serif" font-size="14.00">x1</text>
</g>
<!-- x0&#45;&gt;x1 -->
<g id="edge1" class="edge">
<title>x0&#45;&gt;x1</title>
<path fill="none" stroke="black" d="M92.62,-290.67C79.09,-284.89 62.5,-276.05 51,-264 44.6,-257.29 39.61,-248.55 35.89,-240.26"/>
<polygon fill="black" stroke="black" points="39.09,-238.84 32.09,-230.88 32.6,-241.47 39.09,-238.84"/>
<text text-anchor="middle" x="63.5" y="-252.8" font-family="Times New Roman,serif" font-size="14.00">1.00</text>
</g>
<!-- x2 -->
<g id="node3" class="node">
<title>x2</title>
<ellipse fill="none" stroke="black" cx="72" cy="-105" rx="27" ry="18"/>
<text text-anchor="middle" x="72" y="-101.3" font-family="Times New Roman,serif" font-size="14.00">x2</text>
</g>
<!-- x0&#45;&gt;x2 -->
<g id="edge2" class="edge">
<title>x0&#45;&gt;x2</title>
<path fill="none" stroke="black" d="M111.23,-282.02C107.45,-268.3 102.13,-248.47 98,-231 90.06,-197.4 82.16,-158.42 77.19,-133.04"/>
<polygon fill="black" stroke="black" points="80.59,-132.19 75.24,-123.05 73.72,-133.53 80.59,-132.19"/>
<text text-anchor="middle" x="110.5" y="-209.3" font-family="Times New Roman,serif" font-size="14.00">1.00</text>
</g>
<!-- x3 -->
<g id="node4" class="node">
<title>x3</title>
<ellipse fill="none" stroke="black" cx="138" cy="-159" rx="27" ry="18"/>
<text text-anchor="middle" x="138" y="-155.3" font-family="Times New Roman,serif" font-size="14.00">x3</text>
</g>
<!-- x0&#45;&gt;x3 -->
<g id="edge4" class="edge">
<title>x0&#45;&gt;x3</title>
<path fill="none" stroke="black" d="M118.7,-281.96C122.44,-258.3 129.25,-215.26 133.7,-187.15"/>
<polygon fill="black" stroke="black" points="137.17,-187.61 135.28,-177.18 130.26,-186.51 137.17,-187.61"/>
<text text-anchor="middle" x="135.5" y="-252.8" font-family="Times New Roman,serif" font-size="14.00">1.00</text>
</g>
<!-- x4 -->
<g id="node5" class="node">
<title>x4</title>
<ellipse fill="none" stroke="black" cx="135" cy="-18" rx="27" ry="18"/>
<text text-anchor="middle" x="135" y="-14.3" font-family="Times New Roman,serif" font-size="14.00">x4</text>
</g>
<!-- x0&#45;&gt;x4 -->
<g id="edge5" class="edge">
<title>x0&#45;&gt;x4</title>
<path fill="none" stroke="black" d="M133.46,-286.13C140.31,-280.17 147.58,-272.51 152,-264 188.41,-193.99 182.75,-164.11 166,-87 162.75,-72.05 155.92,-56.44 149.49,-43.95"/>
<polygon fill="black" stroke="black" points="152.54,-42.23 144.72,-35.08 146.37,-45.54 152.54,-42.23"/>
<text text-anchor="middle" x="191.5" y="-155.3" font-family="Times New Roman,serif" font-size="14.00">1.00</text>
</g>
<!-- x1&#45;&gt;x2 -->
<g id="edge3" class="edge">
<title>x1&#45;&gt;x2</title>
<path fill="none" stroke="black" d="M31.55,-195.26C35.79,-180.62 42.7,-158.95 51,-141 52.61,-137.51 54.48,-133.94 56.43,-130.46"/>
<polygon fill="black" stroke="black" points="59.57,-132.03 61.64,-121.64 53.54,-128.47 59.57,-132.03"/>
<text text-anchor="middle" x="63.5" y="-155.3" font-family="Times New Roman,serif" font-size="14.00">1.00</text>
</g>
<!-- x2&#45;&gt;x4 -->
<g id="edge6" class="edge">
<title>x2&#45;&gt;x4</title>
<path fill="none" stroke="black" d="M78.07,-87.33C82.23,-77.14 88.37,-64.17 96,-54 100.01,-48.65 104.93,-43.49 109.92,-38.85"/>
<polygon fill="black" stroke="black" points="112.47,-41.26 117.67,-32.03 107.85,-36 112.47,-41.26"/>
<text text-anchor="middle" x="108.5" y="-57.8" font-family="Times New Roman,serif" font-size="14.00">1.00</text>
</g>
<!-- x3&#45;&gt;x4 -->
<g id="edge7" class="edge">
<title>x3&#45;&gt;x4</title>
<path fill="none" stroke="black" d="M137.63,-140.96C137.12,-117.4 136.2,-74.64 135.59,-46.53"/>
<polygon fill="black" stroke="black" points="139.09,-46.11 135.37,-36.18 132.09,-46.26 139.09,-46.11"/>
<text text-anchor="middle" x="149.5" y="-101.3" font-family="Times New Roman,serif" font-size="14.00">1.00</text>
</g>
</g>
</svg>
