<?xml version="1.0" encoding="UTF-8" standalone="no"?>
<!DOCTYPE svg PUBLIC "-//W3C//DTD SVG 1.1//EN"
 "http://www.w3.org/Graphics/SVG/1.1/DTD/svg11.dtd">
<!-- Generated by graphviz version 2.38.0 (20140413.2041)
 -->
<!-- Title: %3 Pages: 1 -->
<svg width="278pt" height="218pt"
 viewBox="0.00 0.00 278.00 218.00" xmlns="http://www.w3.org/2000/svg" xmlns:xlink="http://www.w3.org/1999/xlink">
<g id="graph0" class="graph" transform="scale(1 1) rotate(0) translate(4 214)">
<title>%3</title>
<polygon fill="white" stroke="none" points="-4,4 -4,-214 274,-214 274,4 -4,4"/>
<!-- x0 -->
<g id="node1" class="node"><title>x0</title>
<ellipse fill="none" stroke="black" cx="99" cy="-105" rx="27" ry="18"/>
<text text-anchor="middle" x="99" y="-101.3" font-family="Times New Roman,serif" font-size="14.00">x0</text>
</g>
<!-- x1 -->
<g id="node2" class="node"><title>x1</title>
<ellipse fill="none" stroke="black" cx="223" cy="-18" rx="27" ry="18"/>
<text text-anchor="middle" x="223" y="-14.3" font-family="Times New Roman,serif" font-size="14.00">x1</text>
</g>
<!-- x0&#45;&gt;x1 -->
<g id="edge2" class="edge"><title>x0&#45;&gt;x1</title>
<path fill="none" stroke="black" d="M105.257,-87.13C110.022,-76.345 117.554,-62.7826 128,-54 137.535,-45.9832 165.638,-36.1135 188.822,-28.9008"/>
<polygon fill="black" stroke="black" points="189.843,-32.2486 198.388,-25.9855 187.802,-25.5526 189.843,-32.2486"/>
<text text-anchor="middle" x="140.5" y="-57.8" font-family="Times New Roman,serif" font-size="14.00">3.52</text>
</g>
<!-- x4 -->
<g id="node5" class="node"><title>x4</title>
<ellipse fill="none" stroke="black" cx="125" cy="-18" rx="27" ry="18"/>
<text text-anchor="middle" x="125" y="-14.3" font-family="Times New Roman,serif" font-size="14.00">x4</text>
</g>
<!-- x0&#45;&gt;x4 -->
<g id="edge6" class="edge"><title>x0&#45;&gt;x4</title>
<path fill="none" stroke="black" d="M84.9992,-89.3967C77.1213,-79.3378 69.9664,-65.7244 76,-54 80.1259,-45.9826 87.0337,-39.3946 94.3805,-34.183"/>
<polygon fill="black" stroke="black" points="96.4826,-36.995 103.066,-28.6941 92.7431,-31.0775 96.4826,-36.995"/>
<text text-anchor="middle" x="88.5" y="-57.8" font-family="Times New Roman,serif" font-size="14.00">8.46</text>
</g>
<!-- x5 -->
<g id="node6" class="node"><title>x5</title>
<ellipse fill="none" stroke="black" cx="27" cy="-18" rx="27" ry="18"/>
<text text-anchor="middle" x="27" y="-14.3" font-family="Times New Roman,serif" font-size="14.00">x5</text>
</g>
<!-- x0&#45;&gt;x5 -->
<g id="edge8" class="edge"><title>x0&#45;&gt;x5</title>
<path fill="none" stroke="black" d="M76.8533,-94.3394C65.6328,-88.4545 52.6001,-79.9471 44,-69 38.743,-62.3084 35.0634,-53.8968 32.5083,-45.8919"/>
<polygon fill="black" stroke="black" points="35.8528,-44.8528 29.8393,-36.1299 29.1006,-46.699 35.8528,-44.8528"/>
<text text-anchor="middle" x="56.5" y="-57.8" font-family="Times New Roman,serif" font-size="14.00">4.45</text>
</g>
<!-- x2 -->
<g id="node3" class="node"><title>x2</title>
<ellipse fill="none" stroke="black" cx="198" cy="-105" rx="27" ry="18"/>
<text text-anchor="middle" x="198" y="-101.3" font-family="Times New Roman,serif" font-size="14.00">x2</text>
</g>
<!-- x2&#45;&gt;x1 -->
<g id="edge3" class="edge"><title>x2&#45;&gt;x1</title>
<path fill="none" stroke="black" d="M202.939,-87.2067C206.432,-75.332 211.186,-59.1684 215.189,-45.5567"/>
<polygon fill="black" stroke="black" points="218.607,-46.3396 218.071,-35.7584 211.892,-44.3644 218.607,-46.3396"/>
<text text-anchor="middle" x="223.5" y="-57.8" font-family="Times New Roman,serif" font-size="14.00">2.47</text>
</g>
<!-- x2&#45;&gt;x4 -->
<g id="edge7" class="edge"><title>x2&#45;&gt;x4</title>
<path fill="none" stroke="black" d="M184.949,-88.8037C173.738,-75.7495 157.408,-56.7354 144.622,-41.8473"/>
<polygon fill="black" stroke="black" points="147.108,-39.3707 137.938,-34.0647 141.798,-43.9314 147.108,-39.3707"/>
<text text-anchor="middle" x="179.5" y="-57.8" font-family="Times New Roman,serif" font-size="14.00">&#45;1.47</text>
</g>
<!-- x3 -->
<g id="node4" class="node"><title>x3</title>
<ellipse fill="none" stroke="black" cx="198" cy="-192" rx="27" ry="18"/>
<text text-anchor="middle" x="198" y="-188.3" font-family="Times New Roman,serif" font-size="14.00">x3</text>
</g>
<!-- x3&#45;&gt;x0 -->
<g id="edge1" class="edge"><title>x3&#45;&gt;x0</title>
<path fill="none" stroke="black" d="M182.094,-177.343C166.073,-163.588 141.163,-142.2 122.792,-126.427"/>
<polygon fill="black" stroke="black" points="124.734,-123.482 114.867,-119.623 120.174,-128.793 124.734,-123.482"/>
<text text-anchor="middle" x="166.5" y="-144.8" font-family="Times New Roman,serif" font-size="14.00">3.48</text>
</g>
<!-- x3&#45;&gt;x1 -->
<g id="edge4" class="edge"><title>x3&#45;&gt;x1</title>
<path fill="none" stroke="black" d="M212.45,-176.789C217.76,-170.825 223.358,-163.53 227,-156 246.897,-114.859 250.244,-98.5371 240,-54 239.258,-50.7742 238.177,-47.5009 236.915,-44.3167"/>
<polygon fill="black" stroke="black" points="240.075,-42.8104 232.738,-35.167 233.707,-45.7174 240.075,-42.8104"/>
<text text-anchor="middle" x="257.5" y="-101.3" font-family="Times New Roman,serif" font-size="14.00">0.17</text>
</g>
<!-- x3&#45;&gt;x2 -->
<g id="edge5" class="edge"><title>x3&#45;&gt;x2</title>
<path fill="none" stroke="black" d="M198,-173.799C198,-162.163 198,-146.548 198,-133.237"/>
<polygon fill="black" stroke="black" points="201.5,-133.175 198,-123.175 194.5,-133.175 201.5,-133.175"/>
<text text-anchor="middle" x="210.5" y="-144.8" font-family="Times New Roman,serif" font-size="14.00">6.38</text>
</g>
</g>
</svg>
