<?xml version="1.0" encoding="UTF-8" standalone="no"?>
<!DOCTYPE svg PUBLIC "-//W3C//DTD SVG 1.1//EN"
 "http://www.w3.org/Graphics/SVG/1.1/DTD/svg11.dtd">
<!-- Generated by graphviz version 6.0.2 (20221011.1828)
 -->
<!-- Pages: 1 -->
<svg width="197pt" height="305pt"
 viewBox="0.00 0.00 197.00 305.00" xmlns="http://www.w3.org/2000/svg" xmlns:xlink="http://www.w3.org/1999/xlink">
<g id="graph0" class="graph" transform="scale(1 1) rotate(0) translate(4 301)">
<polygon fill="white" stroke="none" points="-4,4 -4,-301 193,-301 193,4 -4,4"/>
<!-- x0 -->
<g id="node1" class="node">
<title>x0</title>
<ellipse fill="none" stroke="black" cx="27" cy="-192" rx="27" ry="18"/>
<text text-anchor="middle" x="27" y="-188.3" font-family="Times New Roman,serif" font-size="14.00">x0</text>
</g>
<!-- x2 -->
<g id="node3" class="node">
<title>x2</title>
<ellipse fill="none" stroke="black" cx="63" cy="-105" rx="27" ry="18"/>
<text text-anchor="middle" x="63" y="-101.3" font-family="Times New Roman,serif" font-size="14.00">x2</text>
</g>
<!-- x0&#45;&gt;x2 -->
<g id="edge3" class="edge">
<title>x0&#45;&gt;x2</title>
<path fill="none" stroke="black" d="M32.97,-174.18C36.54,-164.41 41.29,-151.91 46,-141 47.34,-137.9 48.8,-134.67 50.29,-131.49"/>
<polygon fill="black" stroke="black" points="53.56,-132.77 54.74,-122.24 47.25,-129.74 53.56,-132.77"/>
<text text-anchor="middle" x="58.5" y="-144.8" font-family="Times New Roman,serif" font-size="14.00">0.77</text>
</g>
<!-- x1 -->
<g id="node2" class="node">
<title>x1</title>
<ellipse fill="none" stroke="black" cx="99" cy="-192" rx="27" ry="18"/>
<text text-anchor="middle" x="99" y="-188.3" font-family="Times New Roman,serif" font-size="14.00">x1</text>
</g>
<!-- x1&#45;&gt;x2 -->
<g id="edge4" class="edge">
<title>x1&#45;&gt;x2</title>
<path fill="none" stroke="black" d="M91.89,-174.21C86.78,-162.14 79.79,-145.64 73.97,-131.89"/>
<polygon fill="black" stroke="black" points="77.1,-130.31 69.98,-122.47 70.65,-133.04 77.1,-130.31"/>
<text text-anchor="middle" x="95.5" y="-144.8" font-family="Times New Roman,serif" font-size="14.00">0.60</text>
</g>
<!-- x3 -->
<g id="node4" class="node">
<title>x3</title>
<ellipse fill="none" stroke="black" cx="71" cy="-18" rx="27" ry="18"/>
<text text-anchor="middle" x="71" y="-14.3" font-family="Times New Roman,serif" font-size="14.00">x3</text>
</g>
<!-- x2&#45;&gt;x3 -->
<g id="edge5" class="edge">
<title>x2&#45;&gt;x3</title>
<path fill="none" stroke="black" d="M46.71,-90.03C37.38,-80.26 28.52,-66.72 34,-54 36.46,-48.28 40.38,-43.05 44.75,-38.49"/>
<polygon fill="black" stroke="black" points="47.4,-40.8 52.38,-31.45 42.65,-35.66 47.4,-40.8"/>
<text text-anchor="middle" x="46.5" y="-57.8" font-family="Times New Roman,serif" font-size="14.00">0.98</text>
</g>
<!-- x4 -->
<g id="node5" class="node">
<title>x4</title>
<ellipse fill="none" stroke="black" cx="162" cy="-18" rx="27" ry="18"/>
<text text-anchor="middle" x="162" y="-14.3" font-family="Times New Roman,serif" font-size="14.00">x4</text>
</g>
<!-- x2&#45;&gt;x4 -->
<g id="edge7" class="edge">
<title>x2&#45;&gt;x4</title>
<path fill="none" stroke="black" d="M64.43,-86.9C66.14,-76.3 69.87,-63.02 78,-54 85.14,-46.08 108.08,-36.79 128.19,-29.77"/>
<polygon fill="black" stroke="black" points="129.41,-33.05 137.76,-26.52 127.16,-26.42 129.41,-33.05"/>
<text text-anchor="middle" x="92.5" y="-57.8" font-family="Times New Roman,serif" font-size="14.00">&#45;0.99</text>
</g>
<!-- x5 -->
<g id="node6" class="node">
<title>x5</title>
<ellipse fill="none" stroke="black" cx="63" cy="-279" rx="27" ry="18"/>
<text text-anchor="middle" x="63" y="-275.3" font-family="Times New Roman,serif" font-size="14.00">x5</text>
</g>
<!-- x5&#45;&gt;x0 -->
<g id="edge1" class="edge">
<title>x5&#45;&gt;x0</title>
<path fill="none" stroke="black" d="M54.74,-261.76C51.86,-255.9 48.68,-249.2 46,-243 42.72,-235.41 39.43,-227.06 36.52,-219.39"/>
<polygon fill="black" stroke="black" points="39.73,-217.97 32.97,-209.82 33.17,-220.41 39.73,-217.97"/>
<text text-anchor="middle" x="58.5" y="-231.8" font-family="Times New Roman,serif" font-size="14.00">0.74</text>
</g>
<!-- x5&#45;&gt;x1 -->
<g id="edge2" class="edge">
<title>x5&#45;&gt;x1</title>
<path fill="none" stroke="black" d="M70.11,-261.21C75.22,-249.14 82.21,-232.64 88.03,-218.89"/>
<polygon fill="black" stroke="black" points="91.35,-220.04 92.02,-209.47 84.9,-217.31 91.35,-220.04"/>
<text text-anchor="middle" x="95.5" y="-231.8" font-family="Times New Roman,serif" font-size="14.00">0.52</text>
</g>
<!-- f1(x6) -->
<g id="node7" class="node">
<title>f1(x6)</title>
<ellipse fill="none" stroke="black" cx="151" cy="-105" rx="32.49" ry="18"/>
<text text-anchor="middle" x="151" y="-101.3" font-family="Times New Roman,serif" font-size="14.00">f1(x6)</text>
</g>
<!-- f1(x6)&#45;&gt;x3 -->
<g id="edge6" class="edge">
<title>f1(x6)&#45;&gt;x3</title>
<path fill="none" stroke="black" d="M139.42,-88.09C131.78,-77.96 121.3,-64.76 111,-54 106.11,-48.89 100.57,-43.71 95.2,-38.95"/>
<polygon fill="black" stroke="black" points="97.41,-36.23 87.56,-32.34 92.83,-41.53 97.41,-36.23"/>
<text text-anchor="middle" x="135.5" y="-57.8" font-family="Times New Roman,serif" font-size="14.00">0.87</text>
</g>
<!-- f1(x6)&#45;&gt;x4 -->
<g id="edge8" class="edge">
<title>f1(x6)&#45;&gt;x4</title>
<path fill="none" stroke="black" d="M155.47,-87.02C156.81,-81.33 158.15,-74.92 159,-69 160.04,-61.71 160.73,-53.78 161.17,-46.42"/>
<polygon fill="black" stroke="black" points="164.68,-46.35 161.67,-36.19 157.69,-46.01 164.68,-46.35"/>
<text text-anchor="middle" x="174.5" y="-57.8" font-family="Times New Roman,serif" font-size="14.00">&#45;0.91</text>
</g>
</g>
</svg>
