<?xml version="1.0" encoding="UTF-8" standalone="no"?>
<!DOCTYPE svg PUBLIC "-//W3C//DTD SVG 1.1//EN"
 "http://www.w3.org/Graphics/SVG/1.1/DTD/svg11.dtd">
<!-- Generated by graphviz version 6.0.2 (20221011.1828)
 -->
<!-- Pages: 1 -->
<svg width="198pt" height="305pt"
 viewBox="0.00 0.00 198.00 305.00" xmlns="http://www.w3.org/2000/svg" xmlns:xlink="http://www.w3.org/1999/xlink">
<g id="graph0" class="graph" transform="scale(1 1) rotate(0) translate(4 301)">
<polygon fill="white" stroke="none" points="-4,4 -4,-301 194,-301 194,4 -4,4"/>
<!-- x0 -->
<g id="node1" class="node">
<title>x0</title>
<ellipse fill="none" stroke="black" cx="27" cy="-192" rx="27" ry="18"/>
<text text-anchor="middle" x="27" y="-188.3" font-family="Times New Roman,serif" font-size="14.00">x0</text>
</g>
<!-- x2 -->
<g id="node3" class="node">
<title>x2</title>
<ellipse fill="none" stroke="black" cx="63" cy="-105" rx="27" ry="18"/>
<text text-anchor="middle" x="63" y="-101.3" font-family="Times New Roman,serif" font-size="14.00">x2</text>
</g>
<!-- x0&#45;&gt;x2 -->
<g id="edge3" class="edge">
<title>x0&#45;&gt;x2</title>
<path fill="none" stroke="black" d="M31.48,-174.01C34.3,-164.18 38.3,-151.68 43,-141 44.45,-137.7 46.13,-134.3 47.89,-130.99"/>
<polygon fill="black" stroke="black" points="51.08,-132.45 52.91,-122.01 44.97,-129.03 51.08,-132.45"/>
<text text-anchor="middle" x="57.5" y="-144.8" font-family="Times New Roman,serif" font-size="14.00">&#45;0.70</text>
</g>
<!-- x1 -->
<g id="node2" class="node">
<title>x1</title>
<ellipse fill="none" stroke="black" cx="99" cy="-192" rx="27" ry="18"/>
<text text-anchor="middle" x="99" y="-188.3" font-family="Times New Roman,serif" font-size="14.00">x1</text>
</g>
<!-- x1&#45;&gt;x2 -->
<g id="edge4" class="edge">
<title>x1&#45;&gt;x2</title>
<path fill="none" stroke="black" d="M91.89,-174.21C86.78,-162.14 79.79,-145.64 73.97,-131.89"/>
<polygon fill="black" stroke="black" points="77.1,-130.31 69.98,-122.47 70.65,-133.04 77.1,-130.31"/>
<text text-anchor="middle" x="97.5" y="-144.8" font-family="Times New Roman,serif" font-size="14.00">&#45;0.78</text>
</g>
<!-- x3 -->
<g id="node4" class="node">
<title>x3</title>
<ellipse fill="none" stroke="black" cx="70" cy="-18" rx="27" ry="18"/>
<text text-anchor="middle" x="70" y="-14.3" font-family="Times New Roman,serif" font-size="14.00">x3</text>
</g>
<!-- x2&#45;&gt;x3 -->
<g id="edge5" class="edge">
<title>x2&#45;&gt;x3</title>
<path fill="none" stroke="black" d="M45.62,-90.62C35.24,-80.89 25.12,-67.18 31,-54 33.72,-47.89 38.1,-42.41 42.95,-37.69"/>
<polygon fill="black" stroke="black" points="45.51,-40.11 50.8,-30.93 40.94,-34.8 45.51,-40.11"/>
<text text-anchor="middle" x="45.5" y="-57.8" font-family="Times New Roman,serif" font-size="14.00">&#45;0.90</text>
</g>
<!-- x4 -->
<g id="node5" class="node">
<title>x4</title>
<ellipse fill="none" stroke="black" cx="162" cy="-18" rx="27" ry="18"/>
<text text-anchor="middle" x="162" y="-14.3" font-family="Times New Roman,serif" font-size="14.00">x4</text>
</g>
<!-- x2&#45;&gt;x4 -->
<g id="edge7" class="edge">
<title>x2&#45;&gt;x4</title>
<path fill="none" stroke="black" d="M64.82,-86.9C66.76,-76.29 70.76,-63.01 79,-54 86.09,-46.25 108.58,-37 128.37,-29.95"/>
<polygon fill="black" stroke="black" points="129.78,-33.17 138.08,-26.59 127.48,-26.56 129.78,-33.17"/>
<text text-anchor="middle" x="93.5" y="-57.8" font-family="Times New Roman,serif" font-size="14.00">&#45;0.67</text>
</g>
<!-- x5 -->
<g id="node6" class="node">
<title>x5</title>
<ellipse fill="none" stroke="black" cx="63" cy="-279" rx="27" ry="18"/>
<text text-anchor="middle" x="63" y="-275.3" font-family="Times New Roman,serif" font-size="14.00">x5</text>
</g>
<!-- x5&#45;&gt;x0 -->
<g id="edge1" class="edge">
<title>x5&#45;&gt;x0</title>
<path fill="none" stroke="black" d="M52.91,-261.99C49.49,-256.15 45.82,-249.41 43,-243 39.73,-235.58 36.8,-227.27 34.37,-219.59"/>
<polygon fill="black" stroke="black" points="37.72,-218.55 31.48,-209.99 31.01,-220.58 37.72,-218.55"/>
<text text-anchor="middle" x="57.5" y="-231.8" font-family="Times New Roman,serif" font-size="14.00">&#45;0.89</text>
</g>
<!-- x5&#45;&gt;x1 -->
<g id="edge2" class="edge">
<title>x5&#45;&gt;x1</title>
<path fill="none" stroke="black" d="M70.11,-261.21C75.22,-249.14 82.21,-232.64 88.03,-218.89"/>
<polygon fill="black" stroke="black" points="91.35,-220.04 92.02,-209.47 84.9,-217.31 91.35,-220.04"/>
<text text-anchor="middle" x="97.5" y="-231.8" font-family="Times New Roman,serif" font-size="14.00">&#45;0.55</text>
</g>
<!-- f1(x6) -->
<g id="node7" class="node">
<title>f1(x6)</title>
<ellipse fill="none" stroke="black" cx="153" cy="-105" rx="32.49" ry="18"/>
<text text-anchor="middle" x="153" y="-101.3" font-family="Times New Roman,serif" font-size="14.00">f1(x6)</text>
</g>
<!-- f1(x6)&#45;&gt;x3 -->
<g id="edge6" class="edge">
<title>f1(x6)&#45;&gt;x3</title>
<path fill="none" stroke="black" d="M141.16,-88.03C133.33,-77.88 122.59,-64.68 112,-54 106.88,-48.84 101.06,-43.63 95.43,-38.87"/>
<polygon fill="black" stroke="black" points="97.34,-35.92 87.4,-32.27 92.9,-41.32 97.34,-35.92"/>
<text text-anchor="middle" x="137.5" y="-57.8" font-family="Times New Roman,serif" font-size="14.00">0.65</text>
</g>
<!-- f1(x6)&#45;&gt;x4 -->
<g id="edge8" class="edge">
<title>f1(x6)&#45;&gt;x4</title>
<path fill="none" stroke="black" d="M156.96,-87C158.14,-81.31 159.3,-74.91 160,-69 160.87,-61.7 161.38,-53.76 161.68,-46.4"/>
<polygon fill="black" stroke="black" points="165.19,-46.27 161.98,-36.18 158.19,-46.07 165.19,-46.27"/>
<text text-anchor="middle" x="175.5" y="-57.8" font-family="Times New Roman,serif" font-size="14.00">&#45;0.56</text>
</g>
</g>
</svg>
