<?xml version="1.0" encoding="UTF-8" standalone="no"?>
<!DOCTYPE svg PUBLIC "-//W3C//DTD SVG 1.1//EN"
 "http://www.w3.org/Graphics/SVG/1.1/DTD/svg11.dtd">
<!-- Generated by graphviz version 6.0.2 (20221011.1828)
 -->
<!-- Pages: 1 -->
<svg width="152pt" height="305pt"
 viewBox="0.00 0.00 152.00 305.00" xmlns="http://www.w3.org/2000/svg" xmlns:xlink="http://www.w3.org/1999/xlink">
<g id="graph0" class="graph" transform="scale(1 1) rotate(0) translate(4 301)">
<polygon fill="white" stroke="none" points="-4,4 -4,-301 148,-301 148,4 -4,4"/>
<!-- x0 -->
<g id="node1" class="node">
<title>x0</title>
<ellipse fill="none" stroke="black" cx="36" cy="-192" rx="27" ry="18"/>
<text text-anchor="middle" x="36" y="-188.3" font-family="Times New Roman,serif" font-size="14.00">x0</text>
</g>
<!-- x2 -->
<g id="node3" class="node">
<title>x2</title>
<ellipse fill="none" stroke="black" cx="72" cy="-105" rx="27" ry="18"/>
<text text-anchor="middle" x="72" y="-101.3" font-family="Times New Roman,serif" font-size="14.00">x2</text>
</g>
<!-- x0&#45;&gt;x2 -->
<g id="edge3" class="edge">
<title>x0&#45;&gt;x2</title>
<path fill="none" stroke="black" d="M41.97,-174.18C45.54,-164.41 50.29,-151.91 55,-141 56.34,-137.9 57.8,-134.67 59.29,-131.49"/>
<polygon fill="black" stroke="black" points="62.56,-132.77 63.74,-122.24 56.25,-129.74 62.56,-132.77"/>
<text text-anchor="middle" x="67.5" y="-144.8" font-family="Times New Roman,serif" font-size="14.00">0.76</text>
</g>
<!-- x1 -->
<g id="node2" class="node">
<title>x1</title>
<ellipse fill="none" stroke="black" cx="108" cy="-192" rx="27" ry="18"/>
<text text-anchor="middle" x="108" y="-188.3" font-family="Times New Roman,serif" font-size="14.00">x1</text>
</g>
<!-- x1&#45;&gt;x2 -->
<g id="edge4" class="edge">
<title>x1&#45;&gt;x2</title>
<path fill="none" stroke="black" d="M100.89,-174.21C95.78,-162.14 88.79,-145.64 82.97,-131.89"/>
<polygon fill="black" stroke="black" points="86.1,-130.31 78.98,-122.47 79.65,-133.04 86.1,-130.31"/>
<text text-anchor="middle" x="104.5" y="-144.8" font-family="Times New Roman,serif" font-size="14.00">0.62</text>
</g>
<!-- x3 -->
<g id="node4" class="node">
<title>x3</title>
<ellipse fill="none" stroke="black" cx="27" cy="-18" rx="27" ry="18"/>
<text text-anchor="middle" x="27" y="-14.3" font-family="Times New Roman,serif" font-size="14.00">x3</text>
</g>
<!-- x2&#45;&gt;x3 -->
<g id="edge5" class="edge">
<title>x2&#45;&gt;x3</title>
<path fill="none" stroke="black" d="M63.32,-87.61C56.85,-75.38 47.88,-58.44 40.48,-44.46"/>
<polygon fill="black" stroke="black" points="43.42,-42.54 35.65,-35.34 37.24,-45.81 43.42,-42.54"/>
<text text-anchor="middle" x="65.5" y="-57.8" font-family="Times New Roman,serif" font-size="14.00">1.02</text>
</g>
<!-- x4 -->
<g id="node5" class="node">
<title>x4</title>
<ellipse fill="none" stroke="black" cx="117" cy="-18" rx="27" ry="18"/>
<text text-anchor="middle" x="117" y="-14.3" font-family="Times New Roman,serif" font-size="14.00">x4</text>
</g>
<!-- x2&#45;&gt;x4 -->
<g id="edge6" class="edge">
<title>x2&#45;&gt;x4</title>
<path fill="none" stroke="black" d="M80.68,-87.61C87.15,-75.38 96.12,-58.44 103.52,-44.46"/>
<polygon fill="black" stroke="black" points="106.76,-45.81 108.35,-35.34 100.58,-42.54 106.76,-45.81"/>
<text text-anchor="middle" x="111.5" y="-57.8" font-family="Times New Roman,serif" font-size="14.00">&#45;1.00</text>
</g>
<!-- x3&#45;&gt;x4 -->
<g id="edge7" class="edge">
<title>x3&#45;&gt;x4</title>
<path fill="none" stroke="black" d="M64.16,-18C69.4,-18 74.64,-18 79.88,-18"/>
<polygon fill="black" stroke="black" points="64.07,-14.5 54.07,-18 64.07,-21.5 64.07,-14.5"/>
<polygon fill="black" stroke="black" points="79.96,-21.5 89.96,-18 79.96,-14.5 79.96,-21.5"/>
</g>
<!-- x5 -->
<g id="node6" class="node">
<title>x5</title>
<ellipse fill="none" stroke="black" cx="72" cy="-279" rx="27" ry="18"/>
<text text-anchor="middle" x="72" y="-275.3" font-family="Times New Roman,serif" font-size="14.00">x5</text>
</g>
<!-- x5&#45;&gt;x0 -->
<g id="edge1" class="edge">
<title>x5&#45;&gt;x0</title>
<path fill="none" stroke="black" d="M63.74,-261.76C60.86,-255.9 57.68,-249.2 55,-243 51.72,-235.41 48.43,-227.06 45.52,-219.39"/>
<polygon fill="black" stroke="black" points="48.73,-217.97 41.97,-209.82 42.17,-220.41 48.73,-217.97"/>
<text text-anchor="middle" x="67.5" y="-231.8" font-family="Times New Roman,serif" font-size="14.00">0.78</text>
</g>
<!-- x5&#45;&gt;x1 -->
<g id="edge2" class="edge">
<title>x5&#45;&gt;x1</title>
<path fill="none" stroke="black" d="M79.11,-261.21C84.22,-249.14 91.21,-232.64 97.03,-218.89"/>
<polygon fill="black" stroke="black" points="100.35,-220.04 101.02,-209.47 93.9,-217.31 100.35,-220.04"/>
<text text-anchor="middle" x="104.5" y="-231.8" font-family="Times New Roman,serif" font-size="14.00">0.53</text>
</g>
</g>
</svg>
