<?xml version="1.0" encoding="UTF-8" standalone="no"?>
<!DOCTYPE svg PUBLIC "-//W3C//DTD SVG 1.1//EN"
 "http://www.w3.org/Graphics/SVG/1.1/DTD/svg11.dtd">
<!-- Generated by graphviz version 2.38.0 (20140413.2041)
 -->
<!-- Title: %3 Pages: 1 -->
<svg width="318pt" height="479pt"
 viewBox="0.00 0.00 318.00 479.00" xmlns="http://www.w3.org/2000/svg" xmlns:xlink="http://www.w3.org/1999/xlink">
<g id="graph0" class="graph" transform="scale(1 1) rotate(0) translate(4 475)">
<title>%3</title>
<polygon fill="white" stroke="none" points="-4,4 -4,-475 314,-475 314,4 -4,4"/>
<!-- x0 -->
<g id="node1" class="node"><title>x0</title>
<ellipse fill="none" stroke="black" cx="179" cy="-18" rx="27" ry="18"/>
<text text-anchor="middle" x="179" y="-14.3" font-family="Times New Roman,serif" font-size="14.00">x0</text>
</g>
<!-- x1 -->
<g id="node2" class="node"><title>x1</title>
<ellipse fill="none" stroke="black" cx="115" cy="-105" rx="27" ry="18"/>
<text text-anchor="middle" x="115" y="-101.3" font-family="Times New Roman,serif" font-size="14.00">x1</text>
</g>
<!-- x1&#45;&gt;x0 -->
<g id="edge1" class="edge"><title>x1&#45;&gt;x0</title>
<path fill="none" stroke="black" d="M121.446,-87.3414C125.828,-77.1618 132.232,-64.1867 140,-54 144.055,-48.683 148.996,-43.5339 153.981,-38.8948"/>
<polygon fill="black" stroke="black" points="156.535,-41.3087 161.728,-32.0734 151.91,-36.055 156.535,-41.3087"/>
<text text-anchor="middle" x="152.5" y="-57.8" font-family="Times New Roman,serif" font-size="14.00">0.01</text>
</g>
<!-- x2 -->
<g id="node3" class="node"><title>x2</title>
<ellipse fill="none" stroke="black" cx="114" cy="-192" rx="27" ry="18"/>
<text text-anchor="middle" x="114" y="-188.3" font-family="Times New Roman,serif" font-size="14.00">x2</text>
</g>
<!-- x2&#45;&gt;x0 -->
<g id="edge2" class="edge"><title>x2&#45;&gt;x0</title>
<path fill="none" stroke="black" d="M128.266,-176.696C133.55,-170.72 139.179,-163.441 143,-156 161.231,-120.502 170.814,-74.9614 175.388,-46.372"/>
<polygon fill="black" stroke="black" points="178.876,-46.7105 176.903,-36.3011 171.954,-45.669 178.876,-46.7105"/>
<text text-anchor="middle" x="179.5" y="-101.3" font-family="Times New Roman,serif" font-size="14.00">0.07</text>
</g>
<!-- x2&#45;&gt;x1 -->
<g id="edge6" class="edge"><title>x2&#45;&gt;x1</title>
<path fill="none" stroke="black" d="M114.202,-173.799C114.339,-162.163 114.523,-146.548 114.68,-133.237"/>
<polygon fill="black" stroke="black" points="118.18,-133.216 114.798,-123.175 111.18,-133.134 118.18,-133.216"/>
<text text-anchor="middle" x="126.5" y="-144.8" font-family="Times New Roman,serif" font-size="14.00">1.66</text>
</g>
<!-- x3 -->
<g id="node4" class="node"><title>x3</title>
<ellipse fill="none" stroke="black" cx="113" cy="-453" rx="27" ry="18"/>
<text text-anchor="middle" x="113" y="-449.3" font-family="Times New Roman,serif" font-size="14.00">x3</text>
</g>
<!-- x3&#45;&gt;x0 -->
<g id="edge3" class="edge"><title>x3&#45;&gt;x0</title>
<path fill="none" stroke="black" d="M139.875,-450.71C188.25,-446.789 285,-430.952 285,-367 285,-367 285,-367 285,-104 285,-66.3252 243.741,-42.5751 212.705,-30.0392"/>
<polygon fill="black" stroke="black" points="213.644,-26.6513 203.053,-26.3596 211.15,-33.1922 213.644,-26.6513"/>
<text text-anchor="middle" x="297.5" y="-231.8" font-family="Times New Roman,serif" font-size="14.00">0.06</text>
</g>
<!-- x3&#45;&gt;x2 -->
<g id="edge9" class="edge"><title>x3&#45;&gt;x2</title>
<path fill="none" stroke="black" d="M111.439,-434.705C109.276,-408.724 105.765,-358.074 107,-315 107.932,-282.488 110.258,-245.161 111.975,-220.448"/>
<polygon fill="black" stroke="black" points="115.474,-220.584 112.69,-210.361 108.491,-220.089 115.474,-220.584"/>
<text text-anchor="middle" x="119.5" y="-318.8" font-family="Times New Roman,serif" font-size="14.00">5.60</text>
</g>
<!-- x4 -->
<g id="node5" class="node"><title>x4</title>
<ellipse fill="none" stroke="black" cx="146" cy="-366" rx="27" ry="18"/>
<text text-anchor="middle" x="146" y="-362.3" font-family="Times New Roman,serif" font-size="14.00">x4</text>
</g>
<!-- x3&#45;&gt;x4 -->
<g id="edge12" class="edge"><title>x3&#45;&gt;x4</title>
<path fill="none" stroke="black" d="M119.52,-435.207C124.175,-423.216 130.528,-406.851 135.845,-393.157"/>
<polygon fill="black" stroke="black" points="139.137,-394.347 139.494,-383.758 132.612,-391.814 139.137,-394.347"/>
<text text-anchor="middle" x="146.5" y="-405.8" font-family="Times New Roman,serif" font-size="14.00">18.26</text>
</g>
<!-- x5 -->
<g id="node6" class="node"><title>x5</title>
<ellipse fill="none" stroke="black" cx="27" cy="-279" rx="27" ry="18"/>
<text text-anchor="middle" x="27" y="-275.3" font-family="Times New Roman,serif" font-size="14.00">x5</text>
</g>
<!-- x3&#45;&gt;x5 -->
<g id="edge13" class="edge"><title>x3&#45;&gt;x5</title>
<path fill="none" stroke="black" d="M97.425,-437.843C90.8905,-431.656 83.3507,-424.184 77,-417 47.8923,-384.073 39.7367,-372.856 30,-330 28.369,-322.821 27.4886,-314.922 27.0408,-307.565"/>
<polygon fill="black" stroke="black" points="30.529,-307.182 26.6572,-297.32 23.5339,-307.444 30.529,-307.182"/>
<text text-anchor="middle" x="62.5" y="-362.3" font-family="Times New Roman,serif" font-size="14.00">2.84</text>
</g>
<!-- x4&#45;&gt;x0 -->
<g id="edge4" class="edge"><title>x4&#45;&gt;x0</title>
<path fill="none" stroke="black" d="M167.701,-355.213C193.178,-342.066 232,-316.107 232,-280 232,-280 232,-280 232,-104 232,-79.7129 216.227,-56.6282 201.89,-40.6619"/>
<polygon fill="black" stroke="black" points="204.037,-37.839 194.615,-32.9927 198.958,-42.6565 204.037,-37.839"/>
<text text-anchor="middle" x="244.5" y="-188.3" font-family="Times New Roman,serif" font-size="14.00">0.10</text>
</g>
<!-- x4&#45;&gt;x1 -->
<g id="edge7" class="edge"><title>x4&#45;&gt;x1</title>
<path fill="none" stroke="black" d="M152.387,-348.252C157.21,-334.668 163.422,-314.905 166,-297 176.019,-227.428 171.031,-204.069 140,-141 138.109,-137.156 135.809,-133.277 133.38,-129.571"/>
<polygon fill="black" stroke="black" points="136.214,-127.516 127.606,-121.339 130.483,-131.536 136.214,-127.516"/>
<text text-anchor="middle" x="184.5" y="-231.8" font-family="Times New Roman,serif" font-size="14.00">&#45;0.26</text>
</g>
<!-- x4&#45;&gt;x2 -->
<g id="edge10" class="edge"><title>x4&#45;&gt;x2</title>
<path fill="none" stroke="black" d="M142.815,-347.879C137.256,-318.001 125.742,-256.113 119.074,-220.274"/>
<polygon fill="black" stroke="black" points="122.443,-219.243 117.172,-210.052 115.561,-220.523 122.443,-219.243"/>
<text text-anchor="middle" x="147.5" y="-275.3" font-family="Times New Roman,serif" font-size="14.00">&#45;0.12</text>
</g>
<!-- x4&#45;&gt;x5 -->
<g id="edge14" class="edge"><title>x4&#45;&gt;x5</title>
<path fill="none" stroke="black" d="M119.125,-362.341C96.2854,-358.711 64.094,-350.151 44,-330 37.8325,-323.815 33.901,-315.309 31.3955,-307.066"/>
<polygon fill="black" stroke="black" points="34.7837,-306.188 28.992,-297.316 27.9872,-307.863 34.7837,-306.188"/>
<text text-anchor="middle" x="56.5" y="-318.8" font-family="Times New Roman,serif" font-size="14.00">0.52</text>
</g>
<!-- x5&#45;&gt;x0 -->
<g id="edge5" class="edge"><title>x5&#45;&gt;x0</title>
<path fill="none" stroke="black" d="M24.7545,-260.784C21.9942,-234.037 19.5058,-181.381 36,-141 56.9562,-89.6948 113.038,-52.7706 148.421,-33.7252"/>
<polygon fill="black" stroke="black" points="150.128,-36.7825 157.371,-29.0502 146.887,-30.5779 150.128,-36.7825"/>
<text text-anchor="middle" x="48.5" y="-144.8" font-family="Times New Roman,serif" font-size="14.00">0.04</text>
</g>
<!-- x5&#45;&gt;x1 -->
<g id="edge8" class="edge"><title>x5&#45;&gt;x1</title>
<path fill="none" stroke="black" d="M28.6754,-260.869C31.3371,-239.462 37.8746,-202.213 53,-174 62.7178,-155.874 78.3404,-138.782 91.4717,-126.268"/>
<polygon fill="black" stroke="black" points="93.8777,-128.811 98.8519,-119.456 89.1298,-123.667 93.8777,-128.811"/>
<text text-anchor="middle" x="65.5" y="-188.3" font-family="Times New Roman,serif" font-size="14.00">1.32</text>
</g>
<!-- x5&#45;&gt;x2 -->
<g id="edge11" class="edge"><title>x5&#45;&gt;x2</title>
<path fill="none" stroke="black" d="M35.709,-261.95C41.8764,-251.511 50.8369,-238.026 61,-228 68.0328,-221.062 76.6346,-214.693 84.8457,-209.345"/>
<polygon fill="black" stroke="black" points="86.8615,-212.213 93.5097,-203.964 83.1681,-206.267 86.8615,-212.213"/>
<text text-anchor="middle" x="73.5" y="-231.8" font-family="Times New Roman,serif" font-size="14.00">0.22</text>
</g>
</g>
</svg>
