<?xml version="1.0" encoding="UTF-8" standalone="no"?>
<!DOCTYPE svg PUBLIC "-//W3C//DTD SVG 1.1//EN"
 "http://www.w3.org/Graphics/SVG/1.1/DTD/svg11.dtd">
<!-- Generated by graphviz version 2.38.0 (20140413.2041)
 -->
<!-- Title: %3 Pages: 1 -->
<svg width="224pt" height="218pt"
 viewBox="0.00 0.00 224.00 218.00" xmlns="http://www.w3.org/2000/svg" xmlns:xlink="http://www.w3.org/1999/xlink">
<g id="graph0" class="graph" transform="scale(1 1) rotate(0) translate(4 214)">
<title>%3</title>
<polygon fill="white" stroke="none" points="-4,4 -4,-214 220,-214 220,4 -4,4"/>
<!-- x0 -->
<g id="node1" class="node"><title>x0</title>
<ellipse fill="none" stroke="black" cx="105" cy="-105" rx="27" ry="18"/>
<text text-anchor="middle" x="105" y="-101.3" font-family="Times New Roman,serif" font-size="14.00">x0</text>
</g>
<!-- x1 -->
<g id="node2" class="node"><title>x1</title>
<ellipse fill="none" stroke="black" cx="183" cy="-18" rx="27" ry="18"/>
<text text-anchor="middle" x="183" y="-14.3" font-family="Times New Roman,serif" font-size="14.00">x1</text>
</g>
<!-- x0&#45;&gt;x1 -->
<g id="edge2" class="edge"><title>x0&#45;&gt;x1</title>
<path fill="none" stroke="black" d="M118.587,-89.1941C130.778,-75.9087 148.837,-56.2284 162.734,-41.0842"/>
<polygon fill="black" stroke="black" points="165.387,-43.3706 169.569,-33.6362 160.229,-38.6377 165.387,-43.3706"/>
<text text-anchor="middle" x="160.5" y="-57.8" font-family="Times New Roman,serif" font-size="14.00">2.87</text>
</g>
<!-- x4 -->
<g id="node5" class="node"><title>x4</title>
<ellipse fill="none" stroke="black" cx="27" cy="-18" rx="27" ry="18"/>
<text text-anchor="middle" x="27" y="-14.3" font-family="Times New Roman,serif" font-size="14.00">x4</text>
</g>
<!-- x0&#45;&gt;x4 -->
<g id="edge5" class="edge"><title>x0&#45;&gt;x4</title>
<path fill="none" stroke="black" d="M90.1055,-89.5953C83.7944,-83.367 76.4283,-75.9303 70,-69 61.9755,-60.3489 53.4429,-50.5596 46.1118,-41.9507"/>
<polygon fill="black" stroke="black" points="48.6346,-39.5135 39.507,-34.1341 43.2878,-44.0314 48.6346,-39.5135"/>
<text text-anchor="middle" x="82.5" y="-57.8" font-family="Times New Roman,serif" font-size="14.00">6.09</text>
</g>
<!-- x5 -->
<g id="node6" class="node"><title>x5</title>
<ellipse fill="none" stroke="black" cx="99" cy="-18" rx="27" ry="18"/>
<text text-anchor="middle" x="99" y="-14.3" font-family="Times New Roman,serif" font-size="14.00">x5</text>
</g>
<!-- x0&#45;&gt;x5 -->
<g id="edge6" class="edge"><title>x0&#45;&gt;x5</title>
<path fill="none" stroke="black" d="M102.14,-86.9569C101.299,-81.2635 100.476,-74.8733 100,-69 99.4057,-61.674 99.0951,-53.7255 98.9455,-46.3673"/>
<polygon fill="black" stroke="black" points="102.443,-46.1093 98.8274,-36.1504 95.4433,-46.1903 102.443,-46.1093"/>
<text text-anchor="middle" x="112.5" y="-57.8" font-family="Times New Roman,serif" font-size="14.00">3.97</text>
</g>
<!-- x2 -->
<g id="node3" class="node"><title>x2</title>
<ellipse fill="none" stroke="black" cx="189" cy="-105" rx="27" ry="18"/>
<text text-anchor="middle" x="189" y="-101.3" font-family="Times New Roman,serif" font-size="14.00">x2</text>
</g>
<!-- x2&#45;&gt;x1 -->
<g id="edge3" class="edge"><title>x2&#45;&gt;x1</title>
<path fill="none" stroke="black" d="M187.786,-86.799C186.964,-75.1626 185.862,-59.5479 184.923,-46.2368"/>
<polygon fill="black" stroke="black" points="188.408,-45.9041 184.212,-36.1754 181.425,-46.3971 188.408,-45.9041"/>
<text text-anchor="middle" x="198.5" y="-57.8" font-family="Times New Roman,serif" font-size="14.00">1.97</text>
</g>
<!-- x3 -->
<g id="node4" class="node"><title>x3</title>
<ellipse fill="none" stroke="black" cx="151" cy="-192" rx="27" ry="18"/>
<text text-anchor="middle" x="151" y="-188.3" font-family="Times New Roman,serif" font-size="14.00">x3</text>
</g>
<!-- x3&#45;&gt;x0 -->
<g id="edge1" class="edge"><title>x3&#45;&gt;x0</title>
<path fill="none" stroke="black" d="M142.131,-174.611C135.47,-162.303 126.228,-145.226 118.631,-131.187"/>
<polygon fill="black" stroke="black" points="121.524,-129.179 113.686,-122.05 115.367,-132.511 121.524,-129.179"/>
<text text-anchor="middle" x="142.5" y="-144.8" font-family="Times New Roman,serif" font-size="14.00">3.01</text>
</g>
<!-- x3&#45;&gt;x2 -->
<g id="edge4" class="edge"><title>x3&#45;&gt;x2</title>
<path fill="none" stroke="black" d="M158.327,-174.611C163.741,-162.499 171.221,-145.768 177.439,-131.86"/>
<polygon fill="black" stroke="black" points="180.81,-132.896 181.696,-122.339 174.419,-130.039 180.81,-132.896"/>
<text text-anchor="middle" x="184.5" y="-144.8" font-family="Times New Roman,serif" font-size="14.00">5.88</text>
</g>
</g>
</svg>
