<?xml version="1.0" encoding="UTF-8" standalone="no"?>
<!DOCTYPE svg PUBLIC "-//W3C//DTD SVG 1.1//EN"
 "http://www.w3.org/Graphics/SVG/1.1/DTD/svg11.dtd">
<!-- Generated by graphviz version 2.43.0 (0)
 -->
<!-- Title: %3 Pages: 1 -->
<svg width="267pt" height="218pt"
 viewBox="0.00 0.00 267.00 218.00" xmlns="http://www.w3.org/2000/svg" xmlns:xlink="http://www.w3.org/1999/xlink">
<g id="graph0" class="graph" transform="scale(1 1) rotate(0) translate(4 214)">
<title>%3</title>
<polygon fill="white" stroke="transparent" points="-4,4 -4,-214 263,-214 263,4 -4,4"/>
<!-- x0 -->
<g id="node1" class="node">
<title>x0</title>
<ellipse fill="none" stroke="black" cx="158" cy="-105" rx="27" ry="18"/>
<text text-anchor="middle" x="158" y="-101.3" font-family="Times,serif" font-size="14.00">x0</text>
</g>
<!-- x1 -->
<g id="node2" class="node">
<title>x1</title>
<ellipse fill="none" stroke="black" cx="139" cy="-18" rx="27" ry="18"/>
<text text-anchor="middle" x="139" y="-14.3" font-family="Times,serif" font-size="14.00">x1</text>
</g>
<!-- x0&#45;&gt;x1 -->
<g id="edge2" class="edge">
<title>x0&#45;&gt;x1</title>
<path fill="none" stroke="black" d="M158.52,-86.64C158.42,-76.91 157.65,-64.63 155,-54 154.23,-50.92 153.2,-47.78 152.03,-44.71"/>
<polygon fill="black" stroke="black" points="155.13,-43.07 147.95,-35.28 148.7,-45.85 155.13,-43.07"/>
<text text-anchor="middle" x="173" y="-57.8" font-family="Times,serif" font-size="14.00">2.96</text>
</g>
<!-- x4 -->
<g id="node5" class="node">
<title>x4</title>
<ellipse fill="none" stroke="black" cx="27" cy="-18" rx="27" ry="18"/>
<text text-anchor="middle" x="27" y="-14.3" font-family="Times,serif" font-size="14.00">x4</text>
</g>
<!-- x0&#45;&gt;x4 -->
<g id="edge5" class="edge">
<title>x0&#45;&gt;x4</title>
<path fill="none" stroke="black" d="M142.61,-89.91C128.57,-77.22 108.73,-59.71 100,-54 87.13,-45.58 71.92,-37.96 58.73,-32"/>
<polygon fill="black" stroke="black" points="60.1,-28.78 49.54,-27.96 57.29,-35.19 60.1,-28.78"/>
<text text-anchor="middle" x="134" y="-57.8" font-family="Times,serif" font-size="14.00">8.01</text>
</g>
<!-- x5 -->
<g id="node6" class="node">
<title>x5</title>
<ellipse fill="none" stroke="black" cx="232" cy="-18" rx="27" ry="18"/>
<text text-anchor="middle" x="232" y="-14.3" font-family="Times,serif" font-size="14.00">x5</text>
</g>
<!-- x0&#45;&gt;x5 -->
<g id="edge7" class="edge">
<title>x0&#45;&gt;x5</title>
<path fill="none" stroke="black" d="M173.06,-89.74C179.4,-83.54 186.74,-76.08 193,-69 200.33,-60.71 207.91,-51.22 214.42,-42.76"/>
<polygon fill="black" stroke="black" points="217.27,-44.8 220.53,-34.71 211.69,-40.56 217.27,-44.8"/>
<text text-anchor="middle" x="221" y="-57.8" font-family="Times,serif" font-size="14.00">4.00</text>
</g>
<!-- x2 -->
<g id="node3" class="node">
<title>x2</title>
<ellipse fill="none" stroke="black" cx="67" cy="-105" rx="27" ry="18"/>
<text text-anchor="middle" x="67" y="-101.3" font-family="Times,serif" font-size="14.00">x2</text>
</g>
<!-- x2&#45;&gt;x1 -->
<g id="edge3" class="edge">
<title>x2&#45;&gt;x1</title>
<path fill="none" stroke="black" d="M63.15,-86.98C61.78,-76.66 61.85,-63.67 68,-54 76.07,-41.31 90.22,-33.07 103.77,-27.8"/>
<polygon fill="black" stroke="black" points="105.12,-31.04 113.43,-24.47 102.84,-24.42 105.12,-31.04"/>
<text text-anchor="middle" x="84" y="-57.8" font-family="Times,serif" font-size="14.00">2.02</text>
</g>
<!-- x2&#45;&gt;x4 -->
<g id="edge6" class="edge">
<title>x2&#45;&gt;x4</title>
<path fill="none" stroke="black" d="M43.16,-96.44C30.29,-91 15.54,-82.25 8,-69 3.41,-60.94 5.29,-51.56 9.3,-43.11"/>
<polygon fill="black" stroke="black" points="12.34,-44.84 14.27,-34.43 6.27,-41.37 12.34,-44.84"/>
<text text-anchor="middle" x="26.5" y="-57.8" font-family="Times,serif" font-size="14.00">&#45;1.01</text>
</g>
<!-- x3 -->
<g id="node4" class="node">
<title>x3</title>
<ellipse fill="none" stroke="black" cx="102" cy="-192" rx="27" ry="18"/>
<text text-anchor="middle" x="102" y="-188.3" font-family="Times,serif" font-size="14.00">x3</text>
</g>
<!-- x3&#45;&gt;x0 -->
<g id="edge1" class="edge">
<title>x3&#45;&gt;x0</title>
<path fill="none" stroke="black" d="M112.53,-175.01C120.82,-162.43 132.52,-144.68 141.97,-130.33"/>
<polygon fill="black" stroke="black" points="144.94,-132.19 147.51,-121.92 139.09,-128.34 144.94,-132.19"/>
<text text-anchor="middle" x="149" y="-144.8" font-family="Times,serif" font-size="14.00">3.01</text>
</g>
<!-- x3&#45;&gt;x2 -->
<g id="edge4" class="edge">
<title>x3&#45;&gt;x2</title>
<path fill="none" stroke="black" d="M90.85,-175.54C86.99,-169.64 82.9,-162.72 80,-156 76.87,-148.75 74.36,-140.58 72.4,-132.98"/>
<polygon fill="black" stroke="black" points="75.78,-132.03 70.09,-123.1 68.96,-133.63 75.78,-132.03"/>
<text text-anchor="middle" x="96" y="-144.8" font-family="Times,serif" font-size="14.00">5.97</text>
</g>
</g>
</svg>
