<?xml version="1.0" encoding="UTF-8" standalone="no"?>
<!DOCTYPE svg PUBLIC "-//W3C//DTD SVG 1.1//EN"
 "http://www.w3.org/Graphics/SVG/1.1/DTD/svg11.dtd">
<!-- Generated by graphviz version 6.0.2 (20221011.1828)
 -->
<!-- Pages: 1 -->
<svg width="296pt" height="131pt"
 viewBox="0.00 0.00 296.00 131.00" xmlns="http://www.w3.org/2000/svg" xmlns:xlink="http://www.w3.org/1999/xlink">
<g id="graph0" class="graph" transform="scale(1 1) rotate(0) translate(4 127)">
<polygon fill="white" stroke="none" points="-4,4 -4,-127 292,-127 292,4 -4,4"/>
<!-- x0 -->
<g id="node1" class="node">
<title>x0</title>
<ellipse fill="none" stroke="black" cx="57" cy="-105" rx="27" ry="18"/>
<text text-anchor="middle" x="57" y="-101.3" font-family="Times New Roman,serif" font-size="14.00">x0</text>
</g>
<!-- x1 -->
<g id="node2" class="node">
<title>x1</title>
<ellipse fill="none" stroke="black" cx="27" cy="-18" rx="27" ry="18"/>
<text text-anchor="middle" x="27" y="-14.3" font-family="Times New Roman,serif" font-size="14.00">x1</text>
</g>
<!-- x0&#45;&gt;x1 -->
<g id="edge1" class="edge">
<title>x0&#45;&gt;x1</title>
<path fill="none" stroke="black" d="M48.36,-87.91C45.44,-82.07 42.34,-75.34 40,-69 37.27,-61.59 34.88,-53.37 32.92,-45.77"/>
<polygon fill="black" stroke="black" points="36.29,-44.81 30.52,-35.92 29.49,-46.47 36.29,-44.81"/>
<text text-anchor="middle" x="52.5" y="-57.8" font-family="Times New Roman,serif" font-size="14.00">1.00</text>
</g>
<!-- x3 -->
<g id="node4" class="node">
<title>x3</title>
<ellipse fill="none" stroke="black" cx="99" cy="-18" rx="27" ry="18"/>
<text text-anchor="middle" x="99" y="-14.3" font-family="Times New Roman,serif" font-size="14.00">x3</text>
</g>
<!-- x0&#45;&gt;x3 -->
<g id="edge2" class="edge">
<title>x0&#45;&gt;x3</title>
<path fill="none" stroke="black" d="M65.1,-87.61C71.14,-75.38 79.51,-58.44 86.42,-44.46"/>
<polygon fill="black" stroke="black" points="89.63,-45.85 90.93,-35.34 83.36,-42.75 89.63,-45.85"/>
<text text-anchor="middle" x="93.5" y="-57.8" font-family="Times New Roman,serif" font-size="14.00">1.00</text>
</g>
<!-- x2 -->
<g id="node3" class="node">
<title>x2</title>
<ellipse fill="none" stroke="black" cx="237" cy="-105" rx="27" ry="18"/>
<text text-anchor="middle" x="237" y="-101.3" font-family="Times New Roman,serif" font-size="14.00">x2</text>
</g>
<!-- x4 -->
<g id="node5" class="node">
<title>x4</title>
<ellipse fill="none" stroke="black" cx="189" cy="-18" rx="27" ry="18"/>
<text text-anchor="middle" x="189" y="-14.3" font-family="Times New Roman,serif" font-size="14.00">x4</text>
</g>
<!-- x2&#45;&gt;x4 -->
<g id="edge3" class="edge">
<title>x2&#45;&gt;x4</title>
<path fill="none" stroke="black" d="M227.97,-88.01C220.98,-75.63 211.16,-58.23 203.12,-44.01"/>
<polygon fill="black" stroke="black" points="206.12,-42.19 198.15,-35.21 200.02,-45.63 206.12,-42.19"/>
<text text-anchor="middle" x="227.5" y="-57.8" font-family="Times New Roman,serif" font-size="14.00">1.00</text>
</g>
<!-- x5 -->
<g id="node6" class="node">
<title>x5</title>
<ellipse fill="none" stroke="black" cx="261" cy="-18" rx="27" ry="18"/>
<text text-anchor="middle" x="261" y="-14.3" font-family="Times New Roman,serif" font-size="14.00">x5</text>
</g>
<!-- x2&#45;&gt;x5 -->
<g id="edge4" class="edge">
<title>x2&#45;&gt;x5</title>
<path fill="none" stroke="black" d="M241.74,-87.21C245.09,-75.33 249.66,-59.17 253.5,-45.56"/>
<polygon fill="black" stroke="black" points="256.92,-46.33 256.27,-35.76 250.18,-44.43 256.92,-46.33"/>
<text text-anchor="middle" x="262.5" y="-57.8" font-family="Times New Roman,serif" font-size="14.00">1.00</text>
</g>
<!-- x3&#45;&gt;x4 -->
<g id="edge5" class="edge">
<title>x3&#45;&gt;x4</title>
<path fill="none" stroke="black" d="M136.16,-18C141.4,-18 146.64,-18 151.88,-18"/>
<polygon fill="black" stroke="black" points="136.07,-14.5 126.07,-18 136.07,-21.5 136.07,-14.5"/>
<polygon fill="black" stroke="black" points="151.96,-21.5 161.96,-18 151.96,-14.5 151.96,-21.5"/>
</g>
</g>
</svg>
