<?xml version="1.0" encoding="UTF-8" standalone="no"?>
<!DOCTYPE svg PUBLIC "-//W3C//DTD SVG 1.1//EN"
 "http://www.w3.org/Graphics/SVG/1.1/DTD/svg11.dtd">
<!-- Generated by graphviz version 6.0.2 (20221011.1828)
 -->
<!-- Pages: 1 -->
<svg width="239pt" height="305pt"
 viewBox="0.00 0.00 239.00 305.00" xmlns="http://www.w3.org/2000/svg" xmlns:xlink="http://www.w3.org/1999/xlink">
<g id="graph0" class="graph" transform="scale(1 1) rotate(0) translate(4 301)">
<polygon fill="white" stroke="none" points="-4,4 -4,-301 235,-301 235,4 -4,4"/>
<!-- x0 -->
<g id="node1" class="node">
<title>x0</title>
<ellipse fill="none" stroke="black" cx="27" cy="-279" rx="27" ry="18"/>
<text text-anchor="middle" x="27" y="-275.3" font-family="Times New Roman,serif" font-size="14.00">x0</text>
</g>
<!-- x1 -->
<g id="node2" class="node">
<title>x1</title>
<ellipse fill="none" stroke="black" cx="117" cy="-279" rx="27" ry="18"/>
<text text-anchor="middle" x="117" y="-275.3" font-family="Times New Roman,serif" font-size="14.00">x1</text>
</g>
<!-- x0&#45;&gt;x1 -->
<g id="edge8" class="edge">
<title>x0&#45;&gt;x1</title>
<path fill="none" stroke="black" d="M64.16,-279C69.4,-279 74.64,-279 79.88,-279"/>
<polygon fill="black" stroke="black" points="64.07,-275.5 54.07,-279 64.07,-282.5 64.07,-275.5"/>
<polygon fill="black" stroke="black" points="79.96,-282.5 89.96,-279 79.96,-275.5 79.96,-282.5"/>
</g>
<!-- x2 -->
<g id="node3" class="node">
<title>x2</title>
<ellipse fill="none" stroke="black" cx="155" cy="-192" rx="27" ry="18"/>
<text text-anchor="middle" x="155" y="-188.3" font-family="Times New Roman,serif" font-size="14.00">x2</text>
</g>
<!-- x0&#45;&gt;x2 -->
<g id="edge2" class="edge">
<title>x0&#45;&gt;x2</title>
<path fill="none" stroke="black" d="M45.61,-265.64C67.23,-251.29 103.07,-227.49 127.8,-211.06"/>
<polygon fill="black" stroke="black" points="129.97,-213.82 136.37,-205.37 126.1,-207.99 129.97,-213.82"/>
<text text-anchor="middle" x="111.5" y="-231.8" font-family="Times New Roman,serif" font-size="14.00">1.00</text>
</g>
<!-- x3 -->
<g id="node4" class="node">
<title>x3</title>
<ellipse fill="none" stroke="black" cx="100" cy="-18" rx="27" ry="18"/>
<text text-anchor="middle" x="100" y="-14.3" font-family="Times New Roman,serif" font-size="14.00">x3</text>
</g>
<!-- x0&#45;&gt;x3 -->
<g id="edge4" class="edge">
<title>x0&#45;&gt;x3</title>
<path fill="none" stroke="black" d="M31.79,-261.01C44.19,-217.01 77.42,-99.11 92.44,-45.81"/>
<polygon fill="black" stroke="black" points="95.85,-46.63 95.19,-36.06 89.11,-44.73 95.85,-46.63"/>
<text text-anchor="middle" x="78.5" y="-144.8" font-family="Times New Roman,serif" font-size="14.00">1.00</text>
</g>
<!-- x4 -->
<g id="node5" class="node">
<title>x4</title>
<ellipse fill="none" stroke="black" cx="155" cy="-105" rx="27" ry="18"/>
<text text-anchor="middle" x="155" y="-101.3" font-family="Times New Roman,serif" font-size="14.00">x4</text>
</g>
<!-- x2&#45;&gt;x4 -->
<g id="edge6" class="edge">
<title>x2&#45;&gt;x4</title>
<path fill="none" stroke="black" d="M155,-173.8C155,-162.16 155,-146.55 155,-133.24"/>
<polygon fill="black" stroke="black" points="158.5,-133.18 155,-123.18 151.5,-133.18 158.5,-133.18"/>
<text text-anchor="middle" x="167.5" y="-144.8" font-family="Times New Roman,serif" font-size="14.00">1.00</text>
</g>
<!-- x3&#45;&gt;x1 -->
<g id="edge1" class="edge">
<title>x3&#45;&gt;x1</title>
<path fill="none" stroke="black" d="M101.12,-36.06C104.01,-80.03 111.72,-197.54 115.22,-250.93"/>
<polygon fill="black" stroke="black" points="111.74,-251.26 115.88,-261.01 118.72,-250.8 111.74,-251.26"/>
<text text-anchor="middle" x="121.5" y="-144.8" font-family="Times New Roman,serif" font-size="14.00">1.00</text>
</g>
<!-- x4&#45;&gt;x3 -->
<g id="edge5" class="edge">
<title>x4&#45;&gt;x3</title>
<path fill="none" stroke="black" d="M144.65,-88.01C136.51,-75.43 125.03,-57.68 115.74,-43.33"/>
<polygon fill="black" stroke="black" points="118.67,-41.41 110.3,-34.92 112.79,-45.21 118.67,-41.41"/>
<text text-anchor="middle" x="143.5" y="-57.8" font-family="Times New Roman,serif" font-size="14.00">1.00</text>
</g>
<!-- x5 -->
<g id="node6" class="node">
<title>x5</title>
<ellipse fill="none" stroke="black" cx="204" cy="-279" rx="27" ry="18"/>
<text text-anchor="middle" x="204" y="-275.3" font-family="Times New Roman,serif" font-size="14.00">x5</text>
</g>
<!-- x5&#45;&gt;x2 -->
<g id="edge3" class="edge">
<title>x5&#45;&gt;x2</title>
<path fill="none" stroke="black" d="M192.21,-262.71C187.82,-256.72 182.95,-249.69 179,-243 174.47,-235.34 170.08,-226.69 166.33,-218.77"/>
<polygon fill="black" stroke="black" points="169.46,-217.2 162.09,-209.58 163.1,-220.13 169.46,-217.2"/>
<text text-anchor="middle" x="191.5" y="-231.8" font-family="Times New Roman,serif" font-size="14.00">1.00</text>
</g>
<!-- x5&#45;&gt;x4 -->
<g id="edge7" class="edge">
<title>x5&#45;&gt;x4</title>
<path fill="none" stroke="black" d="M204.79,-260.99C205.35,-234.08 203.59,-180.65 184,-141 181.8,-136.55 178.93,-132.17 175.85,-128.1"/>
<polygon fill="black" stroke="black" points="178.44,-125.74 169.38,-120.24 173.04,-130.19 178.44,-125.74"/>
<text text-anchor="middle" x="215.5" y="-188.3" font-family="Times New Roman,serif" font-size="14.00">1.00</text>
</g>
</g>
</svg>
