<?xml version="1.0" encoding="UTF-8" standalone="no"?>
<!DOCTYPE svg PUBLIC "-//W3C//DTD SVG 1.1//EN"
 "http://www.w3.org/Graphics/SVG/1.1/DTD/svg11.dtd">
<!-- Generated by graphviz version 2.43.0 (0)
 -->
<!-- Title: %3 Pages: 1 -->
<svg width="407pt" height="479pt"
 viewBox="0.00 0.00 407.00 479.00" xmlns="http://www.w3.org/2000/svg" xmlns:xlink="http://www.w3.org/1999/xlink">
<g id="graph0" class="graph" transform="scale(1 1) rotate(0) translate(4 475)">
<title>%3</title>
<polygon fill="white" stroke="transparent" points="-4,4 -4,-475 403,-475 403,4 -4,4"/>
<!-- x0 -->
<g id="node1" class="node">
<title>x0</title>
<ellipse fill="none" stroke="black" cx="166" cy="-105" rx="27" ry="18"/>
<text text-anchor="middle" x="166" y="-101.3" font-family="Times,serif" font-size="14.00">x0</text>
</g>
<!-- x4 -->
<g id="node5" class="node">
<title>x4</title>
<ellipse fill="none" stroke="black" cx="310" cy="-18" rx="27" ry="18"/>
<text text-anchor="middle" x="310" y="-14.3" font-family="Times,serif" font-size="14.00">x4</text>
</g>
<!-- x0&#45;&gt;x4 -->
<g id="edge10" class="edge">
<title>x0&#45;&gt;x4</title>
<path fill="none" stroke="black" d="M185.72,-92.36C210.6,-77.67 253.56,-52.31 281.88,-35.6"/>
<polygon fill="black" stroke="black" points="283.69,-38.6 290.52,-30.5 280.13,-32.57 283.69,-38.6"/>
<text text-anchor="middle" x="263" y="-57.8" font-family="Times,serif" font-size="14.00">9.06</text>
</g>
<!-- x1 -->
<g id="node2" class="node">
<title>x1</title>
<ellipse fill="none" stroke="black" cx="171" cy="-453" rx="27" ry="18"/>
<text text-anchor="middle" x="171" y="-449.3" font-family="Times,serif" font-size="14.00">x1</text>
</g>
<!-- x1&#45;&gt;x0 -->
<g id="edge1" class="edge">
<title>x1&#45;&gt;x0</title>
<path fill="none" stroke="black" d="M143.9,-450.62C95.69,-446.56 0,-430.49 0,-367 0,-367 0,-367 0,-191 0,-133.54 79.78,-114.9 128.73,-108.87"/>
<polygon fill="black" stroke="black" points="129.41,-112.31 138.96,-107.73 128.64,-105.36 129.41,-112.31"/>
<text text-anchor="middle" x="18.5" y="-275.3" font-family="Times,serif" font-size="14.00">&#45;0.07</text>
</g>
<!-- x2 -->
<g id="node3" class="node">
<title>x2</title>
<ellipse fill="none" stroke="black" cx="256" cy="-279" rx="27" ry="18"/>
<text text-anchor="middle" x="256" y="-275.3" font-family="Times,serif" font-size="14.00">x2</text>
</g>
<!-- x1&#45;&gt;x2 -->
<g id="edge5" class="edge">
<title>x1&#45;&gt;x2</title>
<path fill="none" stroke="black" d="M187.56,-438.6C194.26,-432.54 201.66,-424.96 207,-417 230.06,-382.63 243.68,-336.12 250.49,-307.1"/>
<polygon fill="black" stroke="black" points="253.93,-307.78 252.7,-297.26 247.1,-306.25 253.93,-307.78"/>
<text text-anchor="middle" x="255" y="-362.3" font-family="Times,serif" font-size="14.00">0.32</text>
</g>
<!-- x3 -->
<g id="node4" class="node">
<title>x3</title>
<ellipse fill="none" stroke="black" cx="111" cy="-192" rx="27" ry="18"/>
<text text-anchor="middle" x="111" y="-188.3" font-family="Times,serif" font-size="14.00">x3</text>
</g>
<!-- x1&#45;&gt;x3 -->
<g id="edge7" class="edge">
<title>x1&#45;&gt;x3</title>
<path fill="none" stroke="black" d="M157.67,-437.22C139.14,-415.55 106.45,-373.07 94,-330 83.2,-292.64 92.92,-247.6 101.49,-219.62"/>
<polygon fill="black" stroke="black" points="104.92,-220.38 104.67,-209.79 98.26,-218.23 104.92,-220.38"/>
<text text-anchor="middle" x="112.5" y="-318.8" font-family="Times,serif" font-size="14.00">&#45;0.02</text>
</g>
<!-- x1&#45;&gt;x4 -->
<g id="edge11" class="edge">
<title>x1&#45;&gt;x4</title>
<path fill="none" stroke="black" d="M197.96,-451.89C250.61,-450.11 362,-437.96 362,-367 362,-367 362,-367 362,-104 362,-79.84 346.52,-56.74 332.46,-40.74"/>
<polygon fill="black" stroke="black" points="334.69,-38 325.32,-33.05 329.56,-42.76 334.69,-38"/>
<text text-anchor="middle" x="380.5" y="-231.8" font-family="Times,serif" font-size="14.00">&#45;0.25</text>
</g>
<!-- x5 -->
<g id="node6" class="node">
<title>x5</title>
<ellipse fill="none" stroke="black" cx="171" cy="-366" rx="27" ry="18"/>
<text text-anchor="middle" x="171" y="-362.3" font-family="Times,serif" font-size="14.00">x5</text>
</g>
<!-- x1&#45;&gt;x5 -->
<g id="edge13" class="edge">
<title>x1&#45;&gt;x5</title>
<path fill="none" stroke="black" d="M171,-434.8C171,-423.16 171,-407.55 171,-394.24"/>
<polygon fill="black" stroke="black" points="174.5,-394.18 171,-384.18 167.5,-394.18 174.5,-394.18"/>
<text text-anchor="middle" x="187" y="-405.8" font-family="Times,serif" font-size="14.00">0.56</text>
</g>
<!-- x2&#45;&gt;x0 -->
<g id="edge2" class="edge">
<title>x2&#45;&gt;x0</title>
<path fill="none" stroke="black" d="M257.72,-260.88C258.13,-251.01 257.63,-238.51 254,-228 240.35,-188.47 209.35,-150.66 188.04,-127.89"/>
<polygon fill="black" stroke="black" points="190.4,-125.28 180.95,-120.48 185.34,-130.12 190.4,-125.28"/>
<text text-anchor="middle" x="263" y="-188.3" font-family="Times,serif" font-size="14.00">0.13</text>
</g>
<!-- x2&#45;&gt;x3 -->
<g id="edge8" class="edge">
<title>x2&#45;&gt;x3</title>
<path fill="none" stroke="black" d="M242.1,-263.35C231.18,-252.48 215.17,-237.9 199,-228 182.12,-217.67 161.66,-209.31 144.71,-203.36"/>
<polygon fill="black" stroke="black" points="145.79,-200.03 135.2,-200.14 143.55,-206.66 145.79,-200.03"/>
<text text-anchor="middle" x="236" y="-231.8" font-family="Times,serif" font-size="14.00">0.19</text>
</g>
<!-- x2&#45;&gt;x4 -->
<g id="edge12" class="edge">
<title>x2&#45;&gt;x4</title>
<path fill="none" stroke="black" d="M263.8,-261.61C269.93,-248.06 278.21,-228.18 283,-210 298.08,-152.82 305.2,-83.66 308.17,-46.24"/>
<polygon fill="black" stroke="black" points="311.67,-46.36 308.93,-36.13 304.69,-45.84 311.67,-46.36"/>
<text text-anchor="middle" x="315.5" y="-144.8" font-family="Times,serif" font-size="14.00">&#45;0.66</text>
</g>
<!-- x3&#45;&gt;x0 -->
<g id="edge3" class="edge">
<title>x3&#45;&gt;x0</title>
<path fill="none" stroke="black" d="M111.04,-173.69C111.79,-163.52 114.01,-150.78 120,-141 124.27,-134.02 130.49,-127.93 136.98,-122.88"/>
<polygon fill="black" stroke="black" points="139.09,-125.68 145.23,-117.05 135.04,-119.97 139.09,-125.68"/>
<text text-anchor="middle" x="136" y="-144.8" font-family="Times,serif" font-size="14.00">0.55</text>
</g>
<!-- x5&#45;&gt;x0 -->
<g id="edge4" class="edge">
<title>x5&#45;&gt;x0</title>
<path fill="none" stroke="black" d="M169.5,-347.64C167.55,-324 164.22,-280.34 163,-243 161.76,-205.01 163.23,-161.07 164.52,-133.41"/>
<polygon fill="black" stroke="black" points="168.02,-133.46 165.02,-123.3 161.03,-133.12 168.02,-133.46"/>
<text text-anchor="middle" x="179" y="-231.8" font-family="Times,serif" font-size="14.00">0.26</text>
</g>
<!-- x5&#45;&gt;x2 -->
<g id="edge6" class="edge">
<title>x5&#45;&gt;x2</title>
<path fill="none" stroke="black" d="M180.04,-348.55C186.22,-338.2 195.07,-324.97 205,-315 211.54,-308.44 219.46,-302.32 227.09,-297.1"/>
<polygon fill="black" stroke="black" points="229.35,-299.8 235.81,-291.41 225.52,-293.94 229.35,-299.8"/>
<text text-anchor="middle" x="223.5" y="-318.8" font-family="Times,serif" font-size="14.00">&#45;0.17</text>
</g>
<!-- x5&#45;&gt;x3 -->
<g id="edge9" class="edge">
<title>x5&#45;&gt;x3</title>
<path fill="none" stroke="black" d="M158,-350.21C147.29,-337.15 132.67,-317.11 125,-297 115.5,-272.1 112.29,-241.7 111.28,-220.21"/>
<polygon fill="black" stroke="black" points="114.77,-220.03 110.93,-210.16 107.78,-220.27 114.77,-220.03"/>
<text text-anchor="middle" x="141" y="-275.3" font-family="Times,serif" font-size="14.00">0.03</text>
</g>
</g>
</svg>
