<?xml version="1.0" encoding="UTF-8" standalone="no"?>
<!DOCTYPE svg PUBLIC "-//W3C//DTD SVG 1.1//EN"
 "http://www.w3.org/Graphics/SVG/1.1/DTD/svg11.dtd">
<!-- Generated by graphviz version 2.38.0 (20140413.2041)
 -->
<!-- Title: %3 Pages: 1 -->
<svg width="304pt" height="479pt"
 viewBox="0.00 0.00 304.00 479.00" xmlns="http://www.w3.org/2000/svg" xmlns:xlink="http://www.w3.org/1999/xlink">
<g id="graph0" class="graph" transform="scale(1 1) rotate(0) translate(4 475)">
<title>%3</title>
<polygon fill="white" stroke="none" points="-4,4 -4,-475 300,-475 300,4 -4,4"/>
<!-- x0 -->
<g id="node1" class="node"><title>x0</title>
<ellipse fill="none" stroke="black" cx="81" cy="-105" rx="27" ry="18"/>
<text text-anchor="middle" x="81" y="-101.3" font-family="Times New Roman,serif" font-size="14.00">x0</text>
</g>
<!-- x4 -->
<g id="node5" class="node"><title>x4</title>
<ellipse fill="none" stroke="black" cx="223" cy="-18" rx="27" ry="18"/>
<text text-anchor="middle" x="223" y="-14.3" font-family="Times New Roman,serif" font-size="14.00">x4</text>
</g>
<!-- x0&#45;&gt;x4 -->
<g id="edge9" class="edge"><title>x0&#45;&gt;x4</title>
<path fill="none" stroke="black" d="M100.447,-92.3593C124.741,-77.8168 166.508,-52.8156 194.437,-36.0977"/>
<polygon fill="black" stroke="black" points="196.55,-38.912 203.332,-30.7728 192.955,-32.9059 196.55,-38.912"/>
<text text-anchor="middle" x="173.5" y="-57.8" font-family="Times New Roman,serif" font-size="14.00">8.98</text>
</g>
<!-- x1 -->
<g id="node2" class="node"><title>x1</title>
<ellipse fill="none" stroke="black" cx="167" cy="-453" rx="27" ry="18"/>
<text text-anchor="middle" x="167" y="-449.3" font-family="Times New Roman,serif" font-size="14.00">x1</text>
</g>
<!-- x1&#45;&gt;x0 -->
<g id="edge1" class="edge"><title>x1&#45;&gt;x0</title>
<path fill="none" stroke="black" d="M140.169,-450.361C92.9615,-445.87 0,-429.137 0,-367 0,-367 0,-367 0,-191 0,-160.408 27.8381,-136.471 50.8746,-121.901"/>
<polygon fill="black" stroke="black" points="52.9404,-124.744 59.7182,-116.6 49.3416,-118.74 52.9404,-124.744"/>
<text text-anchor="middle" x="14.5" y="-275.3" font-family="Times New Roman,serif" font-size="14.00">&#45;0.03</text>
</g>
<!-- x2 -->
<g id="node3" class="node"><title>x2</title>
<ellipse fill="none" stroke="black" cx="212" cy="-279" rx="27" ry="18"/>
<text text-anchor="middle" x="212" y="-275.3" font-family="Times New Roman,serif" font-size="14.00">x2</text>
</g>
<!-- x1&#45;&gt;x2 -->
<g id="edge4" class="edge"><title>x1&#45;&gt;x2</title>
<path fill="none" stroke="black" d="M174.239,-435.459C176.597,-429.689 179.095,-423.124 181,-417 192.636,-379.586 201.877,-335.17 207.146,-307.279"/>
<polygon fill="black" stroke="black" points="210.651,-307.571 209.031,-297.1 203.768,-306.296 210.651,-307.571"/>
<text text-anchor="middle" x="211.5" y="-362.3" font-family="Times New Roman,serif" font-size="14.00">0.32</text>
</g>
<!-- x3 -->
<g id="node4" class="node"><title>x3</title>
<ellipse fill="none" stroke="black" cx="135" cy="-192" rx="27" ry="18"/>
<text text-anchor="middle" x="135" y="-188.3" font-family="Times New Roman,serif" font-size="14.00">x3</text>
</g>
<!-- x1&#45;&gt;x3 -->
<g id="edge6" class="edge"><title>x1&#45;&gt;x3</title>
<path fill="none" stroke="black" d="M164.9,-435.006C159.476,-391.102 144.958,-273.6 138.354,-220.147"/>
<polygon fill="black" stroke="black" points="141.807,-219.552 137.107,-210.056 134.86,-220.41 141.807,-219.552"/>
<text text-anchor="middle" x="166.5" y="-318.8" font-family="Times New Roman,serif" font-size="14.00">&#45;0.02</text>
</g>
<!-- x1&#45;&gt;x4 -->
<g id="edge10" class="edge"><title>x1&#45;&gt;x4</title>
<path fill="none" stroke="black" d="M190.446,-443.934C220.003,-432.097 267,-406.988 267,-367 267,-367 267,-367 267,-104 267,-81.1466 254.301,-58.3159 242.547,-42.0793"/>
<polygon fill="black" stroke="black" points="245.056,-39.5976 236.201,-33.7791 239.495,-43.8492 245.056,-39.5976"/>
<text text-anchor="middle" x="281.5" y="-231.8" font-family="Times New Roman,serif" font-size="14.00">&#45;0.25</text>
</g>
<!-- x5 -->
<g id="node6" class="node"><title>x5</title>
<ellipse fill="none" stroke="black" cx="97" cy="-366" rx="27" ry="18"/>
<text text-anchor="middle" x="97" y="-362.3" font-family="Times New Roman,serif" font-size="14.00">x5</text>
</g>
<!-- x1&#45;&gt;x5 -->
<g id="edge12" class="edge"><title>x1&#45;&gt;x5</title>
<path fill="none" stroke="black" d="M150.073,-438.651C142.825,-432.487 134.542,-424.812 128,-417 121.711,-409.49 115.783,-400.59 110.828,-392.395"/>
<polygon fill="black" stroke="black" points="113.737,-390.434 105.681,-383.554 107.688,-393.957 113.737,-390.434"/>
<text text-anchor="middle" x="140.5" y="-405.8" font-family="Times New Roman,serif" font-size="14.00">0.56</text>
</g>
<!-- x2&#45;&gt;x3 -->
<g id="edge7" class="edge"><title>x2&#45;&gt;x3</title>
<path fill="none" stroke="black" d="M198.588,-263.194C186.626,-249.99 168.942,-230.468 155.257,-215.362"/>
<polygon fill="black" stroke="black" points="157.825,-212.983 148.517,-207.921 152.637,-217.682 157.825,-212.983"/>
<text text-anchor="middle" x="191.5" y="-231.8" font-family="Times New Roman,serif" font-size="14.00">0.19</text>
</g>
<!-- x2&#45;&gt;x4 -->
<g id="edge11" class="edge"><title>x2&#45;&gt;x4</title>
<path fill="none" stroke="black" d="M212.722,-261.006C214.586,-217.102 219.577,-99.5997 221.847,-46.1469"/>
<polygon fill="black" stroke="black" points="225.348,-46.1958 222.276,-36.0563 218.354,-45.8987 225.348,-46.1958"/>
<text text-anchor="middle" x="232.5" y="-144.8" font-family="Times New Roman,serif" font-size="14.00">&#45;0.66</text>
</g>
<!-- x3&#45;&gt;x0 -->
<g id="edge2" class="edge"><title>x3&#45;&gt;x0</title>
<path fill="none" stroke="black" d="M124.843,-175.012C116.923,-162.546 105.785,-145.013 96.7168,-130.739"/>
<polygon fill="black" stroke="black" points="99.4281,-128.48 91.1114,-121.916 93.5196,-132.234 99.4281,-128.48"/>
<text text-anchor="middle" x="124.5" y="-144.8" font-family="Times New Roman,serif" font-size="14.00">0.99</text>
</g>
<!-- x5&#45;&gt;x0 -->
<g id="edge3" class="edge"><title>x5&#45;&gt;x0</title>
<path fill="none" stroke="black" d="M95.9502,-348.006C93.2379,-304.102 85.9791,-186.6 82.677,-133.147"/>
<polygon fill="black" stroke="black" points="86.1637,-132.821 82.0537,-123.056 79.177,-133.253 86.1637,-132.821"/>
<text text-anchor="middle" x="102.5" y="-231.8" font-family="Times New Roman,serif" font-size="14.00">0.22</text>
</g>
<!-- x5&#45;&gt;x2 -->
<g id="edge5" class="edge"><title>x5&#45;&gt;x2</title>
<path fill="none" stroke="black" d="M99.7971,-347.711C102.351,-337.029 107.142,-323.739 116,-315 132.023,-299.192 155.746,-290.456 175.6,-285.665"/>
<polygon fill="black" stroke="black" points="176.537,-289.043 185.568,-283.503 175.053,-282.202 176.537,-289.043"/>
<text text-anchor="middle" x="130.5" y="-318.8" font-family="Times New Roman,serif" font-size="14.00">&#45;0.17</text>
</g>
<!-- x5&#45;&gt;x3 -->
<g id="edge8" class="edge"><title>x5&#45;&gt;x3</title>
<path fill="none" stroke="black" d="M98.4778,-347.786C99.4558,-338.103 100.941,-325.822 103,-315 109.337,-281.684 119.719,-244.027 126.932,-219.475"/>
<polygon fill="black" stroke="black" points="130.311,-220.389 129.808,-209.806 123.602,-218.393 130.311,-220.389"/>
<text text-anchor="middle" x="128.5" y="-275.3" font-family="Times New Roman,serif" font-size="14.00">0.03</text>
</g>
</g>
</svg>
