<?xml version="1.0" encoding="UTF-8" standalone="no"?>
<!DOCTYPE svg PUBLIC "-//W3C//DTD SVG 1.1//EN"
 "http://www.w3.org/Graphics/SVG/1.1/DTD/svg11.dtd">
<!-- Generated by graphviz version 6.0.2 (20221011.1828)
 -->
<!-- Pages: 1 -->
<svg width="368pt" height="131pt"
 viewBox="0.00 0.00 368.00 131.00" xmlns="http://www.w3.org/2000/svg" xmlns:xlink="http://www.w3.org/1999/xlink">
<g id="graph0" class="graph" transform="scale(1 1) rotate(0) translate(4 127)">
<polygon fill="white" stroke="none" points="-4,4 -4,-127 364,-127 364,4 -4,4"/>
<!-- x0 -->
<g id="node1" class="node">
<title>x0</title>
<ellipse fill="none" stroke="black" cx="51" cy="-105" rx="27" ry="18"/>
<text text-anchor="middle" x="51" y="-101.3" font-family="Times New Roman,serif" font-size="14.00">x0</text>
</g>
<!-- x1 -->
<g id="node2" class="node">
<title>x1</title>
<ellipse fill="none" stroke="black" cx="27" cy="-18" rx="27" ry="18"/>
<text text-anchor="middle" x="27" y="-14.3" font-family="Times New Roman,serif" font-size="14.00">x1</text>
</g>
<!-- x0&#45;&gt;x1 -->
<g id="edge1" class="edge">
<title>x0&#45;&gt;x1</title>
<path fill="none" stroke="black" d="M45.57,-87.32C43.74,-81.54 41.72,-75 40,-69 37.86,-61.53 35.68,-53.39 33.73,-45.89"/>
<polygon fill="black" stroke="black" points="37.11,-45 31.24,-36.18 30.33,-46.74 37.11,-45"/>
<text text-anchor="middle" x="52.5" y="-57.8" font-family="Times New Roman,serif" font-size="14.00">1.00</text>
</g>
<!-- x3 -->
<g id="node4" class="node">
<title>x3</title>
<ellipse fill="none" stroke="black" cx="99" cy="-18" rx="27" ry="18"/>
<text text-anchor="middle" x="99" y="-14.3" font-family="Times New Roman,serif" font-size="14.00">x3</text>
</g>
<!-- x0&#45;&gt;x3 -->
<g id="edge2" class="edge">
<title>x0&#45;&gt;x3</title>
<path fill="none" stroke="black" d="M60.03,-88.01C67.02,-75.63 76.84,-58.23 84.88,-44.01"/>
<polygon fill="black" stroke="black" points="87.98,-45.63 89.85,-35.21 81.88,-42.19 87.98,-45.63"/>
<text text-anchor="middle" x="89.5" y="-57.8" font-family="Times New Roman,serif" font-size="14.00">1.00</text>
</g>
<!-- x2 -->
<g id="node3" class="node">
<title>x2</title>
<ellipse fill="none" stroke="black" cx="171" cy="-18" rx="27" ry="18"/>
<text text-anchor="middle" x="171" y="-14.3" font-family="Times New Roman,serif" font-size="14.00">x2</text>
</g>
<!-- x4 -->
<g id="node5" class="node">
<title>x4</title>
<ellipse fill="none" stroke="black" cx="333" cy="-18" rx="27" ry="18"/>
<text text-anchor="middle" x="333" y="-14.3" font-family="Times New Roman,serif" font-size="14.00">x4</text>
</g>
<!-- x2&#45;&gt;x4 -->
<g id="edge3" class="edge">
<title>x2&#45;&gt;x4</title>
<path fill="none" stroke="black" d="M187.39,-32.31C200.49,-42.74 219.86,-56.01 239.5,-61.75 264.56,-69.07 291.38,-53.89 309.84,-39.45"/>
<polygon fill="black" stroke="black" points="312.22,-42.02 317.7,-32.95 307.76,-36.63 312.22,-42.02"/>
<text text-anchor="middle" x="252" y="-57.8" font-family="Times New Roman,serif" font-size="14.00">1.00</text>
</g>
<!-- x5 -->
<g id="node6" class="node">
<title>x5</title>
<ellipse fill="none" stroke="black" cx="261" cy="-18" rx="27" ry="18"/>
<text text-anchor="middle" x="261" y="-14.3" font-family="Times New Roman,serif" font-size="14.00">x5</text>
</g>
<!-- x2&#45;&gt;x5 -->
<g id="edge5" class="edge">
<title>x2&#45;&gt;x5</title>
<path fill="none" stroke="black" d="M208.16,-18C213.4,-18 218.64,-18 223.88,-18"/>
<polygon fill="black" stroke="black" points="208.07,-14.5 198.07,-18 208.07,-21.5 208.07,-14.5"/>
<polygon fill="black" stroke="black" points="223.96,-21.5 233.96,-18 223.96,-14.5 223.96,-21.5"/>
</g>
<!-- x3&#45;&gt;x4 -->
<g id="edge4" class="edge">
<title>x3&#45;&gt;x4</title>
<path fill="none" stroke="black" d="M117.43,-42.12C124.77,-49.82 133.88,-57.41 144,-61.5 203.33,-85.49 228.67,-85.49 288,-61.5 298.12,-57.41 307.23,-49.82 314.57,-42.12"/>
<polygon fill="black" stroke="black" points="119.96,-39.69 110.72,-34.5 114.71,-44.32 119.96,-39.69"/>
<polygon fill="black" stroke="black" points="317.29,-44.32 321.28,-34.5 312.04,-39.69 317.29,-44.32"/>
</g>
</g>
</svg>
