<?xml version="1.0" encoding="UTF-8" standalone="no"?>
<!DOCTYPE svg PUBLIC "-//W3C//DTD SVG 1.1//EN"
 "http://www.w3.org/Graphics/SVG/1.1/DTD/svg11.dtd">
<!-- Generated by graphviz version 2.38.0 (20140413.2041)
 -->
<!-- Title: %3 Pages: 1 -->
<svg width="219pt" height="305pt"
 viewBox="0.00 0.00 219.00 305.00" xmlns="http://www.w3.org/2000/svg" xmlns:xlink="http://www.w3.org/1999/xlink">
<g id="graph0" class="graph" transform="scale(1 1) rotate(0) translate(4 301)">
<title>%3</title>
<polygon fill="white" stroke="none" points="-4,4 -4,-301 215,-301 215,4 -4,4"/>
<!-- x0 -->
<g id="node1" class="node"><title>x0</title>
<ellipse fill="none" stroke="black" cx="97" cy="-105" rx="27" ry="18"/>
<text text-anchor="middle" x="97" y="-101.3" font-family="Times New Roman,serif" font-size="14.00">x0</text>
</g>
<!-- x1 -->
<g id="node2" class="node"><title>x1</title>
<ellipse fill="none" stroke="black" cx="184" cy="-18" rx="27" ry="18"/>
<text text-anchor="middle" x="184" y="-14.3" font-family="Times New Roman,serif" font-size="14.00">x1</text>
</g>
<!-- x0&#45;&gt;x1 -->
<g id="edge3" class="edge"><title>x0&#45;&gt;x1</title>
<path fill="none" stroke="black" d="M111.758,-89.5809C125.59,-76.0671 146.439,-55.697 162.19,-40.3085"/>
<polygon fill="black" stroke="black" points="164.753,-42.698 169.46,-33.2061 159.861,-37.6911 164.753,-42.698"/>
<text text-anchor="middle" x="157.5" y="-57.8" font-family="Times New Roman,serif" font-size="14.00">3.51</text>
</g>
<!-- x4 -->
<g id="node5" class="node"><title>x4</title>
<ellipse fill="none" stroke="black" cx="27" cy="-18" rx="27" ry="18"/>
<text text-anchor="middle" x="27" y="-14.3" font-family="Times New Roman,serif" font-size="14.00">x4</text>
</g>
<!-- x0&#45;&gt;x4 -->
<g id="edge6" class="edge"><title>x0&#45;&gt;x4</title>
<path fill="none" stroke="black" d="M84.4854,-88.8037C73.7349,-75.7495 58.0762,-56.7354 45.8154,-41.8473"/>
<polygon fill="black" stroke="black" points="48.4651,-39.5591 39.4063,-34.0647 43.0616,-44.009 48.4651,-39.5591"/>
<text text-anchor="middle" x="78.5" y="-57.8" font-family="Times New Roman,serif" font-size="14.00">7.52</text>
</g>
<!-- x5 -->
<g id="node6" class="node"><title>x5</title>
<ellipse fill="none" stroke="black" cx="104" cy="-18" rx="27" ry="18"/>
<text text-anchor="middle" x="104" y="-14.3" font-family="Times New Roman,serif" font-size="14.00">x5</text>
</g>
<!-- x0&#45;&gt;x5 -->
<g id="edge8" class="edge"><title>x0&#45;&gt;x5</title>
<path fill="none" stroke="black" d="M98.4166,-86.799C99.3748,-75.1626 100.661,-59.5479 101.757,-46.2368"/>
<polygon fill="black" stroke="black" points="105.253,-46.429 102.586,-36.1754 98.2765,-45.8544 105.253,-46.429"/>
<text text-anchor="middle" x="112.5" y="-57.8" font-family="Times New Roman,serif" font-size="14.00">4.42</text>
</g>
<!-- x2 -->
<g id="node3" class="node"><title>x2</title>
<ellipse fill="none" stroke="black" cx="82" cy="-192" rx="27" ry="18"/>
<text text-anchor="middle" x="82" y="-188.3" font-family="Times New Roman,serif" font-size="14.00">x2</text>
</g>
<!-- x2&#45;&gt;x0 -->
<g id="edge1" class="edge"><title>x2&#45;&gt;x0</title>
<path fill="none" stroke="black" d="M85.0355,-173.799C87.089,-162.163 89.8445,-146.548 92.1935,-133.237"/>
<polygon fill="black" stroke="black" points="95.6778,-133.632 93.969,-123.175 88.7844,-132.415 95.6778,-133.632"/>
<text text-anchor="middle" x="102.5" y="-144.8" font-family="Times New Roman,serif" font-size="14.00">0.04</text>
</g>
<!-- x2&#45;&gt;x1 -->
<g id="edge4" class="edge"><title>x2&#45;&gt;x1</title>
<path fill="none" stroke="black" d="M98.3467,-177.162C105.12,-171.029 112.82,-163.511 119,-156 148.064,-120.674 157.008,-111.472 174,-69 176.894,-61.7672 178.98,-53.5987 180.471,-45.9926"/>
<polygon fill="black" stroke="black" points="183.926,-46.5558 182.157,-36.1097 177.025,-45.3788 183.926,-46.5558"/>
<text text-anchor="middle" x="178.5" y="-101.3" font-family="Times New Roman,serif" font-size="14.00">2.49</text>
</g>
<!-- x2&#45;&gt;x4 -->
<g id="edge7" class="edge"><title>x2&#45;&gt;x4</title>
<path fill="none" stroke="black" d="M67.4007,-176.589C55.4665,-163.764 39.4005,-143.852 32,-123 23.1559,-98.0797 22.7866,-67.6808 24.0946,-46.2016"/>
<polygon fill="black" stroke="black" points="27.5906,-46.3873 24.8684,-36.1481 20.6112,-45.85 27.5906,-46.3873"/>
<text text-anchor="middle" x="46.5" y="-101.3" font-family="Times New Roman,serif" font-size="14.00">&#45;0.94</text>
</g>
<!-- x3 -->
<g id="node4" class="node"><title>x3</title>
<ellipse fill="none" stroke="black" cx="27" cy="-279" rx="27" ry="18"/>
<text text-anchor="middle" x="27" y="-275.3" font-family="Times New Roman,serif" font-size="14.00">x3</text>
</g>
<!-- x3&#45;&gt;x0 -->
<g id="edge2" class="edge"><title>x3&#45;&gt;x0</title>
<path fill="none" stroke="black" d="M21.4895,-261.3C15.459,-240.016 8.22916,-202.563 21,-174 30.6616,-152.391 50.9602,-134.806 68.1503,-122.936"/>
<polygon fill="black" stroke="black" points="70.3514,-125.677 76.7834,-117.258 66.5051,-119.828 70.3514,-125.677"/>
<text text-anchor="middle" x="33.5" y="-188.3" font-family="Times New Roman,serif" font-size="14.00">3.25</text>
</g>
<!-- x3&#45;&gt;x2 -->
<g id="edge5" class="edge"><title>x3&#45;&gt;x2</title>
<path fill="none" stroke="black" d="M37.3451,-262.012C45.4881,-249.427 56.9725,-231.679 66.2554,-217.333"/>
<polygon fill="black" stroke="black" points="69.2073,-219.213 71.7013,-208.916 63.3302,-215.41 69.2073,-219.213"/>
<text text-anchor="middle" x="69.5" y="-231.8" font-family="Times New Roman,serif" font-size="14.00">6.48</text>
</g>
</g>
</svg>
