<?xml version="1.0" encoding="UTF-8" standalone="no"?>
<!DOCTYPE svg PUBLIC "-//W3C//DTD SVG 1.1//EN"
 "http://www.w3.org/Graphics/SVG/1.1/DTD/svg11.dtd">
<!-- Generated by graphviz version 2.38.0 (20140413.2041)
 -->
<!-- Title: %3 Pages: 1 -->
<svg width="223pt" height="305pt"
 viewBox="0.00 0.00 223.00 305.00" xmlns="http://www.w3.org/2000/svg" xmlns:xlink="http://www.w3.org/1999/xlink">
<g id="graph0" class="graph" transform="scale(1 1) rotate(0) translate(4 301)">
<title>%3</title>
<polygon fill="white" stroke="none" points="-4,4 -4,-301 219,-301 219,4 -4,4"/>
<!-- x0 -->
<g id="node1" class="node"><title>x0</title>
<ellipse fill="none" stroke="black" cx="112" cy="-279" rx="27" ry="18"/>
<text text-anchor="middle" x="112" y="-275.3" font-family="Times New Roman,serif" font-size="14.00">x0</text>
</g>
<!-- x1 -->
<g id="node2" class="node"><title>x1</title>
<ellipse fill="none" stroke="black" cx="27" cy="-18" rx="27" ry="18"/>
<text text-anchor="middle" x="27" y="-14.3" font-family="Times New Roman,serif" font-size="14.00">x1</text>
</g>
<!-- x0&#45;&gt;x1 -->
<g id="edge1" class="edge"><title>x0&#45;&gt;x1</title>
<path fill="none" stroke="black" d="M93.1237,-265.698C76.4715,-253.684 53.1652,-233.77 42,-210 16.8375,-156.431 19.4073,-85.0554 23.3143,-46.5063"/>
<polygon fill="black" stroke="black" points="26.8452,-46.4274 24.4851,-36.0988 19.8891,-45.6449 26.8452,-46.4274"/>
<text text-anchor="middle" x="38.5" y="-144.8" font-family="Times New Roman,serif" font-size="14.00">3.00</text>
</g>
<!-- x3 -->
<g id="node4" class="node"><title>x3</title>
<ellipse fill="none" stroke="black" cx="78" cy="-192" rx="27" ry="18"/>
<text text-anchor="middle" x="78" y="-188.3" font-family="Times New Roman,serif" font-size="14.00">x3</text>
</g>
<!-- x0&#45;&gt;x3 -->
<g id="edge4" class="edge"><title>x0&#45;&gt;x3</title>
<path fill="none" stroke="black" d="M103.005,-261.883C99.9308,-256.035 96.6127,-249.314 94,-243 90.8984,-235.505 88.0195,-227.178 85.5834,-219.503"/>
<polygon fill="black" stroke="black" points="88.9233,-218.456 82.6544,-209.915 82.2287,-220.502 88.9233,-218.456"/>
<text text-anchor="middle" x="106.5" y="-231.8" font-family="Times New Roman,serif" font-size="14.00">0.30</text>
</g>
<!-- x4 -->
<g id="node5" class="node"><title>x4</title>
<ellipse fill="none" stroke="black" cx="103" cy="-18" rx="27" ry="18"/>
<text text-anchor="middle" x="103" y="-14.3" font-family="Times New Roman,serif" font-size="14.00">x4</text>
</g>
<!-- x0&#45;&gt;x4 -->
<g id="edge5" class="edge"><title>x0&#45;&gt;x4</title>
<path fill="none" stroke="black" d="M116.098,-261.012C117.283,-255.322 118.414,-248.92 119,-243 127.277,-159.409 136.871,-136.077 119,-54 118.325,-50.9011 117.351,-47.7481 116.211,-44.6675"/>
<polygon fill="black" stroke="black" points="119.323,-43.0438 112.169,-35.2287 112.888,-45.7991 119.323,-43.0438"/>
<text text-anchor="middle" x="141.5" y="-144.8" font-family="Times New Roman,serif" font-size="14.00">7.98</text>
</g>
<!-- x5 -->
<g id="node6" class="node"><title>x5</title>
<ellipse fill="none" stroke="black" cx="188" cy="-192" rx="27" ry="18"/>
<text text-anchor="middle" x="188" y="-188.3" font-family="Times New Roman,serif" font-size="14.00">x5</text>
</g>
<!-- x0&#45;&gt;x5 -->
<g id="edge7" class="edge"><title>x0&#45;&gt;x5</title>
<path fill="none" stroke="black" d="M126.974,-263.668C133.299,-257.452 140.653,-250.005 147,-243 154.768,-234.426 162.926,-224.652 169.902,-216.033"/>
<polygon fill="black" stroke="black" points="172.656,-218.194 176.176,-208.201 167.192,-213.817 172.656,-218.194"/>
<text text-anchor="middle" x="171.5" y="-231.8" font-family="Times New Roman,serif" font-size="14.00">4.00</text>
</g>
<!-- x2 -->
<g id="node3" class="node"><title>x2</title>
<ellipse fill="none" stroke="black" cx="78" cy="-105" rx="27" ry="18"/>
<text text-anchor="middle" x="78" y="-101.3" font-family="Times New Roman,serif" font-size="14.00">x2</text>
</g>
<!-- x2&#45;&gt;x1 -->
<g id="edge2" class="edge"><title>x2&#45;&gt;x1</title>
<path fill="none" stroke="black" d="M67.8036,-88.0441C64.0463,-82.0954 59.785,-75.2662 56,-69 51.1521,-60.9741 45.9798,-52.146 41.3657,-44.1706"/>
<polygon fill="black" stroke="black" points="44.2809,-42.2192 36.2584,-35.2989 38.2143,-45.7116 44.2809,-42.2192"/>
<text text-anchor="middle" x="68.5" y="-57.8" font-family="Times New Roman,serif" font-size="14.00">2.00</text>
</g>
<!-- x2&#45;&gt;x4 -->
<g id="edge6" class="edge"><title>x2&#45;&gt;x4</title>
<path fill="none" stroke="black" d="M81.6058,-86.7385C83.7652,-77.0408 86.7234,-64.7603 90,-54 90.8674,-51.1515 91.8421,-48.1982 92.8577,-45.2696"/>
<polygon fill="black" stroke="black" points="96.2473,-46.1894 96.3713,-35.5953 89.6678,-43.7997 96.2473,-46.1894"/>
<text text-anchor="middle" x="104.5" y="-57.8" font-family="Times New Roman,serif" font-size="14.00">&#45;0.99</text>
</g>
<!-- x3&#45;&gt;x2 -->
<g id="edge3" class="edge"><title>x3&#45;&gt;x2</title>
<path fill="none" stroke="black" d="M78,-173.799C78,-162.163 78,-146.548 78,-133.237"/>
<polygon fill="black" stroke="black" points="81.5001,-133.175 78,-123.175 74.5001,-133.175 81.5001,-133.175"/>
<text text-anchor="middle" x="90.5" y="-144.8" font-family="Times New Roman,serif" font-size="14.00">6.00</text>
</g>
</g>
</svg>
