<?xml version="1.0" encoding="UTF-8" standalone="no"?>
<!DOCTYPE svg PUBLIC "-//W3C//DTD SVG 1.1//EN"
 "http://www.w3.org/Graphics/SVG/1.1/DTD/svg11.dtd">
<!-- Generated by graphviz version 2.38.0 (20140413.2041)
 -->
<!-- Title: %3 Pages: 1 -->
<svg width="228pt" height="260pt"
 viewBox="0.00 0.00 228.45 260.00" xmlns="http://www.w3.org/2000/svg" xmlns:xlink="http://www.w3.org/1999/xlink">
<g id="graph0" class="graph" transform="scale(1 1) rotate(0) translate(4 256)">
<title>%3</title>
<polygon fill="white" stroke="none" points="-4,4 -4,-256 224.454,-256 224.454,4 -4,4"/>
<!-- x0 -->
<g id="node1" class="node"><title>x0</title>
<ellipse fill="none" stroke="black" cx="121.454" cy="-18" rx="27" ry="18"/>
<text text-anchor="middle" x="121.454" y="-14.3" font-family="Times New Roman,serif" font-size="14.00">x0</text>
</g>
<!-- x1 -->
<g id="node2" class="node"><title>x1</title>
<ellipse fill="none" stroke="black" cx="193.454" cy="-18" rx="27" ry="18"/>
<text text-anchor="middle" x="193.454" y="-14.3" font-family="Times New Roman,serif" font-size="14.00">x1</text>
</g>
<!-- x2 -->
<g id="node3" class="node"><title>x2</title>
<ellipse fill="none" stroke="black" cx="103.454" cy="-234" rx="27" ry="18"/>
<text text-anchor="middle" x="103.454" y="-230.3" font-family="Times New Roman,serif" font-size="14.00">x2</text>
</g>
<!-- x2&#45;&gt;x0 -->
<g id="edge1" class="edge"><title>x2&#45;&gt;x0</title>
<path fill="none" stroke="black" stroke-dasharray="5,2" d="M117.204,-218.069C125.415,-208.1 135.073,-194.247 139.454,-180 153.553,-134.153 140.878,-77.9389 130.846,-45.5177"/>
<polygon fill="black" stroke="black" points="134.131,-44.304 127.718,-35.8707 127.473,-46.4626 134.131,-44.304"/>
</g>
<!-- x2&#45;&gt;x1 -->
<g id="edge4" class="edge"><title>x2&#45;&gt;x1</title>
<path fill="none" stroke="black" stroke-dasharray="5,2" d="M120.442,-219.951C132.007,-210.173 146.741,-195.804 155.454,-180 179.122,-137.067 188.122,-79.804 191.492,-46.4114"/>
<polygon fill="black" stroke="black" points="195.014,-46.3327 192.432,-36.0572 188.042,-45.6997 195.014,-46.3327"/>
</g>
<!-- x3 -->
<g id="node4" class="node"><title>x3</title>
<ellipse fill="none" stroke="black" cx="103.454" cy="-162" rx="27" ry="18"/>
<text text-anchor="middle" x="103.454" y="-158.3" font-family="Times New Roman,serif" font-size="14.00">x3</text>
</g>
<!-- x2&#45;&gt;x3 -->
<g id="edge9" class="edge"><title>x2&#45;&gt;x3</title>
<path fill="none" stroke="black" stroke-dasharray="5,2" d="M97.6142,-216.411C96.7516,-208.507 96.5022,-198.852 96.866,-189.935"/>
<polygon fill="black" stroke="black" points="100.357,-190.179 97.5747,-179.956 93.375,-189.683 100.357,-190.179"/>
</g>
<!-- x4 -->
<g id="node5" class="node"><title>x4</title>
<ellipse fill="none" stroke="black" cx="39.4541" cy="-18" rx="27" ry="18"/>
<text text-anchor="middle" x="39.4541" y="-14.3" font-family="Times New Roman,serif" font-size="14.00">x4</text>
</g>
<!-- x2&#45;&gt;x4 -->
<g id="edge11" class="edge"><title>x2&#45;&gt;x4</title>
<path fill="none" stroke="black" stroke-dasharray="5,2" d="M86.3048,-219.55C61.5689,-198.819 17.3216,-156.353 3.45413,-108 -0.956794,-92.62 -1.24867,-87.2933 3.45413,-72 6.73989,-61.3149 12.994,-50.851 19.3796,-42.0814"/>
<polygon fill="black" stroke="black" points="22.3385,-43.9774 25.7038,-33.9312 16.8081,-39.6861 22.3385,-43.9774"/>
</g>
<!-- x5 -->
<g id="node6" class="node"><title>x5</title>
<ellipse fill="none" stroke="black" cx="39.4541" cy="-90" rx="27" ry="18"/>
<text text-anchor="middle" x="39.4541" y="-86.3" font-family="Times New Roman,serif" font-size="14.00">x5</text>
</g>
<!-- x2&#45;&gt;x5 -->
<g id="edge14" class="edge"><title>x2&#45;&gt;x5</title>
<path fill="none" stroke="black" stroke-dasharray="5,2" d="M85.814,-220.15C76.243,-209.801 65.5287,-194.618 58.4541,-180 48.8257,-160.105 41.5064,-136.133 38.1332,-118.083"/>
<polygon fill="black" stroke="black" points="41.5564,-117.314 36.5861,-107.957 34.6367,-118.371 41.5564,-117.314"/>
</g>
<!-- x3&#45;&gt;x0 -->
<g id="edge2" class="edge"><title>x3&#45;&gt;x0</title>
<path fill="none" stroke="black" stroke-dasharray="5,2" d="M105.625,-143.871C108.693,-119.67 114.329,-75.2108 117.982,-46.3932"/>
<polygon fill="black" stroke="black" points="121.49,-46.55 119.275,-36.1893 114.545,-45.6697 121.49,-46.55"/>
</g>
<!-- x3&#45;&gt;x1 -->
<g id="edge5" class="edge"><title>x3&#45;&gt;x1</title>
<path fill="none" stroke="black" stroke-dasharray="5,2" d="M113.43,-145.261C129.04,-120.631 159.367,-72.7827 177.874,-43.582"/>
<polygon fill="black" stroke="black" points="181.037,-45.1296 183.434,-34.8095 175.124,-41.3823 181.037,-45.1296"/>
</g>
<!-- x3&#45;&gt;x2 -->
<g id="edge7" class="edge"><title>x3&#45;&gt;x2</title>
<path fill="none" stroke="black" stroke-dasharray="5,2" d="M109.334,-179.956C110.168,-187.827 110.403,-197.374 110.037,-206.187"/>
<polygon fill="black" stroke="black" points="106.528,-206.184 109.294,-216.411 113.51,-206.691 106.528,-206.184"/>
</g>
<!-- x3&#45;&gt;x4 -->
<g id="edge12" class="edge"><title>x3&#45;&gt;x4</title>
<path fill="none" stroke="black" stroke-dasharray="5,2" d="M99.6883,-144.043C95.2629,-125.712 87.0264,-95.9117 75.4541,-72 70.5843,-61.9375 63.9898,-51.6074 57.7753,-42.7707"/>
<polygon fill="black" stroke="black" points="60.4743,-40.5307 51.7655,-34.4969 54.8107,-44.6446 60.4743,-40.5307"/>
</g>
<!-- x3&#45;&gt;x5 -->
<g id="edge15" class="edge"><title>x3&#45;&gt;x5</title>
<path fill="none" stroke="black" stroke-dasharray="5,2" d="M86.0048,-147.834C76.263,-138.618 64.418,-126.041 55.0039,-115.06"/>
<polygon fill="black" stroke="black" points="57.4367,-112.511 48.3539,-107.057 52.0527,-116.985 57.4367,-112.511"/>
</g>
<!-- x5&#45;&gt;x0 -->
<g id="edge3" class="edge"><title>x5&#45;&gt;x0</title>
<path fill="none" stroke="black" stroke-dasharray="5,2" d="M55.6547,-75.1703C67.6369,-64.9415 84.1456,-50.8487 97.6292,-39.3383"/>
<polygon fill="black" stroke="black" points="100.233,-41.7175 105.566,-32.5628 95.6881,-36.3935 100.233,-41.7175"/>
</g>
<!-- x5&#45;&gt;x1 -->
<g id="edge6" class="edge"><title>x5&#45;&gt;x1</title>
<path fill="none" stroke="black" stroke-dasharray="5,2" d="M61.2587,-79.3553C84.9832,-68.8266 124.002,-51.4093 157.454,-36 159.243,-35.1758 161.08,-34.3245 162.932,-33.4622"/>
<polygon fill="black" stroke="black" points="164.596,-36.5481 172.165,-29.1351 161.625,-30.2096 164.596,-36.5481"/>
</g>
<!-- x5&#45;&gt;x2 -->
<g id="edge8" class="edge"><title>x5&#45;&gt;x2</title>
<path fill="none" stroke="black" stroke-dasharray="5,2" d="M49.4824,-106.963C56.3451,-125.196 64.6702,-155.651 76.4541,-180 81.009,-189.412 87.0726,-199.057 92.4774,-207.496"/>
<polygon fill="black" stroke="black" points="89.6479,-209.569 97.9809,-216.112 95.547,-205.8 89.6479,-209.569"/>
</g>
<!-- x5&#45;&gt;x3 -->
<g id="edge10" class="edge"><title>x5&#45;&gt;x3</title>
<path fill="none" stroke="black" stroke-dasharray="5,2" d="M57.0775,-104.331C66.7508,-113.498 78.461,-125.934 87.8024,-136.821"/>
<polygon fill="black" stroke="black" points="85.3249,-139.316 94.4112,-144.765 90.7061,-134.839 85.3249,-139.316"/>
</g>
<!-- x5&#45;&gt;x4 -->
<g id="edge13" class="edge"><title>x5&#45;&gt;x4</title>
<path fill="none" stroke="black" stroke-dasharray="5,2" d="M39.4541,-71.6966C39.4541,-63.9827 39.4541,-54.7125 39.4541,-46.1124"/>
<polygon fill="black" stroke="black" points="42.9542,-46.1043 39.4541,-36.1043 35.9542,-46.1044 42.9542,-46.1043"/>
</g>
</g>
</svg>
