<?xml version="1.0" encoding="UTF-8" standalone="no"?>
<!DOCTYPE svg PUBLIC "-//W3C//DTD SVG 1.1//EN"
 "http://www.w3.org/Graphics/SVG/1.1/DTD/svg11.dtd">
<!-- Generated by graphviz version 2.38.0 (20140413.2041)
 -->
<!-- Title: %3 Pages: 1 -->
<svg width="278pt" height="218pt"
 viewBox="0.00 0.00 278.00 218.00" xmlns="http://www.w3.org/2000/svg" xmlns:xlink="http://www.w3.org/1999/xlink">
<g id="graph0" class="graph" transform="scale(1 1) rotate(0) translate(4 214)">
<title>%3</title>
<polygon fill="white" stroke="none" points="-4,4 -4,-214 274,-214 274,4 -4,4"/>
<!-- x0 -->
<g id="node1" class="node"><title>x0</title>
<ellipse fill="none" stroke="black" cx="27" cy="-18" rx="27" ry="18"/>
<text text-anchor="middle" x="27" y="-14.3" font-family="Times New Roman,serif" font-size="14.00">x0</text>
</g>
<!-- x1 -->
<g id="node2" class="node"><title>x1</title>
<ellipse fill="none" stroke="black" cx="237" cy="-18" rx="27" ry="18"/>
<text text-anchor="middle" x="237" y="-14.3" font-family="Times New Roman,serif" font-size="14.00">x1</text>
</g>
<!-- x2 -->
<g id="node3" class="node"><title>x2</title>
<ellipse fill="none" stroke="black" cx="185" cy="-105" rx="27" ry="18"/>
<text text-anchor="middle" x="185" y="-101.3" font-family="Times New Roman,serif" font-size="14.00">x2</text>
</g>
<!-- x2&#45;&gt;x1 -->
<g id="edge3" class="edge"><title>x2&#45;&gt;x1</title>
<path fill="none" stroke="black" d="M199.176,-89.4283C204.563,-83.4152 210.483,-76.1804 215,-69 219.616,-61.6626 223.741,-53.1905 227.136,-45.3295"/>
<polygon fill="black" stroke="black" points="230.475,-46.4106 231.029,-35.8303 223.998,-43.7561 230.475,-46.4106"/>
<text text-anchor="middle" x="234.5" y="-57.8" font-family="Times New Roman,serif" font-size="14.00">2.01</text>
</g>
<!-- x4 -->
<g id="node5" class="node"><title>x4</title>
<ellipse fill="none" stroke="black" cx="103" cy="-18" rx="27" ry="18"/>
<text text-anchor="middle" x="103" y="-14.3" font-family="Times New Roman,serif" font-size="14.00">x4</text>
</g>
<!-- x2&#45;&gt;x4 -->
<g id="edge7" class="edge"><title>x2&#45;&gt;x4</title>
<path fill="none" stroke="black" d="M180.538,-87.2166C177.093,-76.7364 171.462,-63.4815 163,-54 155.192,-45.2513 144.66,-38.0993 134.599,-32.5931"/>
<polygon fill="black" stroke="black" points="136.083,-29.421 125.583,-28.0005 132.905,-35.6583 136.083,-29.421"/>
<text text-anchor="middle" x="186.5" y="-57.8" font-family="Times New Roman,serif" font-size="14.00">&#45;0.76</text>
</g>
<!-- x3 -->
<g id="node4" class="node"><title>x3</title>
<ellipse fill="none" stroke="black" cx="141" cy="-192" rx="27" ry="18"/>
<text text-anchor="middle" x="141" y="-188.3" font-family="Times New Roman,serif" font-size="14.00">x3</text>
</g>
<!-- x3&#45;&gt;x0 -->
<g id="edge1" class="edge"><title>x3&#45;&gt;x0</title>
<path fill="none" stroke="black" d="M117.728,-182.599C93.394,-172.488 56.2578,-153.026 38,-123 23.9755,-99.936 22.5304,-68.5847 23.7839,-46.3506"/>
<polygon fill="black" stroke="black" points="27.2838,-46.4864 24.5727,-36.2444 20.3051,-45.9417 27.2838,-46.4864"/>
<text text-anchor="middle" x="50.5" y="-101.3" font-family="Times New Roman,serif" font-size="14.00">0.18</text>
</g>
<!-- x3&#45;&gt;x1 -->
<g id="edge4" class="edge"><title>x3&#45;&gt;x1</title>
<path fill="none" stroke="black" d="M160.9,-179.834C171.304,-173.523 183.933,-165.089 194,-156 228.312,-125.023 239.404,-113.749 251,-69 253.067,-61.0237 251.873,-52.3689 249.483,-44.5371"/>
<polygon fill="black" stroke="black" points="252.759,-43.3053 245.972,-35.1699 246.205,-45.7621 252.759,-43.3053"/>
<text text-anchor="middle" x="257.5" y="-101.3" font-family="Times New Roman,serif" font-size="14.00">0.45</text>
</g>
<!-- x3&#45;&gt;x2 -->
<g id="edge6" class="edge"><title>x3&#45;&gt;x2</title>
<path fill="none" stroke="black" d="M149.484,-174.611C155.814,-162.382 164.582,-145.443 171.823,-131.456"/>
<polygon fill="black" stroke="black" points="175.054,-132.828 176.542,-122.339 168.837,-129.61 175.054,-132.828"/>
<text text-anchor="middle" x="177.5" y="-144.8" font-family="Times New Roman,serif" font-size="14.00">6.00</text>
</g>
<!-- x5 -->
<g id="node6" class="node"><title>x5</title>
<ellipse fill="none" stroke="black" cx="99" cy="-105" rx="27" ry="18"/>
<text text-anchor="middle" x="99" y="-101.3" font-family="Times New Roman,serif" font-size="14.00">x5</text>
</g>
<!-- x3&#45;&gt;x5 -->
<g id="edge9" class="edge"><title>x3&#45;&gt;x5</title>
<path fill="none" stroke="black" d="M132.902,-174.611C126.859,-162.382 118.489,-145.443 111.578,-131.456"/>
<polygon fill="black" stroke="black" points="114.641,-129.753 107.073,-122.339 108.365,-132.854 114.641,-129.753"/>
<text text-anchor="middle" x="137.5" y="-144.8" font-family="Times New Roman,serif" font-size="14.00">12.02</text>
</g>
<!-- x5&#45;&gt;x0 -->
<g id="edge2" class="edge"><title>x5&#45;&gt;x0</title>
<path fill="none" stroke="black" d="M82.6847,-90.4557C75.6555,-84.2561 67.5619,-76.6061 61,-69 54.2522,-61.1784 47.6682,-51.9818 42.1191,-43.6232"/>
<polygon fill="black" stroke="black" points="44.9086,-41.4909 36.5451,-34.9867 39.0271,-45.2868 44.9086,-41.4909"/>
<text text-anchor="middle" x="73.5" y="-57.8" font-family="Times New Roman,serif" font-size="14.00">0.23</text>
</g>
<!-- x5&#45;&gt;x1 -->
<g id="edge5" class="edge"><title>x5&#45;&gt;x1</title>
<path fill="none" stroke="black" d="M106.999,-87.5182C113.048,-76.6209 122.305,-62.7772 134,-54 153.602,-39.2892 179.796,-30.499 200.864,-25.4071"/>
<polygon fill="black" stroke="black" points="201.749,-28.7955 210.743,-23.1947 200.22,-21.9647 201.749,-28.7955"/>
<text text-anchor="middle" x="146.5" y="-57.8" font-family="Times New Roman,serif" font-size="14.00">0.71</text>
</g>
<!-- x5&#45;&gt;x4 -->
<g id="edge8" class="edge"><title>x5&#45;&gt;x4</title>
<path fill="none" stroke="black" d="M93.0023,-87.3337C90.2531,-77.6117 88.0031,-65.1117 90,-54 90.5267,-51.0693 91.283,-48.0634 92.1695,-45.1036"/>
<polygon fill="black" stroke="black" points="95.5667,-45.9897 95.5407,-35.3949 88.954,-43.6935 95.5667,-45.9897"/>
<text text-anchor="middle" x="102.5" y="-57.8" font-family="Times New Roman,serif" font-size="14.00">1.88</text>
</g>
</g>
</svg>
