<?xml version="1.0" encoding="UTF-8" standalone="no"?>
<!DOCTYPE svg PUBLIC "-//W3C//DTD SVG 1.1//EN"
 "http://www.w3.org/Graphics/SVG/1.1/DTD/svg11.dtd">
<!-- Generated by graphviz version 2.38.0 (20140413.2041)
 -->
<!-- Title: %3 Pages: 1 -->
<svg width="241pt" height="218pt"
 viewBox="0.00 0.00 241.00 218.00" xmlns="http://www.w3.org/2000/svg" xmlns:xlink="http://www.w3.org/1999/xlink">
<g id="graph0" class="graph" transform="scale(1 1) rotate(0) translate(4 214)">
<title>%3</title>
<polygon fill="white" stroke="none" points="-4,4 -4,-214 237,-214 237,4 -4,4"/>
<!-- x0 -->
<g id="node1" class="node"><title>x0</title>
<ellipse fill="none" stroke="black" cx="158" cy="-105" rx="27" ry="18"/>
<text text-anchor="middle" x="158" y="-101.3" font-family="Times New Roman,serif" font-size="14.00">x0</text>
</g>
<!-- x1 -->
<g id="node2" class="node"><title>x1</title>
<ellipse fill="none" stroke="black" cx="27" cy="-18" rx="27" ry="18"/>
<text text-anchor="middle" x="27" y="-14.3" font-family="Times New Roman,serif" font-size="14.00">x1</text>
</g>
<!-- x0&#45;&gt;x1 -->
<g id="edge2" class="edge"><title>x0&#45;&gt;x1</title>
<path fill="none" stroke="black" d="M139.231,-91.8216C116.954,-77.3673 79.6303,-53.1494 54.1922,-36.6438"/>
<polygon fill="black" stroke="black" points="56.0282,-33.6629 45.7343,-31.1558 52.218,-39.5351 56.0282,-33.6629"/>
<text text-anchor="middle" x="113.5" y="-57.8" font-family="Times New Roman,serif" font-size="14.00">0.50</text>
</g>
<!-- x4 -->
<g id="node5" class="node"><title>x4</title>
<ellipse fill="none" stroke="black" cx="122" cy="-18" rx="27" ry="18"/>
<text text-anchor="middle" x="122" y="-14.3" font-family="Times New Roman,serif" font-size="14.00">x4</text>
</g>
<!-- x0&#45;&gt;x4 -->
<g id="edge4" class="edge"><title>x0&#45;&gt;x4</title>
<path fill="none" stroke="black" d="M150.888,-87.2067C145.776,-75.1377 138.788,-58.6384 132.965,-44.8906"/>
<polygon fill="black" stroke="black" points="136.098,-43.3123 128.975,-35.4692 129.652,-46.0423 136.098,-43.3123"/>
<text text-anchor="middle" x="155.5" y="-57.8" font-family="Times New Roman,serif" font-size="14.00">0.50</text>
</g>
<!-- x5 -->
<g id="node6" class="node"><title>x5</title>
<ellipse fill="none" stroke="black" cx="206" cy="-18" rx="27" ry="18"/>
<text text-anchor="middle" x="206" y="-14.3" font-family="Times New Roman,serif" font-size="14.00">x5</text>
</g>
<!-- x0&#45;&gt;x5 -->
<g id="edge6" class="edge"><title>x0&#45;&gt;x5</title>
<path fill="none" stroke="black" d="M167.028,-88.0122C174.024,-75.625 183.844,-58.235 191.876,-44.0109"/>
<polygon fill="black" stroke="black" points="194.979,-45.6337 196.849,-35.2052 188.884,-42.1917 194.979,-45.6337"/>
<text text-anchor="middle" x="197.5" y="-57.8" font-family="Times New Roman,serif" font-size="14.00">0.50</text>
</g>
<!-- x2 -->
<g id="node3" class="node"><title>x2</title>
<ellipse fill="none" stroke="black" cx="68" cy="-192" rx="27" ry="18"/>
<text text-anchor="middle" x="68" y="-188.3" font-family="Times New Roman,serif" font-size="14.00">x2</text>
</g>
<!-- x2&#45;&gt;x1 -->
<g id="edge3" class="edge"><title>x2&#45;&gt;x1</title>
<path fill="none" stroke="black" d="M56.4427,-175.472C47.3531,-162.274 35.3595,-142.425 30,-123 23.045,-97.7928 22.9966,-67.8374 24.2677,-46.5646"/>
<polygon fill="black" stroke="black" points="27.7794,-46.5329 25.0231,-36.303 20.7983,-46.019 27.7794,-46.5329"/>
<text text-anchor="middle" x="42.5" y="-101.3" font-family="Times New Roman,serif" font-size="14.00">0.50</text>
</g>
<!-- x3 -->
<g id="node4" class="node"><title>x3</title>
<ellipse fill="none" stroke="black" cx="158" cy="-192" rx="27" ry="18"/>
<text text-anchor="middle" x="158" y="-188.3" font-family="Times New Roman,serif" font-size="14.00">x3</text>
</g>
<!-- x2&#45;&gt;x3 -->
<g id="edge7" class="edge"><title>x2&#45;&gt;x3</title>
<path fill="none" stroke="black" d="M105.164,-192C110.404,-192 115.644,-192 120.883,-192"/>
<polygon fill="black" stroke="black" points="105.07,-188.5 95.0703,-192 105.07,-195.5 105.07,-188.5"/>
<polygon fill="black" stroke="black" points="120.96,-195.5 130.96,-192 120.96,-188.5 120.96,-195.5"/>
</g>
<!-- x2&#45;&gt;x4 -->
<g id="edge5" class="edge"><title>x2&#45;&gt;x4</title>
<path fill="none" stroke="black" d="M67.9037,-173.648C68.3984,-146.72 71.9778,-93.8255 91,-54 93.2598,-49.2688 96.3528,-44.6969 99.7147,-40.5051"/>
<polygon fill="black" stroke="black" points="102.371,-42.7847 106.363,-32.9706 97.1221,-38.1534 102.371,-42.7847"/>
<text text-anchor="middle" x="93.5" y="-101.3" font-family="Times New Roman,serif" font-size="14.00">&#45;0.50</text>
</g>
<!-- x3&#45;&gt;x0 -->
<g id="edge1" class="edge"><title>x3&#45;&gt;x0</title>
<path fill="none" stroke="black" d="M158,-173.799C158,-162.163 158,-146.548 158,-133.237"/>
<polygon fill="black" stroke="black" points="161.5,-133.175 158,-123.175 154.5,-133.175 161.5,-133.175"/>
<text text-anchor="middle" x="170.5" y="-144.8" font-family="Times New Roman,serif" font-size="14.00">0.50</text>
</g>
</g>
</svg>
