<?xml version="1.0" encoding="UTF-8" standalone="no"?>
<!DOCTYPE svg PUBLIC "-//W3C//DTD SVG 1.1//EN"
 "http://www.w3.org/Graphics/SVG/1.1/DTD/svg11.dtd">
<!-- Generated by graphviz version 2.38.0 (20140413.2041)
 -->
<!-- Title: %3 Pages: 1 -->
<svg width="339pt" height="145pt"
 viewBox="0.00 0.00 339.00 144.83" xmlns="http://www.w3.org/2000/svg" xmlns:xlink="http://www.w3.org/1999/xlink">
<g id="graph0" class="graph" transform="scale(1 1) rotate(0) translate(4 140.826)">
<title>%3</title>
<polygon fill="white" stroke="none" points="-4,4 -4,-140.826 335,-140.826 335,4 -4,4"/>
<!-- x0 -->
<g id="node1" class="node"><title>x0</title>
<ellipse fill="none" stroke="black" cx="27" cy="-105" rx="27" ry="18"/>
<text text-anchor="middle" x="27" y="-101.3" font-family="Times New Roman,serif" font-size="14.00">x0</text>
</g>
<!-- x2 -->
<g id="node3" class="node"><title>x2</title>
<ellipse fill="none" stroke="black" cx="117" cy="-105" rx="27" ry="18"/>
<text text-anchor="middle" x="117" y="-101.3" font-family="Times New Roman,serif" font-size="14.00">x2</text>
</g>
<!-- x0&#45;&gt;x2 -->
<g id="edge7" class="edge"><title>x0&#45;&gt;x2</title>
<path fill="none" stroke="black" d="M64.1643,-105C69.404,-105 74.6437,-105 79.8835,-105"/>
<polygon fill="black" stroke="black" points="64.0703,-101.5 54.0703,-105 64.0703,-108.5 64.0703,-101.5"/>
<polygon fill="black" stroke="black" points="79.9599,-108.5 89.9599,-105 79.9599,-101.5 79.9599,-108.5"/>
</g>
<!-- x3 -->
<g id="node4" class="node"><title>x3</title>
<ellipse fill="none" stroke="black" cx="207" cy="-105" rx="27" ry="18"/>
<text text-anchor="middle" x="207" y="-101.3" font-family="Times New Roman,serif" font-size="14.00">x3</text>
</g>
<!-- x0&#45;&gt;x3 -->
<g id="edge8" class="edge"><title>x0&#45;&gt;x3</title>
<path fill="none" stroke="black" d="M57.1172,-120.839C67.2779,-125.379 78.8697,-129.715 90,-132 113.51,-136.826 120.49,-136.826 144,-132 155.13,-129.715 166.722,-125.379 176.883,-120.839"/>
<polygon fill="black" stroke="black" points="58.4137,-117.581 47.8758,-116.484 55.4298,-123.913 58.4137,-117.581"/>
<polygon fill="black" stroke="black" points="178.57,-123.913 186.124,-116.484 175.586,-117.581 178.57,-123.913"/>
</g>
<!-- x5 -->
<g id="node6" class="node"><title>x5</title>
<ellipse fill="none" stroke="black" cx="297" cy="-105" rx="27" ry="18"/>
<text text-anchor="middle" x="297" y="-101.3" font-family="Times New Roman,serif" font-size="14.00">x5</text>
</g>
<!-- x0&#45;&gt;x5 -->
<g id="edge10" class="edge"><title>x0&#45;&gt;x5</title>
<path fill="none" stroke="black" d="M57.1172,-120.839C67.2779,-125.379 78.8697,-129.715 90,-132 121.346,-138.434 202.654,-138.434 234,-132 245.13,-129.715 256.722,-125.379 266.883,-120.839"/>
<polygon fill="black" stroke="black" points="58.4137,-117.581 47.8758,-116.484 55.4298,-123.913 58.4137,-117.581"/>
<polygon fill="black" stroke="black" points="268.57,-123.913 276.124,-116.484 265.586,-117.581 268.57,-123.913"/>
</g>
<!-- x1 -->
<g id="node2" class="node"><title>x1</title>
<ellipse fill="none" stroke="black" cx="228" cy="-18" rx="27" ry="18"/>
<text text-anchor="middle" x="228" y="-14.3" font-family="Times New Roman,serif" font-size="14.00">x1</text>
</g>
<!-- x2&#45;&gt;x1 -->
<g id="edge1" class="edge"><title>x2&#45;&gt;x1</title>
<path fill="none" stroke="black" d="M134.344,-90.7188C152.672,-76.6838 181.76,-54.4092 202.657,-38.4071"/>
<polygon fill="black" stroke="black" points="204.966,-41.0467 210.778,-32.188 200.711,-35.489 204.966,-41.0467"/>
<text text-anchor="middle" x="191.5" y="-57.8" font-family="Times New Roman,serif" font-size="14.00">0.48</text>
</g>
<!-- x2&#45;&gt;x3 -->
<g id="edge9" class="edge"><title>x2&#45;&gt;x3</title>
<path fill="none" stroke="black" d="M154.164,-105C159.404,-105 164.644,-105 169.883,-105"/>
<polygon fill="black" stroke="black" points="154.07,-101.5 144.07,-105 154.07,-108.5 154.07,-101.5"/>
<polygon fill="black" stroke="black" points="169.96,-108.5 179.96,-105 169.96,-101.5 169.96,-108.5"/>
</g>
<!-- x4 -->
<g id="node5" class="node"><title>x4</title>
<ellipse fill="none" stroke="black" cx="132" cy="-18" rx="27" ry="18"/>
<text text-anchor="middle" x="132" y="-14.3" font-family="Times New Roman,serif" font-size="14.00">x4</text>
</g>
<!-- x2&#45;&gt;x4 -->
<g id="edge4" class="edge"><title>x2&#45;&gt;x4</title>
<path fill="none" stroke="black" d="M98.4891,-91.6914C86.2828,-81.9417 73.7737,-67.7236 81,-54 85.4827,-45.4869 93.0743,-38.6457 101.05,-33.3488"/>
<polygon fill="black" stroke="black" points="102.911,-36.314 109.726,-28.2012 99.3395,-30.2938 102.911,-36.314"/>
<text text-anchor="middle" x="95.5" y="-57.8" font-family="Times New Roman,serif" font-size="14.00">&#45;0.49</text>
</g>
<!-- x2&#45;&gt;x5 -->
<g id="edge11" class="edge"><title>x2&#45;&gt;x5</title>
<path fill="none" stroke="black" d="M147.117,-120.839C157.278,-125.379 168.87,-129.715 180,-132 203.51,-136.826 210.49,-136.826 234,-132 245.13,-129.715 256.722,-125.379 266.883,-120.839"/>
<polygon fill="black" stroke="black" points="148.414,-117.581 137.876,-116.484 145.43,-123.913 148.414,-117.581"/>
<polygon fill="black" stroke="black" points="268.57,-123.913 276.124,-116.484 265.586,-117.581 268.57,-123.913"/>
</g>
<!-- x3&#45;&gt;x1 -->
<g id="edge2" class="edge"><title>x3&#45;&gt;x1</title>
<path fill="none" stroke="black" d="M211.149,-87.2067C214.064,-75.4091 218.024,-59.3781 221.373,-45.8221"/>
<polygon fill="black" stroke="black" points="224.787,-46.5969 223.788,-36.0493 217.991,-44.9179 224.787,-46.5969"/>
<text text-anchor="middle" x="230.5" y="-57.8" font-family="Times New Roman,serif" font-size="14.00">0.22</text>
</g>
<!-- x3&#45;&gt;x4 -->
<g id="edge5" class="edge"><title>x3&#45;&gt;x4</title>
<path fill="none" stroke="black" d="M183.571,-95.994C164.186,-88.8458 138.908,-78.1266 133,-69 128.67,-62.3106 127.316,-53.9909 127.361,-46.0697"/>
<polygon fill="black" stroke="black" points="130.854,-46.2855 128.093,-36.0568 123.873,-45.7749 130.854,-46.2855"/>
<text text-anchor="middle" x="145.5" y="-57.8" font-family="Times New Roman,serif" font-size="14.00">0.21</text>
</g>
<!-- x3&#45;&gt;x5 -->
<g id="edge12" class="edge"><title>x3&#45;&gt;x5</title>
<path fill="none" stroke="black" d="M244.164,-105C249.404,-105 254.644,-105 259.883,-105"/>
<polygon fill="black" stroke="black" points="244.07,-101.5 234.07,-105 244.07,-108.5 244.07,-101.5"/>
<polygon fill="black" stroke="black" points="259.96,-108.5 269.96,-105 259.96,-101.5 259.96,-108.5"/>
</g>
<!-- x5&#45;&gt;x1 -->
<g id="edge3" class="edge"><title>x5&#45;&gt;x1</title>
<path fill="none" stroke="black" d="M303.585,-87.4856C306.591,-77.1127 308.254,-63.8763 302,-54 293.413,-40.4397 278,-32.0322 263.456,-26.8701"/>
<polygon fill="black" stroke="black" points="264.209,-23.4384 253.62,-23.7915 262.118,-30.1188 264.209,-23.4384"/>
<text text-anchor="middle" x="318.5" y="-57.8" font-family="Times New Roman,serif" font-size="14.00">0.21</text>
</g>
<!-- x5&#45;&gt;x4 -->
<g id="edge6" class="edge"><title>x5&#45;&gt;x4</title>
<path fill="none" stroke="black" d="M284.978,-88.4208C275.697,-77.3717 261.948,-62.9688 247,-54 243.392,-51.8349 198.669,-38.5013 166.079,-28.934"/>
<polygon fill="black" stroke="black" points="166.994,-25.555 156.413,-26.1023 165.026,-32.2727 166.994,-25.555"/>
<text text-anchor="middle" x="277.5" y="-57.8" font-family="Times New Roman,serif" font-size="14.00">0.20</text>
</g>
</g>
</svg>
