<?xml version="1.0" encoding="UTF-8" standalone="no"?>
<!DOCTYPE svg PUBLIC "-//W3C//DTD SVG 1.1//EN"
 "http://www.w3.org/Graphics/SVG/1.1/DTD/svg11.dtd">
<!-- Generated by graphviz version 2.38.0 (20140413.2041)
 -->
<!-- Title: %3 Pages: 1 -->
<svg width="296pt" height="144pt"
 viewBox="0.00 0.00 296.00 143.62" xmlns="http://www.w3.org/2000/svg" xmlns:xlink="http://www.w3.org/1999/xlink">
<g id="graph0" class="graph" transform="scale(1 1) rotate(0) translate(4 139.619)">
<title>%3</title>
<polygon fill="white" stroke="none" points="-4,4 -4,-139.619 292,-139.619 292,4 -4,4"/>
<!-- x0 -->
<g id="node1" class="node"><title>x0</title>
<ellipse fill="none" stroke="black" cx="81" cy="-105" rx="27" ry="18"/>
<text text-anchor="middle" x="81" y="-101.3" font-family="Times New Roman,serif" font-size="14.00">x0</text>
</g>
<!-- x1 -->
<g id="node2" class="node"><title>x1</title>
<ellipse fill="none" stroke="black" cx="210" cy="-18" rx="27" ry="18"/>
<text text-anchor="middle" x="210" y="-14.3" font-family="Times New Roman,serif" font-size="14.00">x1</text>
</g>
<!-- x0&#45;&gt;x1 -->
<g id="edge1" class="edge"><title>x0&#45;&gt;x1</title>
<path fill="none" stroke="black" d="M90.4503,-87.7038C97.4303,-76.8892 107.811,-63.0683 120,-54 124.906,-50.35 153.452,-39.4922 177.1,-30.8279"/>
<polygon fill="black" stroke="black" points="178.322,-34.1076 186.52,-27.3961 175.926,-27.5304 178.322,-34.1076"/>
<text text-anchor="middle" x="132.5" y="-57.8" font-family="Times New Roman,serif" font-size="14.00">0.50</text>
</g>
<!-- x2 -->
<g id="node3" class="node"><title>x2</title>
<ellipse fill="none" stroke="black" cx="171" cy="-105" rx="27" ry="18"/>
<text text-anchor="middle" x="171" y="-101.3" font-family="Times New Roman,serif" font-size="14.00">x2</text>
</g>
<!-- x0&#45;&gt;x2 -->
<g id="edge6" class="edge"><title>x0&#45;&gt;x2</title>
<path fill="none" stroke="black" d="M118.164,-105C123.404,-105 128.644,-105 133.883,-105"/>
<polygon fill="black" stroke="black" points="118.07,-101.5 108.07,-105 118.07,-108.5 118.07,-101.5"/>
<polygon fill="black" stroke="black" points="133.96,-108.5 143.96,-105 133.96,-101.5 133.96,-108.5"/>
</g>
<!-- x3 -->
<g id="node4" class="node"><title>x3</title>
<ellipse fill="none" stroke="black" cx="261" cy="-105" rx="27" ry="18"/>
<text text-anchor="middle" x="261" y="-101.3" font-family="Times New Roman,serif" font-size="14.00">x3</text>
</g>
<!-- x0&#45;&gt;x3 -->
<g id="edge7" class="edge"><title>x0&#45;&gt;x3</title>
<path fill="none" stroke="black" d="M111.117,-120.839C121.278,-125.379 132.87,-129.715 144,-132 167.51,-136.826 174.49,-136.826 198,-132 209.13,-129.715 220.722,-125.379 230.883,-120.839"/>
<polygon fill="black" stroke="black" points="112.414,-117.581 101.876,-116.484 109.43,-123.913 112.414,-117.581"/>
<polygon fill="black" stroke="black" points="232.57,-123.913 240.124,-116.484 229.586,-117.581 232.57,-123.913"/>
</g>
<!-- x4 -->
<g id="node5" class="node"><title>x4</title>
<ellipse fill="none" stroke="black" cx="125" cy="-18" rx="27" ry="18"/>
<text text-anchor="middle" x="125" y="-14.3" font-family="Times New Roman,serif" font-size="14.00">x4</text>
</g>
<!-- x0&#45;&gt;x4 -->
<g id="edge3" class="edge"><title>x0&#45;&gt;x4</title>
<path fill="none" stroke="black" d="M74.9083,-87.3784C72.2247,-77.2127 70.7307,-64.2392 76,-54 80.1259,-45.9826 87.0337,-39.3946 94.3805,-34.183"/>
<polygon fill="black" stroke="black" points="96.4826,-36.995 103.066,-28.6941 92.7431,-31.0775 96.4826,-36.995"/>
<text text-anchor="middle" x="88.5" y="-57.8" font-family="Times New Roman,serif" font-size="14.00">0.45</text>
</g>
<!-- x5 -->
<g id="node6" class="node"><title>x5</title>
<ellipse fill="none" stroke="black" cx="27" cy="-18" rx="27" ry="18"/>
<text text-anchor="middle" x="27" y="-14.3" font-family="Times New Roman,serif" font-size="14.00">x5</text>
</g>
<!-- x0&#45;&gt;x5 -->
<g id="edge5" class="edge"><title>x0&#45;&gt;x5</title>
<path fill="none" stroke="black" d="M63.7485,-90.8209C56.8224,-84.7996 49.2524,-77.1863 44,-69 39.5246,-62.0247 36.0902,-53.7417 33.5197,-45.944"/>
<polygon fill="black" stroke="black" points="36.8092,-44.7248 30.6231,-36.1235 30.0952,-46.7052 36.8092,-44.7248"/>
<text text-anchor="middle" x="56.5" y="-57.8" font-family="Times New Roman,serif" font-size="14.00">0.48</text>
</g>
<!-- x2&#45;&gt;x1 -->
<g id="edge2" class="edge"><title>x2&#45;&gt;x1</title>
<path fill="none" stroke="black" d="M186.081,-89.9254C191.592,-83.9808 197.361,-76.6631 201,-69 204.33,-61.9888 206.434,-53.8896 207.761,-46.2788"/>
<polygon fill="black" stroke="black" points="211.231,-46.7363 209.132,-36.3514 204.297,-45.7784 211.231,-46.7363"/>
<text text-anchor="middle" x="218.5" y="-57.8" font-family="Times New Roman,serif" font-size="14.00">0.50</text>
</g>
<!-- x2&#45;&gt;x3 -->
<g id="edge8" class="edge"><title>x2&#45;&gt;x3</title>
<path fill="none" stroke="black" d="M208.164,-105C213.404,-105 218.644,-105 223.883,-105"/>
<polygon fill="black" stroke="black" points="208.07,-101.5 198.07,-105 208.07,-108.5 208.07,-101.5"/>
<polygon fill="black" stroke="black" points="223.96,-108.5 233.96,-105 223.96,-101.5 223.96,-108.5"/>
</g>
<!-- x2&#45;&gt;x4 -->
<g id="edge4" class="edge"><title>x2&#45;&gt;x4</title>
<path fill="none" stroke="black" d="M164.615,-87.4152C160.574,-77.4985 154.995,-64.7732 149,-54 147.002,-50.4088 144.735,-46.7208 142.411,-43.1488"/>
<polygon fill="black" stroke="black" points="145.146,-40.9451 136.639,-34.6295 139.35,-44.8715 145.146,-40.9451"/>
<text text-anchor="middle" x="171.5" y="-57.8" font-family="Times New Roman,serif" font-size="14.00">&#45;0.45</text>
</g>
</g>
</svg>
