<?xml version="1.0" encoding="UTF-8" standalone="no"?>
<!DOCTYPE svg PUBLIC "-//W3C//DTD SVG 1.1//EN"
 "http://www.w3.org/Graphics/SVG/1.1/DTD/svg11.dtd">
<!-- Generated by graphviz version 12.2.1 (20241206.2353)
 -->
<!-- Pages: 1 -->
<svg width="122pt" height="398pt"
 viewBox="0.00 0.00 122.00 398.00" xmlns="http://www.w3.org/2000/svg" xmlns:xlink="http://www.w3.org/1999/xlink">
<g id="graph0" class="graph" transform="scale(1 1) rotate(0) translate(4 394)">
<polygon fill="white" stroke="none" points="-4,4 -4,-394 118,-394 118,4 -4,4"/>
<!-- x0 -->
<g id="node1" class="node">
<title>x0</title>
<ellipse fill="none" stroke="black" cx="70" cy="-372" rx="27" ry="18"/>
<text text-anchor="middle" x="70" y="-366.95" font-family="Times New Roman,serif" font-size="14.00">x0</text>
</g>
<!-- x1 -->
<g id="node2" class="node">
<title>x1</title>
<ellipse fill="none" stroke="black" cx="27" cy="-283.5" rx="27" ry="18"/>
<text text-anchor="middle" x="27" y="-278.45" font-family="Times New Roman,serif" font-size="14.00">x1</text>
</g>
<!-- x0&#45;&gt;x1 -->
<g id="edge1" class="edge">
<title>x0&#45;&gt;x1</title>
<path fill="none" stroke="black" d="M61.5,-354.66C58.47,-348.79 55.05,-342.11 52,-336 47.97,-327.93 43.65,-319.11 39.76,-311.09"/>
<polygon fill="black" stroke="black" points="42.94,-309.63 35.44,-302.15 36.64,-312.67 42.94,-309.63"/>
<text text-anchor="middle" x="64" y="-322.7" font-family="Times New Roman,serif" font-size="14.00">1.00</text>
</g>
<!-- x2 -->
<g id="node3" class="node">
<title>x2</title>
<ellipse fill="none" stroke="black" cx="87" cy="-195" rx="27" ry="18"/>
<text text-anchor="middle" x="87" y="-189.95" font-family="Times New Roman,serif" font-size="14.00">x2</text>
</g>
<!-- x0&#45;&gt;x2 -->
<g id="edge2" class="edge">
<title>x0&#45;&gt;x2</title>
<path fill="none" stroke="black" d="M73.24,-353.96C74.24,-348.26 75.27,-341.87 76,-336 80.78,-297.64 83.86,-253.1 85.51,-224.75"/>
<polygon fill="black" stroke="black" points="89,-224.98 86.07,-214.8 82.01,-224.59 89,-224.98"/>
<text text-anchor="middle" x="94.76" y="-278.45" font-family="Times New Roman,serif" font-size="14.00">1.00</text>
</g>
<!-- x1&#45;&gt;x2 -->
<g id="edge3" class="edge">
<title>x1&#45;&gt;x2</title>
<path fill="none" stroke="black" d="M33.36,-265.95C37.79,-255.45 44.28,-241.85 52,-231 55.25,-226.43 59.13,-221.91 63.09,-217.72"/>
<polygon fill="black" stroke="black" points="65.5,-220.26 70.11,-210.72 60.56,-215.3 65.5,-220.26"/>
<text text-anchor="middle" x="64" y="-234.2" font-family="Times New Roman,serif" font-size="14.00">1.00</text>
</g>
<!-- x3 -->
<g id="node4" class="node">
<title>x3</title>
<ellipse fill="none" stroke="black" cx="34" cy="-106.5" rx="27" ry="18"/>
<text text-anchor="middle" x="34" y="-101.45" font-family="Times New Roman,serif" font-size="14.00">x3</text>
</g>
<!-- x1&#45;&gt;x3 -->
<g id="edge4" class="edge">
<title>x1&#45;&gt;x3</title>
<path fill="none" stroke="black" d="M26.47,-265.31C25.95,-244.42 25.44,-208.1 27,-177 27.68,-163.51 29.09,-148.6 30.47,-136.06"/>
<polygon fill="black" stroke="black" points="33.92,-136.73 31.59,-126.39 26.96,-135.92 33.92,-136.73"/>
<text text-anchor="middle" x="39" y="-189.95" font-family="Times New Roman,serif" font-size="14.00">1.00</text>
</g>
<!-- x2&#45;&gt;x3 -->
<g id="edge5" class="edge">
<title>x2&#45;&gt;x3</title>
<path fill="none" stroke="black" d="M77.28,-178.13C69.56,-165.53 58.61,-147.66 49.65,-133.05"/>
<polygon fill="black" stroke="black" points="52.84,-131.55 44.63,-124.85 46.87,-135.2 52.84,-131.55"/>
<text text-anchor="middle" x="77.25" y="-145.7" font-family="Times New Roman,serif" font-size="14.00">1.00</text>
</g>
<!-- x4 -->
<g id="node5" class="node">
<title>x4</title>
<ellipse fill="none" stroke="black" cx="34" cy="-18" rx="27" ry="18"/>
<text text-anchor="middle" x="34" y="-12.95" font-family="Times New Roman,serif" font-size="14.00">x4</text>
</g>
<!-- x3&#45;&gt;x4 -->
<g id="edge6" class="edge">
<title>x3&#45;&gt;x4</title>
<path fill="none" stroke="black" d="M34,-88.41C34,-76.76 34,-61.05 34,-47.52"/>
<polygon fill="black" stroke="black" points="37.5,-47.86 34,-37.86 30.5,-47.86 37.5,-47.86"/>
<text text-anchor="middle" x="46" y="-57.2" font-family="Times New Roman,serif" font-size="14.00">1.00</text>
</g>
</g>
</svg>
