<?xml version="1.0" encoding="UTF-8" standalone="no"?>
<!DOCTYPE svg PUBLIC "-//W3C//DTD SVG 1.1//EN"
 "http://www.w3.org/Graphics/SVG/1.1/DTD/svg11.dtd">
<!-- Generated by graphviz version 12.2.1 (20241206.2353)
 -->
<!-- Pages: 1 -->
<svg width="112pt" height="398pt"
 viewBox="0.00 0.00 112.04 398.00" xmlns="http://www.w3.org/2000/svg" xmlns:xlink="http://www.w3.org/1999/xlink">
<g id="graph0" class="graph" transform="scale(1 1) rotate(0) translate(4 394)">
<polygon fill="white" stroke="none" points="-4,4 -4,-394 108.04,-394 108.04,4 -4,4"/>
<!-- x0 -->
<g id="node1" class="node">
<title>x0</title>
<ellipse fill="none" stroke="black" cx="58" cy="-283.5" rx="27" ry="18"/>
<text text-anchor="middle" x="58" y="-278.45" font-family="Times New Roman,serif" font-size="14.00">x0</text>
</g>
<!-- x1 -->
<g id="node2" class="node">
<title>x1</title>
<ellipse fill="none" stroke="black" cx="27" cy="-195" rx="27" ry="18"/>
<text text-anchor="middle" x="27" y="-189.95" font-family="Times New Roman,serif" font-size="14.00">x1</text>
</g>
<!-- x0&#45;&gt;x1 -->
<g id="edge2" class="edge">
<title>x0&#45;&gt;x1</title>
<path fill="none" stroke="black" d="M52.02,-265.82C47.72,-253.81 41.82,-237.34 36.82,-223.41"/>
<polygon fill="black" stroke="black" points="40.24,-222.58 33.58,-214.35 33.65,-224.94 40.24,-222.58"/>
<text text-anchor="middle" x="57.28" y="-234.2" font-family="Times New Roman,serif" font-size="14.00">1.00</text>
</g>
<!-- x3 -->
<g id="node4" class="node">
<title>x3</title>
<ellipse fill="none" stroke="black" cx="58" cy="-106.5" rx="27" ry="18"/>
<text text-anchor="middle" x="58" y="-101.45" font-family="Times New Roman,serif" font-size="14.00">x3</text>
</g>
<!-- x0&#45;&gt;x3 -->
<g id="edge3" class="edge">
<title>x0&#45;&gt;x3</title>
<path fill="none" stroke="black" d="M66.6,-266.21C69.19,-260.46 71.7,-253.85 73,-247.5 82.38,-201.79 82.38,-188.21 73,-142.5 72.45,-139.82 71.69,-137.1 70.79,-134.41"/>
<polygon fill="black" stroke="black" points="74.08,-133.21 67.16,-125.2 67.57,-135.78 74.08,-133.21"/>
<text text-anchor="middle" x="92.04" y="-189.95" font-family="Times New Roman,serif" font-size="14.00">1.00</text>
</g>
<!-- x1&#45;&gt;x3 -->
<g id="edge4" class="edge">
<title>x1&#45;&gt;x3</title>
<path fill="none" stroke="black" d="M32.98,-177.32C37.28,-165.31 43.18,-148.84 48.18,-134.91"/>
<polygon fill="black" stroke="black" points="51.35,-136.44 51.42,-125.85 44.76,-134.08 51.35,-136.44"/>
<text text-anchor="middle" x="57.28" y="-145.7" font-family="Times New Roman,serif" font-size="14.00">1.00</text>
</g>
<!-- x2 -->
<g id="node3" class="node">
<title>x2</title>
<ellipse fill="none" stroke="black" cx="58" cy="-372" rx="27" ry="18"/>
<text text-anchor="middle" x="58" y="-366.95" font-family="Times New Roman,serif" font-size="14.00">x2</text>
</g>
<!-- x2&#45;&gt;x0 -->
<g id="edge1" class="edge">
<title>x2&#45;&gt;x0</title>
<path fill="none" stroke="black" d="M58,-353.91C58,-342.26 58,-326.55 58,-313.02"/>
<polygon fill="black" stroke="black" points="61.5,-313.36 58,-303.36 54.5,-313.36 61.5,-313.36"/>
<text text-anchor="middle" x="70" y="-322.7" font-family="Times New Roman,serif" font-size="14.00">1.00</text>
</g>
<!-- x4 -->
<g id="node5" class="node">
<title>x4</title>
<ellipse fill="none" stroke="black" cx="58" cy="-18" rx="27" ry="18"/>
<text text-anchor="middle" x="58" y="-12.95" font-family="Times New Roman,serif" font-size="14.00">x4</text>
</g>
<!-- x3&#45;&gt;x4 -->
<g id="edge5" class="edge">
<title>x3&#45;&gt;x4</title>
<path fill="none" stroke="black" d="M58,-88.41C58,-76.76 58,-61.05 58,-47.52"/>
<polygon fill="black" stroke="black" points="61.5,-47.86 58,-37.86 54.5,-47.86 61.5,-47.86"/>
<text text-anchor="middle" x="70" y="-57.2" font-family="Times New Roman,serif" font-size="14.00">1.00</text>
</g>
</g>
</svg>
