<?xml version="1.0" encoding="UTF-8" standalone="no"?>
<!DOCTYPE svg PUBLIC "-//W3C//DTD SVG 1.1//EN"
 "http://www.w3.org/Graphics/SVG/1.1/DTD/svg11.dtd">
<!-- Generated by graphviz version 12.2.1 (20241206.2353)
 -->
<!-- Pages: 1 -->
<svg width="181pt" height="221pt"
 viewBox="0.00 0.00 181.50 221.00" xmlns="http://www.w3.org/2000/svg" xmlns:xlink="http://www.w3.org/1999/xlink">
<g id="graph0" class="graph" transform="scale(1 1) rotate(0) translate(4 217)">
<polygon fill="white" stroke="none" points="-4,4 -4,-217 177.5,-217 177.5,4 -4,4"/>
<!-- x0 -->
<g id="node1" class="node">
<title>x0</title>
<ellipse fill="none" stroke="black" cx="52.5" cy="-18" rx="27" ry="18"/>
<text text-anchor="middle" x="52.5" y="-12.95" font-family="Times New Roman,serif" font-size="14.00">x0</text>
</g>
<!-- x1 -->
<g id="node2" class="node">
<title>x1</title>
<ellipse fill="none" stroke="black" cx="63.5" cy="-195" rx="27" ry="18"/>
<text text-anchor="middle" x="63.5" y="-189.95" font-family="Times New Roman,serif" font-size="14.00">x1</text>
</g>
<!-- x1&#45;&gt;x0 -->
<g id="edge1" class="edge">
<title>x1&#45;&gt;x0</title>
<path fill="none" stroke="black" d="M46.59,-180.65C32.03,-167.99 12.06,-147.51 3.5,-124.5 -7.36,-95.32 12.64,-63.02 30.26,-41.94"/>
<polygon fill="black" stroke="black" points="32.83,-44.32 36.82,-34.5 27.58,-39.69 32.83,-44.32"/>
<text text-anchor="middle" x="15.5" y="-101.45" font-family="Times New Roman,serif" font-size="14.00">1.00</text>
</g>
<!-- x2 -->
<g id="node3" class="node">
<title>x2</title>
<ellipse fill="none" stroke="black" cx="63.5" cy="-106.5" rx="27" ry="18"/>
<text text-anchor="middle" x="63.5" y="-101.45" font-family="Times New Roman,serif" font-size="14.00">x2</text>
</g>
<!-- x1&#45;&gt;x2 -->
<g id="edge4" class="edge">
<title>x1&#45;&gt;x2</title>
<path fill="none" stroke="black" d="M63.5,-176.91C63.5,-165.26 63.5,-149.55 63.5,-136.02"/>
<polygon fill="black" stroke="black" points="67,-136.36 63.5,-126.36 60,-136.36 67,-136.36"/>
<text text-anchor="middle" x="75.5" y="-145.7" font-family="Times New Roman,serif" font-size="14.00">1.00</text>
</g>
<!-- x3 -->
<g id="node4" class="node">
<title>x3</title>
<ellipse fill="none" stroke="black" cx="135.5" cy="-106.5" rx="27" ry="18"/>
<text text-anchor="middle" x="135.5" y="-101.45" font-family="Times New Roman,serif" font-size="14.00">x3</text>
</g>
<!-- x1&#45;&gt;x3 -->
<g id="edge5" class="edge">
<title>x1&#45;&gt;x3</title>
<path fill="none" stroke="black" d="M76.04,-178.93C87.02,-165.74 103.16,-146.36 115.85,-131.11"/>
<polygon fill="black" stroke="black" points="118.18,-133.77 121.89,-123.85 112.8,-129.29 118.18,-133.77"/>
<text text-anchor="middle" x="117.95" y="-145.7" font-family="Times New Roman,serif" font-size="14.00">1.00</text>
</g>
<!-- x2&#45;&gt;x0 -->
<g id="edge2" class="edge">
<title>x2&#45;&gt;x0</title>
<path fill="none" stroke="black" d="M57.72,-88.61C56.03,-82.92 54.4,-76.5 53.5,-70.5 52.4,-63.16 51.91,-55.17 51.74,-47.71"/>
<polygon fill="black" stroke="black" points="55.24,-47.77 51.73,-37.77 48.24,-47.78 55.24,-47.77"/>
<text text-anchor="middle" x="65.5" y="-57.2" font-family="Times New Roman,serif" font-size="14.00">1.00</text>
</g>
<!-- x3&#45;&gt;x0 -->
<g id="edge3" class="edge">
<title>x3&#45;&gt;x0</title>
<path fill="none" stroke="black" d="M121.42,-90.83C108.54,-77.41 89.29,-57.34 74.4,-41.83"/>
<polygon fill="black" stroke="black" points="77.15,-39.63 67.7,-34.84 72.09,-44.48 77.15,-39.63"/>
<text text-anchor="middle" x="113.43" y="-57.2" font-family="Times New Roman,serif" font-size="14.00">1.00</text>
</g>
<!-- x4 -->
<g id="node5" class="node">
<title>x4</title>
<ellipse fill="none" stroke="black" cx="146.5" cy="-18" rx="27" ry="18"/>
<text text-anchor="middle" x="146.5" y="-12.95" font-family="Times New Roman,serif" font-size="14.00">x4</text>
</g>
<!-- x3&#45;&gt;x4 -->
<g id="edge6" class="edge">
<title>x3&#45;&gt;x4</title>
<path fill="none" stroke="black" d="M137.67,-88.41C139.15,-76.76 141.15,-61.05 142.87,-47.52"/>
<polygon fill="black" stroke="black" points="146.31,-48.21 144.1,-37.85 139.37,-47.33 146.31,-48.21"/>
<text text-anchor="middle" x="153.98" y="-57.2" font-family="Times New Roman,serif" font-size="14.00">1.00</text>
</g>
</g>
</svg>
