<?xml version="1.0" encoding="UTF-8" standalone="no"?>
<!DOCTYPE svg PUBLIC "-//W3C//DTD SVG 1.1//EN"
 "http://www.w3.org/Graphics/SVG/1.1/DTD/svg11.dtd">
<!-- Generated by graphviz version 12.2.1 (20241206.2353)
 -->
<!-- Pages: 1 -->
<svg width="167pt" height="260pt"
 viewBox="0.00 0.00 167.29 260.00" xmlns="http://www.w3.org/2000/svg" xmlns:xlink="http://www.w3.org/1999/xlink">
<g id="graph0" class="graph" transform="scale(1 1) rotate(0) translate(4 256)">
<polygon fill="white" stroke="none" points="-4,4 -4,-256 163.29,-256 163.29,4 -4,4"/>
<!-- x0 -->
<g id="node1" class="node">
<title>x0</title>
<ellipse fill="none" stroke="black" cx="39.29" cy="-18" rx="27" ry="18"/>
<text text-anchor="middle" x="39.29" y="-12.95" font-family="Times New Roman,serif" font-size="14.00">x0</text>
</g>
<!-- x1 -->
<g id="node2" class="node">
<title>x1</title>
<ellipse fill="none" stroke="black" cx="67.29" cy="-234" rx="27" ry="18"/>
<text text-anchor="middle" x="67.29" y="-228.95" font-family="Times New Roman,serif" font-size="14.00">x1</text>
</g>
<!-- x1&#45;&gt;x0 -->
<g id="edge1" class="edge">
<title>x1&#45;&gt;x0</title>
<path fill="none" stroke="black" stroke-dasharray="5,2" d="M56.18,-217.39C40.73,-194.63 13.52,-150.43 3.29,-108 -0.46,-92.45 -1.41,-87.29 3.29,-72 6.47,-61.65 12.44,-51.51 18.62,-42.91"/>
<polygon fill="black" stroke="black" points="21.28,-45.19 24.61,-35.13 15.74,-40.91 21.28,-45.19"/>
</g>
<!-- x2 -->
<g id="node3" class="node">
<title>x2</title>
<ellipse fill="none" stroke="black" cx="99.29" cy="-162" rx="27" ry="18"/>
<text text-anchor="middle" x="99.29" y="-156.95" font-family="Times New Roman,serif" font-size="14.00">x2</text>
</g>
<!-- x1&#45;&gt;x2 -->
<g id="edge6" class="edge">
<title>x1&#45;&gt;x2</title>
<path fill="none" stroke="black" stroke-dasharray="5,2" d="M69.28,-215.7C72.21,-207.43 76.6,-197.38 81.22,-188.28"/>
<polygon fill="black" stroke="black" points="84.27,-190 85.94,-179.53 78.11,-186.67 84.27,-190"/>
</g>
<!-- x3 -->
<g id="node4" class="node">
<title>x3</title>
<ellipse fill="none" stroke="black" cx="39.29" cy="-90" rx="27" ry="18"/>
<text text-anchor="middle" x="39.29" y="-84.95" font-family="Times New Roman,serif" font-size="14.00">x3</text>
</g>
<!-- x1&#45;&gt;x3 -->
<g id="edge8" class="edge">
<title>x1&#45;&gt;x3</title>
<path fill="none" stroke="black" stroke-dasharray="5,2" d="M59.5,-216.43C52.22,-192.64 43.18,-148.47 39.36,-119.41"/>
<polygon fill="black" stroke="black" points="42.88,-119.39 38.27,-109.85 35.93,-120.18 42.88,-119.39"/>
</g>
<!-- x4 -->
<g id="node5" class="node">
<title>x4</title>
<ellipse fill="none" stroke="black" cx="132.29" cy="-18" rx="27" ry="18"/>
<text text-anchor="middle" x="132.29" y="-12.95" font-family="Times New Roman,serif" font-size="14.00">x4</text>
</g>
<!-- x1&#45;&gt;x4 -->
<g id="edge10" class="edge">
<title>x1&#45;&gt;x4</title>
<path fill="none" stroke="black" stroke-dasharray="5,2" d="M88.85,-222.93C104.93,-214.11 125.7,-199.64 135.29,-180 156.14,-137.31 147.98,-80.34 140.14,-46.87"/>
<polygon fill="black" stroke="black" points="143.63,-46.38 137.8,-37.54 136.84,-48.09 143.63,-46.38"/>
</g>
<!-- x2&#45;&gt;x0 -->
<g id="edge2" class="edge">
<title>x2&#45;&gt;x0</title>
<path fill="none" stroke="black" stroke-dasharray="5,2" d="M96.39,-143.68C92.92,-125.31 86.16,-95.71 75.29,-72 70.77,-62.16 64.49,-52.13 58.43,-43.49"/>
<polygon fill="black" stroke="black" points="61.41,-41.64 52.68,-35.63 55.76,-45.77 61.41,-41.64"/>
</g>
<!-- x2&#45;&gt;x1 -->
<g id="edge4" class="edge">
<title>x2&#45;&gt;x1</title>
<path fill="none" stroke="black" stroke-dasharray="5,2" d="M97.36,-180.13C94.4,-188.5 89.92,-198.74 85.23,-207.97"/>
<polygon fill="black" stroke="black" points="82.31,-206.02 80.63,-216.48 88.47,-209.35 82.31,-206.02"/>
</g>
<!-- x2&#45;&gt;x3 -->
<g id="edge9" class="edge">
<title>x2&#45;&gt;x3</title>
<path fill="none" stroke="black" stroke-dasharray="5,2" d="M82.26,-147.5C73.45,-138.65 62.94,-126.81 54.42,-116.25"/>
<polygon fill="black" stroke="black" points="57.37,-114.34 48.47,-108.61 51.85,-118.65 57.37,-114.34"/>
</g>
<!-- x2&#45;&gt;x4 -->
<g id="edge11" class="edge">
<title>x2&#45;&gt;x4</title>
<path fill="none" stroke="black" stroke-dasharray="5,2" d="M103.27,-143.87C108.84,-119.88 119.04,-75.99 125.75,-47.16"/>
<polygon fill="black" stroke="black" points="129.1,-48.2 127.95,-37.66 122.28,-46.61 129.1,-48.2"/>
</g>
<!-- x3&#45;&gt;x0 -->
<g id="edge3" class="edge">
<title>x3&#45;&gt;x0</title>
<path fill="none" stroke="black" stroke-dasharray="5,2" d="M39.29,-71.7C39.29,-64.41 39.29,-55.73 39.29,-47.54"/>
<polygon fill="black" stroke="black" points="42.79,-47.62 39.29,-37.62 35.79,-47.62 42.79,-47.62"/>
</g>
<!-- x3&#45;&gt;x1 -->
<g id="edge5" class="edge">
<title>x3&#45;&gt;x1</title>
<path fill="none" stroke="black" stroke-dasharray="5,2" d="M47.11,-107.67C54.34,-131.37 63.31,-175.13 67.16,-204.15"/>
<polygon fill="black" stroke="black" points="63.68,-204.55 68.3,-214.08 70.63,-203.75 63.68,-204.55"/>
</g>
<!-- x3&#45;&gt;x2 -->
<g id="edge7" class="edge">
<title>x3&#45;&gt;x2</title>
<path fill="none" stroke="black" stroke-dasharray="5,2" d="M56.02,-104.2C64.83,-113.01 75.38,-124.9 83.97,-135.51"/>
<polygon fill="black" stroke="black" points="81.07,-137.49 89.98,-143.22 86.59,-133.18 81.07,-137.49"/>
</g>
<!-- x3&#45;&gt;x4 -->
<g id="edge12" class="edge">
<title>x3&#45;&gt;x4</title>
<path fill="none" stroke="black" stroke-dasharray="5,2" d="M56.78,-75.83C70.68,-65.37 90.34,-50.58 106.11,-38.7"/>
<polygon fill="black" stroke="black" points="107.78,-41.83 113.67,-33.02 103.57,-36.24 107.78,-41.83"/>
</g>
</g>
</svg>
