<?xml version="1.0" encoding="utf-8" standalone="no"?>
<!DOCTYPE svg PUBLIC "-//W3C//DTD SVG 1.1//EN"
  "http://www.w3.org/Graphics/SVG/1.1/DTD/svg11.dtd">
<svg xmlns:xlink="http://www.w3.org/1999/xlink" width="864pt" height="144pt" viewBox="0 0 864 144" xmlns="http://www.w3.org/2000/svg" version="1.1">
 <metadata>
  <rdf:RDF xmlns:dc="http://purl.org/dc/elements/1.1/" xmlns:cc="http://creativecommons.org/ns#" xmlns:rdf="http://www.w3.org/1999/02/22-rdf-syntax-ns#">
   <cc:Work>
    <dc:type rdf:resource="http://purl.org/dc/dcmitype/StillImage"/>
    <dc:date>2023-09-28T15:12:26.695389</dc:date>
    <dc:format>image/svg+xml</dc:format>
    <dc:creator>
     <cc:Agent>
      <dc:title>Matplotlib v3.7.2, https://matplotlib.org/</dc:title>
     </cc:Agent>
    </dc:creator>
   </cc:Work>
  </rdf:RDF>
 </metadata>
 <defs>
  <style type="text/css">*{stroke-linejoin: round; stroke-linecap: butt}</style>
 </defs>
 <g id="figure_1">
  <g id="patch_1">
   <path d="M 0 144 
L 864 144 
L 864 0 
L 0 0 
L 0 144 
z
" style="fill: none"/>
  </g>
  <g id="axes_1">
   <g id="patch_2">
    <path d="M 36.675 116.2 
L 138.500554 116.2 
L 138.500554 26.8 
L 36.675 26.8 
z
" style="fill: #ffffff"/>
   </g>
   <g id="patch_3">
    <path d="M 41.303434 116.2 
L 50.560303 116.2 
L 50.560303 43.534975 
L 41.303434 43.534975 
z
" clip-path="url(#p43476b252f)" style="fill: #1f77b4"/>
   </g>
   <g id="patch_4">
    <path d="M 50.560303 116.2 
L 59.817171 116.2 
L 59.817171 42.066995 
L 50.560303 42.066995 
z
" clip-path="url(#p43476b252f)" style="fill: #1f77b4"/>
   </g>
   <g id="patch_5">
    <path d="M 59.817171 116.2 
L 69.07404 116.2 
L 69.07404 39.131034 
L 59.817171 39.131034 
z
" clip-path="url(#p43476b252f)" style="fill: #1f77b4"/>
   </g>
   <g id="patch_6">
    <path d="M 69.07404 116.2 
L 78.330908 116.2 
L 78.330908 47.204926 
L 69.07404 47.204926 
z
" clip-path="url(#p43476b252f)" style="fill: #1f77b4"/>
   </g>
   <g id="patch_7">
    <path d="M 78.330908 116.2 
L 87.587777 116.2 
L 87.587777 42.800985 
L 78.330908 42.800985 
z
" clip-path="url(#p43476b252f)" style="fill: #1f77b4"/>
   </g>
   <g id="patch_8">
    <path d="M 87.587777 116.2 
L 96.844645 116.2 
L 96.844645 31.057143 
L 87.587777 31.057143 
z
" clip-path="url(#p43476b252f)" style="fill: #1f77b4"/>
   </g>
   <g id="patch_9">
    <path d="M 96.844645 116.2 
L 106.101514 116.2 
L 106.101514 48.672906 
L 96.844645 48.672906 
z
" clip-path="url(#p43476b252f)" style="fill: #1f77b4"/>
   </g>
   <g id="patch_10">
    <path d="M 106.101514 116.2 
L 115.358382 116.2 
L 115.358382 44.268966 
L 106.101514 44.268966 
z
" clip-path="url(#p43476b252f)" style="fill: #1f77b4"/>
   </g>
   <g id="patch_11">
    <path d="M 115.358382 116.2 
L 124.615251 116.2 
L 124.615251 47.938916 
L 115.358382 47.938916 
z
" clip-path="url(#p43476b252f)" style="fill: #1f77b4"/>
   </g>
   <g id="patch_12">
    <path d="M 124.615251 116.2 
L 133.872119 116.2 
L 133.872119 41.333005 
L 124.615251 41.333005 
z
" clip-path="url(#p43476b252f)" style="fill: #1f77b4"/>
   </g>
   <g id="matplotlib.axis_1">
    <g id="xtick_1">
     <g id="line2d_1">
      <defs>
       <path id="md951d5930b" d="M 0 0 
L 0 3.5 
" style="stroke: #000000; stroke-width: 0.8"/>
      </defs>
      <g>
       <use xlink:href="#md951d5930b" x="41.25833" y="116.2" style="stroke: #000000; stroke-width: 0.8"/>
      </g>
     </g>
     <g id="text_1">
      <!-- 0.0 -->
      <g transform="translate(33.306768 130.798438) scale(0.1 -0.1)">
       <defs>
        <path id="DejaVuSans-30" d="M 2034 4250 
Q 1547 4250 1301 3770 
Q 1056 3291 1056 2328 
Q 1056 1369 1301 889 
Q 1547 409 2034 409 
Q 2525 409 2770 889 
Q 3016 1369 3016 2328 
Q 3016 3291 2770 3770 
Q 2525 4250 2034 4250 
z
M 2034 4750 
Q 2819 4750 3233 4129 
Q 3647 3509 3647 2328 
Q 3647 1150 3233 529 
Q 2819 -91 2034 -91 
Q 1250 -91 836 529 
Q 422 1150 422 2328 
Q 422 3509 836 4129 
Q 1250 4750 2034 4750 
z
" transform="scale(0.015625)"/>
        <path id="DejaVuSans-2e" d="M 684 794 
L 1344 794 
L 1344 0 
L 684 0 
L 684 794 
z
" transform="scale(0.015625)"/>
       </defs>
       <use xlink:href="#DejaVuSans-30"/>
       <use xlink:href="#DejaVuSans-2e" x="63.623047"/>
       <use xlink:href="#DejaVuSans-30" x="95.410156"/>
      </g>
     </g>
    </g>
    <g id="xtick_2">
     <g id="line2d_2">
      <g>
       <use xlink:href="#md951d5930b" x="87.589356" y="116.2" style="stroke: #000000; stroke-width: 0.8"/>
      </g>
     </g>
     <g id="text_2">
      <!-- 0.5 -->
      <g transform="translate(79.637794 130.798438) scale(0.1 -0.1)">
       <defs>
        <path id="DejaVuSans-35" d="M 691 4666 
L 3169 4666 
L 3169 4134 
L 1269 4134 
L 1269 2991 
Q 1406 3038 1543 3061 
Q 1681 3084 1819 3084 
Q 2600 3084 3056 2656 
Q 3513 2228 3513 1497 
Q 3513 744 3044 326 
Q 2575 -91 1722 -91 
Q 1428 -91 1123 -41 
Q 819 9 494 109 
L 494 744 
Q 775 591 1075 516 
Q 1375 441 1709 441 
Q 2250 441 2565 725 
Q 2881 1009 2881 1497 
Q 2881 1984 2565 2268 
Q 2250 2553 1709 2553 
Q 1456 2553 1204 2497 
Q 953 2441 691 2322 
L 691 4666 
z
" transform="scale(0.015625)"/>
       </defs>
       <use xlink:href="#DejaVuSans-30"/>
       <use xlink:href="#DejaVuSans-2e" x="63.623047"/>
       <use xlink:href="#DejaVuSans-35" x="95.410156"/>
      </g>
     </g>
    </g>
    <g id="xtick_3">
     <g id="line2d_3">
      <g>
       <use xlink:href="#md951d5930b" x="133.920382" y="116.2" style="stroke: #000000; stroke-width: 0.8"/>
      </g>
     </g>
     <g id="text_3">
      <!-- 1.0 -->
      <g transform="translate(125.96882 130.798438) scale(0.1 -0.1)">
       <defs>
        <path id="DejaVuSans-31" d="M 794 531 
L 1825 531 
L 1825 4091 
L 703 3866 
L 703 4441 
L 1819 4666 
L 2450 4666 
L 2450 531 
L 3481 531 
L 3481 0 
L 794 0 
L 794 531 
z
" transform="scale(0.015625)"/>
       </defs>
       <use xlink:href="#DejaVuSans-31"/>
       <use xlink:href="#DejaVuSans-2e" x="63.623047"/>
       <use xlink:href="#DejaVuSans-30" x="95.410156"/>
      </g>
     </g>
    </g>
   </g>
   <g id="matplotlib.axis_2">
    <g id="ytick_1">
     <g id="line2d_4">
      <defs>
       <path id="mf6f5e17dc9" d="M 0 0 
L -3.5 0 
" style="stroke: #000000; stroke-width: 0.8"/>
      </defs>
      <g>
       <use xlink:href="#mf6f5e17dc9" x="36.675" y="116.2" style="stroke: #000000; stroke-width: 0.8"/>
      </g>
     </g>
     <g id="text_4">
      <!-- 0 -->
      <g transform="translate(23.3125 119.999219) scale(0.1 -0.1)">
       <use xlink:href="#DejaVuSans-30"/>
      </g>
     </g>
    </g>
    <g id="ytick_2">
     <g id="line2d_5">
      <g>
       <use xlink:href="#mf6f5e17dc9" x="36.675" y="79.500493" style="stroke: #000000; stroke-width: 0.8"/>
      </g>
     </g>
     <g id="text_5">
      <!-- 50 -->
      <g transform="translate(16.95 83.299711) scale(0.1 -0.1)">
       <use xlink:href="#DejaVuSans-35"/>
       <use xlink:href="#DejaVuSans-30" x="63.623047"/>
      </g>
     </g>
    </g>
    <g id="ytick_3">
     <g id="line2d_6">
      <g>
       <use xlink:href="#mf6f5e17dc9" x="36.675" y="42.800985" style="stroke: #000000; stroke-width: 0.8"/>
      </g>
     </g>
     <g id="text_6">
      <!-- 100 -->
      <g transform="translate(10.5875 46.600204) scale(0.1 -0.1)">
       <use xlink:href="#DejaVuSans-31"/>
       <use xlink:href="#DejaVuSans-30" x="63.623047"/>
       <use xlink:href="#DejaVuSans-30" x="127.246094"/>
      </g>
     </g>
    </g>
   </g>
   <g id="patch_13">
    <path d="M 36.675 116.2 
L 36.675 26.8 
" style="fill: none; stroke: #000000; stroke-width: 0.8; stroke-linejoin: miter; stroke-linecap: square"/>
   </g>
   <g id="patch_14">
    <path d="M 138.500554 116.2 
L 138.500554 26.8 
" style="fill: none; stroke: #000000; stroke-width: 0.8; stroke-linejoin: miter; stroke-linecap: square"/>
   </g>
   <g id="patch_15">
    <path d="M 36.675 116.2 
L 138.500554 116.2 
" style="fill: none; stroke: #000000; stroke-width: 0.8; stroke-linejoin: miter; stroke-linecap: square"/>
   </g>
   <g id="patch_16">
    <path d="M 36.675 26.8 
L 138.500554 26.8 
" style="fill: none; stroke: #000000; stroke-width: 0.8; stroke-linejoin: miter; stroke-linecap: square"/>
   </g>
   <g id="text_7">
    <!-- x0 -->
    <g transform="translate(80.219027 20.8) scale(0.12 -0.12)">
     <defs>
      <path id="DejaVuSans-78" d="M 3513 3500 
L 2247 1797 
L 3578 0 
L 2900 0 
L 1881 1375 
L 863 0 
L 184 0 
L 1544 1831 
L 300 3500 
L 978 3500 
L 1906 2253 
L 2834 3500 
L 3513 3500 
z
" transform="scale(0.015625)"/>
     </defs>
     <use xlink:href="#DejaVuSans-78"/>
     <use xlink:href="#DejaVuSans-30" x="59.179688"/>
    </g>
   </g>
  </g>
  <g id="axes_2">
   <g id="patch_17">
    <path d="M 178.897 116.2 
L 280.722553 116.2 
L 280.722553 26.8 
L 178.897 26.8 
z
" style="fill: #ffffff"/>
   </g>
   <g id="patch_18">
    <path d="M 183.525434 116.2 
L 192.782302 116.2 
L 192.782302 31.057143 
L 183.525434 31.057143 
z
" clip-path="url(#p54e2b9a79e)" style="fill: #1f77b4"/>
   </g>
   <g id="patch_19">
    <path d="M 192.782302 116.2 
L 202.039171 116.2 
L 202.039171 33.240293 
L 192.782302 33.240293 
z
" clip-path="url(#p54e2b9a79e)" style="fill: #1f77b4"/>
   </g>
   <g id="patch_20">
    <path d="M 202.039171 116.2 
L 211.296039 116.2 
L 211.296039 45.611477 
L 202.039171 45.611477 
z
" clip-path="url(#p54e2b9a79e)" style="fill: #1f77b4"/>
   </g>
   <g id="patch_21">
    <path d="M 211.296039 116.2 
L 220.552908 116.2 
L 220.552908 41.245177 
L 211.296039 41.245177 
z
" clip-path="url(#p54e2b9a79e)" style="fill: #1f77b4"/>
   </g>
   <g id="patch_22">
    <path d="M 220.552908 116.2 
L 229.809776 116.2 
L 229.809776 47.794628 
L 220.552908 47.794628 
z
" clip-path="url(#p54e2b9a79e)" style="fill: #1f77b4"/>
   </g>
   <g id="patch_23">
    <path d="M 229.809776 116.2 
L 239.066645 116.2 
L 239.066645 33.96801 
L 229.809776 33.96801 
z
" clip-path="url(#p54e2b9a79e)" style="fill: #1f77b4"/>
   </g>
   <g id="patch_24">
    <path d="M 239.066645 116.2 
L 248.323513 116.2 
L 248.323513 50.705495 
L 239.066645 50.705495 
z
" clip-path="url(#p54e2b9a79e)" style="fill: #1f77b4"/>
   </g>
   <g id="patch_25">
    <path d="M 248.323513 116.2 
L 257.580382 116.2 
L 257.580382 51.433211 
L 248.323513 51.433211 
z
" clip-path="url(#p54e2b9a79e)" style="fill: #1f77b4"/>
   </g>
   <g id="patch_26">
    <path d="M 257.580382 116.2 
L 266.83725 116.2 
L 266.83725 44.156044 
L 257.580382 44.156044 
z
" clip-path="url(#p54e2b9a79e)" style="fill: #1f77b4"/>
   </g>
   <g id="patch_27">
    <path d="M 266.83725 116.2 
L 276.094119 116.2 
L 276.094119 55.071795 
L 266.83725 55.071795 
z
" clip-path="url(#p54e2b9a79e)" style="fill: #1f77b4"/>
   </g>
   <g id="matplotlib.axis_3">
    <g id="xtick_4">
     <g id="line2d_7">
      <g>
       <use xlink:href="#md951d5930b" x="183.362888" y="116.2" style="stroke: #000000; stroke-width: 0.8"/>
      </g>
     </g>
     <g id="text_8">
      <!-- 0.0 -->
      <g transform="translate(175.411325 130.798438) scale(0.1 -0.1)">
       <use xlink:href="#DejaVuSans-30"/>
       <use xlink:href="#DejaVuSans-2e" x="63.623047"/>
       <use xlink:href="#DejaVuSans-30" x="95.410156"/>
      </g>
     </g>
    </g>
    <g id="xtick_5">
     <g id="line2d_8">
      <g>
       <use xlink:href="#md951d5930b" x="229.789862" y="116.2" style="stroke: #000000; stroke-width: 0.8"/>
      </g>
     </g>
     <g id="text_9">
      <!-- 0.5 -->
      <g transform="translate(221.838299 130.798438) scale(0.1 -0.1)">
       <use xlink:href="#DejaVuSans-30"/>
       <use xlink:href="#DejaVuSans-2e" x="63.623047"/>
       <use xlink:href="#DejaVuSans-35" x="95.410156"/>
      </g>
     </g>
    </g>
    <g id="xtick_6">
     <g id="line2d_9">
      <g>
       <use xlink:href="#md951d5930b" x="276.216836" y="116.2" style="stroke: #000000; stroke-width: 0.8"/>
      </g>
     </g>
     <g id="text_10">
      <!-- 1.0 -->
      <g transform="translate(268.265274 130.798438) scale(0.1 -0.1)">
       <use xlink:href="#DejaVuSans-31"/>
       <use xlink:href="#DejaVuSans-2e" x="63.623047"/>
       <use xlink:href="#DejaVuSans-30" x="95.410156"/>
      </g>
     </g>
    </g>
   </g>
   <g id="matplotlib.axis_4">
    <g id="ytick_4">
     <g id="line2d_10">
      <g>
       <use xlink:href="#mf6f5e17dc9" x="178.897" y="116.2" style="stroke: #000000; stroke-width: 0.8"/>
      </g>
     </g>
     <g id="text_11">
      <!-- 0 -->
      <g transform="translate(165.5345 119.999219) scale(0.1 -0.1)">
       <use xlink:href="#DejaVuSans-30"/>
      </g>
     </g>
    </g>
    <g id="ytick_5">
     <g id="line2d_11">
      <g>
       <use xlink:href="#mf6f5e17dc9" x="178.897" y="79.814164" style="stroke: #000000; stroke-width: 0.8"/>
      </g>
     </g>
     <g id="text_12">
      <!-- 50 -->
      <g transform="translate(159.172 83.613382) scale(0.1 -0.1)">
       <use xlink:href="#DejaVuSans-35"/>
       <use xlink:href="#DejaVuSans-30" x="63.623047"/>
      </g>
     </g>
    </g>
    <g id="ytick_6">
     <g id="line2d_12">
      <g>
       <use xlink:href="#mf6f5e17dc9" x="178.897" y="43.428327" style="stroke: #000000; stroke-width: 0.8"/>
      </g>
     </g>
     <g id="text_13">
      <!-- 100 -->
      <g transform="translate(152.8095 47.227546) scale(0.1 -0.1)">
       <use xlink:href="#DejaVuSans-31"/>
       <use xlink:href="#DejaVuSans-30" x="63.623047"/>
       <use xlink:href="#DejaVuSans-30" x="127.246094"/>
      </g>
     </g>
    </g>
   </g>
   <g id="patch_28">
    <path d="M 178.897 116.2 
L 178.897 26.8 
" style="fill: none; stroke: #000000; stroke-width: 0.8; stroke-linejoin: miter; stroke-linecap: square"/>
   </g>
   <g id="patch_29">
    <path d="M 280.722553 116.2 
L 280.722553 26.8 
" style="fill: none; stroke: #000000; stroke-width: 0.8; stroke-linejoin: miter; stroke-linecap: square"/>
   </g>
   <g id="patch_30">
    <path d="M 178.897 116.2 
L 280.722553 116.2 
" style="fill: none; stroke: #000000; stroke-width: 0.8; stroke-linejoin: miter; stroke-linecap: square"/>
   </g>
   <g id="patch_31">
    <path d="M 178.897 26.8 
L 280.722553 26.8 
" style="fill: none; stroke: #000000; stroke-width: 0.8; stroke-linejoin: miter; stroke-linecap: square"/>
   </g>
   <g id="text_14">
    <!-- x1 -->
    <g transform="translate(222.441026 20.8) scale(0.12 -0.12)">
     <use xlink:href="#DejaVuSans-78"/>
     <use xlink:href="#DejaVuSans-31" x="59.179688"/>
    </g>
   </g>
  </g>
  <g id="axes_3">
   <g id="patch_32">
    <path d="M 321.118999 116.2 
L 422.944553 116.2 
L 422.944553 26.8 
L 321.118999 26.8 
z
" style="fill: #ffffff"/>
   </g>
   <g id="patch_33">
    <path d="M 325.747434 116.2 
L 335.004302 116.2 
L 335.004302 32.591248 
L 325.747434 32.591248 
z
" clip-path="url(#p5b1ddc15f0)" style="fill: #1f77b4"/>
   </g>
   <g id="patch_34">
    <path d="M 335.004302 116.2 
L 344.261171 116.2 
L 344.261171 50.233462 
L 335.004302 50.233462 
z
" clip-path="url(#p5b1ddc15f0)" style="fill: #1f77b4"/>
   </g>
   <g id="patch_35">
    <path d="M 344.261171 116.2 
L 353.518039 116.2 
L 353.518039 31.057143 
L 344.261171 31.057143 
z
" clip-path="url(#p5b1ddc15f0)" style="fill: #1f77b4"/>
   </g>
   <g id="patch_36">
    <path d="M 353.518039 116.2 
L 362.774908 116.2 
L 362.774908 31.057143 
L 353.518039 31.057143 
z
" clip-path="url(#p5b1ddc15f0)" style="fill: #1f77b4"/>
   </g>
   <g id="patch_37">
    <path d="M 362.774908 116.2 
L 372.031776 116.2 
L 372.031776 47.932304 
L 362.774908 47.932304 
z
" clip-path="url(#p5b1ddc15f0)" style="fill: #1f77b4"/>
   </g>
   <g id="patch_38">
    <path d="M 372.031776 116.2 
L 381.288645 116.2 
L 381.288645 42.562934 
L 372.031776 42.562934 
z
" clip-path="url(#p5b1ddc15f0)" style="fill: #1f77b4"/>
   </g>
   <g id="patch_39">
    <path d="M 381.288645 116.2 
L 390.545513 116.2 
L 390.545513 34.125354 
L 381.288645 34.125354 
z
" clip-path="url(#p5b1ddc15f0)" style="fill: #1f77b4"/>
   </g>
   <g id="patch_40">
    <path d="M 390.545513 116.2 
L 399.802382 116.2 
L 399.802382 44.864093 
L 390.545513 44.864093 
z
" clip-path="url(#p5b1ddc15f0)" style="fill: #1f77b4"/>
   </g>
   <g id="patch_41">
    <path d="M 399.802382 116.2 
L 409.05925 116.2 
L 409.05925 44.09704 
L 399.802382 44.09704 
z
" clip-path="url(#p5b1ddc15f0)" style="fill: #1f77b4"/>
   </g>
   <g id="patch_42">
    <path d="M 409.05925 116.2 
L 418.316119 116.2 
L 418.316119 36.426512 
L 409.05925 36.426512 
z
" clip-path="url(#p5b1ddc15f0)" style="fill: #1f77b4"/>
   </g>
   <g id="matplotlib.axis_5">
    <g id="xtick_7">
     <g id="line2d_13">
      <g>
       <use xlink:href="#md951d5930b" x="325.746078" y="116.2" style="stroke: #000000; stroke-width: 0.8"/>
      </g>
     </g>
     <g id="text_15">
      <!-- 0.0 -->
      <g transform="translate(317.794516 130.798438) scale(0.1 -0.1)">
       <use xlink:href="#DejaVuSans-30"/>
       <use xlink:href="#DejaVuSans-2e" x="63.623047"/>
       <use xlink:href="#DejaVuSans-30" x="95.410156"/>
      </g>
     </g>
    </g>
    <g id="xtick_8">
     <g id="line2d_14">
      <g>
       <use xlink:href="#md951d5930b" x="372.101353" y="116.2" style="stroke: #000000; stroke-width: 0.8"/>
      </g>
     </g>
     <g id="text_16">
      <!-- 0.5 -->
      <g transform="translate(364.149791 130.798438) scale(0.1 -0.1)">
       <use xlink:href="#DejaVuSans-30"/>
       <use xlink:href="#DejaVuSans-2e" x="63.623047"/>
       <use xlink:href="#DejaVuSans-35" x="95.410156"/>
      </g>
     </g>
    </g>
    <g id="xtick_9">
     <g id="line2d_15">
      <g>
       <use xlink:href="#md951d5930b" x="418.456629" y="116.2" style="stroke: #000000; stroke-width: 0.8"/>
      </g>
     </g>
     <g id="text_17">
      <!-- 1.0 -->
      <g transform="translate(410.505066 130.798438) scale(0.1 -0.1)">
       <use xlink:href="#DejaVuSans-31"/>
       <use xlink:href="#DejaVuSans-2e" x="63.623047"/>
       <use xlink:href="#DejaVuSans-30" x="95.410156"/>
      </g>
     </g>
    </g>
   </g>
   <g id="matplotlib.axis_6">
    <g id="ytick_7">
     <g id="line2d_16">
      <g>
       <use xlink:href="#mf6f5e17dc9" x="321.118999" y="116.2" style="stroke: #000000; stroke-width: 0.8"/>
      </g>
     </g>
     <g id="text_18">
      <!-- 0 -->
      <g transform="translate(307.756499 119.999219) scale(0.1 -0.1)">
       <use xlink:href="#DejaVuSans-30"/>
      </g>
     </g>
    </g>
    <g id="ytick_8">
     <g id="line2d_17">
      <g>
       <use xlink:href="#mf6f5e17dc9" x="321.118999" y="77.847362" style="stroke: #000000; stroke-width: 0.8"/>
      </g>
     </g>
     <g id="text_19">
      <!-- 50 -->
      <g transform="translate(301.393999 81.64658) scale(0.1 -0.1)">
       <use xlink:href="#DejaVuSans-35"/>
       <use xlink:href="#DejaVuSans-30" x="63.623047"/>
      </g>
     </g>
    </g>
    <g id="ytick_9">
     <g id="line2d_18">
      <g>
       <use xlink:href="#mf6f5e17dc9" x="321.118999" y="39.494723" style="stroke: #000000; stroke-width: 0.8"/>
      </g>
     </g>
     <g id="text_20">
      <!-- 100 -->
      <g transform="translate(295.031499 43.293942) scale(0.1 -0.1)">
       <use xlink:href="#DejaVuSans-31"/>
       <use xlink:href="#DejaVuSans-30" x="63.623047"/>
       <use xlink:href="#DejaVuSans-30" x="127.246094"/>
      </g>
     </g>
    </g>
   </g>
   <g id="patch_43">
    <path d="M 321.118999 116.2 
L 321.118999 26.8 
" style="fill: none; stroke: #000000; stroke-width: 0.8; stroke-linejoin: miter; stroke-linecap: square"/>
   </g>
   <g id="patch_44">
    <path d="M 422.944553 116.2 
L 422.944553 26.8 
" style="fill: none; stroke: #000000; stroke-width: 0.8; stroke-linejoin: miter; stroke-linecap: square"/>
   </g>
   <g id="patch_45">
    <path d="M 321.118999 116.2 
L 422.944553 116.2 
" style="fill: none; stroke: #000000; stroke-width: 0.8; stroke-linejoin: miter; stroke-linecap: square"/>
   </g>
   <g id="patch_46">
    <path d="M 321.118999 26.8 
L 422.944553 26.8 
" style="fill: none; stroke: #000000; stroke-width: 0.8; stroke-linejoin: miter; stroke-linecap: square"/>
   </g>
   <g id="text_21">
    <!-- x2 -->
    <g transform="translate(364.663026 20.8) scale(0.12 -0.12)">
     <defs>
      <path id="DejaVuSans-32" d="M 1228 531 
L 3431 531 
L 3431 0 
L 469 0 
L 469 531 
Q 828 903 1448 1529 
Q 2069 2156 2228 2338 
Q 2531 2678 2651 2914 
Q 2772 3150 2772 3378 
Q 2772 3750 2511 3984 
Q 2250 4219 1831 4219 
Q 1534 4219 1204 4116 
Q 875 4013 500 3803 
L 500 4441 
Q 881 4594 1212 4672 
Q 1544 4750 1819 4750 
Q 2544 4750 2975 4387 
Q 3406 4025 3406 3419 
Q 3406 3131 3298 2873 
Q 3191 2616 2906 2266 
Q 2828 2175 2409 1742 
Q 1991 1309 1228 531 
z
" transform="scale(0.015625)"/>
     </defs>
     <use xlink:href="#DejaVuSans-78"/>
     <use xlink:href="#DejaVuSans-32" x="59.179688"/>
    </g>
   </g>
  </g>
  <g id="axes_4">
   <g id="patch_47">
    <path d="M 463.340999 116.2 
L 565.166553 116.2 
L 565.166553 26.8 
L 463.340999 26.8 
z
" style="fill: #ffffff"/>
   </g>
   <g id="patch_48">
    <path d="M 467.969433 116.2 
L 477.226302 116.2 
L 477.226302 68.52 
L 467.969433 68.52 
z
" clip-path="url(#pb11223a3f1)" style="fill: #1f77b4"/>
   </g>
   <g id="patch_49">
    <path d="M 477.226302 116.2 
L 486.48317 116.2 
L 486.48317 44.68 
L 477.226302 44.68 
z
" clip-path="url(#pb11223a3f1)" style="fill: #1f77b4"/>
   </g>
   <g id="patch_50">
    <path d="M 486.48317 116.2 
L 495.740039 116.2 
L 495.740039 54.897143 
L 486.48317 54.897143 
z
" clip-path="url(#pb11223a3f1)" style="fill: #1f77b4"/>
   </g>
   <g id="patch_51">
    <path d="M 495.740039 116.2 
L 504.996907 116.2 
L 504.996907 49.448 
L 495.740039 49.448 
z
" clip-path="url(#pb11223a3f1)" style="fill: #1f77b4"/>
   </g>
   <g id="patch_52">
    <path d="M 504.996907 116.2 
L 514.253776 116.2 
L 514.253776 43.998857 
L 504.996907 43.998857 
z
" clip-path="url(#pb11223a3f1)" style="fill: #1f77b4"/>
   </g>
   <g id="patch_53">
    <path d="M 514.253776 116.2 
L 523.510644 116.2 
L 523.510644 40.593143 
L 514.253776 40.593143 
z
" clip-path="url(#pb11223a3f1)" style="fill: #1f77b4"/>
   </g>
   <g id="patch_54">
    <path d="M 523.510644 116.2 
L 532.767513 116.2 
L 532.767513 31.057143 
L 523.510644 31.057143 
z
" clip-path="url(#pb11223a3f1)" style="fill: #1f77b4"/>
   </g>
   <g id="patch_55">
    <path d="M 532.767513 116.2 
L 542.024381 116.2 
L 542.024381 33.781714 
L 532.767513 33.781714 
z
" clip-path="url(#pb11223a3f1)" style="fill: #1f77b4"/>
   </g>
   <g id="patch_56">
    <path d="M 542.024381 116.2 
L 551.28125 116.2 
L 551.28125 45.361143 
L 542.024381 45.361143 
z
" clip-path="url(#pb11223a3f1)" style="fill: #1f77b4"/>
   </g>
   <g id="patch_57">
    <path d="M 551.28125 116.2 
L 560.538118 116.2 
L 560.538118 68.52 
L 551.28125 68.52 
z
" clip-path="url(#pb11223a3f1)" style="fill: #1f77b4"/>
   </g>
   <g id="matplotlib.axis_7">
    <g id="xtick_10">
     <g id="line2d_19">
      <g>
       <use xlink:href="#md951d5930b" x="465.238687" y="116.2" style="stroke: #000000; stroke-width: 0.8"/>
      </g>
     </g>
     <g id="text_22">
      <!-- 0 -->
      <g transform="translate(462.057437 130.798438) scale(0.1 -0.1)">
       <use xlink:href="#DejaVuSans-30"/>
      </g>
     </g>
    </g>
    <g id="xtick_11">
     <g id="line2d_20">
      <g>
       <use xlink:href="#md951d5930b" x="518.779053" y="116.2" style="stroke: #000000; stroke-width: 0.8"/>
      </g>
     </g>
     <g id="text_23">
      <!-- 5 -->
      <g transform="translate(515.597803 130.798438) scale(0.1 -0.1)">
       <use xlink:href="#DejaVuSans-35"/>
      </g>
     </g>
    </g>
   </g>
   <g id="matplotlib.axis_8">
    <g id="ytick_10">
     <g id="line2d_21">
      <g>
       <use xlink:href="#mf6f5e17dc9" x="463.340999" y="116.2" style="stroke: #000000; stroke-width: 0.8"/>
      </g>
     </g>
     <g id="text_24">
      <!-- 0 -->
      <g transform="translate(449.978499 119.999219) scale(0.1 -0.1)">
       <use xlink:href="#DejaVuSans-30"/>
      </g>
     </g>
    </g>
    <g id="ytick_11">
     <g id="line2d_22">
      <g>
       <use xlink:href="#mf6f5e17dc9" x="463.340999" y="82.142857" style="stroke: #000000; stroke-width: 0.8"/>
      </g>
     </g>
     <g id="text_25">
      <!-- 50 -->
      <g transform="translate(443.615999 85.942076) scale(0.1 -0.1)">
       <use xlink:href="#DejaVuSans-35"/>
       <use xlink:href="#DejaVuSans-30" x="63.623047"/>
      </g>
     </g>
    </g>
    <g id="ytick_12">
     <g id="line2d_23">
      <g>
       <use xlink:href="#mf6f5e17dc9" x="463.340999" y="48.085714" style="stroke: #000000; stroke-width: 0.8"/>
      </g>
     </g>
     <g id="text_26">
      <!-- 100 -->
      <g transform="translate(437.253499 51.884933) scale(0.1 -0.1)">
       <use xlink:href="#DejaVuSans-31"/>
       <use xlink:href="#DejaVuSans-30" x="63.623047"/>
       <use xlink:href="#DejaVuSans-30" x="127.246094"/>
      </g>
     </g>
    </g>
   </g>
   <g id="patch_58">
    <path d="M 463.340999 116.2 
L 463.340999 26.8 
" style="fill: none; stroke: #000000; stroke-width: 0.8; stroke-linejoin: miter; stroke-linecap: square"/>
   </g>
   <g id="patch_59">
    <path d="M 565.166553 116.2 
L 565.166553 26.8 
" style="fill: none; stroke: #000000; stroke-width: 0.8; stroke-linejoin: miter; stroke-linecap: square"/>
   </g>
   <g id="patch_60">
    <path d="M 463.340999 116.2 
L 565.166553 116.2 
" style="fill: none; stroke: #000000; stroke-width: 0.8; stroke-linejoin: miter; stroke-linecap: square"/>
   </g>
   <g id="patch_61">
    <path d="M 463.340999 26.8 
L 565.166553 26.8 
" style="fill: none; stroke: #000000; stroke-width: 0.8; stroke-linejoin: miter; stroke-linecap: square"/>
   </g>
   <g id="text_27">
    <!-- x3 -->
    <g transform="translate(506.885026 20.8) scale(0.12 -0.12)">
     <defs>
      <path id="DejaVuSans-33" d="M 2597 2516 
Q 3050 2419 3304 2112 
Q 3559 1806 3559 1356 
Q 3559 666 3084 287 
Q 2609 -91 1734 -91 
Q 1441 -91 1130 -33 
Q 819 25 488 141 
L 488 750 
Q 750 597 1062 519 
Q 1375 441 1716 441 
Q 2309 441 2620 675 
Q 2931 909 2931 1356 
Q 2931 1769 2642 2001 
Q 2353 2234 1838 2234 
L 1294 2234 
L 1294 2753 
L 1863 2753 
Q 2328 2753 2575 2939 
Q 2822 3125 2822 3475 
Q 2822 3834 2567 4026 
Q 2313 4219 1838 4219 
Q 1578 4219 1281 4162 
Q 984 4106 628 3988 
L 628 4550 
Q 988 4650 1302 4700 
Q 1616 4750 1894 4750 
Q 2613 4750 3031 4423 
Q 3450 4097 3450 3541 
Q 3450 3153 3228 2886 
Q 3006 2619 2597 2516 
z
" transform="scale(0.015625)"/>
     </defs>
     <use xlink:href="#DejaVuSans-78"/>
     <use xlink:href="#DejaVuSans-33" x="59.179688"/>
    </g>
   </g>
  </g>
  <g id="axes_5">
   <g id="patch_62">
    <path d="M 605.562999 116.2 
L 707.388552 116.2 
L 707.388552 26.8 
L 605.562999 26.8 
z
" style="fill: #ffffff"/>
   </g>
   <g id="patch_63">
    <path d="M 610.191433 116.2 
L 619.448301 116.2 
L 619.448301 68.577724 
L 610.191433 68.577724 
z
" clip-path="url(#pdae1348502)" style="fill: #1f77b4"/>
   </g>
   <g id="patch_64">
    <path d="M 619.448301 116.2 
L 628.70517 116.2 
L 628.70517 46.209685 
L 619.448301 46.209685 
z
" clip-path="url(#pdae1348502)" style="fill: #1f77b4"/>
   </g>
   <g id="patch_65">
    <path d="M 628.70517 116.2 
L 637.962038 116.2 
L 637.962038 39.715738 
L 628.70517 39.715738 
z
" clip-path="url(#pdae1348502)" style="fill: #1f77b4"/>
   </g>
   <g id="patch_66">
    <path d="M 637.962038 116.2 
L 647.218907 116.2 
L 647.218907 31.057143 
L 637.962038 31.057143 
z
" clip-path="url(#pdae1348502)" style="fill: #1f77b4"/>
   </g>
   <g id="patch_67">
    <path d="M 647.218907 116.2 
L 656.475775 116.2 
L 656.475775 33.221792 
L 647.218907 33.221792 
z
" clip-path="url(#pdae1348502)" style="fill: #1f77b4"/>
   </g>
   <g id="patch_68">
    <path d="M 656.475775 116.2 
L 665.732644 116.2 
L 665.732644 31.778692 
L 656.475775 31.778692 
z
" clip-path="url(#pdae1348502)" style="fill: #1f77b4"/>
   </g>
   <g id="patch_69">
    <path d="M 665.732644 116.2 
L 674.989513 116.2 
L 674.989513 40.437288 
L 665.732644 40.437288 
z
" clip-path="url(#pdae1348502)" style="fill: #1f77b4"/>
   </g>
   <g id="patch_70">
    <path d="M 674.989513 116.2 
L 684.246381 116.2 
L 684.246381 38.272639 
L 674.989513 38.272639 
z
" clip-path="url(#pdae1348502)" style="fill: #1f77b4"/>
   </g>
   <g id="patch_71">
    <path d="M 684.246381 116.2 
L 693.50325 116.2 
L 693.50325 46.209685 
L 684.246381 46.209685 
z
" clip-path="url(#pdae1348502)" style="fill: #1f77b4"/>
   </g>
   <g id="patch_72">
    <path d="M 693.50325 116.2 
L 702.760118 116.2 
L 702.760118 64.969976 
L 693.50325 64.969976 
z
" clip-path="url(#pdae1348502)" style="fill: #1f77b4"/>
   </g>
   <g id="matplotlib.axis_9">
    <g id="xtick_12">
     <g id="line2d_24">
      <g>
       <use xlink:href="#md951d5930b" x="608.143011" y="116.2" style="stroke: #000000; stroke-width: 0.8"/>
      </g>
     </g>
     <g id="text_28">
      <!-- 0 -->
      <g transform="translate(604.961761 130.798438) scale(0.1 -0.1)">
       <use xlink:href="#DejaVuSans-30"/>
      </g>
     </g>
    </g>
    <g id="xtick_13">
     <g id="line2d_25">
      <g>
       <use xlink:href="#md951d5930b" x="660.727596" y="116.2" style="stroke: #000000; stroke-width: 0.8"/>
      </g>
     </g>
     <g id="text_29">
      <!-- 5 -->
      <g transform="translate(657.546346 130.798438) scale(0.1 -0.1)">
       <use xlink:href="#DejaVuSans-35"/>
      </g>
     </g>
    </g>
   </g>
   <g id="matplotlib.axis_10">
    <g id="ytick_13">
     <g id="line2d_26">
      <g>
       <use xlink:href="#mf6f5e17dc9" x="605.562999" y="116.2" style="stroke: #000000; stroke-width: 0.8"/>
      </g>
     </g>
     <g id="text_30">
      <!-- 0 -->
      <g transform="translate(592.200499 119.999219) scale(0.1 -0.1)">
       <use xlink:href="#DejaVuSans-30"/>
      </g>
     </g>
    </g>
    <g id="ytick_14">
     <g id="line2d_27">
      <g>
       <use xlink:href="#mf6f5e17dc9" x="605.562999" y="80.122518" style="stroke: #000000; stroke-width: 0.8"/>
      </g>
     </g>
     <g id="text_31">
      <!-- 50 -->
      <g transform="translate(585.837999 83.921737) scale(0.1 -0.1)">
       <use xlink:href="#DejaVuSans-35"/>
       <use xlink:href="#DejaVuSans-30" x="63.623047"/>
      </g>
     </g>
    </g>
    <g id="ytick_15">
     <g id="line2d_28">
      <g>
       <use xlink:href="#mf6f5e17dc9" x="605.562999" y="44.045036" style="stroke: #000000; stroke-width: 0.8"/>
      </g>
     </g>
     <g id="text_32">
      <!-- 100 -->
      <g transform="translate(579.475499 47.844255) scale(0.1 -0.1)">
       <use xlink:href="#DejaVuSans-31"/>
       <use xlink:href="#DejaVuSans-30" x="63.623047"/>
       <use xlink:href="#DejaVuSans-30" x="127.246094"/>
      </g>
     </g>
    </g>
   </g>
   <g id="patch_73">
    <path d="M 605.562999 116.2 
L 605.562999 26.8 
" style="fill: none; stroke: #000000; stroke-width: 0.8; stroke-linejoin: miter; stroke-linecap: square"/>
   </g>
   <g id="patch_74">
    <path d="M 707.388552 116.2 
L 707.388552 26.8 
" style="fill: none; stroke: #000000; stroke-width: 0.8; stroke-linejoin: miter; stroke-linecap: square"/>
   </g>
   <g id="patch_75">
    <path d="M 605.562999 116.2 
L 707.388552 116.2 
" style="fill: none; stroke: #000000; stroke-width: 0.8; stroke-linejoin: miter; stroke-linecap: square"/>
   </g>
   <g id="patch_76">
    <path d="M 605.562999 26.8 
L 707.388552 26.8 
" style="fill: none; stroke: #000000; stroke-width: 0.8; stroke-linejoin: miter; stroke-linecap: square"/>
   </g>
   <g id="text_33">
    <!-- x4 -->
    <g transform="translate(649.107025 20.8) scale(0.12 -0.12)">
     <defs>
      <path id="DejaVuSans-34" d="M 2419 4116 
L 825 1625 
L 2419 1625 
L 2419 4116 
z
M 2253 4666 
L 3047 4666 
L 3047 1625 
L 3713 1625 
L 3713 1100 
L 3047 1100 
L 3047 0 
L 2419 0 
L 2419 1100 
L 313 1100 
L 313 1709 
L 2253 4666 
z
" transform="scale(0.015625)"/>
     </defs>
     <use xlink:href="#DejaVuSans-78"/>
     <use xlink:href="#DejaVuSans-34" x="59.179688"/>
    </g>
   </g>
  </g>
  <g id="axes_6">
   <g id="patch_77">
    <path d="M 747.784998 116.2 
L 849.610552 116.2 
L 849.610552 26.8 
L 747.784998 26.8 
z
" style="fill: #ffffff"/>
   </g>
   <g id="patch_78">
    <path d="M 752.413433 116.2 
L 761.670301 116.2 
L 761.670301 33.408228 
L 752.413433 33.408228 
z
" clip-path="url(#pe567cb7e45)" style="fill: #1f77b4"/>
   </g>
   <g id="patch_79">
    <path d="M 761.670301 116.2 
L 770.92717 116.2 
L 770.92717 116.2 
L 761.670301 116.2 
z
" clip-path="url(#pe567cb7e45)" style="fill: #1f77b4"/>
   </g>
   <g id="patch_80">
    <path d="M 770.92717 116.2 
L 780.184038 116.2 
L 780.184038 116.2 
L 770.92717 116.2 
z
" clip-path="url(#pe567cb7e45)" style="fill: #1f77b4"/>
   </g>
   <g id="patch_81">
    <path d="M 780.184038 116.2 
L 789.440907 116.2 
L 789.440907 116.2 
L 780.184038 116.2 
z
" clip-path="url(#pe567cb7e45)" style="fill: #1f77b4"/>
   </g>
   <g id="patch_82">
    <path d="M 789.440907 116.2 
L 798.697775 116.2 
L 798.697775 116.2 
L 789.440907 116.2 
z
" clip-path="url(#pe567cb7e45)" style="fill: #1f77b4"/>
   </g>
   <g id="patch_83">
    <path d="M 798.697775 116.2 
L 807.954644 116.2 
L 807.954644 116.2 
L 798.697775 116.2 
z
" clip-path="url(#pe567cb7e45)" style="fill: #1f77b4"/>
   </g>
   <g id="patch_84">
    <path d="M 807.954644 116.2 
L 817.211512 116.2 
L 817.211512 116.2 
L 807.954644 116.2 
z
" clip-path="url(#pe567cb7e45)" style="fill: #1f77b4"/>
   </g>
   <g id="patch_85">
    <path d="M 817.211512 116.2 
L 826.468381 116.2 
L 826.468381 116.2 
L 817.211512 116.2 
z
" clip-path="url(#pe567cb7e45)" style="fill: #1f77b4"/>
   </g>
   <g id="patch_86">
    <path d="M 826.468381 116.2 
L 835.725249 116.2 
L 835.725249 116.2 
L 826.468381 116.2 
z
" clip-path="url(#pe567cb7e45)" style="fill: #1f77b4"/>
   </g>
   <g id="patch_87">
    <path d="M 835.725249 116.2 
L 844.982118 116.2 
L 844.982118 31.057143 
L 835.725249 31.057143 
z
" clip-path="url(#pe567cb7e45)" style="fill: #1f77b4"/>
   </g>
   <g id="matplotlib.axis_11">
    <g id="xtick_14">
     <g id="line2d_29">
      <g>
       <use xlink:href="#md951d5930b" x="752.413433" y="116.2" style="stroke: #000000; stroke-width: 0.8"/>
      </g>
     </g>
     <g id="text_34">
      <!-- 1.0 -->
      <g transform="translate(744.46187 130.798438) scale(0.1 -0.1)">
       <use xlink:href="#DejaVuSans-31"/>
       <use xlink:href="#DejaVuSans-2e" x="63.623047"/>
       <use xlink:href="#DejaVuSans-30" x="95.410156"/>
      </g>
     </g>
    </g>
    <g id="xtick_15">
     <g id="line2d_30">
      <g>
       <use xlink:href="#md951d5930b" x="798.697775" y="116.2" style="stroke: #000000; stroke-width: 0.8"/>
      </g>
     </g>
     <g id="text_35">
      <!-- 1.5 -->
      <g transform="translate(790.746213 130.798438) scale(0.1 -0.1)">
       <use xlink:href="#DejaVuSans-31"/>
       <use xlink:href="#DejaVuSans-2e" x="63.623047"/>
       <use xlink:href="#DejaVuSans-35" x="95.410156"/>
      </g>
     </g>
    </g>
    <g id="xtick_16">
     <g id="line2d_31">
      <g>
       <use xlink:href="#md951d5930b" x="844.982118" y="116.2" style="stroke: #000000; stroke-width: 0.8"/>
      </g>
     </g>
     <g id="text_36">
      <!-- 2.0 -->
      <g transform="translate(837.030555 130.798438) scale(0.1 -0.1)">
       <use xlink:href="#DejaVuSans-32"/>
       <use xlink:href="#DejaVuSans-2e" x="63.623047"/>
       <use xlink:href="#DejaVuSans-30" x="95.410156"/>
      </g>
     </g>
    </g>
   </g>
   <g id="matplotlib.axis_12">
    <g id="ytick_16">
     <g id="line2d_32">
      <g>
       <use xlink:href="#mf6f5e17dc9" x="747.784998" y="116.2" style="stroke: #000000; stroke-width: 0.8"/>
      </g>
     </g>
     <g id="text_37">
      <!-- 0 -->
      <g transform="translate(734.422498 119.999219) scale(0.1 -0.1)">
       <use xlink:href="#DejaVuSans-30"/>
      </g>
     </g>
    </g>
    <g id="ytick_17">
     <g id="line2d_33">
      <g>
       <use xlink:href="#mf6f5e17dc9" x="747.784998" y="82.613074" style="stroke: #000000; stroke-width: 0.8"/>
      </g>
     </g>
     <g id="text_38">
      <!-- 200 -->
      <g transform="translate(721.697498 86.412293) scale(0.1 -0.1)">
       <use xlink:href="#DejaVuSans-32"/>
       <use xlink:href="#DejaVuSans-30" x="63.623047"/>
       <use xlink:href="#DejaVuSans-30" x="127.246094"/>
      </g>
     </g>
    </g>
    <g id="ytick_18">
     <g id="line2d_34">
      <g>
       <use xlink:href="#mf6f5e17dc9" x="747.784998" y="49.026148" style="stroke: #000000; stroke-width: 0.8"/>
      </g>
     </g>
     <g id="text_39">
      <!-- 400 -->
      <g transform="translate(721.697498 52.825367) scale(0.1 -0.1)">
       <use xlink:href="#DejaVuSans-34"/>
       <use xlink:href="#DejaVuSans-30" x="63.623047"/>
       <use xlink:href="#DejaVuSans-30" x="127.246094"/>
      </g>
     </g>
    </g>
   </g>
   <g id="patch_88">
    <path d="M 747.784998 116.2 
L 747.784998 26.8 
" style="fill: none; stroke: #000000; stroke-width: 0.8; stroke-linejoin: miter; stroke-linecap: square"/>
   </g>
   <g id="patch_89">
    <path d="M 849.610552 116.2 
L 849.610552 26.8 
" style="fill: none; stroke: #000000; stroke-width: 0.8; stroke-linejoin: miter; stroke-linecap: square"/>
   </g>
   <g id="patch_90">
    <path d="M 747.784998 116.2 
L 849.610552 116.2 
" style="fill: none; stroke: #000000; stroke-width: 0.8; stroke-linejoin: miter; stroke-linecap: square"/>
   </g>
   <g id="patch_91">
    <path d="M 747.784998 26.8 
L 849.610552 26.8 
" style="fill: none; stroke: #000000; stroke-width: 0.8; stroke-linejoin: miter; stroke-linecap: square"/>
   </g>
   <g id="text_40">
    <!-- x5 -->
    <g transform="translate(791.329025 20.8) scale(0.12 -0.12)">
     <use xlink:href="#DejaVuSans-78"/>
     <use xlink:href="#DejaVuSans-35" x="59.179688"/>
    </g>
   </g>
  </g>
 </g>
 <defs>
  <clipPath id="p43476b252f">
   <rect x="36.675" y="26.8" width="101.825554" height="89.4"/>
  </clipPath>
  <clipPath id="p54e2b9a79e">
   <rect x="178.897" y="26.8" width="101.825554" height="89.4"/>
  </clipPath>
  <clipPath id="p5b1ddc15f0">
   <rect x="321.118999" y="26.8" width="101.825554" height="89.4"/>
  </clipPath>
  <clipPath id="pb11223a3f1">
   <rect x="463.340999" y="26.8" width="101.825554" height="89.4"/>
  </clipPath>
  <clipPath id="pdae1348502">
   <rect x="605.562999" y="26.8" width="101.825554" height="89.4"/>
  </clipPath>
  <clipPath id="pe567cb7e45">
   <rect x="747.784998" y="26.8" width="101.825554" height="89.4"/>
  </clipPath>
 </defs>
</svg>
