<?xml version="1.0" encoding="UTF-8" standalone="no"?>
<!DOCTYPE svg PUBLIC "-//W3C//DTD SVG 1.1//EN"
 "http://www.w3.org/Graphics/SVG/1.1/DTD/svg11.dtd">
<!-- Generated by graphviz version 2.43.0 (0)
 -->
<!-- Title: %3 Pages: 1 -->
<svg width="260pt" height="218pt"
 viewBox="0.00 0.00 260.00 218.00" xmlns="http://www.w3.org/2000/svg" xmlns:xlink="http://www.w3.org/1999/xlink">
<g id="graph0" class="graph" transform="scale(1 1) rotate(0) translate(4 214)">
<title>%3</title>
<polygon fill="white" stroke="transparent" points="-4,4 -4,-214 256,-214 256,4 -4,4"/>
<!-- x0 -->
<g id="node1" class="node">
<title>x0</title>
<ellipse fill="none" stroke="black" cx="27" cy="-192" rx="27" ry="18"/>
<text text-anchor="middle" x="27" y="-188.3" font-family="Times,serif" font-size="14.00">x0</text>
</g>
<!-- x3 -->
<g id="node4" class="node">
<title>x3</title>
<ellipse fill="none" stroke="black" cx="66" cy="-105" rx="27" ry="18"/>
<text text-anchor="middle" x="66" y="-101.3" font-family="Times,serif" font-size="14.00">x3</text>
</g>
<!-- x0&#45;&gt;x3 -->
<g id="edge1" class="edge">
<title>x0&#45;&gt;x3</title>
<path fill="none" stroke="black" d="M24.12,-174.06C23.18,-164.02 23.36,-151.29 28,-141 30.71,-134.99 34.99,-129.54 39.73,-124.84"/>
<polygon fill="black" stroke="black" points="42.2,-127.32 47.37,-118.07 37.56,-122.08 42.2,-127.32"/>
<text text-anchor="middle" x="44" y="-144.8" font-family="Times,serif" font-size="14.00">0.50</text>
</g>
<!-- x1 -->
<g id="node2" class="node">
<title>x1</title>
<ellipse fill="none" stroke="black" cx="114" cy="-192" rx="27" ry="18"/>
<text text-anchor="middle" x="114" y="-188.3" font-family="Times,serif" font-size="14.00">x1</text>
</g>
<!-- x1&#45;&gt;x3 -->
<g id="edge2" class="edge">
<title>x1&#45;&gt;x3</title>
<path fill="none" stroke="black" d="M98.99,-176.7C93.38,-170.72 87.32,-163.44 83,-156 78.84,-148.83 75.49,-140.49 72.91,-132.7"/>
<polygon fill="black" stroke="black" points="76.2,-131.48 69.95,-122.92 69.5,-133.51 76.2,-131.48"/>
<text text-anchor="middle" x="99" y="-144.8" font-family="Times,serif" font-size="14.00">0.70</text>
</g>
<!-- x5 -->
<g id="node6" class="node">
<title>x5</title>
<ellipse fill="none" stroke="black" cx="129" cy="-18" rx="27" ry="18"/>
<text text-anchor="middle" x="129" y="-14.3" font-family="Times,serif" font-size="14.00">x5</text>
</g>
<!-- x1&#45;&gt;x5 -->
<g id="edge4" class="edge">
<title>x1&#45;&gt;x5</title>
<path fill="none" stroke="black" d="M115.49,-173.88C118.1,-144 123.5,-82.11 126.62,-46.27"/>
<polygon fill="black" stroke="black" points="130.13,-46.32 127.51,-36.05 123.16,-45.71 130.13,-46.32"/>
<text text-anchor="middle" x="145" y="-101.3" font-family="Times,serif" font-size="14.00">&#45;80.00</text>
</g>
<!-- x2 -->
<g id="node3" class="node">
<title>x2</title>
<ellipse fill="none" stroke="black" cx="220" cy="-192" rx="27" ry="18"/>
<text text-anchor="middle" x="220" y="-188.3" font-family="Times,serif" font-size="14.00">x2</text>
</g>
<!-- x4 -->
<g id="node5" class="node">
<title>x4</title>
<ellipse fill="none" stroke="black" cx="220" cy="-105" rx="27" ry="18"/>
<text text-anchor="middle" x="220" y="-101.3" font-family="Times,serif" font-size="14.00">x4</text>
</g>
<!-- x2&#45;&gt;x4 -->
<g id="edge3" class="edge">
<title>x2&#45;&gt;x4</title>
<path fill="none" stroke="black" d="M220,-173.8C220,-162.16 220,-146.55 220,-133.24"/>
<polygon fill="black" stroke="black" points="223.5,-133.18 220,-123.18 216.5,-133.18 223.5,-133.18"/>
<text text-anchor="middle" x="236" y="-144.8" font-family="Times,serif" font-size="14.00">1.20</text>
</g>
<!-- x3&#45;&gt;x5 -->
<g id="edge5" class="edge">
<title>x3&#45;&gt;x5</title>
<path fill="none" stroke="black" d="M63.2,-87.05C62.38,-76.77 62.99,-63.78 69,-54 75.19,-43.93 85.43,-36.44 95.72,-31.04"/>
<polygon fill="black" stroke="black" points="97.51,-34.06 105.06,-26.64 94.53,-27.73 97.51,-34.06"/>
<text text-anchor="middle" x="92" y="-57.8" font-family="Times,serif" font-size="14.00">&#45;10.00</text>
</g>
<!-- x4&#45;&gt;x5 -->
<g id="edge6" class="edge">
<title>x4&#45;&gt;x5</title>
<path fill="none" stroke="black" d="M204.97,-89.96C190.48,-76.43 168.36,-55.77 151.72,-40.22"/>
<polygon fill="black" stroke="black" points="153.75,-37.33 144.05,-33.06 148.97,-42.44 153.75,-37.33"/>
<text text-anchor="middle" x="199.5" y="-57.8" font-family="Times,serif" font-size="14.00">11.00</text>
</g>
</g>
</svg>
