<?xml version="1.0" encoding="UTF-8" standalone="no"?>
<!DOCTYPE svg PUBLIC "-//W3C//DTD SVG 1.1//EN"
 "http://www.w3.org/Graphics/SVG/1.1/DTD/svg11.dtd">
<!-- Generated by graphviz version 2.38.0 (20140413.2041)
 -->
<!-- Title: %3 Pages: 1 -->
<svg width="152pt" height="305pt"
 viewBox="0.00 0.00 152.00 305.00" xmlns="http://www.w3.org/2000/svg" xmlns:xlink="http://www.w3.org/1999/xlink">
<g id="graph0" class="graph" transform="scale(1 1) rotate(0) translate(4 301)">
<title>%3</title>
<polygon fill="white" stroke="none" points="-4,4 -4,-301 148,-301 148,4 -4,4"/>
<!-- x0 -->
<g id="node1" class="node"><title>x0</title>
<ellipse fill="none" stroke="black" cx="61" cy="-105" rx="27" ry="18"/>
<text text-anchor="middle" x="61" y="-101.3" font-family="Times New Roman,serif" font-size="14.00">x0</text>
</g>
<!-- x2 -->
<g id="node3" class="node"><title>x2</title>
<ellipse fill="none" stroke="black" cx="27" cy="-18" rx="27" ry="18"/>
<text text-anchor="middle" x="27" y="-14.3" font-family="Times New Roman,serif" font-size="14.00">x2</text>
</g>
<!-- x0&#45;&gt;x2 -->
<g id="edge4" class="edge"><title>x0&#45;&gt;x2</title>
<path fill="none" stroke="black" d="M54.2827,-87.2067C49.4551,-75.1377 42.8553,-58.6384 37.3563,-44.8906"/>
<polygon fill="black" stroke="black" points="40.5513,-43.454 33.5877,-35.4692 34.052,-46.0538 40.5513,-43.454"/>
<text text-anchor="middle" x="59.5" y="-57.8" font-family="Times New Roman,serif" font-size="14.00">0.75</text>
</g>
<!-- x4 -->
<g id="node5" class="node"><title>x4</title>
<ellipse fill="none" stroke="black" cx="117" cy="-18" rx="27" ry="18"/>
<text text-anchor="middle" x="117" y="-14.3" font-family="Times New Roman,serif" font-size="14.00">x4</text>
</g>
<!-- x0&#45;&gt;x4 -->
<g id="edge6" class="edge"><title>x0&#45;&gt;x4</title>
<path fill="none" stroke="black" d="M71.5332,-88.0122C79.8243,-75.4274 91.5175,-57.6788 100.969,-43.3325"/>
<polygon fill="black" stroke="black" points="103.935,-45.1924 106.514,-34.9162 98.0897,-41.3412 103.935,-45.1924"/>
<text text-anchor="middle" x="105.5" y="-57.8" font-family="Times New Roman,serif" font-size="14.00">1.02</text>
</g>
<!-- x1 -->
<g id="node2" class="node"><title>x1</title>
<ellipse fill="none" stroke="black" cx="31" cy="-192" rx="27" ry="18"/>
<text text-anchor="middle" x="31" y="-188.3" font-family="Times New Roman,serif" font-size="14.00">x1</text>
</g>
<!-- x1&#45;&gt;x0 -->
<g id="edge1" class="edge"><title>x1&#45;&gt;x0</title>
<path fill="none" stroke="black" d="M36.927,-174.207C41.1181,-162.332 46.8229,-146.168 51.6271,-132.557"/>
<polygon fill="black" stroke="black" points="55.0575,-133.353 55.0853,-122.758 48.4565,-131.023 55.0575,-133.353"/>
<text text-anchor="middle" x="60.5" y="-144.8" font-family="Times New Roman,serif" font-size="14.00">0.94</text>
</g>
<!-- x2&#45;&gt;x4 -->
<g id="edge7" class="edge"><title>x2&#45;&gt;x4</title>
<path fill="none" stroke="black" d="M64.1643,-18C69.404,-18 74.6437,-18 79.8835,-18"/>
<polygon fill="black" stroke="black" points="64.0703,-14.5001 54.0703,-18 64.0703,-21.5001 64.0703,-14.5001"/>
<polygon fill="black" stroke="black" points="79.9599,-21.5001 89.9599,-18 79.9599,-14.5001 79.9599,-21.5001"/>
</g>
<!-- x3 -->
<g id="node4" class="node"><title>x3</title>
<ellipse fill="none" stroke="black" cx="103" cy="-192" rx="27" ry="18"/>
<text text-anchor="middle" x="103" y="-188.3" font-family="Times New Roman,serif" font-size="14.00">x3</text>
</g>
<!-- x3&#45;&gt;x0 -->
<g id="edge2" class="edge"><title>x3&#45;&gt;x0</title>
<path fill="none" stroke="black" d="M94.902,-174.611C88.8592,-162.382 80.4894,-145.443 73.5783,-131.456"/>
<polygon fill="black" stroke="black" points="76.641,-129.753 69.0732,-122.339 70.3653,-132.854 76.641,-129.753"/>
<text text-anchor="middle" x="97.5" y="-144.8" font-family="Times New Roman,serif" font-size="14.00">0.99</text>
</g>
<!-- x5 -->
<g id="node6" class="node"><title>x5</title>
<ellipse fill="none" stroke="black" cx="70" cy="-279" rx="27" ry="18"/>
<text text-anchor="middle" x="70" y="-275.3" font-family="Times New Roman,serif" font-size="14.00">x5</text>
</g>
<!-- x5&#45;&gt;x1 -->
<g id="edge3" class="edge"><title>x5&#45;&gt;x1</title>
<path fill="none" stroke="black" d="M62.4804,-261.611C56.8693,-249.382 49.0973,-232.443 42.6798,-218.456"/>
<polygon fill="black" stroke="black" points="45.8479,-216.968 38.4965,-209.339 39.4857,-219.887 45.8479,-216.968"/>
<text text-anchor="middle" x="65.5" y="-231.8" font-family="Times New Roman,serif" font-size="14.00">0.56</text>
</g>
<!-- x5&#45;&gt;x3 -->
<g id="edge5" class="edge"><title>x5&#45;&gt;x3</title>
<path fill="none" stroke="black" d="M76.5197,-261.207C81.1751,-249.216 87.5284,-232.851 92.8449,-219.157"/>
<polygon fill="black" stroke="black" points="96.1373,-220.347 96.4938,-209.758 89.6118,-217.814 96.1373,-220.347"/>
<text text-anchor="middle" x="101.5" y="-231.8" font-family="Times New Roman,serif" font-size="14.00">0.56</text>
</g>
</g>
</svg>
