<?xml version="1.0" encoding="UTF-8" standalone="no"?>
<!DOCTYPE svg PUBLIC "-//W3C//DTD SVG 1.1//EN"
 "http://www.w3.org/Graphics/SVG/1.1/DTD/svg11.dtd">
<!-- Generated by graphviz version 2.44.1 (20200629.0846)
 -->
<!-- Pages: 1 -->
<svg width="411pt" height="88pt"
 viewBox="0.00 0.00 411.00 87.50" xmlns="http://www.w3.org/2000/svg" xmlns:xlink="http://www.w3.org/1999/xlink">
<g id="graph0" class="graph" transform="scale(1 1) rotate(0) translate(4 83.5)">
<polygon fill="white" stroke="transparent" points="-4,4 -4,-83.5 407,-83.5 407,4 -4,4"/>
<!-- x0 -->
<g id="node1" class="node">
<title>x0</title>
<ellipse fill="none" stroke="black" cx="27" cy="-18" rx="27" ry="18"/>
<text text-anchor="middle" x="27" y="-14.3" font-family="Times New Roman,serif" font-size="14.00">x0</text>
</g>
<!-- x1 -->
<g id="node2" class="node">
<title>x1</title>
<ellipse fill="none" stroke="black" cx="286" cy="-18" rx="27" ry="18"/>
<text text-anchor="middle" x="286" y="-14.3" font-family="Times New Roman,serif" font-size="14.00">x1</text>
</g>
<!-- x0&#45;&gt;x1 -->
<g id="edge3" class="edge">
<title>x0&#45;&gt;x1</title>
<path fill="none" stroke="black" d="M58.22,-32.87C70.08,-37.76 83.89,-42.56 97,-45 128.46,-50.86 210.16,-53.54 241,-45 247.34,-43.24 253.68,-40.33 259.52,-37.05"/>
<polygon fill="black" stroke="black" points="59.34,-29.54 48.77,-28.79 56.57,-35.97 59.34,-29.54"/>
<polygon fill="black" stroke="black" points="261.52,-39.93 268.21,-31.72 257.86,-33.97 261.52,-39.93"/>
</g>
<!-- x2 -->
<g id="node3" class="node">
<title>x2</title>
<ellipse fill="none" stroke="black" cx="124" cy="-18" rx="27" ry="18"/>
<text text-anchor="middle" x="124" y="-14.3" font-family="Times New Roman,serif" font-size="14.00">x2</text>
</g>
<!-- x0&#45;&gt;x2 -->
<g id="edge1" class="edge">
<title>x0&#45;&gt;x2</title>
<path fill="none" stroke="black" d="M54.02,-18C64.13,-18 75.8,-18 86.68,-18"/>
<polygon fill="black" stroke="black" points="86.79,-21.5 96.79,-18 86.79,-14.5 86.79,-21.5"/>
<text text-anchor="middle" x="75.5" y="-24.8" font-family="Times New Roman,serif" font-size="14.00">0.75</text>
</g>
<!-- x3 -->
<g id="node4" class="node">
<title>x3</title>
<ellipse fill="none" stroke="black" cx="376" cy="-18" rx="27" ry="18"/>
<text text-anchor="middle" x="376" y="-14.3" font-family="Times New Roman,serif" font-size="14.00">x3</text>
</g>
<!-- x0&#45;&gt;x3 -->
<g id="edge4" class="edge">
<title>x0&#45;&gt;x3</title>
<path fill="none" stroke="black" d="M58.22,-32.87C70.08,-37.76 83.89,-42.56 97,-45 144.19,-53.79 265.98,-54.65 313,-45 324.13,-42.72 335.72,-38.38 345.88,-33.84"/>
<polygon fill="black" stroke="black" points="59.34,-29.54 48.77,-28.79 56.57,-35.97 59.34,-29.54"/>
<polygon fill="black" stroke="black" points="347.57,-36.91 355.12,-29.48 344.59,-30.58 347.57,-36.91"/>
</g>
<!-- x4 -->
<g id="node5" class="node">
<title>x4</title>
<ellipse fill="none" stroke="black" cx="214" cy="-18" rx="27" ry="18"/>
<text text-anchor="middle" x="214" y="-14.3" font-family="Times New Roman,serif" font-size="14.00">x4</text>
</g>
<!-- x0&#45;&gt;x4 -->
<g id="edge2" class="edge">
<title>x0&#45;&gt;x4</title>
<path fill="none" stroke="black" d="M45.38,-31.56C61.01,-42.18 84.51,-56.13 107.5,-62 136.46,-69.4 167.89,-53.17 189.05,-38.38"/>
<polygon fill="black" stroke="black" points="191.19,-41.15 197.17,-32.41 187.04,-35.51 191.19,-41.15"/>
<text text-anchor="middle" x="120" y="-57.8" font-family="Times New Roman,serif" font-size="14.00">1.02</text>
</g>
<!-- x1&#45;&gt;x3 -->
<g id="edge5" class="edge">
<title>x1&#45;&gt;x3</title>
<path fill="none" stroke="black" d="M323.16,-18C328.4,-18 333.64,-18 338.88,-18"/>
<polygon fill="black" stroke="black" points="323.07,-14.5 313.07,-18 323.07,-21.5 323.07,-14.5"/>
<polygon fill="black" stroke="black" points="338.96,-21.5 348.96,-18 338.96,-14.5 338.96,-21.5"/>
</g>
<!-- x2&#45;&gt;x4 -->
<g id="edge6" class="edge">
<title>x2&#45;&gt;x4</title>
<path fill="none" stroke="black" d="M161.16,-18C166.4,-18 171.64,-18 176.88,-18"/>
<polygon fill="black" stroke="black" points="161.07,-14.5 151.07,-18 161.07,-21.5 161.07,-14.5"/>
<polygon fill="black" stroke="black" points="176.96,-21.5 186.96,-18 176.96,-14.5 176.96,-21.5"/>
</g>
</g>
</svg>
