<?xml version="1.0" encoding="UTF-8" standalone="no"?>
<!DOCTYPE svg PUBLIC "-//W3C//DTD SVG 1.1//EN"
 "http://www.w3.org/Graphics/SVG/1.1/DTD/svg11.dtd">
<!-- Generated by graphviz version 2.44.1 (20200629.0846)
 -->
<!-- Pages: 1 -->
<svg width="198pt" height="305pt"
 viewBox="0.00 0.00 198.00 305.00" xmlns="http://www.w3.org/2000/svg" xmlns:xlink="http://www.w3.org/1999/xlink">
<g id="graph0" class="graph" transform="scale(1 1) rotate(0) translate(4 301)">
<polygon fill="white" stroke="transparent" points="-4,4 -4,-301 194,-301 194,4 -4,4"/>
<!-- x0 -->
<g id="node1" class="node">
<title>x0</title>
<ellipse fill="none" stroke="black" cx="63" cy="-105" rx="27" ry="18"/>
<text text-anchor="middle" x="63" y="-101.3" font-family="Times New Roman,serif" font-size="14.00">x0</text>
</g>
<!-- x2 -->
<g id="node3" class="node">
<title>x2</title>
<ellipse fill="none" stroke="black" cx="72" cy="-18" rx="27" ry="18"/>
<text text-anchor="middle" x="72" y="-14.3" font-family="Times New Roman,serif" font-size="14.00">x2</text>
</g>
<!-- x0&#45;&gt;x2 -->
<g id="edge4" class="edge">
<title>x0&#45;&gt;x2</title>
<path fill="none" stroke="black" d="M47.18,-89.96C38.13,-80.15 29.57,-66.61 35,-54 37.46,-48.28 41.38,-43.05 45.75,-38.49"/>
<polygon fill="black" stroke="black" points="48.4,-40.8 53.38,-31.45 43.65,-35.66 48.4,-40.8"/>
<text text-anchor="middle" x="47.5" y="-57.8" font-family="Times New Roman,serif" font-size="14.00">0.80</text>
</g>
<!-- x4 -->
<g id="node5" class="node">
<title>x4</title>
<ellipse fill="none" stroke="black" cx="163" cy="-18" rx="27" ry="18"/>
<text text-anchor="middle" x="163" y="-14.3" font-family="Times New Roman,serif" font-size="14.00">x4</text>
</g>
<!-- x0&#45;&gt;x4 -->
<g id="edge7" class="edge">
<title>x0&#45;&gt;x4</title>
<path fill="none" stroke="black" d="M64.81,-86.89C66.74,-76.27 70.74,-63 79,-54 86.21,-46.15 109.15,-36.85 129.24,-29.81"/>
<polygon fill="black" stroke="black" points="130.46,-33.1 138.79,-26.56 128.2,-26.47 130.46,-33.1"/>
<text text-anchor="middle" x="91.5" y="-57.8" font-family="Times New Roman,serif" font-size="14.00">1.00</text>
</g>
<!-- x1 -->
<g id="node2" class="node">
<title>x1</title>
<ellipse fill="none" stroke="black" cx="27" cy="-192" rx="27" ry="18"/>
<text text-anchor="middle" x="27" y="-188.3" font-family="Times New Roman,serif" font-size="14.00">x1</text>
</g>
<!-- x1&#45;&gt;x0 -->
<g id="edge1" class="edge">
<title>x1&#45;&gt;x0</title>
<path fill="none" stroke="black" d="M32.97,-174.18C36.54,-164.41 41.29,-151.91 46,-141 47.34,-137.9 48.8,-134.67 50.29,-131.49"/>
<polygon fill="black" stroke="black" points="53.56,-132.77 54.74,-122.24 47.25,-129.74 53.56,-132.77"/>
<text text-anchor="middle" x="58.5" y="-144.8" font-family="Times New Roman,serif" font-size="14.00">1.00</text>
</g>
<!-- x3 -->
<g id="node4" class="node">
<title>x3</title>
<ellipse fill="none" stroke="black" cx="99" cy="-192" rx="27" ry="18"/>
<text text-anchor="middle" x="99" y="-188.3" font-family="Times New Roman,serif" font-size="14.00">x3</text>
</g>
<!-- x3&#45;&gt;x0 -->
<g id="edge2" class="edge">
<title>x3&#45;&gt;x0</title>
<path fill="none" stroke="black" d="M91.89,-174.21C86.78,-162.14 79.79,-145.64 73.97,-131.89"/>
<polygon fill="black" stroke="black" points="77.1,-130.31 69.98,-122.47 70.65,-133.04 77.1,-130.31"/>
<text text-anchor="middle" x="95.5" y="-144.8" font-family="Times New Roman,serif" font-size="14.00">1.00</text>
</g>
<!-- f0(x5) -->
<g id="node6" class="node">
<title>f0(x5)</title>
<ellipse fill="none" stroke="black" cx="63" cy="-279" rx="32.49" ry="18"/>
<text text-anchor="middle" x="63" y="-275.3" font-family="Times New Roman,serif" font-size="14.00">f0(x5)</text>
</g>
<!-- f0(x5)&#45;&gt;x1 -->
<g id="edge3" class="edge">
<title>f0(x5)&#45;&gt;x1</title>
<path fill="none" stroke="black" d="M54.57,-261.41C51.73,-255.63 48.62,-249.08 46,-243 42.72,-235.41 39.43,-227.06 36.52,-219.39"/>
<polygon fill="black" stroke="black" points="39.73,-217.97 32.97,-209.82 33.17,-220.41 39.73,-217.97"/>
<text text-anchor="middle" x="58.5" y="-231.8" font-family="Times New Roman,serif" font-size="14.00">0.60</text>
</g>
<!-- f0(x5)&#45;&gt;x3 -->
<g id="edge6" class="edge">
<title>f0(x5)&#45;&gt;x3</title>
<path fill="none" stroke="black" d="M70.11,-261.21C75.22,-249.14 82.21,-232.64 88.03,-218.89"/>
<polygon fill="black" stroke="black" points="91.35,-220.04 92.02,-209.47 84.9,-217.31 91.35,-220.04"/>
<text text-anchor="middle" x="95.5" y="-231.8" font-family="Times New Roman,serif" font-size="14.00">0.50</text>
</g>
<!-- f1(x6) -->
<g id="node7" class="node">
<title>f1(x6)</title>
<ellipse fill="none" stroke="black" cx="149" cy="-105" rx="32.49" ry="18"/>
<text text-anchor="middle" x="149" y="-101.3" font-family="Times New Roman,serif" font-size="14.00">f1(x6)</text>
</g>
<!-- f1(x6)&#45;&gt;x2 -->
<g id="edge5" class="edge">
<title>f1(x6)&#45;&gt;x2</title>
<path fill="none" stroke="black" d="M136.52,-87.85C128.61,-77.86 118.03,-64.91 108,-54 103.77,-49.39 99.08,-44.62 94.53,-40.14"/>
<polygon fill="black" stroke="black" points="96.71,-37.38 87.09,-32.94 91.84,-42.41 96.71,-37.38"/>
<text text-anchor="middle" x="134.5" y="-57.8" font-family="Times New Roman,serif" font-size="14.00">&#45;0.60</text>
</g>
<!-- f1(x6)&#45;&gt;x4 -->
<g id="edge8" class="edge">
<title>f1(x6)&#45;&gt;x4</title>
<path fill="none" stroke="black" d="M155.22,-87.12C157.07,-81.44 158.89,-75.01 160,-69 161.33,-61.76 162.11,-53.84 162.56,-46.48"/>
<polygon fill="black" stroke="black" points="166.07,-46.39 163,-36.25 159.07,-46.09 166.07,-46.39"/>
<text text-anchor="middle" x="175.5" y="-57.8" font-family="Times New Roman,serif" font-size="14.00">&#45;0.50</text>
</g>
</g>
</svg>
