<?xml version="1.0" encoding="UTF-8" standalone="no"?>
<!DOCTYPE svg PUBLIC "-//W3C//DTD SVG 1.1//EN"
 "http://www.w3.org/Graphics/SVG/1.1/DTD/svg11.dtd">
<!-- Generated by graphviz version 2.43.0 (0)
 -->
<!-- Title: %3 Pages: 1 -->
<svg width="222pt" height="305pt"
 viewBox="0.00 0.00 222.00 305.00" xmlns="http://www.w3.org/2000/svg" xmlns:xlink="http://www.w3.org/1999/xlink">
<g id="graph0" class="graph" transform="scale(1 1) rotate(0) translate(4 301)">
<title>%3</title>
<polygon fill="white" stroke="transparent" points="-4,4 -4,-301 218,-301 218,4 -4,4"/>
<!-- x0 -->
<g id="node1" class="node">
<title>x0</title>
<ellipse fill="none" stroke="black" cx="62" cy="-105" rx="27" ry="18"/>
<text text-anchor="middle" x="62" y="-101.3" font-family="Times,serif" font-size="14.00">x0</text>
</g>
<!-- x2 -->
<g id="node3" class="node">
<title>x2</title>
<ellipse fill="none" stroke="black" cx="77" cy="-18" rx="27" ry="18"/>
<text text-anchor="middle" x="77" y="-14.3" font-family="Times,serif" font-size="14.00">x2</text>
</g>
<!-- x0&#45;&gt;x2 -->
<g id="edge4" class="edge">
<title>x0&#45;&gt;x2</title>
<path fill="none" stroke="black" d="M44.21,-90.92C33.19,-81.11 22.31,-67.17 29,-54 33,-46.14 39.68,-39.62 46.81,-34.43"/>
<polygon fill="black" stroke="black" points="48.78,-37.33 55.25,-28.94 44.96,-31.46 48.78,-37.33"/>
<text text-anchor="middle" x="45" y="-57.8" font-family="Times,serif" font-size="14.00">0.80</text>
</g>
<!-- x4 -->
<g id="node5" class="node">
<title>x4</title>
<ellipse fill="none" stroke="black" cx="173" cy="-18" rx="27" ry="18"/>
<text text-anchor="middle" x="173" y="-14.3" font-family="Times,serif" font-size="14.00">x4</text>
</g>
<!-- x0&#45;&gt;x4 -->
<g id="edge7" class="edge">
<title>x0&#45;&gt;x4</title>
<path fill="none" stroke="black" d="M64.45,-86.76C66.8,-76.09 71.32,-62.8 80,-54 88.54,-45.33 115.93,-35.58 138.79,-28.58"/>
<polygon fill="black" stroke="black" points="139.98,-31.88 148.56,-25.67 137.98,-25.17 139.98,-31.88"/>
<text text-anchor="middle" x="96" y="-57.8" font-family="Times,serif" font-size="14.00">1.00</text>
</g>
<!-- x1 -->
<g id="node2" class="node">
<title>x1</title>
<ellipse fill="none" stroke="black" cx="27" cy="-192" rx="27" ry="18"/>
<text text-anchor="middle" x="27" y="-188.3" font-family="Times,serif" font-size="14.00">x1</text>
</g>
<!-- x1&#45;&gt;x0 -->
<g id="edge1" class="edge">
<title>x1&#45;&gt;x0</title>
<path fill="none" stroke="black" d="M30.09,-173.9C32.2,-164.04 35.45,-151.54 40,-141 41.59,-137.32 43.53,-133.59 45.59,-129.99"/>
<polygon fill="black" stroke="black" points="48.58,-131.81 50.85,-121.46 42.62,-128.14 48.58,-131.81"/>
<text text-anchor="middle" x="56" y="-144.8" font-family="Times,serif" font-size="14.00">1.00</text>
</g>
<!-- x3 -->
<g id="node4" class="node">
<title>x3</title>
<ellipse fill="none" stroke="black" cx="99" cy="-192" rx="27" ry="18"/>
<text text-anchor="middle" x="99" y="-188.3" font-family="Times,serif" font-size="14.00">x3</text>
</g>
<!-- x3&#45;&gt;x0 -->
<g id="edge2" class="edge">
<title>x3&#45;&gt;x0</title>
<path fill="none" stroke="black" d="M91.87,-174.61C86.63,-162.58 79.4,-145.98 73.37,-132.13"/>
<polygon fill="black" stroke="black" points="76.44,-130.4 69.24,-122.63 70.02,-133.19 76.44,-130.4"/>
<text text-anchor="middle" x="98" y="-144.8" font-family="Times,serif" font-size="14.00">1.00</text>
</g>
<!-- x5 -->
<g id="node6" class="node">
<title>x5</title>
<ellipse fill="none" stroke="black" cx="62" cy="-279" rx="27" ry="18"/>
<text text-anchor="middle" x="62" y="-275.3" font-family="Times,serif" font-size="14.00">x5</text>
</g>
<!-- x5&#45;&gt;x1 -->
<g id="edge3" class="edge">
<title>x5&#45;&gt;x1</title>
<path fill="none" stroke="black" d="M50.85,-262.54C46.99,-256.64 42.9,-249.72 40,-243 36.87,-235.75 34.36,-227.58 32.4,-219.98"/>
<polygon fill="black" stroke="black" points="35.78,-219.03 30.09,-210.1 28.96,-220.63 35.78,-219.03"/>
<text text-anchor="middle" x="56" y="-231.8" font-family="Times,serif" font-size="14.00">0.60</text>
</g>
<!-- x5&#45;&gt;x3 -->
<g id="edge6" class="edge">
<title>x5&#45;&gt;x3</title>
<path fill="none" stroke="black" d="M69.13,-261.61C74.37,-249.58 81.6,-232.98 87.63,-219.13"/>
<polygon fill="black" stroke="black" points="90.98,-220.19 91.76,-209.63 84.56,-217.4 90.98,-220.19"/>
<text text-anchor="middle" x="98" y="-231.8" font-family="Times,serif" font-size="14.00">0.50</text>
</g>
<!-- f1(x6) -->
<g id="node7" class="node">
<title>f1(x6)</title>
<ellipse fill="none" stroke="black" cx="158" cy="-105" rx="38.19" ry="18"/>
<text text-anchor="middle" x="158" y="-101.3" font-family="Times,serif" font-size="14.00">f1(x6)</text>
</g>
<!-- f1(x6)&#45;&gt;x2 -->
<g id="edge5" class="edge">
<title>f1(x6)&#45;&gt;x2</title>
<path fill="none" stroke="black" d="M145.31,-87.74C137.25,-77.71 126.41,-64.75 116,-54 111.35,-49.19 106.15,-44.26 101.11,-39.68"/>
<polygon fill="black" stroke="black" points="103.21,-36.85 93.41,-32.81 98.55,-42.08 103.21,-36.85"/>
<text text-anchor="middle" x="147.5" y="-57.8" font-family="Times,serif" font-size="14.00">&#45;0.60</text>
</g>
<!-- f1(x6)&#45;&gt;x4 -->
<g id="edge8" class="edge">
<title>f1(x6)&#45;&gt;x4</title>
<path fill="none" stroke="black" d="M168.5,-87.55C171.54,-81.89 174.46,-75.38 176,-69 177.78,-61.65 178,-53.52 177.52,-45.99"/>
<polygon fill="black" stroke="black" points="180.99,-45.47 176.46,-35.89 174.03,-46.2 180.99,-45.47"/>
<text text-anchor="middle" x="195.5" y="-57.8" font-family="Times,serif" font-size="14.00">&#45;0.50</text>
</g>
</g>
</svg>
