<?xml version="1.0" encoding="UTF-8" standalone="no"?>
<!DOCTYPE svg PUBLIC "-//W3C//DTD SVG 1.1//EN"
 "http://www.w3.org/Graphics/SVG/1.1/DTD/svg11.dtd">
<!-- Generated by graphviz version 2.43.0 (0)
 -->
<!-- Title: %3 Pages: 1 -->
<svg width="152pt" height="305pt"
 viewBox="0.00 0.00 152.00 305.00" xmlns="http://www.w3.org/2000/svg" xmlns:xlink="http://www.w3.org/1999/xlink">
<g id="graph0" class="graph" transform="scale(1 1) rotate(0) translate(4 301)">
<title>%3</title>
<polygon fill="white" stroke="transparent" points="-4,4 -4,-301 148,-301 148,4 -4,4"/>
<!-- x0 -->
<g id="node1" class="node">
<title>x0</title>
<ellipse fill="none" stroke="black" cx="71" cy="-105" rx="27" ry="18"/>
<text text-anchor="middle" x="71" y="-101.3" font-family="Times,serif" font-size="14.00">x0</text>
</g>
<!-- x2 -->
<g id="node3" class="node">
<title>x2</title>
<ellipse fill="none" stroke="black" cx="27" cy="-18" rx="27" ry="18"/>
<text text-anchor="middle" x="27" y="-14.3" font-family="Times,serif" font-size="14.00">x2</text>
</g>
<!-- x0&#45;&gt;x2 -->
<g id="edge4" class="edge">
<title>x0&#45;&gt;x2</title>
<path fill="none" stroke="black" d="M62.52,-87.61C56.19,-75.38 47.42,-58.44 40.18,-44.46"/>
<polygon fill="black" stroke="black" points="43.16,-42.61 35.46,-35.34 36.95,-45.83 43.16,-42.61"/>
<text text-anchor="middle" x="68" y="-57.8" font-family="Times,serif" font-size="14.00">0.75</text>
</g>
<!-- x4 -->
<g id="node5" class="node">
<title>x4</title>
<ellipse fill="none" stroke="black" cx="117" cy="-18" rx="27" ry="18"/>
<text text-anchor="middle" x="117" y="-14.3" font-family="Times,serif" font-size="14.00">x4</text>
</g>
<!-- x0&#45;&gt;x4 -->
<g id="edge6" class="edge">
<title>x0&#45;&gt;x4</title>
<path fill="none" stroke="black" d="M79.87,-87.61C86.53,-75.3 95.77,-58.23 103.37,-44.19"/>
<polygon fill="black" stroke="black" points="106.63,-45.51 108.31,-35.05 100.48,-42.18 106.63,-45.51"/>
<text text-anchor="middle" x="113" y="-57.8" font-family="Times,serif" font-size="14.00">1.02</text>
</g>
<!-- x1 -->
<g id="node2" class="node">
<title>x1</title>
<ellipse fill="none" stroke="black" cx="36" cy="-192" rx="27" ry="18"/>
<text text-anchor="middle" x="36" y="-188.3" font-family="Times,serif" font-size="14.00">x1</text>
</g>
<!-- x1&#45;&gt;x0 -->
<g id="edge1" class="edge">
<title>x1&#45;&gt;x0</title>
<path fill="none" stroke="black" d="M39.09,-173.9C41.2,-164.04 44.45,-151.54 49,-141 50.59,-137.32 52.53,-133.59 54.59,-129.99"/>
<polygon fill="black" stroke="black" points="57.58,-131.81 59.85,-121.46 51.62,-128.14 57.58,-131.81"/>
<text text-anchor="middle" x="65" y="-144.8" font-family="Times,serif" font-size="14.00">0.94</text>
</g>
<!-- x2&#45;&gt;x4 -->
<g id="edge7" class="edge">
<title>x2&#45;&gt;x4</title>
<path fill="none" stroke="black" d="M64.16,-18C69.4,-18 74.64,-18 79.88,-18"/>
<polygon fill="black" stroke="black" points="64.07,-14.5 54.07,-18 64.07,-21.5 64.07,-14.5"/>
<polygon fill="black" stroke="black" points="79.96,-21.5 89.96,-18 79.96,-14.5 79.96,-21.5"/>
</g>
<!-- x3 -->
<g id="node4" class="node">
<title>x3</title>
<ellipse fill="none" stroke="black" cx="108" cy="-192" rx="27" ry="18"/>
<text text-anchor="middle" x="108" y="-188.3" font-family="Times,serif" font-size="14.00">x3</text>
</g>
<!-- x3&#45;&gt;x0 -->
<g id="edge2" class="edge">
<title>x3&#45;&gt;x0</title>
<path fill="none" stroke="black" d="M100.87,-174.61C95.63,-162.58 88.4,-145.98 82.37,-132.13"/>
<polygon fill="black" stroke="black" points="85.44,-130.4 78.24,-122.63 79.02,-133.19 85.44,-130.4"/>
<text text-anchor="middle" x="108" y="-144.8" font-family="Times,serif" font-size="14.00">0.99</text>
</g>
<!-- x5 -->
<g id="node6" class="node">
<title>x5</title>
<ellipse fill="none" stroke="black" cx="71" cy="-279" rx="27" ry="18"/>
<text text-anchor="middle" x="71" y="-275.3" font-family="Times,serif" font-size="14.00">x5</text>
</g>
<!-- x5&#45;&gt;x1 -->
<g id="edge3" class="edge">
<title>x5&#45;&gt;x1</title>
<path fill="none" stroke="black" d="M59.85,-262.54C55.99,-256.64 51.9,-249.72 49,-243 45.87,-235.75 43.36,-227.58 41.4,-219.98"/>
<polygon fill="black" stroke="black" points="44.78,-219.03 39.09,-210.1 37.96,-220.63 44.78,-219.03"/>
<text text-anchor="middle" x="65" y="-231.8" font-family="Times,serif" font-size="14.00">0.56</text>
</g>
<!-- x5&#45;&gt;x3 -->
<g id="edge5" class="edge">
<title>x5&#45;&gt;x3</title>
<path fill="none" stroke="black" d="M78.13,-261.61C83.37,-249.58 90.6,-232.98 96.63,-219.13"/>
<polygon fill="black" stroke="black" points="99.98,-220.19 100.76,-209.63 93.56,-217.4 99.98,-220.19"/>
<text text-anchor="middle" x="108" y="-231.8" font-family="Times,serif" font-size="14.00">0.56</text>
</g>
</g>
</svg>
