<?xml version="1.0" encoding="UTF-8" standalone="no"?>
<!DOCTYPE svg PUBLIC "-//W3C//DTD SVG 1.1//EN"
 "http://www.w3.org/Graphics/SVG/1.1/DTD/svg11.dtd">
<!-- Generated by graphviz version 2.38.0 (20140413.2041)
 -->
<!-- Title: %3 Pages: 1 -->
<svg width="199pt" height="305pt"
 viewBox="0.00 0.00 199.00 305.00" xmlns="http://www.w3.org/2000/svg" xmlns:xlink="http://www.w3.org/1999/xlink">
<g id="graph0" class="graph" transform="scale(1 1) rotate(0) translate(4 301)">
<title>%3</title>
<polygon fill="white" stroke="none" points="-4,4 -4,-301 195,-301 195,4 -4,4"/>
<!-- x0 -->
<g id="node1" class="node"><title>x0</title>
<ellipse fill="none" stroke="black" cx="57" cy="-105" rx="27" ry="18"/>
<text text-anchor="middle" x="57" y="-101.3" font-family="Times New Roman,serif" font-size="14.00">x0</text>
</g>
<!-- x2 -->
<g id="node3" class="node"><title>x2</title>
<ellipse fill="none" stroke="black" cx="73" cy="-18" rx="27" ry="18"/>
<text text-anchor="middle" x="73" y="-14.3" font-family="Times New Roman,serif" font-size="14.00">x2</text>
</g>
<!-- x0&#45;&gt;x2 -->
<g id="edge4" class="edge"><title>x0&#45;&gt;x2</title>
<path fill="none" stroke="black" d="M44.1451,-89.0931C37.1794,-79.137 30.9361,-65.7607 36,-54 38.4642,-48.277 42.3754,-43.0526 46.7502,-38.4861"/>
<polygon fill="black" stroke="black" points="49.4001,-40.8033 54.3767,-31.45 44.6535,-35.6584 49.4001,-40.8033"/>
<text text-anchor="middle" x="48.5" y="-57.8" font-family="Times New Roman,serif" font-size="14.00">0.80</text>
</g>
<!-- x4 -->
<g id="node5" class="node"><title>x4</title>
<ellipse fill="none" stroke="black" cx="164" cy="-18" rx="27" ry="18"/>
<text text-anchor="middle" x="164" y="-14.3" font-family="Times New Roman,serif" font-size="14.00">x4</text>
</g>
<!-- x0&#45;&gt;x4 -->
<g id="edge7" class="edge"><title>x0&#45;&gt;x4</title>
<path fill="none" stroke="black" d="M61.4124,-86.8119C64.9138,-76.1702 70.7835,-62.8875 80,-54 87.672,-46.6019 110.59,-37.2801 130.552,-30.1172"/>
<polygon fill="black" stroke="black" points="131.756,-33.404 140.035,-26.7922 129.44,-26.7983 131.756,-33.404"/>
<text text-anchor="middle" x="92.5" y="-57.8" font-family="Times New Roman,serif" font-size="14.00">1.00</text>
</g>
<!-- x1 -->
<g id="node2" class="node"><title>x1</title>
<ellipse fill="none" stroke="black" cx="27" cy="-192" rx="27" ry="18"/>
<text text-anchor="middle" x="27" y="-188.3" font-family="Times New Roman,serif" font-size="14.00">x1</text>
</g>
<!-- x1&#45;&gt;x0 -->
<g id="edge1" class="edge"><title>x1&#45;&gt;x0</title>
<path fill="none" stroke="black" d="M32.927,-174.207C37.1181,-162.332 42.8229,-146.168 47.6271,-132.557"/>
<polygon fill="black" stroke="black" points="51.0575,-133.353 51.0853,-122.758 44.4565,-131.023 51.0575,-133.353"/>
<text text-anchor="middle" x="56.5" y="-144.8" font-family="Times New Roman,serif" font-size="14.00">1.00</text>
</g>
<!-- x3 -->
<g id="node4" class="node"><title>x3</title>
<ellipse fill="none" stroke="black" cx="99" cy="-192" rx="27" ry="18"/>
<text text-anchor="middle" x="99" y="-188.3" font-family="Times New Roman,serif" font-size="14.00">x3</text>
</g>
<!-- x3&#45;&gt;x0 -->
<g id="edge2" class="edge"><title>x3&#45;&gt;x0</title>
<path fill="none" stroke="black" d="M90.902,-174.611C84.8592,-162.382 76.4894,-145.443 69.5783,-131.456"/>
<polygon fill="black" stroke="black" points="72.641,-129.753 65.0732,-122.339 66.3653,-132.854 72.641,-129.753"/>
<text text-anchor="middle" x="92.5" y="-144.8" font-family="Times New Roman,serif" font-size="14.00">1.00</text>
</g>
<!-- x5 -->
<g id="node6" class="node"><title>x5</title>
<ellipse fill="none" stroke="black" cx="66" cy="-279" rx="27" ry="18"/>
<text text-anchor="middle" x="66" y="-275.3" font-family="Times New Roman,serif" font-size="14.00">x5</text>
</g>
<!-- x5&#45;&gt;x1 -->
<g id="edge3" class="edge"><title>x5&#45;&gt;x1</title>
<path fill="none" stroke="black" d="M58.4804,-261.611C52.8693,-249.382 45.0973,-232.443 38.6798,-218.456"/>
<polygon fill="black" stroke="black" points="41.8479,-216.968 34.4965,-209.339 35.4857,-219.887 41.8479,-216.968"/>
<text text-anchor="middle" x="61.5" y="-231.8" font-family="Times New Roman,serif" font-size="14.00">0.60</text>
</g>
<!-- x5&#45;&gt;x3 -->
<g id="edge6" class="edge"><title>x5&#45;&gt;x3</title>
<path fill="none" stroke="black" d="M72.5197,-261.207C77.1751,-249.216 83.5284,-232.851 88.8449,-219.157"/>
<polygon fill="black" stroke="black" points="92.1373,-220.347 92.4938,-209.758 85.6118,-217.814 92.1373,-220.347"/>
<text text-anchor="middle" x="96.5" y="-231.8" font-family="Times New Roman,serif" font-size="14.00">0.50</text>
</g>
<!-- f1(x6) -->
<g id="node7" class="node"><title>f1(x6)</title>
<ellipse fill="none" stroke="black" cx="157" cy="-105" rx="32.4942" ry="18"/>
<text text-anchor="middle" x="157" y="-101.3" font-family="Times New Roman,serif" font-size="14.00">f1(x6)</text>
</g>
<!-- f1(x6)&#45;&gt;x2 -->
<g id="edge5" class="edge"><title>f1(x6)&#45;&gt;x2</title>
<path fill="none" stroke="black" d="M142.43,-88.5494C132.984,-78.6009 120.366,-65.4377 109,-54 104.591,-49.5635 99.8262,-44.8645 95.2505,-40.3987"/>
<polygon fill="black" stroke="black" points="97.4384,-37.6447 87.8253,-33.1906 92.5626,-42.6673 97.4384,-37.6447"/>
<text text-anchor="middle" x="137.5" y="-57.8" font-family="Times New Roman,serif" font-size="14.00">&#45;0.60</text>
</g>
<!-- f1(x6)&#45;&gt;x4 -->
<g id="edge8" class="edge"><title>f1(x6)&#45;&gt;x4</title>
<path fill="none" stroke="black" d="M159.137,-86.9287C159.801,-81.2333 160.491,-74.8492 161,-69 161.639,-61.6659 162.183,-53.7147 162.626,-46.3565"/>
<polygon fill="black" stroke="black" points="166.133,-46.322 163.2,-36.1412 159.144,-45.9287 166.133,-46.322"/>
<text text-anchor="middle" x="176.5" y="-57.8" font-family="Times New Roman,serif" font-size="14.00">&#45;0.50</text>
</g>
</g>
</svg>
