<?xml version="1.0" encoding="UTF-8" standalone="no"?>
<!DOCTYPE svg PUBLIC "-//W3C//DTD SVG 1.1//EN"
 "http://www.w3.org/Graphics/SVG/1.1/DTD/svg11.dtd">
<!-- Generated by graphviz version 2.38.0 (20140413.2041)
 -->
<!-- Title: %3 Pages: 1 -->
<svg width="142pt" height="305pt"
 viewBox="0.00 0.00 142.00 305.00" xmlns="http://www.w3.org/2000/svg" xmlns:xlink="http://www.w3.org/1999/xlink">
<g id="graph0" class="graph" transform="scale(1 1) rotate(0) translate(4 301)">
<title>%3</title>
<polygon fill="white" stroke="none" points="-4,4 -4,-301 138,-301 138,4 -4,4"/>
<!-- x0 -->
<g id="node1" class="node"><title>x0</title>
<ellipse fill="none" stroke="black" cx="94" cy="-279" rx="27" ry="18"/>
<text text-anchor="middle" x="94" y="-275.3" font-family="Times New Roman,serif" font-size="14.00">x0</text>
</g>
<!-- x1 -->
<g id="node2" class="node"><title>x1</title>
<ellipse fill="none" stroke="black" cx="52" cy="-192" rx="27" ry="18"/>
<text text-anchor="middle" x="52" y="-188.3" font-family="Times New Roman,serif" font-size="14.00">x1</text>
</g>
<!-- x0&#45;&gt;x1 -->
<g id="edge1" class="edge"><title>x0&#45;&gt;x1</title>
<path fill="none" stroke="black" d="M85.4819,-261.666C82.453,-255.798 79.0412,-249.119 76,-243 72.0392,-235.031 67.8102,-226.299 64.0228,-218.394"/>
<polygon fill="black" stroke="black" points="67.1342,-216.787 59.6699,-209.268 60.8161,-219.801 67.1342,-216.787"/>
<text text-anchor="middle" x="88.5" y="-231.8" font-family="Times New Roman,serif" font-size="14.00">1.00</text>
</g>
<!-- x3 -->
<g id="node4" class="node"><title>x3</title>
<ellipse fill="none" stroke="black" cx="107" cy="-105" rx="27" ry="18"/>
<text text-anchor="middle" x="107" y="-101.3" font-family="Times New Roman,serif" font-size="14.00">x3</text>
</g>
<!-- x0&#45;&gt;x3 -->
<g id="edge3" class="edge"><title>x0&#45;&gt;x3</title>
<path fill="none" stroke="black" d="M97.9466,-260.995C99.1211,-255.304 100.284,-248.906 101,-243 105.576,-205.234 106.777,-161.239 107.034,-133.504"/>
<polygon fill="black" stroke="black" points="110.534,-133.391 107.091,-123.371 103.534,-133.351 110.534,-133.391"/>
<text text-anchor="middle" x="119.5" y="-188.3" font-family="Times New Roman,serif" font-size="14.00">1.00</text>
</g>
<!-- x2 -->
<g id="node3" class="node"><title>x2</title>
<ellipse fill="none" stroke="black" cx="27" cy="-105" rx="27" ry="18"/>
<text text-anchor="middle" x="27" y="-101.3" font-family="Times New Roman,serif" font-size="14.00">x2</text>
</g>
<!-- x1&#45;&gt;x2 -->
<g id="edge2" class="edge"><title>x1&#45;&gt;x2</title>
<path fill="none" stroke="black" d="M38.8871,-176.01C34.5729,-170.165 30.2964,-163.156 28,-156 25.6919,-148.808 24.837,-140.729 24.7143,-133.198"/>
<polygon fill="black" stroke="black" points="28.2165,-133.143 24.9531,-123.064 21.2184,-132.978 28.2165,-133.143"/>
<text text-anchor="middle" x="40.5" y="-144.8" font-family="Times New Roman,serif" font-size="14.00">1.00</text>
</g>
<!-- x1&#45;&gt;x3 -->
<g id="edge4" class="edge"><title>x1&#45;&gt;x3</title>
<path fill="none" stroke="black" d="M58.6864,-174.164C62.9947,-164.158 69.0755,-151.428 76,-141 78.9005,-136.632 82.3109,-132.24 85.7892,-128.114"/>
<polygon fill="black" stroke="black" points="88.4446,-130.395 92.4457,-120.585 83.2001,-125.759 88.4446,-130.395"/>
<text text-anchor="middle" x="88.5" y="-144.8" font-family="Times New Roman,serif" font-size="14.00">1.00</text>
</g>
<!-- x4 -->
<g id="node5" class="node"><title>x4</title>
<ellipse fill="none" stroke="black" cx="107" cy="-18" rx="27" ry="18"/>
<text text-anchor="middle" x="107" y="-14.3" font-family="Times New Roman,serif" font-size="14.00">x4</text>
</g>
<!-- x3&#45;&gt;x4 -->
<g id="edge5" class="edge"><title>x3&#45;&gt;x4</title>
<path fill="none" stroke="black" d="M107,-86.799C107,-75.1626 107,-59.5479 107,-46.2368"/>
<polygon fill="black" stroke="black" points="110.5,-46.1754 107,-36.1754 103.5,-46.1755 110.5,-46.1754"/>
<text text-anchor="middle" x="119.5" y="-57.8" font-family="Times New Roman,serif" font-size="14.00">1.00</text>
</g>
</g>
</svg>
