<?xml version="1.0" encoding="UTF-8" standalone="no"?>
<!DOCTYPE svg PUBLIC "-//W3C//DTD SVG 1.1//EN"
 "http://www.w3.org/Graphics/SVG/1.1/DTD/svg11.dtd">
<!-- Generated by graphviz version 2.38.0 (20140413.2041)
 -->
<!-- Title: %3 Pages: 1 -->
<svg width="122pt" height="392pt"
 viewBox="0.00 0.00 122.00 392.00" xmlns="http://www.w3.org/2000/svg" xmlns:xlink="http://www.w3.org/1999/xlink">
<g id="graph0" class="graph" transform="scale(1 1) rotate(0) translate(4 388)">
<title>%3</title>
<polygon fill="white" stroke="none" points="-4,4 -4,-388 118,-388 118,4 -4,4"/>
<!-- x0 -->
<g id="node1" class="node"><title>x0</title>
<ellipse fill="none" stroke="black" cx="69" cy="-366" rx="27" ry="18"/>
<text text-anchor="middle" x="69" y="-362.3" font-family="Times New Roman,serif" font-size="14.00">x0</text>
</g>
<!-- x1 -->
<g id="node2" class="node"><title>x1</title>
<ellipse fill="none" stroke="black" cx="27" cy="-279" rx="27" ry="18"/>
<text text-anchor="middle" x="27" y="-275.3" font-family="Times New Roman,serif" font-size="14.00">x1</text>
</g>
<!-- x0&#45;&gt;x1 -->
<g id="edge1" class="edge"><title>x0&#45;&gt;x1</title>
<path fill="none" stroke="black" d="M60.4819,-348.666C57.453,-342.798 54.0412,-336.119 51,-330 47.0392,-322.031 42.8102,-313.299 39.0228,-305.394"/>
<polygon fill="black" stroke="black" points="42.1342,-303.787 34.6699,-296.268 35.8161,-306.801 42.1342,-303.787"/>
<text text-anchor="middle" x="63.5" y="-318.8" font-family="Times New Roman,serif" font-size="14.00">1.00</text>
</g>
<!-- x2 -->
<g id="node3" class="node"><title>x2</title>
<ellipse fill="none" stroke="black" cx="87" cy="-192" rx="27" ry="18"/>
<text text-anchor="middle" x="87" y="-188.3" font-family="Times New Roman,serif" font-size="14.00">x2</text>
</g>
<!-- x0&#45;&gt;x2 -->
<g id="edge2" class="edge"><title>x0&#45;&gt;x2</title>
<path fill="none" stroke="black" d="M72.8209,-347.979C73.9871,-342.286 75.1772,-335.892 76,-330 81.2736,-292.239 84.2494,-248.242 85.7413,-220.506"/>
<polygon fill="black" stroke="black" points="89.2442,-220.538 86.2589,-210.373 82.2533,-220.181 89.2442,-220.538"/>
<text text-anchor="middle" x="95.5" y="-275.3" font-family="Times New Roman,serif" font-size="14.00">1.00</text>
</g>
<!-- x1&#45;&gt;x2 -->
<g id="edge3" class="edge"><title>x1&#45;&gt;x2</title>
<path fill="none" stroke="black" d="M33.2143,-261.434C37.4299,-251.289 43.5789,-238.318 51,-228 54.5866,-223.013 58.9265,-218.12 63.3331,-213.646"/>
<polygon fill="black" stroke="black" points="65.9085,-216.025 70.6911,-206.571 61.0568,-210.979 65.9085,-216.025"/>
<text text-anchor="middle" x="63.5" y="-231.8" font-family="Times New Roman,serif" font-size="14.00">1.00</text>
</g>
<!-- x3 -->
<g id="node4" class="node"><title>x3</title>
<ellipse fill="none" stroke="black" cx="42" cy="-105" rx="27" ry="18"/>
<text text-anchor="middle" x="42" y="-101.3" font-family="Times New Roman,serif" font-size="14.00">x3</text>
</g>
<!-- x1&#45;&gt;x3 -->
<g id="edge4" class="edge"><title>x1&#45;&gt;x3</title>
<path fill="none" stroke="black" d="M25.5391,-260.998C24.0633,-240.348 22.4611,-204.491 26,-174 27.6058,-160.165 30.9908,-145.058 34.2356,-132.604"/>
<polygon fill="black" stroke="black" points="37.6403,-133.422 36.886,-122.854 30.8854,-131.586 37.6403,-133.422"/>
<text text-anchor="middle" x="38.5" y="-188.3" font-family="Times New Roman,serif" font-size="14.00">1.00</text>
</g>
<!-- x2&#45;&gt;x3 -->
<g id="edge5" class="edge"><title>x2&#45;&gt;x3</title>
<path fill="none" stroke="black" d="M78.3235,-174.611C71.8492,-162.382 62.8815,-145.443 55.4767,-131.456"/>
<polygon fill="black" stroke="black" points="58.422,-129.539 50.6498,-122.339 52.2355,-132.814 58.422,-129.539"/>
<text text-anchor="middle" x="79.5" y="-144.8" font-family="Times New Roman,serif" font-size="14.00">1.00</text>
</g>
<!-- x4 -->
<g id="node5" class="node"><title>x4</title>
<ellipse fill="none" stroke="black" cx="42" cy="-18" rx="27" ry="18"/>
<text text-anchor="middle" x="42" y="-14.3" font-family="Times New Roman,serif" font-size="14.00">x4</text>
</g>
<!-- x3&#45;&gt;x4 -->
<g id="edge6" class="edge"><title>x3&#45;&gt;x4</title>
<path fill="none" stroke="black" d="M42,-86.799C42,-75.1626 42,-59.5479 42,-46.2368"/>
<polygon fill="black" stroke="black" points="45.5001,-46.1754 42,-36.1754 38.5001,-46.1755 45.5001,-46.1754"/>
<text text-anchor="middle" x="54.5" y="-57.8" font-family="Times New Roman,serif" font-size="14.00">1.00</text>
</g>
</g>
</svg>
