<?xml version="1.0" encoding="UTF-8" standalone="no"?>
<!DOCTYPE svg PUBLIC "-//W3C//DTD SVG 1.1//EN"
 "http://www.w3.org/Graphics/SVG/1.1/DTD/svg11.dtd">
<!-- Generated by graphviz version 2.38.0 (20140413.2041)
 -->
<!-- Title: %3 Pages: 1 -->
<svg width="626pt" height="305pt"
 viewBox="0.00 0.00 626.10 305.00" xmlns="http://www.w3.org/2000/svg" xmlns:xlink="http://www.w3.org/1999/xlink">
<g id="graph0" class="graph" transform="scale(1 1) rotate(0) translate(4 301)">
<title>%3</title>
<polygon fill="white" stroke="none" points="-4,4 -4,-301 622.097,-301 622.097,4 -4,4"/>
<!-- x0(t) -->
<g id="node1" class="node"><title>x0(t)</title>
<ellipse fill="none" stroke="black" cx="391.097" cy="-105" rx="27.8951" ry="18"/>
<text text-anchor="middle" x="391.097" y="-101.3" font-family="Times New Roman,serif" font-size="14.00">x0(t)</text>
</g>
<!-- x2(t) -->
<g id="node3" class="node"><title>x2(t)</title>
<ellipse fill="none" stroke="black" cx="363.097" cy="-18" rx="27.8951" ry="18"/>
<text text-anchor="middle" x="363.097" y="-14.3" font-family="Times New Roman,serif" font-size="14.00">x2(t)</text>
</g>
<!-- x0(t)&#45;&gt;x2(t) -->
<g id="edge10" class="edge"><title>x0(t)&#45;&gt;x2(t)</title>
<path fill="none" stroke="black" d="M385.565,-87.2067C381.653,-75.332 376.329,-59.1684 371.845,-45.5567"/>
<polygon fill="black" stroke="black" points="375.07,-44.1613 368.617,-35.7584 368.422,-46.3514 375.07,-44.1613"/>
<text text-anchor="middle" x="393.597" y="-57.8" font-family="Times New Roman,serif" font-size="14.00">&#45;0.37</text>
</g>
<!-- x3(t) -->
<g id="node4" class="node"><title>x3(t)</title>
<ellipse fill="none" stroke="black" cx="133.097" cy="-18" rx="27.8951" ry="18"/>
<text text-anchor="middle" x="133.097" y="-14.3" font-family="Times New Roman,serif" font-size="14.00">x3(t)</text>
</g>
<!-- x0(t)&#45;&gt;x3(t) -->
<g id="edge14" class="edge"><title>x0(t)&#45;&gt;x3(t)</title>
<path fill="none" stroke="black" d="M366.825,-96.0034C320.629,-80.784 219.969,-47.6207 167.093,-30.2003"/>
<polygon fill="black" stroke="black" points="168.085,-26.8422 157.492,-27.0373 165.895,-33.4907 168.085,-26.8422"/>
<text text-anchor="middle" x="290.597" y="-57.8" font-family="Times New Roman,serif" font-size="14.00">0.07</text>
</g>
<!-- x4(t) -->
<g id="node5" class="node"><title>x4(t)</title>
<ellipse fill="none" stroke="black" cx="448.097" cy="-18" rx="27.8951" ry="18"/>
<text text-anchor="middle" x="448.097" y="-14.3" font-family="Times New Roman,serif" font-size="14.00">x4(t)</text>
</g>
<!-- x0(t)&#45;&gt;x4(t) -->
<g id="edge20" class="edge"><title>x0(t)&#45;&gt;x4(t)</title>
<path fill="none" stroke="black" d="M401.818,-88.0122C410.257,-75.4274 422.159,-57.6788 431.78,-43.3325"/>
<polygon fill="black" stroke="black" points="434.761,-45.171 437.424,-34.9162 428.947,-41.2723 434.761,-45.171"/>
<text text-anchor="middle" x="435.597" y="-57.8" font-family="Times New Roman,serif" font-size="14.00">0.08</text>
</g>
<!-- x1(t) -->
<g id="node2" class="node"><title>x1(t)</title>
<ellipse fill="none" stroke="black" cx="266.097" cy="-192" rx="27.8951" ry="18"/>
<text text-anchor="middle" x="266.097" y="-188.3" font-family="Times New Roman,serif" font-size="14.00">x1(t)</text>
</g>
<!-- x1(t)&#45;&gt;x0(t) -->
<g id="edge1" class="edge"><title>x1(t)&#45;&gt;x0(t)</title>
<path fill="none" stroke="black" d="M286.654,-179.567C298.156,-172.982 312.643,-164.372 325.097,-156 339.152,-146.551 354.248,-135.21 366.451,-125.719"/>
<polygon fill="black" stroke="black" points="368.683,-128.417 374.389,-119.49 364.361,-122.91 368.683,-128.417"/>
<text text-anchor="middle" x="360.597" y="-144.8" font-family="Times New Roman,serif" font-size="14.00">&#45;0.14</text>
</g>
<!-- x1(t)&#45;&gt;x3(t) -->
<g id="edge15" class="edge"><title>x1(t)&#45;&gt;x3(t)</title>
<path fill="none" stroke="black" d="M239.29,-186.777C219.57,-182.332 193.454,-173.438 177.097,-156 148.632,-125.655 138.582,-76.8088 135.033,-46.3774"/>
<polygon fill="black" stroke="black" points="138.479,-45.6676 133.998,-36.0673 131.514,-46.367 138.479,-45.6676"/>
<text text-anchor="middle" x="169.597" y="-101.3" font-family="Times New Roman,serif" font-size="14.00">&#45;0.21</text>
</g>
<!-- x0(t&#45;1) -->
<g id="node6" class="node"><title>x0(t&#45;1)</title>
<ellipse fill="none" stroke="black" cx="439.097" cy="-279" rx="35.194" ry="18"/>
<text text-anchor="middle" x="439.097" y="-275.3" font-family="Times New Roman,serif" font-size="14.00">x0(t&#45;1)</text>
</g>
<!-- x0(t&#45;1)&#45;&gt;x0(t) -->
<g id="edge2" class="edge"><title>x0(t&#45;1)&#45;&gt;x0(t)</title>
<path fill="none" stroke="black" d="M439.843,-260.998C440.263,-240.042 439.36,-203.574 430.097,-174 425.22,-158.428 416.356,-142.527 408.31,-130.02"/>
<polygon fill="black" stroke="black" points="411.129,-127.938 402.665,-121.566 405.308,-131.826 411.129,-127.938"/>
<text text-anchor="middle" x="452.597" y="-188.3" font-family="Times New Roman,serif" font-size="14.00">&#45;0.37</text>
</g>
<!-- x0(t&#45;1)&#45;&gt;x1(t) -->
<g id="edge5" class="edge"><title>x0(t&#45;1)&#45;&gt;x1(t)</title>
<path fill="none" stroke="black" d="M404.172,-276.882C373.093,-274.276 327.781,-266.355 296.097,-243 287.839,-236.913 281.417,-227.809 276.673,-219.032"/>
<polygon fill="black" stroke="black" points="279.699,-217.252 272.175,-209.793 273.406,-220.316 279.699,-217.252"/>
<text text-anchor="middle" x="310.597" y="-231.8" font-family="Times New Roman,serif" font-size="14.00">&#45;0.08</text>
</g>
<!-- x0(t&#45;1)&#45;&gt;x2(t) -->
<g id="edge11" class="edge"><title>x0(t&#45;1)&#45;&gt;x2(t)</title>
<path fill="none" stroke="black" d="M449.285,-261.695C456.983,-248.361 466.913,-228.718 471.097,-210 481.619,-162.927 459.774,-63.5598 452.097,-54 450.181,-51.6142 420.954,-40.3684 396.509,-31.2587"/>
<polygon fill="black" stroke="black" points="397.695,-27.9655 387.101,-27.7696 395.26,-34.5287 397.695,-27.9655"/>
<text text-anchor="middle" x="485.597" y="-144.8" font-family="Times New Roman,serif" font-size="14.00">0.08</text>
</g>
<!-- x0(t&#45;1)&#45;&gt;x3(t) -->
<g id="edge16" class="edge"><title>x0(t&#45;1)&#45;&gt;x3(t)</title>
<path fill="none" stroke="black" d="M435.372,-260.943C429.194,-234.333 416.113,-184.854 402.097,-174 366.465,-146.407 233.263,-186.512 200.097,-156 177.189,-134.926 200.964,-115.343 188.097,-87 180.196,-69.5967 166.768,-52.8676 155.158,-40.3572"/>
<polygon fill="black" stroke="black" points="157.681,-37.9317 148.23,-33.1445 152.633,-42.781 157.681,-37.9317"/>
<text text-anchor="middle" x="214.597" y="-144.8" font-family="Times New Roman,serif" font-size="14.00">&#45;0.39</text>
</g>
<!-- x1(t&#45;1) -->
<g id="node7" class="node"><title>x1(t&#45;1)</title>
<ellipse fill="none" stroke="black" cx="131.097" cy="-279" rx="35.194" ry="18"/>
<text text-anchor="middle" x="131.097" y="-275.3" font-family="Times New Roman,serif" font-size="14.00">x1(t&#45;1)</text>
</g>
<!-- x1(t&#45;1)&#45;&gt;x1(t) -->
<g id="edge6" class="edge"><title>x1(t&#45;1)&#45;&gt;x1(t)</title>
<path fill="none" stroke="black" d="M150.936,-264.016C165.69,-253.759 186.414,-239.65 205.097,-228 215.25,-221.669 226.569,-215.056 236.673,-209.305"/>
<polygon fill="black" stroke="black" points="238.555,-212.262 245.543,-204.298 235.114,-206.166 238.555,-212.262"/>
<text text-anchor="middle" x="219.597" y="-231.8" font-family="Times New Roman,serif" font-size="14.00">&#45;0.35</text>
</g>
<!-- x1(t&#45;1)&#45;&gt;x3(t) -->
<g id="edge17" class="edge"><title>x1(t&#45;1)&#45;&gt;x3(t)</title>
<path fill="none" stroke="black" d="M118.104,-261.871C101.1,-239.619 72.1646,-197.529 61.0969,-156 50.8147,-117.419 80.9701,-76.2141 96.0969,-54 99.604,-48.8497 103.984,-43.8828 108.49,-39.3885"/>
<polygon fill="black" stroke="black" points="111.139,-41.704 116.062,-32.3224 106.363,-36.5863 111.139,-41.704"/>
<text text-anchor="middle" x="75.5969" y="-144.8" font-family="Times New Roman,serif" font-size="14.00">&#45;0.10</text>
</g>
<!-- x2(t&#45;1) -->
<g id="node8" class="node"><title>x2(t&#45;1)</title>
<ellipse fill="none" stroke="black" cx="227.097" cy="-279" rx="35.194" ry="18"/>
<text text-anchor="middle" x="227.097" y="-275.3" font-family="Times New Roman,serif" font-size="14.00">x2(t&#45;1)</text>
</g>
<!-- x2(t&#45;1)&#45;&gt;x0(t) -->
<g id="edge3" class="edge"><title>x2(t&#45;1)&#45;&gt;x0(t)</title>
<path fill="none" stroke="black" d="M261.423,-274.581C300.861,-269.898 362.08,-260.063 377.097,-243 403.519,-212.977 401.389,-163.696 396.739,-133.142"/>
<polygon fill="black" stroke="black" points="400.17,-132.443 395.031,-123.178 393.271,-133.626 400.17,-132.443"/>
<text text-anchor="middle" x="412.597" y="-188.3" font-family="Times New Roman,serif" font-size="14.00">0.07</text>
</g>
<!-- x2(t&#45;1)&#45;&gt;x1(t) -->
<g id="edge7" class="edge"><title>x2(t&#45;1)&#45;&gt;x1(t)</title>
<path fill="none" stroke="black" d="M231.812,-260.947C234.801,-251.096 239.051,-238.596 244.097,-228 245.818,-224.385 247.834,-220.684 249.934,-217.106"/>
<polygon fill="black" stroke="black" points="252.922,-218.929 255.209,-208.583 246.97,-215.245 252.922,-218.929"/>
<text text-anchor="middle" x="258.597" y="-231.8" font-family="Times New Roman,serif" font-size="14.00">&#45;0.17</text>
</g>
<!-- x2(t&#45;1)&#45;&gt;x2(t) -->
<g id="edge12" class="edge"><title>x2(t&#45;1)&#45;&gt;x2(t)</title>
<path fill="none" stroke="black" d="M222.09,-261.103C216.614,-238.927 210.847,-199.801 229.097,-174 242.254,-155.399 259.445,-170.406 277.097,-156 313.845,-126.009 339.539,-75.954 352.768,-45.3672"/>
<polygon fill="black" stroke="black" points="356.141,-46.3735 356.775,-35.7977 349.684,-43.6701 356.141,-46.3735"/>
<text text-anchor="middle" x="305.597" y="-144.8" font-family="Times New Roman,serif" font-size="14.00">0.43</text>
</g>
<!-- x2(t&#45;1)&#45;&gt;x3(t) -->
<g id="edge18" class="edge"><title>x2(t&#45;1)&#45;&gt;x3(t)</title>
<path fill="none" stroke="black" d="M204.79,-264.908C196.026,-259.004 186.349,-251.454 179.097,-243 150.752,-209.959 144.632,-198.239 134.097,-156 124.849,-118.919 126.815,-74.4182 129.562,-46.4176"/>
<polygon fill="black" stroke="black" points="133.072,-46.5147 130.673,-36.1951 126.113,-45.7585 133.072,-46.5147"/>
<text text-anchor="middle" x="148.597" y="-144.8" font-family="Times New Roman,serif" font-size="14.00">&#45;0.26</text>
</g>
<!-- x3(t&#45;1) -->
<g id="node9" class="node"><title>x3(t&#45;1)</title>
<ellipse fill="none" stroke="black" cx="565.097" cy="-279" rx="35.194" ry="18"/>
<text text-anchor="middle" x="565.097" y="-275.3" font-family="Times New Roman,serif" font-size="14.00">x3(t&#45;1)</text>
</g>
<!-- x3(t&#45;1)&#45;&gt;x0(t) -->
<g id="edge4" class="edge"><title>x3(t&#45;1)&#45;&gt;x0(t)</title>
<path fill="none" stroke="black" d="M568.626,-260.737C573.413,-231.984 578.233,-174.174 548.097,-141 532.344,-123.66 469.802,-114.015 428.568,-109.427"/>
<polygon fill="black" stroke="black" points="428.898,-105.942 418.585,-108.368 428.16,-112.903 428.898,-105.942"/>
<text text-anchor="middle" x="584.597" y="-188.3" font-family="Times New Roman,serif" font-size="14.00">0.30</text>
</g>
<!-- x3(t&#45;1)&#45;&gt;x1(t) -->
<g id="edge8" class="edge"><title>x3(t&#45;1)&#45;&gt;x1(t)</title>
<path fill="none" stroke="black" d="M535.059,-269.461C479.342,-253.621 360.276,-219.773 301.049,-202.936"/>
<polygon fill="black" stroke="black" points="301.971,-199.56 291.395,-200.192 300.057,-206.293 301.971,-199.56"/>
<text text-anchor="middle" x="448.597" y="-231.8" font-family="Times New Roman,serif" font-size="14.00">&#45;0.33</text>
</g>
<!-- x3(t&#45;1)&#45;&gt;x4(t) -->
<g id="edge21" class="edge"><title>x3(t&#45;1)&#45;&gt;x4(t)</title>
<path fill="none" stroke="black" d="M577.954,-261.935C592.794,-241.324 613.647,-204.579 601.097,-174 575.778,-112.309 512.73,-62.0544 475.954,-36.7574"/>
<polygon fill="black" stroke="black" points="477.897,-33.8465 467.648,-31.1615 473.986,-39.6518 477.897,-33.8465"/>
<text text-anchor="middle" x="605.597" y="-144.8" font-family="Times New Roman,serif" font-size="14.00">0.07</text>
</g>
<!-- x4(t&#45;1) -->
<g id="node10" class="node"><title>x4(t&#45;1)</title>
<ellipse fill="none" stroke="black" cx="35.0969" cy="-279" rx="35.194" ry="18"/>
<text text-anchor="middle" x="35.0969" y="-275.3" font-family="Times New Roman,serif" font-size="14.00">x4(t&#45;1)</text>
</g>
<!-- x4(t&#45;1)&#45;&gt;x1(t) -->
<g id="edge9" class="edge"><title>x4(t&#45;1)&#45;&gt;x1(t)</title>
<path fill="none" stroke="black" d="M60.8154,-266.36C84.7295,-255.736 121.472,-239.921 154.097,-228 179.65,-218.663 209.022,-209.543 231.275,-202.954"/>
<polygon fill="black" stroke="black" points="232.348,-206.287 240.959,-200.113 230.378,-199.57 232.348,-206.287"/>
<text text-anchor="middle" x="166.597" y="-231.8" font-family="Times New Roman,serif" font-size="14.00">0.43</text>
</g>
<!-- x4(t&#45;1)&#45;&gt;x2(t) -->
<g id="edge13" class="edge"><title>x4(t&#45;1)&#45;&gt;x2(t)</title>
<path fill="none" stroke="black" d="M56.2035,-264.602C72.1056,-254.518 94.4538,-240.365 114.097,-228 165.13,-195.875 191.398,-203.065 229.097,-156 259.152,-118.479 231.167,-88.0568 265.097,-54 281.241,-37.7957 305.387,-29.0587 325.671,-24.3664"/>
<polygon fill="black" stroke="black" points="326.481,-27.7729 335.564,-22.318 325.062,-20.9183 326.481,-27.7729"/>
<text text-anchor="middle" x="251.597" y="-144.8" font-family="Times New Roman,serif" font-size="14.00">0.49</text>
</g>
<!-- x4(t&#45;1)&#45;&gt;x3(t) -->
<g id="edge19" class="edge"><title>x4(t&#45;1)&#45;&gt;x3(t)</title>
<path fill="none" stroke="black" d="M27.5,-261.251C25.3009,-255.578 23.1976,-249.125 22.0969,-243 17.5488,-217.693 5.32979,-212.268 26.0969,-141 39.0291,-96.6193 49.4983,-85.7494 83.0969,-54 89.6287,-47.8277 97.3204,-41.9036 104.687,-36.7407"/>
<polygon fill="black" stroke="black" points="106.768,-39.5584 113.095,-31.0603 102.85,-33.7579 106.768,-39.5584"/>
<text text-anchor="middle" x="40.5969" y="-144.8" font-family="Times New Roman,serif" font-size="14.00">&#45;0.16</text>
</g>
</g>
</svg>
