<?xml version="1.0" encoding="UTF-8" standalone="no"?>
<!DOCTYPE svg PUBLIC "-//W3C//DTD SVG 1.1//EN"
 "http://www.w3.org/Graphics/SVG/1.1/DTD/svg11.dtd">
<!-- Generated by graphviz version 2.43.0 (0)
 -->
<!-- Title: %3 Pages: 1 -->
<svg width="614pt" height="305pt"
 viewBox="0.00 0.00 613.60 305.00" xmlns="http://www.w3.org/2000/svg" xmlns:xlink="http://www.w3.org/1999/xlink">
<g id="graph0" class="graph" transform="scale(1 1) rotate(0) translate(4 301)">
<title>%3</title>
<polygon fill="white" stroke="transparent" points="-4,4 -4,-301 609.6,-301 609.6,4 -4,4"/>
<!-- x0(t) -->
<g id="node1" class="node">
<title>x0(t)</title>
<ellipse fill="none" stroke="black" cx="235.6" cy="-105" rx="32.49" ry="18"/>
<text text-anchor="middle" x="235.6" y="-101.3" font-family="Times,serif" font-size="14.00">x0(t)</text>
</g>
<!-- x2(t) -->
<g id="node3" class="node">
<title>x2(t)</title>
<ellipse fill="none" stroke="black" cx="115.6" cy="-18" rx="32.49" ry="18"/>
<text text-anchor="middle" x="115.6" y="-14.3" font-family="Times,serif" font-size="14.00">x2(t)</text>
</g>
<!-- x0(t)&#45;&gt;x2(t) -->
<g id="edge9" class="edge">
<title>x0(t)&#45;&gt;x2(t)</title>
<path fill="none" stroke="black" d="M216.32,-90.34C196.55,-76.34 165.61,-54.43 143.24,-38.58"/>
<polygon fill="black" stroke="black" points="145.01,-35.55 134.83,-32.62 140.97,-41.26 145.01,-35.55"/>
<text text-anchor="middle" x="201.1" y="-57.8" font-family="Times,serif" font-size="14.00">&#45;0.48</text>
</g>
<!-- x3(t) -->
<g id="node4" class="node">
<title>x3(t)</title>
<ellipse fill="none" stroke="black" cx="425.6" cy="-18" rx="32.49" ry="18"/>
<text text-anchor="middle" x="425.6" y="-14.3" font-family="Times,serif" font-size="14.00">x3(t)</text>
</g>
<!-- x0(t)&#45;&gt;x3(t) -->
<g id="edge13" class="edge">
<title>x0(t)&#45;&gt;x3(t)</title>
<path fill="none" stroke="black" d="M249.32,-88.29C259.84,-77.17 275.29,-62.75 291.6,-54 320.53,-38.48 356.73,-29.56 384.2,-24.62"/>
<polygon fill="black" stroke="black" points="385,-28.03 394.27,-22.91 383.83,-21.13 385,-28.03"/>
<text text-anchor="middle" x="307.6" y="-57.8" font-family="Times,serif" font-size="14.00">0.07</text>
</g>
<!-- x4(t) -->
<g id="node5" class="node">
<title>x4(t)</title>
<ellipse fill="none" stroke="black" cx="235.6" cy="-18" rx="32.49" ry="18"/>
<text text-anchor="middle" x="235.6" y="-14.3" font-family="Times,serif" font-size="14.00">x4(t)</text>
</g>
<!-- x0(t)&#45;&gt;x4(t) -->
<g id="edge19" class="edge">
<title>x0(t)&#45;&gt;x4(t)</title>
<path fill="none" stroke="black" d="M235.6,-86.8C235.6,-75.16 235.6,-59.55 235.6,-46.24"/>
<polygon fill="black" stroke="black" points="239.1,-46.18 235.6,-36.18 232.1,-46.18 239.1,-46.18"/>
<text text-anchor="middle" x="251.6" y="-57.8" font-family="Times,serif" font-size="14.00">0.17</text>
</g>
<!-- x1(t) -->
<g id="node2" class="node">
<title>x1(t)</title>
<ellipse fill="none" stroke="black" cx="231.6" cy="-192" rx="32.49" ry="18"/>
<text text-anchor="middle" x="231.6" y="-188.3" font-family="Times,serif" font-size="14.00">x1(t)</text>
</g>
<!-- x1(t)&#45;&gt;x0(t) -->
<g id="edge1" class="edge">
<title>x1(t)&#45;&gt;x0(t)</title>
<path fill="none" stroke="black" d="M231.66,-173.87C231.77,-164.21 232.02,-151.92 232.6,-141 232.73,-138.44 232.9,-135.78 233.1,-133.12"/>
<polygon fill="black" stroke="black" points="236.59,-133.32 233.91,-123.07 229.61,-132.76 236.59,-133.32"/>
<text text-anchor="middle" x="251.1" y="-144.8" font-family="Times,serif" font-size="14.00">&#45;0.14</text>
</g>
<!-- x1(t)&#45;&gt;x3(t) -->
<g id="edge14" class="edge">
<title>x1(t)&#45;&gt;x3(t)</title>
<path fill="none" stroke="black" d="M248.14,-176.34C282.43,-145.93 361.39,-75.92 401.41,-40.44"/>
<polygon fill="black" stroke="black" points="403.94,-42.88 409.1,-33.63 399.29,-37.64 403.94,-42.88"/>
<text text-anchor="middle" x="366.1" y="-101.3" font-family="Times,serif" font-size="14.00">&#45;0.21</text>
</g>
<!-- x0(t&#45;1) -->
<g id="node6" class="node">
<title>x0(t&#45;1)</title>
<ellipse fill="none" stroke="black" cx="392.6" cy="-192" rx="41.69" ry="18"/>
<text text-anchor="middle" x="392.6" y="-188.3" font-family="Times,serif" font-size="14.00">x0(t&#45;1)</text>
</g>
<!-- x0(t&#45;1)&#45;&gt;x0(t) -->
<g id="edge2" class="edge">
<title>x0(t&#45;1)&#45;&gt;x0(t)</title>
<path fill="none" stroke="black" d="M371.41,-176.16C351.82,-162.5 324.96,-143.91 319.6,-141 304.45,-132.77 286.96,-125.2 271.87,-119.22"/>
<polygon fill="black" stroke="black" points="272.94,-115.88 262.35,-115.53 270.41,-122.41 272.94,-115.88"/>
<text text-anchor="middle" x="359.1" y="-144.8" font-family="Times,serif" font-size="14.00">&#45;0.36</text>
</g>
<!-- x0(t&#45;1)&#45;&gt;x3(t) -->
<g id="edge15" class="edge">
<title>x0(t&#45;1)&#45;&gt;x3(t)</title>
<path fill="none" stroke="black" d="M394.44,-173.96C396.82,-153.28 401.4,-117.39 407.6,-87 410.4,-73.26 414.31,-58.16 417.77,-45.69"/>
<polygon fill="black" stroke="black" points="421.18,-46.49 420.53,-35.92 414.44,-44.59 421.18,-46.49"/>
<text text-anchor="middle" x="426.1" y="-101.3" font-family="Times,serif" font-size="14.00">&#45;0.39</text>
</g>
<!-- x1(t&#45;1) -->
<g id="node7" class="node">
<title>x1(t&#45;1)</title>
<ellipse fill="none" stroke="black" cx="504.6" cy="-279" rx="41.69" ry="18"/>
<text text-anchor="middle" x="504.6" y="-275.3" font-family="Times,serif" font-size="14.00">x1(t&#45;1)</text>
</g>
<!-- x1(t&#45;1)&#45;&gt;x1(t) -->
<g id="edge5" class="edge">
<title>x1(t&#45;1)&#45;&gt;x1(t)</title>
<path fill="none" stroke="black" d="M470.72,-268.44C426.36,-255.77 346.28,-232.4 278.6,-210 275.01,-208.81 271.28,-207.54 267.56,-206.24"/>
<polygon fill="black" stroke="black" points="268.45,-202.84 257.86,-202.79 266.11,-209.43 268.45,-202.84"/>
<text text-anchor="middle" x="401.1" y="-231.8" font-family="Times,serif" font-size="14.00">&#45;0.34</text>
</g>
<!-- x1(t&#45;1)&#45;&gt;x3(t) -->
<g id="edge16" class="edge">
<title>x1(t&#45;1)&#45;&gt;x3(t)</title>
<path fill="none" stroke="black" d="M519.76,-261.87C524.41,-256.24 529.2,-249.65 532.6,-243 570.79,-168.18 590.58,-114.78 532.6,-54 515.82,-36.42 490.11,-27.66 468.09,-23.3"/>
<polygon fill="black" stroke="black" points="468.41,-19.8 457.96,-21.54 467.22,-26.7 468.41,-19.8"/>
<text text-anchor="middle" x="587.1" y="-144.8" font-family="Times,serif" font-size="14.00">&#45;0.10</text>
</g>
<!-- x2(t&#45;1) -->
<g id="node8" class="node">
<title>x2(t&#45;1)</title>
<ellipse fill="none" stroke="black" cx="330.6" cy="-279" rx="41.69" ry="18"/>
<text text-anchor="middle" x="330.6" y="-275.3" font-family="Times,serif" font-size="14.00">x2(t&#45;1)</text>
</g>
<!-- x2(t&#45;1)&#45;&gt;x0(t) -->
<g id="edge3" class="edge">
<title>x2(t&#45;1)&#45;&gt;x0(t)</title>
<path fill="none" stroke="black" d="M350.48,-262.85C361.22,-252.79 370.76,-239.39 362.6,-228 348.11,-207.78 328.48,-226.19 309.6,-210 283.33,-187.49 294.63,-168.46 273.6,-141 269.89,-136.16 265.48,-131.43 261,-127.09"/>
<polygon fill="black" stroke="black" points="263.22,-124.38 253.49,-120.19 258.49,-129.54 263.22,-124.38"/>
<text text-anchor="middle" x="325.6" y="-188.3" font-family="Times,serif" font-size="14.00">0.07</text>
</g>
<!-- x2(t&#45;1)&#45;&gt;x1(t) -->
<g id="edge6" class="edge">
<title>x2(t&#45;1)&#45;&gt;x1(t)</title>
<path fill="none" stroke="black" d="M301.5,-266.05C289.54,-260.23 276.07,-252.44 265.6,-243 257.84,-236.01 250.98,-226.9 245.49,-218.38"/>
<polygon fill="black" stroke="black" points="248.47,-216.55 240.28,-209.83 242.49,-220.19 248.47,-216.55"/>
<text text-anchor="middle" x="284.1" y="-231.8" font-family="Times,serif" font-size="14.00">&#45;0.15</text>
</g>
<!-- x2(t&#45;1)&#45;&gt;x2(t) -->
<g id="edge10" class="edge">
<title>x2(t&#45;1)&#45;&gt;x2(t)</title>
<path fill="none" stroke="black" d="M292.6,-271.47C249.78,-263.78 184.98,-251.04 176.6,-243 148.22,-215.8 127.67,-100 119.5,-46.41"/>
<polygon fill="black" stroke="black" points="122.92,-45.65 117.98,-36.27 116,-46.68 122.92,-45.65"/>
<text text-anchor="middle" x="157.6" y="-144.8" font-family="Times,serif" font-size="14.00">0.42</text>
</g>
<!-- x2(t&#45;1)&#45;&gt;x3(t) -->
<g id="edge17" class="edge">
<title>x2(t&#45;1)&#45;&gt;x3(t)</title>
<path fill="none" stroke="black" d="M366.49,-269.66C399.28,-260.31 447.03,-242.07 476.6,-210 523.61,-159.01 511.75,-111.24 472.6,-54 468.25,-47.65 462.37,-42 456.25,-37.18"/>
<polygon fill="black" stroke="black" points="458.02,-34.15 447.86,-31.15 453.93,-39.83 458.02,-34.15"/>
<text text-anchor="middle" x="525.1" y="-144.8" font-family="Times,serif" font-size="14.00">&#45;0.27</text>
</g>
<!-- x3(t&#45;1) -->
<g id="node9" class="node">
<title>x3(t&#45;1)</title>
<ellipse fill="none" stroke="black" cx="41.6" cy="-279" rx="41.69" ry="18"/>
<text text-anchor="middle" x="41.6" y="-275.3" font-family="Times,serif" font-size="14.00">x3(t&#45;1)</text>
</g>
<!-- x3(t&#45;1)&#45;&gt;x0(t) -->
<g id="edge4" class="edge">
<title>x3(t&#45;1)&#45;&gt;x0(t)</title>
<path fill="none" stroke="black" d="M58.09,-262.18C80.26,-241.2 121.2,-203.39 158.6,-174 169.65,-165.32 173.76,-164.95 184.6,-156 194.65,-147.69 205.05,-137.77 213.82,-128.96"/>
<polygon fill="black" stroke="black" points="216.56,-131.17 221.05,-121.58 211.56,-126.27 216.56,-131.17"/>
<text text-anchor="middle" x="174.6" y="-188.3" font-family="Times,serif" font-size="14.00">0.30</text>
</g>
<!-- x3(t&#45;1)&#45;&gt;x1(t) -->
<g id="edge7" class="edge">
<title>x3(t&#45;1)&#45;&gt;x1(t)</title>
<path fill="none" stroke="black" d="M66.61,-264.29C86.2,-253.78 114.28,-239.23 139.6,-228 157.62,-220 178.08,-212.11 195.12,-205.84"/>
<polygon fill="black" stroke="black" points="196.51,-209.06 204.72,-202.36 194.12,-202.48 196.51,-209.06"/>
<text text-anchor="middle" x="158.1" y="-231.8" font-family="Times,serif" font-size="14.00">&#45;0.34</text>
</g>
<!-- x3(t&#45;1)&#45;&gt;x2(t) -->
<g id="edge11" class="edge">
<title>x3(t&#45;1)&#45;&gt;x2(t)</title>
<path fill="none" stroke="black" d="M42.36,-260.83C43.85,-234.6 48.1,-183.12 59.6,-141 70.66,-100.46 78.33,-91.84 96.6,-54 98.07,-50.95 99.67,-47.78 101.31,-44.66"/>
<polygon fill="black" stroke="black" points="104.54,-46.03 106.18,-35.57 98.37,-42.72 104.54,-46.03"/>
<text text-anchor="middle" x="75.6" y="-144.8" font-family="Times,serif" font-size="14.00">0.11</text>
</g>
<!-- x4(t&#45;1) -->
<g id="node10" class="node">
<title>x4(t&#45;1)</title>
<ellipse fill="none" stroke="black" cx="184.6" cy="-279" rx="41.69" ry="18"/>
<text text-anchor="middle" x="184.6" y="-275.3" font-family="Times,serif" font-size="14.00">x4(t&#45;1)</text>
</g>
<!-- x4(t&#45;1)&#45;&gt;x1(t) -->
<g id="edge8" class="edge">
<title>x4(t&#45;1)&#45;&gt;x1(t)</title>
<path fill="none" stroke="black" d="M181.37,-260.9C180.3,-250.8 180.48,-238.06 185.6,-228 188.97,-221.36 194.26,-215.62 200.07,-210.83"/>
<polygon fill="black" stroke="black" points="202.18,-213.62 208.17,-204.88 198.04,-207.98 202.18,-213.62"/>
<text text-anchor="middle" x="201.6" y="-231.8" font-family="Times,serif" font-size="14.00">0.42</text>
</g>
<!-- x4(t&#45;1)&#45;&gt;x2(t) -->
<g id="edge12" class="edge">
<title>x4(t&#45;1)&#45;&gt;x2(t)</title>
<path fill="none" stroke="black" d="M162.77,-263.65C155.1,-257.88 146.85,-250.75 140.6,-243 113.51,-209.43 107.41,-198 97.6,-156 88.79,-118.3 98.24,-73.69 106.43,-45.86"/>
<polygon fill="black" stroke="black" points="109.85,-46.65 109.46,-36.07 103.16,-44.58 109.85,-46.65"/>
<text text-anchor="middle" x="113.6" y="-144.8" font-family="Times,serif" font-size="14.00">0.49</text>
</g>
<!-- x4(t&#45;1)&#45;&gt;x3(t) -->
<g id="edge18" class="edge">
<title>x4(t&#45;1)&#45;&gt;x3(t)</title>
<path fill="none" stroke="black" d="M199.5,-261.96C211.33,-250.37 228.93,-235.48 247.6,-228 288.2,-211.73 413.93,-242.14 443.6,-210 480.67,-169.83 452.02,-141.16 444.6,-87 442.68,-73.05 438.66,-57.93 434.81,-45.5"/>
<polygon fill="black" stroke="black" points="438.07,-44.21 431.67,-35.78 431.41,-46.37 438.07,-44.21"/>
<text text-anchor="middle" x="479.1" y="-144.8" font-family="Times,serif" font-size="14.00">&#45;0.16</text>
</g>
</g>
</svg>
