<?xml version="1.0" encoding="UTF-8" standalone="no"?>
<!DOCTYPE svg PUBLIC "-//W3C//DTD SVG 1.1//EN"
 "http://www.w3.org/Graphics/SVG/1.1/DTD/svg11.dtd">
<!-- Generated by graphviz version 2.43.0 (0)
 -->
<!-- Title: %3 Pages: 1 -->
<svg width="667pt" height="218pt"
 viewBox="0.00 0.00 667.19 218.00" xmlns="http://www.w3.org/2000/svg" xmlns:xlink="http://www.w3.org/1999/xlink">
<g id="graph0" class="graph" transform="scale(1 1) rotate(0) translate(4 214)">
<title>%3</title>
<polygon fill="white" stroke="transparent" points="-4,4 -4,-214 663.19,-214 663.19,4 -4,4"/>
<!-- y0(t) -->
<g id="node1" class="node">
<title>y0(t)</title>
<ellipse fill="none" stroke="black" cx="141.6" cy="-105" rx="32.49" ry="18"/>
<text text-anchor="middle" x="141.6" y="-101.3" font-family="Times,serif" font-size="14.00">y0(t)</text>
</g>
<!-- y1(t) -->
<g id="node2" class="node">
<title>y1(t)</title>
<ellipse fill="none" stroke="black" cx="321.6" cy="-18" rx="32.49" ry="18"/>
<text text-anchor="middle" x="321.6" y="-14.3" font-family="Times,serif" font-size="14.00">y1(t)</text>
</g>
<!-- y0(t)&#45;&gt;y1(t) -->
<g id="edge4" class="edge">
<title>y0(t)&#45;&gt;y1(t)</title>
<path fill="none" stroke="black" d="M165.5,-92.71C196.97,-77.85 252.46,-51.65 288.11,-34.82"/>
<polygon fill="black" stroke="black" points="290.05,-37.77 297.59,-30.33 287.06,-31.44 290.05,-37.77"/>
<text text-anchor="middle" x="260.1" y="-57.8" font-family="Times,serif" font-size="14.00">&#45;0.35</text>
</g>
<!-- y3(t) -->
<g id="node4" class="node">
<title>y3(t)</title>
<ellipse fill="none" stroke="black" cx="141.6" cy="-18" rx="32.49" ry="18"/>
<text text-anchor="middle" x="141.6" y="-14.3" font-family="Times,serif" font-size="14.00">y3(t)</text>
</g>
<!-- y0(t)&#45;&gt;y3(t) -->
<g id="edge7" class="edge">
<title>y0(t)&#45;&gt;y3(t)</title>
<path fill="none" stroke="black" d="M141.6,-86.8C141.6,-75.16 141.6,-59.55 141.6,-46.24"/>
<polygon fill="black" stroke="black" points="145.1,-46.18 141.6,-36.18 138.1,-46.18 145.1,-46.18"/>
<text text-anchor="middle" x="157.6" y="-57.8" font-family="Times,serif" font-size="14.00">0.56</text>
</g>
<!-- y2(t) -->
<g id="node3" class="node">
<title>y2(t)</title>
<ellipse fill="none" stroke="black" cx="525.6" cy="-192" rx="32.49" ry="18"/>
<text text-anchor="middle" x="525.6" y="-188.3" font-family="Times,serif" font-size="14.00">y2(t)</text>
</g>
<!-- y4(t) -->
<g id="node5" class="node">
<title>y4(t)</title>
<ellipse fill="none" stroke="black" cx="403.6" cy="-105" rx="32.49" ry="18"/>
<text text-anchor="middle" x="403.6" y="-101.3" font-family="Times,serif" font-size="14.00">y4(t)</text>
</g>
<!-- y0(t&#45;1) -->
<g id="node6" class="node">
<title>y0(t&#45;1)</title>
<ellipse fill="none" stroke="black" cx="433.6" cy="-192" rx="41.69" ry="18"/>
<text text-anchor="middle" x="433.6" y="-188.3" font-family="Times,serif" font-size="14.00">y0(t&#45;1)</text>
</g>
<!-- y0(t&#45;1)&#45;&gt;y1(t) -->
<g id="edge5" class="edge">
<title>y0(t&#45;1)&#45;&gt;y1(t)</title>
<path fill="none" stroke="black" d="M447.55,-174.99C451.6,-169.37 455.5,-162.76 457.6,-156 464.25,-134.54 450.33,-94.52 444.6,-87 423.33,-59.08 387.13,-41.07 359.49,-30.64"/>
<polygon fill="black" stroke="black" points="360.34,-27.23 349.74,-27.14 357.97,-33.82 360.34,-27.23"/>
<text text-anchor="middle" x="475.1" y="-101.3" font-family="Times,serif" font-size="14.00">&#45;0.30</text>
</g>
<!-- y0(t&#45;1)&#45;&gt;y4(t) -->
<g id="edge10" class="edge">
<title>y0(t&#45;1)&#45;&gt;y4(t)</title>
<path fill="none" stroke="black" d="M427.15,-173.94C425.03,-168.25 422.68,-161.86 420.6,-156 417.94,-148.52 415.13,-140.37 412.58,-132.87"/>
<polygon fill="black" stroke="black" points="415.82,-131.52 409.3,-123.17 409.18,-133.76 415.82,-131.52"/>
<text text-anchor="middle" x="439.1" y="-144.8" font-family="Times,serif" font-size="14.00">&#45;0.51</text>
</g>
<!-- y1(t&#45;1) -->
<g id="node7" class="node">
<title>y1(t&#45;1)</title>
<ellipse fill="none" stroke="black" cx="41.6" cy="-192" rx="41.69" ry="18"/>
<text text-anchor="middle" x="41.6" y="-188.3" font-family="Times,serif" font-size="14.00">y1(t&#45;1)</text>
</g>
<!-- y1(t&#45;1)&#45;&gt;y0(t) -->
<g id="edge1" class="edge">
<title>y1(t&#45;1)&#45;&gt;y0(t)</title>
<path fill="none" stroke="black" d="M59.94,-175.41C75.88,-161.86 99.11,-142.11 116.72,-127.14"/>
<polygon fill="black" stroke="black" points="119.02,-129.78 124.37,-120.64 114.49,-124.45 119.02,-129.78"/>
<text text-anchor="middle" x="116.1" y="-144.8" font-family="Times,serif" font-size="14.00">&#45;0.39</text>
</g>
<!-- y1(t&#45;1)&#45;&gt;y3(t) -->
<g id="edge8" class="edge">
<title>y1(t&#45;1)&#45;&gt;y3(t)</title>
<path fill="none" stroke="black" d="M43.1,-173.66C45.63,-152.03 52.17,-114.56 68.6,-87 79.97,-67.92 98.27,-50.89 113.7,-38.64"/>
<polygon fill="black" stroke="black" points="116.1,-41.21 121.91,-32.35 111.85,-35.65 116.1,-41.21"/>
<text text-anchor="middle" x="84.6" y="-101.3" font-family="Times,serif" font-size="14.00">0.76</text>
</g>
<!-- y2(t&#45;1) -->
<g id="node8" class="node">
<title>y2(t&#45;1)</title>
<ellipse fill="none" stroke="black" cx="142.6" cy="-192" rx="41.69" ry="18"/>
<text text-anchor="middle" x="142.6" y="-188.3" font-family="Times,serif" font-size="14.00">y2(t&#45;1)</text>
</g>
<!-- y2(t&#45;1)&#45;&gt;y0(t) -->
<g id="edge2" class="edge">
<title>y2(t&#45;1)&#45;&gt;y0(t)</title>
<path fill="none" stroke="black" d="M142.39,-173.8C142.26,-162.16 142.07,-146.55 141.92,-133.24"/>
<polygon fill="black" stroke="black" points="145.42,-133.13 141.8,-123.18 138.42,-133.22 145.42,-133.13"/>
<text text-anchor="middle" x="160.1" y="-144.8" font-family="Times,serif" font-size="14.00">&#45;0.51</text>
</g>
<!-- y3(t&#45;1) -->
<g id="node9" class="node">
<title>y3(t&#45;1)</title>
<ellipse fill="none" stroke="black" cx="617.6" cy="-192" rx="41.69" ry="18"/>
<text text-anchor="middle" x="617.6" y="-188.3" font-family="Times,serif" font-size="14.00">y3(t&#45;1)</text>
</g>
<!-- y4(t&#45;1) -->
<g id="node10" class="node">
<title>y4(t&#45;1)</title>
<ellipse fill="none" stroke="black" cx="303.6" cy="-192" rx="41.69" ry="18"/>
<text text-anchor="middle" x="303.6" y="-188.3" font-family="Times,serif" font-size="14.00">y4(t&#45;1)</text>
</g>
<!-- y4(t&#45;1)&#45;&gt;y0(t) -->
<g id="edge3" class="edge">
<title>y4(t&#45;1)&#45;&gt;y0(t)</title>
<path fill="none" stroke="black" d="M268.64,-182.2C248.58,-176.35 223.33,-167.6 202.6,-156 188.94,-148.36 175.32,-137.58 164.43,-127.98"/>
<polygon fill="black" stroke="black" points="166.78,-125.39 157.02,-121.27 162.08,-130.57 166.78,-125.39"/>
<text text-anchor="middle" x="218.6" y="-144.8" font-family="Times,serif" font-size="14.00">0.66</text>
</g>
<!-- y4(t&#45;1)&#45;&gt;y1(t) -->
<g id="edge6" class="edge">
<title>y4(t&#45;1)&#45;&gt;y1(t)</title>
<path fill="none" stroke="black" d="M305.39,-173.88C308.51,-144 314.99,-82.11 318.74,-46.27"/>
<polygon fill="black" stroke="black" points="322.25,-46.36 319.81,-36.05 315.29,-45.63 322.25,-46.36"/>
<text text-anchor="middle" x="329.6" y="-101.3" font-family="Times,serif" font-size="14.00">0.40</text>
</g>
<!-- y4(t&#45;1)&#45;&gt;y3(t) -->
<g id="edge9" class="edge">
<title>y4(t&#45;1)&#45;&gt;y3(t)</title>
<path fill="none" stroke="black" d="M295.22,-174.28C276.98,-137.86 235.22,-54.56 234.6,-54 220.01,-40.89 200.04,-32.52 182.34,-27.27"/>
<polygon fill="black" stroke="black" points="182.81,-23.77 172.24,-24.52 180.97,-30.52 182.81,-23.77"/>
<text text-anchor="middle" x="287.1" y="-101.3" font-family="Times,serif" font-size="14.00">&#45;0.82</text>
</g>
<!-- y4(t&#45;1)&#45;&gt;y4(t) -->
<g id="edge11" class="edge">
<title>y4(t&#45;1)&#45;&gt;y4(t)</title>
<path fill="none" stroke="black" d="M321.94,-175.41C337.88,-161.86 361.11,-142.11 378.72,-127.14"/>
<polygon fill="black" stroke="black" points="381.02,-129.78 386.37,-120.64 376.49,-124.45 381.02,-129.78"/>
<text text-anchor="middle" x="374.6" y="-144.8" font-family="Times,serif" font-size="14.00">0.34</text>
</g>
</g>
</svg>
